%TF.GenerationSoftware,KiCad,Pcbnew,(6.0.5-0)*%
%TF.CreationDate,2022-07-11T15:01:11+02:00*%
%TF.ProjectId,ESP32-C3_breakout,45535033-322d-4433-935f-627265616b6f,rev?*%
%TF.SameCoordinates,Original*%
%TF.FileFunction,Copper,L1,Top*%
%TF.FilePolarity,Positive*%
%FSLAX46Y46*%
G04 Gerber Fmt 4.6, Leading zero omitted, Abs format (unit mm)*
G04 Created by KiCad (PCBNEW (6.0.5-0)) date 2022-07-11 15:01:11*
%MOMM*%
%LPD*%
G01*
G04 APERTURE LIST*
G04 Aperture macros list*
%AMRoundRect*
0 Rectangle with rounded corners*
0 $1 Rounding radius*
0 $2 $3 $4 $5 $6 $7 $8 $9 X,Y pos of 4 corners*
0 Add a 4 corners polygon primitive as box body*
4,1,4,$2,$3,$4,$5,$6,$7,$8,$9,$2,$3,0*
0 Add four circle primitives for the rounded corners*
1,1,$1+$1,$2,$3*
1,1,$1+$1,$4,$5*
1,1,$1+$1,$6,$7*
1,1,$1+$1,$8,$9*
0 Add four rect primitives between the rounded corners*
20,1,$1+$1,$2,$3,$4,$5,0*
20,1,$1+$1,$4,$5,$6,$7,0*
20,1,$1+$1,$6,$7,$8,$9,0*
20,1,$1+$1,$8,$9,$2,$3,0*%
%AMRotRect*
0 Rectangle, with rotation*
0 The origin of the aperture is its center*
0 $1 length*
0 $2 width*
0 $3 Rotation angle, in degrees counterclockwise*
0 Add horizontal line*
21,1,$1,$2,0,0,$3*%
G04 Aperture macros list end*
%TA.AperFunction,NonConductor*%
%ADD10C,0.200000*%
%TD*%
%TA.AperFunction,SMDPad,CuDef*%
%ADD11RoundRect,0.200000X-0.200000X-0.275000X0.200000X-0.275000X0.200000X0.275000X-0.200000X0.275000X0*%
%TD*%
%TA.AperFunction,SMDPad,CuDef*%
%ADD12R,1.050000X0.650000*%
%TD*%
%TA.AperFunction,SMDPad,CuDef*%
%ADD13RoundRect,0.225000X-0.250000X0.225000X-0.250000X-0.225000X0.250000X-0.225000X0.250000X0.225000X0*%
%TD*%
%TA.AperFunction,SMDPad,CuDef*%
%ADD14R,0.700000X0.510000*%
%TD*%
%TA.AperFunction,SMDPad,CuDef*%
%ADD15RotRect,0.900000X0.800000X135.000000*%
%TD*%
%TA.AperFunction,SMDPad,CuDef*%
%ADD16RoundRect,0.200000X0.275000X-0.200000X0.275000X0.200000X-0.275000X0.200000X-0.275000X-0.200000X0*%
%TD*%
%TA.AperFunction,SMDPad,CuDef*%
%ADD17RoundRect,0.225000X-0.225000X-0.250000X0.225000X-0.250000X0.225000X0.250000X-0.225000X0.250000X0*%
%TD*%
%TA.AperFunction,SMDPad,CuDef*%
%ADD18RoundRect,0.225000X-0.335876X-0.017678X-0.017678X-0.335876X0.335876X0.017678X0.017678X0.335876X0*%
%TD*%
%TA.AperFunction,SMDPad,CuDef*%
%ADD19RoundRect,0.225000X0.250000X-0.225000X0.250000X0.225000X-0.250000X0.225000X-0.250000X-0.225000X0*%
%TD*%
%TA.AperFunction,SMDPad,CuDef*%
%ADD20RoundRect,0.200000X0.200000X0.275000X-0.200000X0.275000X-0.200000X-0.275000X0.200000X-0.275000X0*%
%TD*%
%TA.AperFunction,SMDPad,CuDef*%
%ADD21R,2.000000X1.500000*%
%TD*%
%TA.AperFunction,SMDPad,CuDef*%
%ADD22R,2.000000X3.800000*%
%TD*%
%TA.AperFunction,SMDPad,CuDef*%
%ADD23RoundRect,0.225000X0.017678X-0.335876X0.335876X-0.017678X-0.017678X0.335876X-0.335876X0.017678X0*%
%TD*%
%TA.AperFunction,ConnectorPad*%
%ADD24R,0.500000X0.500000*%
%TD*%
%TA.AperFunction,SMDPad,CuDef*%
%ADD25R,0.500000X0.630000*%
%TD*%
%TA.AperFunction,SMDPad,CuDef*%
%ADD26RoundRect,0.218750X0.026517X-0.335876X0.335876X-0.026517X-0.026517X0.335876X-0.335876X0.026517X0*%
%TD*%
%TA.AperFunction,SMDPad,CuDef*%
%ADD27RoundRect,0.062500X0.220971X0.309359X-0.309359X-0.220971X-0.220971X-0.309359X0.309359X0.220971X0*%
%TD*%
%TA.AperFunction,SMDPad,CuDef*%
%ADD28RoundRect,0.062500X-0.220971X0.309359X-0.309359X0.220971X0.220971X-0.309359X0.309359X-0.220971X0*%
%TD*%
%TA.AperFunction,SMDPad,CuDef*%
%ADD29RotRect,3.450000X3.450000X225.000000*%
%TD*%
%TA.AperFunction,SMDPad,CuDef*%
%ADD30RoundRect,0.225000X-0.017678X0.335876X-0.335876X0.017678X0.017678X-0.335876X0.335876X-0.017678X0*%
%TD*%
%TA.AperFunction,SMDPad,CuDef*%
%ADD31RoundRect,0.225000X0.225000X0.250000X-0.225000X0.250000X-0.225000X-0.250000X0.225000X-0.250000X0*%
%TD*%
%TA.AperFunction,SMDPad,CuDef*%
%ADD32R,1.150000X0.600000*%
%TD*%
%TA.AperFunction,SMDPad,CuDef*%
%ADD33R,1.150000X0.300000*%
%TD*%
%TA.AperFunction,ComponentPad*%
%ADD34O,2.100000X1.050000*%
%TD*%
%TA.AperFunction,ComponentPad*%
%ADD35O,2.000000X1.000000*%
%TD*%
%TA.AperFunction,ComponentPad*%
%ADD36R,1.700000X1.700000*%
%TD*%
%TA.AperFunction,ComponentPad*%
%ADD37O,1.700000X1.700000*%
%TD*%
%TA.AperFunction,ViaPad*%
%ADD38C,0.800000*%
%TD*%
%TA.AperFunction,Conductor*%
%ADD39C,0.250000*%
%TD*%
%TA.AperFunction,Conductor*%
%ADD40C,0.600000*%
%TD*%
%TA.AperFunction,Conductor*%
%ADD41C,0.200000*%
%TD*%
%TA.AperFunction,Conductor*%
%ADD42C,1.040210*%
%TD*%
G04 APERTURE END LIST*
D10*
G36*
X190133536Y-67189003D02*
G01*
X189073536Y-67619003D01*
X188713536Y-67619003D01*
X188713536Y-66779003D01*
X189073536Y-66779003D01*
X190133536Y-67189003D01*
G37*
X190133536Y-67189003D02*
X189073536Y-67619003D01*
X188713536Y-67619003D01*
X188713536Y-66779003D01*
X189073536Y-66779003D01*
X190133536Y-67189003D01*
G36*
X183077602Y-70434552D02*
G01*
X182778000Y-70724000D01*
X181948000Y-70964000D01*
X182228000Y-70094000D01*
X182478000Y-69844000D01*
X183077602Y-70434552D01*
G37*
X183077602Y-70434552D02*
X182778000Y-70724000D01*
X181948000Y-70964000D01*
X182228000Y-70094000D01*
X182478000Y-69844000D01*
X183077602Y-70434552D01*
%TO.C,AE1*%
G36*
X195142000Y-69632000D02*
G01*
X192442000Y-69632000D01*
X192442000Y-71632000D01*
X195142000Y-71632000D01*
X195142000Y-74432000D01*
X192442000Y-74432000D01*
X192442000Y-76432000D01*
X195142000Y-76432000D01*
X195142000Y-79132000D01*
X190472000Y-79132000D01*
X190472000Y-78632000D01*
X194642000Y-78632000D01*
X194642000Y-76932000D01*
X191942000Y-76932000D01*
X191942000Y-73932000D01*
X194642000Y-73932000D01*
X194642000Y-72132000D01*
X191942000Y-72132000D01*
X191942000Y-69132000D01*
X194642000Y-69132000D01*
X194642000Y-67432000D01*
X189732000Y-67432000D01*
X189732000Y-66932000D01*
X194642000Y-66932000D01*
X194642000Y-65262000D01*
X189732000Y-65262000D01*
X189732000Y-65056844D01*
X189845957Y-65056844D01*
X189846700Y-65105363D01*
X189859600Y-65150878D01*
X189870213Y-65169489D01*
X189905447Y-65203132D01*
X189950632Y-65223691D01*
X190000158Y-65230222D01*
X190048417Y-65221782D01*
X190080643Y-65204888D01*
X190113313Y-65169628D01*
X190133408Y-65124318D01*
X190139982Y-65074733D01*
X190132092Y-65026647D01*
X190115186Y-64993755D01*
X190078416Y-64958815D01*
X190033622Y-64939153D01*
X189985215Y-64934417D01*
X189937605Y-64944258D01*
X189895203Y-64968326D01*
X189862419Y-65006269D01*
X189858065Y-65014181D01*
X189845957Y-65056844D01*
X189732000Y-65056844D01*
X189732000Y-64632000D01*
X195142000Y-64632000D01*
X195142000Y-69632000D01*
G37*
%TD*%
D11*
%TO.P,R3,1*%
%TO.N,Net-(J1-PadB5)*%
X160211000Y-74422000D03*
%TO.P,R3,2*%
%TO.N,GND*%
X161861000Y-74422000D03*
%TD*%
D12*
%TO.P,SW2,1,1*%
%TO.N,/BOOT*%
X151849000Y-62933000D03*
X155999000Y-62933000D03*
%TO.P,SW2,2,2*%
%TO.N,GND*%
X151849000Y-65083000D03*
X155999000Y-65083000D03*
%TD*%
D13*
%TO.P,C11,1*%
%TO.N,+3V3*%
X172974000Y-73139000D03*
%TO.P,C11,2*%
%TO.N,GND*%
X172974000Y-74689000D03*
%TD*%
D14*
%TO.P,IC1,1,VBUS*%
%TO.N,/USB_+5V*%
X173338000Y-76266000D03*
%TO.P,IC1,2,D(IN)_1*%
%TO.N,/D_N*%
X173338000Y-77216000D03*
%TO.P,IC1,3,D(IN)_2*%
%TO.N,/D_P*%
X173338000Y-78166000D03*
%TO.P,IC1,4,D(OUT)_1*%
%TO.N,/USB_D+*%
X175658000Y-78166000D03*
%TO.P,IC1,5,D(OUT)_2*%
%TO.N,/USB_D-*%
X175658000Y-77216000D03*
%TO.P,IC1,6,GND*%
%TO.N,GND*%
X175658000Y-76266000D03*
%TD*%
D15*
%TO.P,Y1,1,1*%
%TO.N,Net-(C15-Pad1)*%
X183509883Y-75798066D03*
%TO.P,Y1,2,2*%
%TO.N,GND*%
X182519934Y-74808117D03*
%TO.P,Y1,3,3*%
%TO.N,Net-(C14-Pad1)*%
X181742117Y-75585934D03*
%TO.P,Y1,4,4*%
%TO.N,GND*%
X182732066Y-76575883D03*
%TD*%
D16*
%TO.P,R4,1*%
%TO.N,+3V3*%
X173898000Y-68039000D03*
%TO.P,R4,2*%
%TO.N,/GPIO2*%
X173898000Y-66389000D03*
%TD*%
D17*
%TO.P,C4,1*%
%TO.N,/EN*%
X157721000Y-78740000D03*
%TO.P,C4,2*%
%TO.N,GND*%
X159271000Y-78740000D03*
%TD*%
D18*
%TO.P,C13,1*%
%TO.N,/ANT*%
X182712992Y-70190992D03*
%TO.P,C13,2*%
%TO.N,GND*%
X183809008Y-71287008D03*
%TD*%
D19*
%TO.P,C12,1*%
%TO.N,Net-(AE1-Pad1)*%
X187706000Y-67196000D03*
%TO.P,C12,2*%
%TO.N,GND*%
X187706000Y-65646000D03*
%TD*%
D20*
%TO.P,R1,1*%
%TO.N,+3V3*%
X180023000Y-65164000D03*
%TO.P,R1,2*%
%TO.N,/EN*%
X178373000Y-65164000D03*
%TD*%
D21*
%TO.P,U1,1,GND*%
%TO.N,GND*%
X163982000Y-66026000D03*
%TO.P,U1,2,VO*%
%TO.N,+3V3*%
X163982000Y-68326000D03*
D22*
X170282000Y-68326000D03*
D21*
%TO.P,U1,3,VI*%
%TO.N,VDD*%
X163982000Y-70626000D03*
%TD*%
D23*
%TO.P,C9,1*%
%TO.N,+3V3*%
X181567992Y-66470008D03*
%TO.P,C9,2*%
%TO.N,GND*%
X182664008Y-65373992D03*
%TD*%
D13*
%TO.P,C1,1*%
%TO.N,VDD*%
X161798000Y-70345000D03*
%TO.P,C1,2*%
%TO.N,GND*%
X161798000Y-71895000D03*
%TD*%
D23*
%TO.P,C8,1*%
%TO.N,+3V3*%
X182649992Y-67562008D03*
%TO.P,C8,2*%
%TO.N,GND*%
X183746008Y-66465992D03*
%TD*%
D18*
%TO.P,C7,1*%
%TO.N,+3V3*%
X184849992Y-72315992D03*
%TO.P,C7,2*%
%TO.N,GND*%
X185946008Y-73412008D03*
%TD*%
D21*
%TO.P,D1,1,A1*%
%TO.N,/USB_+5V*%
X163982000Y-73138000D03*
%TO.P,D1,2,K*%
%TO.N,VDD*%
X163982000Y-75438000D03*
%TO.P,D1,3,A2*%
%TO.N,/VIN*%
X163982000Y-77738000D03*
D22*
%TO.P,D1,4*%
%TO.N,N/C*%
X170282000Y-75438000D03*
%TD*%
D24*
%TO.P,AE1,1,A*%
%TO.N,Net-(AE1-Pad1)*%
X189982000Y-67182000D03*
D25*
%TO.P,AE1,2,Shield*%
%TO.N,GND*%
X189982000Y-64947000D03*
%TD*%
D26*
%TO.P,L1,1,1*%
%TO.N,/ANT*%
X183791153Y-69170847D03*
%TO.P,L1,2,2*%
%TO.N,Net-(AE1-Pad1)*%
X184904847Y-68057153D03*
%TD*%
D11*
%TO.P,R2,1*%
%TO.N,Net-(J1-PadA5)*%
X160211000Y-76708000D03*
%TO.P,R2,2*%
%TO.N,GND*%
X161861000Y-76708000D03*
%TD*%
D16*
%TO.P,R5,1*%
%TO.N,+3V3*%
X172974000Y-71691000D03*
%TO.P,R5,2*%
%TO.N,/GPIO8*%
X172974000Y-70041000D03*
%TD*%
D27*
%TO.P,U2,1,LNA_IN*%
%TO.N,/ANT*%
X181269010Y-71649864D03*
%TO.P,U2,2,VDD3P3*%
%TO.N,+3V3*%
X180915456Y-71296311D03*
%TO.P,U2,3,VDD3P3*%
X180561903Y-70942757D03*
%TO.P,U2,4,XTAL_32K_P/ADC1_CH0*%
%TO.N,/GPIO0*%
X180208349Y-70589204D03*
%TO.P,U2,5,XTAL_32K_N/ADC1_CH1*%
%TO.N,/GPIO1*%
X179854796Y-70235651D03*
%TO.P,U2,6,GPIO2/ADC1_CH2*%
%TO.N,/GPIO2*%
X179501243Y-69882097D03*
%TO.P,U2,7,CHIP_EN*%
%TO.N,/EN*%
X179147689Y-69528544D03*
%TO.P,U2,8,GPIO3/ADC1_CH3*%
%TO.N,/GPIO3*%
X178794136Y-69174990D03*
D28*
%TO.P,U2,9,MTMS/GPIO4/ADC1_CH4*%
%TO.N,/GPIO4*%
X177821864Y-69174990D03*
%TO.P,U2,10,MTDI/GPIO5/ADC2_CH0*%
%TO.N,/GPIO5*%
X177468311Y-69528544D03*
%TO.P,U2,11,VDD3P3_RTC*%
%TO.N,+3V3*%
X177114757Y-69882097D03*
%TO.P,U2,12,MTCK/GPIO6*%
%TO.N,/GPIO6*%
X176761204Y-70235651D03*
%TO.P,U2,13,MTDO/GPIO7*%
%TO.N,/GPIO7*%
X176407651Y-70589204D03*
%TO.P,U2,14,GPIO8*%
%TO.N,/GPIO8*%
X176054097Y-70942757D03*
%TO.P,U2,15,GPIO9/BOOT*%
%TO.N,/BOOT*%
X175700544Y-71296311D03*
%TO.P,U2,16,GPIO10*%
%TO.N,/GPIO10*%
X175346990Y-71649864D03*
D27*
%TO.P,U2,17,VDD3P3_CPU*%
%TO.N,+3V3*%
X175346990Y-72622136D03*
%TO.P,U2,18,VDD_SPI/GPIO11*%
%TO.N,unconnected-(U2-Pad18)*%
X175700544Y-72975689D03*
%TO.P,U2,19,SPIHD/GPIO12*%
%TO.N,unconnected-(U2-Pad19)*%
X176054097Y-73329243D03*
%TO.P,U2,20,SPIWP/GPIO13*%
%TO.N,unconnected-(U2-Pad20)*%
X176407651Y-73682796D03*
%TO.P,U2,21,SPICS0/GPIO14*%
%TO.N,unconnected-(U2-Pad21)*%
X176761204Y-74036349D03*
%TO.P,U2,22,SPICLK/GPIO15*%
%TO.N,unconnected-(U2-Pad22)*%
X177114757Y-74389903D03*
%TO.P,U2,23,SPID/GPIO16*%
%TO.N,unconnected-(U2-Pad23)*%
X177468311Y-74743456D03*
%TO.P,U2,24,SPIQ/GPIO17*%
%TO.N,unconnected-(U2-Pad24)*%
X177821864Y-75097010D03*
D28*
%TO.P,U2,25,GPIO18/USB_D-*%
%TO.N,/USB_D-*%
X178794136Y-75097010D03*
%TO.P,U2,26,GPIO19/USB_D+*%
%TO.N,/USB_D+*%
X179147689Y-74743456D03*
%TO.P,U2,27,U0RXD/GPIO20*%
%TO.N,/RX*%
X179501243Y-74389903D03*
%TO.P,U2,28,U0TXD/GPIO21*%
%TO.N,/TX*%
X179854796Y-74036349D03*
%TO.P,U2,29,XTAL_N*%
%TO.N,Net-(C14-Pad1)*%
X180208349Y-73682796D03*
%TO.P,U2,30,XTAL_P*%
%TO.N,Net-(C15-Pad1)*%
X180561903Y-73329243D03*
%TO.P,U2,31,VDDA*%
%TO.N,+3V3*%
X180915456Y-72975689D03*
%TO.P,U2,32,VDDA*%
X181269010Y-72622136D03*
D29*
%TO.P,U2,33,GND*%
%TO.N,GND*%
X178308000Y-72136000D03*
%TD*%
D18*
%TO.P,C10,1*%
%TO.N,+3V3*%
X185949992Y-71215992D03*
%TO.P,C10,2*%
%TO.N,GND*%
X187046008Y-72312008D03*
%TD*%
%TO.P,C6,1*%
%TO.N,+3V3*%
X183093992Y-72857992D03*
%TO.P,C6,2*%
%TO.N,GND*%
X184190008Y-73954008D03*
%TD*%
D30*
%TO.P,C15,1*%
%TO.N,Net-(C15-Pad1)*%
X184698008Y-76667992D03*
%TO.P,C15,2*%
%TO.N,GND*%
X183601992Y-77764008D03*
%TD*%
D18*
%TO.P,C14,1*%
%TO.N,Net-(C14-Pad1)*%
X181061992Y-77429992D03*
%TO.P,C14,2*%
%TO.N,GND*%
X182158008Y-78526008D03*
%TD*%
D19*
%TO.P,C3,1*%
%TO.N,+3V3*%
X172348000Y-67989000D03*
%TO.P,C3,2*%
%TO.N,GND*%
X172348000Y-66439000D03*
%TD*%
D12*
%TO.P,SW1,1,1*%
%TO.N,/EN*%
X151849000Y-78681000D03*
X155999000Y-78681000D03*
%TO.P,SW1,2,2*%
%TO.N,GND*%
X151849000Y-80831000D03*
X155999000Y-80831000D03*
%TD*%
D17*
%TO.P,C2,1*%
%TO.N,+3V3*%
X160473000Y-66014000D03*
%TO.P,C2,2*%
%TO.N,GND*%
X162023000Y-66014000D03*
%TD*%
D31*
%TO.P,C5,1*%
%TO.N,/USB_+5V*%
X171323000Y-78814000D03*
%TO.P,C5,2*%
%TO.N,GND*%
X169773000Y-78814000D03*
%TD*%
D32*
%TO.P,J1,A1_B12,GND*%
%TO.N,GND*%
X157663000Y-68682000D03*
%TO.P,J1,A4_B9,VBUS*%
%TO.N,/USB_+5V*%
X157663000Y-69482000D03*
D33*
%TO.P,J1,A5,CC1*%
%TO.N,Net-(J1-PadA5)*%
X157663000Y-70632000D03*
%TO.P,J1,A6,DP1*%
%TO.N,/D_P*%
X157663000Y-71632000D03*
%TO.P,J1,A7,DN1*%
%TO.N,/D_N*%
X157663000Y-72132000D03*
%TO.P,J1,A8,SBU1*%
%TO.N,unconnected-(J1-PadA8)*%
X157663000Y-73132000D03*
D32*
%TO.P,J1,B1_A12,GND*%
%TO.N,GND*%
X157663000Y-75082000D03*
%TO.P,J1,B4_A9,VBUS*%
%TO.N,/USB_+5V*%
X157663000Y-74282000D03*
D33*
%TO.P,J1,B5,CC2*%
%TO.N,Net-(J1-PadB5)*%
X157663000Y-73632000D03*
%TO.P,J1,B6,DP2*%
%TO.N,/D_P*%
X157663000Y-72632000D03*
%TO.P,J1,B7,DN2*%
%TO.N,/D_N*%
X157663000Y-71132000D03*
%TO.P,J1,B8,SBU2*%
%TO.N,unconnected-(J1-PadB8)*%
X157663000Y-70132000D03*
D34*
%TO.P,J1,S1,SHELL_GND*%
%TO.N,unconnected-(J1-PadS1)*%
X157088000Y-67562000D03*
D35*
%TO.P,J1,S2,SHELL_GND*%
X152908000Y-67562000D03*
%TO.P,J1,S3,SHELL_GND*%
X152908000Y-76202000D03*
D34*
%TO.P,J1,S4,SHELL_GND*%
X157088000Y-76202000D03*
%TD*%
D36*
%TO.P,J3,1,Pin_1*%
%TO.N,GND*%
X184404000Y-62992000D03*
D37*
%TO.P,J3,2,Pin_2*%
%TO.N,/EN*%
X181864000Y-62992000D03*
%TO.P,J3,3,Pin_3*%
%TO.N,/GPIO0*%
X179324000Y-62992000D03*
%TO.P,J3,4,Pin_4*%
%TO.N,/GPIO1*%
X176784000Y-62992000D03*
%TO.P,J3,5,Pin_5*%
%TO.N,/GPIO2*%
X174244000Y-62992000D03*
%TO.P,J3,6,Pin_6*%
%TO.N,/GPIO3*%
X171704000Y-62992000D03*
%TO.P,J3,7,Pin_7*%
%TO.N,/GPIO4*%
X169164000Y-62992000D03*
%TO.P,J3,8,Pin_8*%
%TO.N,/GPIO5*%
X166624000Y-62992000D03*
%TO.P,J3,9,Pin_9*%
%TO.N,GND*%
X164084000Y-62992000D03*
%TO.P,J3,10,Pin_10*%
%TO.N,+3V3*%
X161544000Y-62992000D03*
%TO.P,J3,11,Pin_11*%
%TO.N,/USB_+5V*%
X159004000Y-62992000D03*
%TD*%
D36*
%TO.P,J2,1,Pin_1*%
%TO.N,GND*%
X184404000Y-80772000D03*
D37*
%TO.P,J2,2,Pin_2*%
X181864000Y-80772000D03*
%TO.P,J2,3,Pin_3*%
%TO.N,/TX*%
X179324000Y-80772000D03*
%TO.P,J2,4,Pin_4*%
%TO.N,/RX*%
X176784000Y-80772000D03*
%TO.P,J2,5,Pin_5*%
%TO.N,/GPIO10*%
X174244000Y-80772000D03*
%TO.P,J2,6,Pin_6*%
%TO.N,/GPIO9*%
X171704000Y-80772000D03*
%TO.P,J2,7,Pin_7*%
%TO.N,/GPIO8*%
X169164000Y-80772000D03*
%TO.P,J2,8,Pin_8*%
%TO.N,/GPIO7*%
X166624000Y-80772000D03*
%TO.P,J2,9,Pin_9*%
%TO.N,/GPIO6*%
X164084000Y-80772000D03*
%TO.P,J2,10,Pin_10*%
%TO.N,GND*%
X161544000Y-80772000D03*
%TO.P,J2,11,Pin_11*%
%TO.N,/VIN*%
X159004000Y-80772000D03*
%TD*%
D38*
%TO.N,GND*%
X186048000Y-77214000D03*
X178308000Y-73152000D03*
X189148000Y-62914000D03*
X158999701Y-75433701D03*
X184448000Y-78614000D03*
X168648000Y-76200000D03*
X189148000Y-79514000D03*
X167386000Y-72644000D03*
X185348000Y-75514000D03*
X187148000Y-68514000D03*
X159004000Y-72136000D03*
X189148000Y-70514000D03*
X161898000Y-75564000D03*
X189148000Y-73514000D03*
X189148000Y-77514000D03*
X168698000Y-78239000D03*
X162248000Y-67214000D03*
X183648000Y-79214000D03*
X188148000Y-61914000D03*
X161148000Y-69214000D03*
X167640000Y-69088000D03*
X152908000Y-69088000D03*
X185348000Y-74514000D03*
X184048000Y-65114000D03*
X174498000Y-79248000D03*
X189148000Y-80514000D03*
X166370000Y-78232000D03*
X189148000Y-76514000D03*
X185248000Y-77914000D03*
X186248000Y-65914000D03*
X157734000Y-66294000D03*
X178308000Y-70866000D03*
X177038000Y-78994000D03*
X177038000Y-72136000D03*
X152908000Y-74422000D03*
X189148000Y-74514000D03*
X159004000Y-68580000D03*
X181048000Y-79214000D03*
X189148000Y-64914000D03*
X188148000Y-81514000D03*
X153670000Y-64516000D03*
X177048000Y-76614000D03*
X189148000Y-81514000D03*
X187148000Y-81514000D03*
X182648000Y-71414000D03*
X160274000Y-77978000D03*
X166624000Y-76200000D03*
X171958000Y-69088000D03*
X189148000Y-75514000D03*
X186148000Y-68514000D03*
X180348000Y-78514000D03*
X171958000Y-73914000D03*
X186048000Y-76214000D03*
X165862000Y-66040000D03*
X181887050Y-74153550D03*
X184748000Y-69914000D03*
X189148000Y-68514000D03*
X189148000Y-61914000D03*
X167898000Y-64214000D03*
X189148000Y-78514000D03*
X189148000Y-65914000D03*
X185148000Y-65914000D03*
X187148000Y-61914000D03*
X188148000Y-68514000D03*
X168910000Y-65786000D03*
X189148000Y-63914000D03*
X189148000Y-69514000D03*
X185448000Y-69214000D03*
X153924000Y-79756000D03*
X189148000Y-72514000D03*
X171098000Y-65764000D03*
X179578000Y-72136000D03*
X189148000Y-71514000D03*
%TO.N,+3V3*%
X181571540Y-69164000D03*
X182048000Y-72364000D03*
X169998000Y-65814000D03*
X165608000Y-68326000D03*
X176448000Y-75514000D03*
%TO.N,/BOOT*%
X153162000Y-62992000D03*
X156210000Y-64008000D03*
X162548000Y-64714000D03*
%TO.N,/GPIO0*%
X181141750Y-67681713D03*
%TO.N,/GPIO1*%
X180398000Y-67014000D03*
%TO.N,/GPIO2*%
X179100574Y-66711426D03*
X175698000Y-65664000D03*
%TO.N,/GPIO5*%
X177140500Y-68072000D03*
%TO.N,/GPIO6*%
X173965638Y-69327836D03*
%TO.N,/GPIO7*%
X174963805Y-69379500D03*
%TO.N,/GPIO8*%
X170434000Y-70903500D03*
X167894000Y-74168000D03*
%TO.N,/GPIO10*%
X174516490Y-72134463D03*
%TO.N,/D_P*%
X155956000Y-71357000D03*
X172348000Y-77724000D03*
%TO.N,/D_N*%
X155956000Y-70357497D03*
X155964500Y-72398500D03*
X172348000Y-76708000D03*
%TO.N,/USB_+5V*%
X160020000Y-69469000D03*
X171958000Y-75438000D03*
%TD*%
D39*
%TO.N,GND*%
X182519934Y-74808117D02*
X182519934Y-74786434D01*
D40*
X189181000Y-64947000D02*
X189148000Y-64914000D01*
X189982000Y-64947000D02*
X189181000Y-64947000D01*
D39*
X182519934Y-74786434D02*
X181887050Y-74153550D01*
D40*
X158648000Y-75082000D02*
X158999701Y-75433701D01*
X157663000Y-75082000D02*
X158648000Y-75082000D01*
D39*
X182732066Y-74808117D02*
X182504117Y-74808117D01*
%TO.N,Net-(C14-Pad1)*%
X180208349Y-73682796D02*
X181742117Y-75216564D01*
X181061992Y-77429992D02*
X181061992Y-76266059D01*
X181061992Y-76266059D02*
X181742117Y-75585934D01*
X181742117Y-75216564D02*
X181742117Y-75585934D01*
D40*
%TO.N,+3V3*%
X182600000Y-72364000D02*
X182048000Y-72364000D01*
D39*
X182048000Y-72364000D02*
X181527146Y-72364000D01*
X175346990Y-72622136D02*
X175339864Y-72622136D01*
D40*
X181571540Y-69164000D02*
X181571540Y-68640460D01*
X165608000Y-68328102D02*
X169819898Y-72540000D01*
D39*
X175339864Y-72622136D02*
X174398000Y-73564000D01*
X180915457Y-72975689D02*
X181269010Y-72622136D01*
D40*
X180023000Y-65164000D02*
X180261984Y-65164000D01*
X173973000Y-73139000D02*
X172974000Y-73139000D01*
D39*
X180915456Y-71296311D02*
X180915456Y-71296310D01*
D40*
X163982000Y-68326000D02*
X165608000Y-68326000D01*
D39*
X180561903Y-70942757D02*
X181296560Y-70208100D01*
D40*
X160473000Y-66839000D02*
X160473000Y-66014000D01*
X161960000Y-68326000D02*
X160473000Y-66839000D01*
X182649992Y-67552008D02*
X181567992Y-66470008D01*
X184307992Y-72857992D02*
X183093992Y-72857992D01*
D39*
X180561903Y-70942757D02*
X180569243Y-70942757D01*
D40*
X160473000Y-64063000D02*
X161544000Y-62992000D01*
X169998000Y-68042000D02*
X170282000Y-68326000D01*
X181571540Y-68640460D02*
X182649992Y-67562008D01*
X170619000Y-67989000D02*
X170282000Y-68326000D01*
X185949992Y-71215992D02*
X184849992Y-72315992D01*
D39*
X177114757Y-69882097D02*
X176416000Y-69183340D01*
D40*
X169819898Y-72540000D02*
X172974000Y-72540000D01*
X172974000Y-72136000D02*
X172974000Y-71691000D01*
D39*
X175723000Y-68039000D02*
X173898000Y-68039000D01*
D40*
X174398000Y-73564000D02*
X173973000Y-73139000D01*
D39*
X181527146Y-72364000D02*
X181269010Y-72622136D01*
D40*
X172974000Y-73139000D02*
X172974000Y-72540000D01*
D39*
X176416000Y-69183340D02*
X176416000Y-68732000D01*
X181296560Y-69438980D02*
X181571540Y-69164000D01*
X180915456Y-72975689D02*
X180915457Y-72975689D01*
D40*
X176348000Y-75514000D02*
X174398000Y-73564000D01*
X172974000Y-72540000D02*
X172974000Y-72136000D01*
X184849992Y-72315992D02*
X184307992Y-72857992D01*
X163982000Y-68326000D02*
X161960000Y-68326000D01*
X183093992Y-72857992D02*
X182600000Y-72364000D01*
X160473000Y-66014000D02*
X160473000Y-64063000D01*
X172398000Y-68039000D02*
X172348000Y-67989000D01*
X182649992Y-67562008D02*
X182649992Y-67552008D01*
D39*
X181296560Y-70208100D02*
X181296560Y-69438980D01*
D40*
X172348000Y-67989000D02*
X170619000Y-67989000D01*
X173898000Y-68039000D02*
X172398000Y-68039000D01*
X176448000Y-75514000D02*
X176348000Y-75514000D01*
X165608000Y-68326000D02*
X165608000Y-68328102D01*
X169998000Y-65814000D02*
X169998000Y-68042000D01*
D39*
X176416000Y-68732000D02*
X175723000Y-68039000D01*
X180915456Y-71296310D02*
X180561903Y-70942757D01*
D40*
X180261984Y-65164000D02*
X181567992Y-66470008D01*
%TO.N,VDD*%
X163982000Y-70626000D02*
X165368000Y-70626000D01*
X165608000Y-75438000D02*
X163982000Y-75438000D01*
X165368000Y-70626000D02*
X166370000Y-71628000D01*
X166370000Y-71628000D02*
X166370000Y-74676000D01*
X163701000Y-70345000D02*
X163982000Y-70626000D01*
X161798000Y-70345000D02*
X163701000Y-70345000D01*
X166370000Y-74676000D02*
X165608000Y-75438000D01*
D39*
%TO.N,Net-(J1-PadA5)*%
X154686000Y-70104000D02*
X154686000Y-77216000D01*
X155194000Y-69596000D02*
X154686000Y-70104000D01*
X159195000Y-77724000D02*
X160211000Y-76708000D01*
X154686000Y-77216000D02*
X155194000Y-77724000D01*
X156680511Y-70474511D02*
X156680511Y-70057394D01*
X156219117Y-69596000D02*
X155194000Y-69596000D01*
X156680511Y-70057394D02*
X156219117Y-69596000D01*
X156838000Y-70632000D02*
X156680511Y-70474511D01*
X155194000Y-77724000D02*
X159195000Y-77724000D01*
X157663000Y-70632000D02*
X156838000Y-70632000D01*
%TO.N,Net-(J1-PadB5)*%
X159004000Y-76454000D02*
X159004000Y-76708000D01*
X158437520Y-77274480D02*
X155506480Y-77274480D01*
X155984000Y-73632000D02*
X157663000Y-73632000D01*
X160211000Y-75247000D02*
X159004000Y-76454000D01*
X155194000Y-74422000D02*
X155984000Y-73632000D01*
X159004000Y-76708000D02*
X158437520Y-77274480D01*
X160211000Y-74422000D02*
X160211000Y-75247000D01*
X155506480Y-77274480D02*
X155194000Y-76962000D01*
X155194000Y-76962000D02*
X155194000Y-74422000D01*
D41*
%TO.N,/USB_D-*%
X178267110Y-76187953D02*
X178501057Y-76421900D01*
X179216830Y-75988970D02*
X179216830Y-75519704D01*
X178218213Y-76704741D02*
X177984267Y-76470795D01*
X177984267Y-76187953D02*
X177984267Y-76187952D01*
X176433001Y-77466000D02*
X177739800Y-77466000D01*
X177739800Y-77466000D02*
X178218214Y-76987584D01*
X176183001Y-77216000D02*
X176433001Y-77466000D01*
X175658000Y-77216000D02*
X176183001Y-77216000D01*
X178783900Y-76421900D02*
X179216830Y-75988970D01*
X179216830Y-75519704D02*
X178794136Y-75097010D01*
X178501057Y-76421900D02*
X178501056Y-76421900D01*
X177984293Y-76187979D02*
G75*
G03*
X177984267Y-76470795I141407J-141421D01*
G01*
X178267122Y-76187941D02*
G75*
G03*
X177984267Y-76187952I-141422J-141459D01*
G01*
X178218176Y-76704778D02*
G75*
G02*
X178218214Y-76987584I-141376J-141422D01*
G01*
X178783899Y-76421899D02*
G75*
G02*
X178501057Y-76421899I-141421J141421D01*
G01*
%TO.N,/USB_D+*%
X179666830Y-75262597D02*
X179666830Y-76175370D01*
X177926200Y-77916000D02*
X176433001Y-77916000D01*
X176433001Y-77916000D02*
X176183001Y-78166000D01*
X176183001Y-78166000D02*
X175658000Y-78166000D01*
X179147689Y-74743456D02*
X179666830Y-75262597D01*
X179666830Y-76175370D02*
X177926200Y-77916000D01*
D39*
%TO.N,/EN*%
X178048000Y-63814000D02*
X178048000Y-62420978D01*
X180642000Y-64214000D02*
X178448000Y-64214000D01*
X154237000Y-78681000D02*
X151849000Y-78681000D01*
X155098511Y-61817489D02*
X154686000Y-62230000D01*
X178048000Y-62420978D02*
X177444511Y-61817489D01*
X179147689Y-69528544D02*
X179490514Y-69185719D01*
X181864000Y-62992000D02*
X180642000Y-64214000D01*
X154686000Y-62230000D02*
X154686000Y-69088000D01*
X178448000Y-64214000D02*
X178448000Y-65089000D01*
X178308718Y-65228282D02*
X178373000Y-65164000D01*
X179490514Y-69185719D02*
X179490514Y-68125964D01*
X154686000Y-69088000D02*
X154236480Y-69537520D01*
X154236480Y-69537520D02*
X154236480Y-78680480D01*
X179490514Y-68125964D02*
X178308718Y-66944168D01*
X155999000Y-78681000D02*
X157526000Y-78681000D01*
X154232520Y-78676520D02*
X154237000Y-78681000D01*
X178308718Y-66944168D02*
X178308718Y-65228282D01*
X178448000Y-64214000D02*
X178048000Y-63814000D01*
X177444511Y-61817489D02*
X155098511Y-61817489D01*
D40*
X181864000Y-62992000D02*
X181419000Y-62992000D01*
D39*
X155999000Y-78681000D02*
X154237000Y-78681000D01*
X178448000Y-65089000D02*
X178373000Y-65164000D01*
%TO.N,/BOOT*%
X162604000Y-64770000D02*
X162548000Y-64714000D01*
X153103000Y-62933000D02*
X153162000Y-62992000D01*
X151849000Y-62933000D02*
X153103000Y-62933000D01*
X168402000Y-66548000D02*
X168402000Y-70104000D01*
X169926000Y-71628000D02*
X171450000Y-71628000D01*
X171450000Y-71628000D02*
X172212000Y-70866000D01*
X168402000Y-70104000D02*
X169926000Y-71628000D01*
X172212000Y-70866000D02*
X175270233Y-70866000D01*
X166624000Y-64770000D02*
X168402000Y-66548000D01*
X155999000Y-62933000D02*
X155999000Y-63797000D01*
X166624000Y-64770000D02*
X162604000Y-64770000D01*
X175270233Y-70866000D02*
X175700544Y-71296311D01*
X155999000Y-63797000D02*
X156210000Y-64008000D01*
%TO.N,/GPIO0*%
X180847040Y-67976423D02*
X181141750Y-67681713D01*
X180847040Y-68564960D02*
X180847040Y-67976423D01*
X180208349Y-70589204D02*
X180847040Y-69950513D01*
X180847040Y-69950513D02*
X180847040Y-68564960D01*
X179324000Y-62992000D02*
X179324000Y-63437000D01*
%TO.N,/GPIO1*%
X179854796Y-70235651D02*
X180397520Y-69692927D01*
X180397520Y-69692927D02*
X180397520Y-67014480D01*
X180397520Y-67014480D02*
X180398000Y-67014000D01*
%TO.N,/GPIO2*%
X174244000Y-62992000D02*
X174447435Y-62992000D01*
X179501243Y-69882097D02*
X179948000Y-69435340D01*
X179100574Y-66741188D02*
X179100574Y-66711426D01*
X173898000Y-66389000D02*
X174973000Y-66389000D01*
X179948000Y-69435340D02*
X179948000Y-67588614D01*
X179948000Y-67588614D02*
X179100574Y-66741188D01*
X174973000Y-66389000D02*
X175698000Y-65664000D01*
%TO.N,/GPIO3*%
X173176000Y-64464000D02*
X171704000Y-62992000D01*
X177859198Y-66114000D02*
X176209198Y-64464000D01*
X177859198Y-67130366D02*
X177859198Y-66114000D01*
X178794136Y-69174990D02*
X178503520Y-68884374D01*
X178503520Y-67774688D02*
X177859198Y-67130366D01*
X178503520Y-68884374D02*
X178503520Y-67774688D01*
X176209198Y-64464000D02*
X173176000Y-64464000D01*
%TO.N,/GPIO4*%
X171085520Y-64913520D02*
X176023000Y-64913520D01*
X177821864Y-69066136D02*
X177821864Y-69174990D01*
X177409678Y-67316564D02*
X178054000Y-67960886D01*
X178054000Y-67960886D02*
X178054000Y-68834000D01*
X169164000Y-62992000D02*
X171085520Y-64913520D01*
X178054000Y-68834000D02*
X177821864Y-69066136D01*
X176023000Y-64913520D02*
X177409678Y-66300198D01*
X177409678Y-66300198D02*
X177409678Y-67316564D01*
%TO.N,/GPIO5*%
X177125486Y-69185719D02*
X177125486Y-68087014D01*
X177468311Y-69528544D02*
X177125486Y-69185719D01*
X177125486Y-68087014D02*
X177140500Y-68072000D01*
%TO.N,/GPIO6*%
X175966480Y-69032480D02*
X175966480Y-69440927D01*
X175554067Y-68620067D02*
X175966480Y-69032480D01*
X176761204Y-70235651D02*
X175966480Y-69440927D01*
X174673407Y-68620067D02*
X175554067Y-68620067D01*
X174673407Y-68620067D02*
X173965638Y-69327836D01*
%TO.N,/GPIO7*%
X175197947Y-69379500D02*
X174963805Y-69379500D01*
X176407651Y-70589204D02*
X175197947Y-69379500D01*
%TO.N,/GPIO8*%
X172974000Y-70041000D02*
X172275000Y-70041000D01*
X167894000Y-79502000D02*
X167894000Y-74168000D01*
X169164000Y-80772000D02*
X167894000Y-79502000D01*
X171704000Y-70612000D02*
X171412500Y-70903500D01*
X173037000Y-70104000D02*
X172974000Y-70041000D01*
X172275000Y-70041000D02*
X171704000Y-70612000D01*
X174244000Y-70104000D02*
X173037000Y-70104000D01*
X175215340Y-70104000D02*
X174244000Y-70104000D01*
X171412500Y-70903500D02*
X170434000Y-70903500D01*
X176054097Y-70942757D02*
X175215340Y-70104000D01*
%TO.N,/GPIO10*%
X174516490Y-72134463D02*
X174862391Y-72134463D01*
X174862391Y-72134463D02*
X175346990Y-71649864D01*
%TO.N,/RX*%
X178816000Y-77626562D02*
X178816000Y-78740000D01*
X180091330Y-76351232D02*
X178816000Y-77626562D01*
X179501243Y-74389903D02*
X180091330Y-74979990D01*
X178816000Y-78740000D02*
X176784000Y-80772000D01*
X180091330Y-74979990D02*
X180091330Y-76351232D01*
%TO.N,/TX*%
X179854796Y-74036349D02*
X180540849Y-74722402D01*
X179324000Y-77754278D02*
X179324000Y-80772000D01*
X180540849Y-74722402D02*
X180540849Y-76537430D01*
X180540849Y-76537430D02*
X179324000Y-77754278D01*
D41*
%TO.N,/D_P*%
X156256000Y-71657000D02*
X156775499Y-71657000D01*
X156775499Y-71657000D02*
X156800499Y-71632000D01*
X157651000Y-72644000D02*
X156972000Y-72644000D01*
X155656511Y-73106511D02*
X155194000Y-72644000D01*
X155194000Y-72136000D02*
X155956000Y-71374000D01*
X157663000Y-72632000D02*
X157651000Y-72644000D01*
X155194000Y-72644000D02*
X155194000Y-72136000D01*
X155956000Y-71357000D02*
X156256000Y-71657000D01*
X156800499Y-71632000D02*
X157663000Y-71632000D01*
X155956000Y-71374000D02*
X155956000Y-71357000D01*
X156509489Y-73106511D02*
X155656511Y-73106511D01*
X172790000Y-78166000D02*
X172348000Y-77724000D01*
X173338000Y-78166000D02*
X172790000Y-78166000D01*
X156972000Y-72644000D02*
X156509489Y-73106511D01*
%TO.N,/D_N*%
X156730503Y-71132000D02*
X157663000Y-71132000D01*
X156775499Y-72107000D02*
X156800499Y-72132000D01*
X155964500Y-72398500D02*
X156256000Y-72107000D01*
X173338000Y-77216000D02*
X172856000Y-77216000D01*
X156800499Y-72132000D02*
X157663000Y-72132000D01*
X155956000Y-70357497D02*
X156730503Y-71132000D01*
X156256000Y-72107000D02*
X156775499Y-72107000D01*
X172856000Y-77216000D02*
X172348000Y-76708000D01*
D40*
%TO.N,/VIN*%
X162038000Y-77738000D02*
X163982000Y-77738000D01*
X159004000Y-80772000D02*
X162038000Y-77738000D01*
%TO.N,/USB_+5V*%
X159004000Y-74168000D02*
X158890000Y-74282000D01*
X158890000Y-74282000D02*
X157663000Y-74282000D01*
D39*
X171623489Y-78513511D02*
X171323000Y-78814000D01*
X160034023Y-70086511D02*
X160034023Y-70597977D01*
X171606511Y-76424875D02*
X171606511Y-78530489D01*
X171606511Y-78530489D02*
X171323000Y-78814000D01*
D40*
X160020000Y-67818000D02*
X160020000Y-69342000D01*
D39*
X160034023Y-70597977D02*
X160020000Y-70612000D01*
D40*
X159272000Y-73138000D02*
X159004000Y-73406000D01*
X160034000Y-73138000D02*
X159272000Y-73138000D01*
D39*
X173338000Y-76266000D02*
X173055489Y-75983489D01*
D40*
X157663000Y-69482000D02*
X159880000Y-69482000D01*
X160020000Y-69342000D02*
X160020000Y-70612000D01*
D39*
X173055489Y-75983489D02*
X172047897Y-75983489D01*
D40*
X160020000Y-70612000D02*
X160020000Y-73124000D01*
X159004000Y-62992000D02*
X159004000Y-66802000D01*
X163982000Y-73138000D02*
X160034000Y-73138000D01*
D39*
X172047897Y-75527897D02*
X171958000Y-75438000D01*
X172047897Y-75983489D02*
X171606511Y-76424875D01*
D40*
X160020000Y-73124000D02*
X160034000Y-73138000D01*
X159880000Y-69482000D02*
X160020000Y-69342000D01*
D39*
X172047897Y-75983489D02*
X172047897Y-75527897D01*
D40*
X159004000Y-73406000D02*
X159004000Y-74168000D01*
X159004000Y-66802000D02*
X160020000Y-67818000D01*
D39*
%TO.N,/ANT*%
X181269010Y-71634974D02*
X182712992Y-70190992D01*
X181269010Y-71649864D02*
X181269010Y-71634974D01*
X182712992Y-70205898D02*
X182712992Y-70190992D01*
D42*
X183746247Y-69170847D02*
X182719547Y-70197547D01*
D39*
X181269010Y-71649864D02*
X181269026Y-71649864D01*
D42*
X183791153Y-69170847D02*
X183746247Y-69170847D01*
%TO.N,Net-(AE1-Pad1)*%
X188806000Y-67196000D02*
X188808000Y-67194000D01*
D39*
X188820000Y-67182000D02*
X188808000Y-67194000D01*
D42*
X185766000Y-67196000D02*
X187706000Y-67196000D01*
D39*
X189982000Y-67182000D02*
X188820000Y-67182000D01*
D42*
X184904847Y-68057153D02*
X185766000Y-67196000D01*
X187706000Y-67196000D02*
X188806000Y-67196000D01*
D39*
%TO.N,Net-(C15-Pad1)*%
X184379809Y-76667992D02*
X183509883Y-75798066D01*
X183509883Y-74404575D02*
X182511308Y-73406000D01*
X182511308Y-73406000D02*
X181610000Y-73406000D01*
X181343933Y-73672067D02*
X180904727Y-73672067D01*
X183509883Y-75798066D02*
X183509883Y-74404575D01*
X184698008Y-76667992D02*
X184379809Y-76667992D01*
X180904727Y-73672067D02*
X180561903Y-73329243D01*
X181610000Y-73406000D02*
X181343933Y-73672067D01*
%TD*%
%TA.AperFunction,Conductor*%
%TO.N,GND*%
G36*
X154950871Y-61360713D02*
G01*
X154987416Y-61411013D01*
X154987416Y-61473187D01*
X154949442Y-61524506D01*
X154927056Y-61540181D01*
X154919654Y-61544897D01*
X154893681Y-61559892D01*
X154893679Y-61559894D01*
X154886056Y-61564295D01*
X154880400Y-61571036D01*
X154880398Y-61571038D01*
X154861116Y-61594017D01*
X154855187Y-61600487D01*
X154468991Y-61986683D01*
X154462520Y-61992612D01*
X154439547Y-62011888D01*
X154439545Y-62011890D01*
X154432806Y-62017545D01*
X154428407Y-62025165D01*
X154428405Y-62025167D01*
X154413408Y-62051143D01*
X154408692Y-62058545D01*
X154391495Y-62083105D01*
X154386446Y-62090316D01*
X154384168Y-62098817D01*
X154381765Y-62103970D01*
X154379814Y-62109331D01*
X154375412Y-62116955D01*
X154373884Y-62125623D01*
X154368678Y-62155147D01*
X154366778Y-62163716D01*
X154359978Y-62189093D01*
X154356736Y-62201193D01*
X154357503Y-62209960D01*
X154360117Y-62239836D01*
X154360500Y-62248604D01*
X154360500Y-68911503D01*
X154341287Y-68970634D01*
X154331035Y-68982638D01*
X154019470Y-69294204D01*
X154012999Y-69300133D01*
X153990027Y-69319408D01*
X153990025Y-69319410D01*
X153983286Y-69325065D01*
X153978887Y-69332685D01*
X153978885Y-69332687D01*
X153963888Y-69358663D01*
X153959172Y-69366065D01*
X153941975Y-69390625D01*
X153936926Y-69397836D01*
X153934648Y-69406337D01*
X153932245Y-69411490D01*
X153930294Y-69416851D01*
X153925892Y-69424475D01*
X153922958Y-69441118D01*
X153919158Y-69462667D01*
X153917258Y-69471236D01*
X153909791Y-69499102D01*
X153907216Y-69508713D01*
X153907983Y-69517480D01*
X153910597Y-69547356D01*
X153910980Y-69556124D01*
X153910980Y-75505596D01*
X153891767Y-75564727D01*
X153841467Y-75601272D01*
X153779293Y-75601272D01*
X153752535Y-75587901D01*
X153741453Y-75580113D01*
X153735803Y-75577910D01*
X153735801Y-75577909D01*
X153589143Y-75520729D01*
X153589141Y-75520729D01*
X153583487Y-75518524D01*
X153454174Y-75501500D01*
X152365484Y-75501500D01*
X152286582Y-75511048D01*
X152245702Y-75515995D01*
X152245700Y-75515996D01*
X152239680Y-75516724D01*
X152234010Y-75518867D01*
X152234008Y-75518867D01*
X152086745Y-75574513D01*
X152086743Y-75574514D01*
X152081077Y-75576655D01*
X151941349Y-75672688D01*
X151911508Y-75706181D01*
X151835681Y-75791287D01*
X151828560Y-75799279D01*
X151825722Y-75804639D01*
X151799602Y-75853972D01*
X151749224Y-75949119D01*
X151707919Y-76113559D01*
X151707887Y-76119616D01*
X151707887Y-76119618D01*
X151707663Y-76162499D01*
X151707031Y-76283105D01*
X151708447Y-76289002D01*
X151708447Y-76289004D01*
X151731116Y-76383424D01*
X151746612Y-76447968D01*
X151749392Y-76453354D01*
X151749393Y-76453357D01*
X151821595Y-76593245D01*
X151824375Y-76598631D01*
X151828357Y-76603196D01*
X151828358Y-76603197D01*
X151923957Y-76712784D01*
X151935831Y-76726396D01*
X151940794Y-76729884D01*
X151940795Y-76729885D01*
X152058170Y-76812377D01*
X152074547Y-76823887D01*
X152080197Y-76826090D01*
X152080199Y-76826091D01*
X152226857Y-76883271D01*
X152226859Y-76883271D01*
X152232513Y-76885476D01*
X152361826Y-76902500D01*
X153450516Y-76902500D01*
X153529418Y-76892952D01*
X153570298Y-76888005D01*
X153570300Y-76888004D01*
X153576320Y-76887276D01*
X153581990Y-76885133D01*
X153581992Y-76885133D01*
X153729255Y-76829487D01*
X153729257Y-76829486D01*
X153734923Y-76827345D01*
X153753400Y-76814646D01*
X153813014Y-76796988D01*
X153871622Y-76817743D01*
X153906837Y-76868983D01*
X153910980Y-76897554D01*
X153910980Y-78254900D01*
X153891767Y-78314031D01*
X153841467Y-78350576D01*
X153810380Y-78355500D01*
X152660191Y-78355500D01*
X152601060Y-78336287D01*
X152567250Y-78293400D01*
X152564799Y-78287484D01*
X152562867Y-78277769D01*
X152557364Y-78269533D01*
X152557363Y-78269531D01*
X152524058Y-78219688D01*
X152518552Y-78211448D01*
X152452231Y-78167133D01*
X152405693Y-78157876D01*
X152398600Y-78156465D01*
X152398599Y-78156465D01*
X152393748Y-78155500D01*
X151304252Y-78155500D01*
X151299401Y-78156465D01*
X151299400Y-78156465D01*
X151292307Y-78157876D01*
X151245769Y-78167133D01*
X151179448Y-78211448D01*
X151135133Y-78277769D01*
X151123500Y-78336252D01*
X151123500Y-79025748D01*
X151135133Y-79084231D01*
X151179448Y-79150552D01*
X151245769Y-79194867D01*
X151284088Y-79202489D01*
X151299400Y-79205535D01*
X151299401Y-79205535D01*
X151304252Y-79206500D01*
X152393748Y-79206500D01*
X152398599Y-79205535D01*
X152398600Y-79205535D01*
X152413912Y-79202489D01*
X152452231Y-79194867D01*
X152518552Y-79150552D01*
X152542104Y-79115305D01*
X152557363Y-79092469D01*
X152557364Y-79092467D01*
X152562867Y-79084231D01*
X152564799Y-79074516D01*
X152567250Y-79068600D01*
X152607630Y-79021323D01*
X152660191Y-79006500D01*
X154180901Y-79006500D01*
X154190871Y-79007813D01*
X154190923Y-79007219D01*
X154199692Y-79007986D01*
X154208193Y-79010264D01*
X154216961Y-79009497D01*
X154246840Y-79006883D01*
X154255607Y-79006500D01*
X155187809Y-79006500D01*
X155246940Y-79025713D01*
X155280750Y-79068600D01*
X155283201Y-79074516D01*
X155285133Y-79084231D01*
X155290636Y-79092467D01*
X155290637Y-79092469D01*
X155305896Y-79115305D01*
X155329448Y-79150552D01*
X155395769Y-79194867D01*
X155434088Y-79202489D01*
X155449400Y-79205535D01*
X155449401Y-79205535D01*
X155454252Y-79206500D01*
X156543748Y-79206500D01*
X156548599Y-79205535D01*
X156548600Y-79205535D01*
X156563912Y-79202489D01*
X156602231Y-79194867D01*
X156668552Y-79150552D01*
X156692104Y-79115305D01*
X156707363Y-79092469D01*
X156707364Y-79092467D01*
X156712867Y-79084231D01*
X156714799Y-79074516D01*
X156717250Y-79068600D01*
X156757630Y-79021323D01*
X156810191Y-79006500D01*
X156981889Y-79006500D01*
X157041020Y-79025713D01*
X157077565Y-79076013D01*
X157081250Y-79091362D01*
X157086281Y-79123126D01*
X157147472Y-79243220D01*
X157242780Y-79338528D01*
X157362874Y-79399719D01*
X157370693Y-79400957D01*
X157370695Y-79400958D01*
X157408396Y-79406929D01*
X157462512Y-79415500D01*
X157979488Y-79415500D01*
X158033604Y-79406929D01*
X158071305Y-79400958D01*
X158071307Y-79400957D01*
X158079126Y-79399719D01*
X158199220Y-79338528D01*
X158294528Y-79243220D01*
X158355719Y-79123126D01*
X158371500Y-79023488D01*
X158371500Y-78456512D01*
X158361753Y-78394973D01*
X158356958Y-78364695D01*
X158356957Y-78364693D01*
X158355719Y-78356874D01*
X158294528Y-78236780D01*
X158278983Y-78221235D01*
X158250757Y-78165837D01*
X158260483Y-78104429D01*
X158304447Y-78060465D01*
X158350118Y-78049500D01*
X159176396Y-78049500D01*
X159185163Y-78049883D01*
X159223807Y-78053264D01*
X159233418Y-78050689D01*
X159261284Y-78043222D01*
X159269853Y-78041322D01*
X159276955Y-78040070D01*
X159308045Y-78034588D01*
X159315669Y-78030186D01*
X159321030Y-78028235D01*
X159326183Y-78025832D01*
X159334684Y-78023554D01*
X159341895Y-78018505D01*
X159366455Y-78001308D01*
X159373857Y-77996592D01*
X159399830Y-77981597D01*
X159399833Y-77981594D01*
X159407455Y-77977194D01*
X159432395Y-77947472D01*
X159438324Y-77941002D01*
X159966361Y-77412965D01*
X160021759Y-77384739D01*
X160037496Y-77383500D01*
X160403841Y-77383499D01*
X160442518Y-77383499D01*
X160446411Y-77382882D01*
X160446417Y-77382882D01*
X160497015Y-77374868D01*
X160536304Y-77368646D01*
X160543355Y-77365053D01*
X160543359Y-77365052D01*
X160642289Y-77314644D01*
X160642290Y-77314643D01*
X160649342Y-77311050D01*
X160739050Y-77221342D01*
X160796646Y-77108304D01*
X160811500Y-77014519D01*
X160811499Y-76401482D01*
X160809880Y-76391254D01*
X160801454Y-76338058D01*
X160796646Y-76307696D01*
X160793053Y-76300645D01*
X160793052Y-76300641D01*
X160742644Y-76201711D01*
X160742643Y-76201710D01*
X160739050Y-76194658D01*
X160649342Y-76104950D01*
X160642290Y-76101357D01*
X160642289Y-76101356D01*
X160555233Y-76056999D01*
X160536304Y-76047354D01*
X160442519Y-76032500D01*
X160430554Y-76032500D01*
X160128694Y-76032501D01*
X160069564Y-76013288D01*
X160033019Y-75962988D01*
X160033019Y-75900814D01*
X160057560Y-75860766D01*
X160428009Y-75490317D01*
X160434480Y-75484388D01*
X160457453Y-75465112D01*
X160457455Y-75465110D01*
X160464194Y-75459455D01*
X160468593Y-75451835D01*
X160468595Y-75451833D01*
X160483592Y-75425857D01*
X160488308Y-75418455D01*
X160505505Y-75393895D01*
X160505506Y-75393894D01*
X160510554Y-75386684D01*
X160512832Y-75378183D01*
X160515235Y-75373030D01*
X160517186Y-75367669D01*
X160521588Y-75360045D01*
X160528322Y-75321853D01*
X160530222Y-75313284D01*
X160537986Y-75284308D01*
X160540264Y-75275807D01*
X160536883Y-75237160D01*
X160536500Y-75228393D01*
X160536500Y-75144194D01*
X160555713Y-75085063D01*
X160591428Y-75054559D01*
X160642289Y-75028644D01*
X160642292Y-75028642D01*
X160649342Y-75025050D01*
X160739050Y-74935342D01*
X160743349Y-74926906D01*
X160791377Y-74832645D01*
X160796646Y-74822304D01*
X160811500Y-74728519D01*
X160811499Y-74115482D01*
X160809129Y-74100512D01*
X160797884Y-74029515D01*
X160796646Y-74021696D01*
X160793053Y-74014645D01*
X160793052Y-74014641D01*
X160742644Y-73915711D01*
X160742643Y-73915710D01*
X160739050Y-73908658D01*
X160649342Y-73818950D01*
X160647582Y-73818053D01*
X160612806Y-73770186D01*
X160612806Y-73708012D01*
X160649351Y-73657712D01*
X160708482Y-73638500D01*
X162680900Y-73638500D01*
X162740031Y-73657713D01*
X162776576Y-73708013D01*
X162781500Y-73739100D01*
X162781500Y-73907748D01*
X162793133Y-73966231D01*
X162837448Y-74032552D01*
X162903769Y-74076867D01*
X162942088Y-74084489D01*
X162957400Y-74087535D01*
X162957401Y-74087535D01*
X162962252Y-74088500D01*
X165001748Y-74088500D01*
X165006599Y-74087535D01*
X165006600Y-74087535D01*
X165021912Y-74084489D01*
X165060231Y-74076867D01*
X165126552Y-74032552D01*
X165170867Y-73966231D01*
X165182500Y-73907748D01*
X165182500Y-72368252D01*
X165179961Y-72355485D01*
X165174499Y-72328027D01*
X165170867Y-72309769D01*
X165126552Y-72243448D01*
X165111681Y-72233511D01*
X165072208Y-72207136D01*
X165060231Y-72199133D01*
X165021912Y-72191511D01*
X165006600Y-72188465D01*
X165006599Y-72188465D01*
X165001748Y-72187500D01*
X162962252Y-72187500D01*
X162957401Y-72188465D01*
X162957400Y-72188465D01*
X162942088Y-72191511D01*
X162903769Y-72199133D01*
X162891792Y-72207136D01*
X162852320Y-72233511D01*
X162837448Y-72243448D01*
X162793133Y-72309769D01*
X162789501Y-72328027D01*
X162784040Y-72355485D01*
X162781500Y-72368252D01*
X162781500Y-72536900D01*
X162762287Y-72596031D01*
X162711987Y-72632576D01*
X162680900Y-72637500D01*
X160621100Y-72637500D01*
X160561969Y-72618287D01*
X160525424Y-72567987D01*
X160520500Y-72536900D01*
X160520500Y-70603488D01*
X161122500Y-70603488D01*
X161138281Y-70703126D01*
X161199472Y-70823220D01*
X161294780Y-70918528D01*
X161414874Y-70979719D01*
X161422693Y-70980957D01*
X161422695Y-70980958D01*
X161469789Y-70988417D01*
X161514512Y-70995500D01*
X162081488Y-70995500D01*
X162126211Y-70988417D01*
X162173305Y-70980958D01*
X162173307Y-70980957D01*
X162181126Y-70979719D01*
X162301220Y-70918528D01*
X162344783Y-70874965D01*
X162400181Y-70846739D01*
X162415918Y-70845500D01*
X162680900Y-70845500D01*
X162740031Y-70864713D01*
X162776576Y-70915013D01*
X162781500Y-70946100D01*
X162781500Y-71395748D01*
X162793133Y-71454231D01*
X162837448Y-71520552D01*
X162903769Y-71564867D01*
X162942088Y-71572489D01*
X162957400Y-71575535D01*
X162957401Y-71575535D01*
X162962252Y-71576500D01*
X165001748Y-71576500D01*
X165006599Y-71575535D01*
X165006600Y-71575535D01*
X165021912Y-71572489D01*
X165060231Y-71564867D01*
X165126552Y-71520552D01*
X165170867Y-71454231D01*
X165182500Y-71395748D01*
X165182500Y-71390801D01*
X165182984Y-71385887D01*
X165184183Y-71386005D01*
X165201713Y-71332053D01*
X165252013Y-71295508D01*
X165314187Y-71295508D01*
X165354235Y-71320049D01*
X165840035Y-71805849D01*
X165868261Y-71861247D01*
X165869500Y-71876984D01*
X165869500Y-74427016D01*
X165850287Y-74486147D01*
X165840035Y-74498151D01*
X165430151Y-74908035D01*
X165374753Y-74936261D01*
X165359016Y-74937500D01*
X165283100Y-74937500D01*
X165223969Y-74918287D01*
X165187424Y-74867987D01*
X165182500Y-74836900D01*
X165182500Y-74668252D01*
X165170867Y-74609769D01*
X165126552Y-74543448D01*
X165102477Y-74527361D01*
X165076400Y-74509937D01*
X165060231Y-74499133D01*
X165021912Y-74491511D01*
X165006600Y-74488465D01*
X165006599Y-74488465D01*
X165001748Y-74487500D01*
X162962252Y-74487500D01*
X162957401Y-74488465D01*
X162957400Y-74488465D01*
X162942088Y-74491511D01*
X162903769Y-74499133D01*
X162887600Y-74509937D01*
X162861524Y-74527361D01*
X162837448Y-74543448D01*
X162793133Y-74609769D01*
X162781500Y-74668252D01*
X162781500Y-76207748D01*
X162793133Y-76266231D01*
X162837448Y-76332552D01*
X162903769Y-76376867D01*
X162936733Y-76383424D01*
X162957400Y-76387535D01*
X162957401Y-76387535D01*
X162962252Y-76388500D01*
X165001748Y-76388500D01*
X165006599Y-76387535D01*
X165006600Y-76387535D01*
X165027267Y-76383424D01*
X165060231Y-76376867D01*
X165126552Y-76332552D01*
X165170867Y-76266231D01*
X165182500Y-76207748D01*
X165182500Y-76039100D01*
X165201713Y-75979969D01*
X165252013Y-75943424D01*
X165283100Y-75938500D01*
X165540653Y-75938500D01*
X165553307Y-75939914D01*
X165553311Y-75939863D01*
X165560459Y-75940438D01*
X165567447Y-75942019D01*
X165621054Y-75938693D01*
X165627283Y-75938500D01*
X165643940Y-75938500D01*
X165647483Y-75937993D01*
X165647491Y-75937992D01*
X165655060Y-75936908D01*
X165663090Y-75936085D01*
X165703385Y-75933585D01*
X165703386Y-75933585D01*
X165710538Y-75933141D01*
X165717279Y-75930707D01*
X165717281Y-75930707D01*
X165720032Y-75929714D01*
X165739922Y-75924754D01*
X165749918Y-75923323D01*
X165793202Y-75903643D01*
X165800681Y-75900599D01*
X165838642Y-75886895D01*
X165845387Y-75884460D01*
X165853540Y-75878504D01*
X165871237Y-75868163D01*
X165880428Y-75863984D01*
X165916456Y-75832940D01*
X165922762Y-75827934D01*
X165930702Y-75822133D01*
X165931198Y-75821771D01*
X165931202Y-75821767D01*
X165934336Y-75819478D01*
X165945750Y-75808064D01*
X165951217Y-75802988D01*
X165983610Y-75775077D01*
X165983613Y-75775074D01*
X165989037Y-75770400D01*
X165992936Y-75764385D01*
X165993622Y-75763327D01*
X166006904Y-75746910D01*
X166676288Y-75077526D01*
X166686231Y-75069581D01*
X166686198Y-75069542D01*
X166691659Y-75064894D01*
X166697720Y-75061070D01*
X166733262Y-75020826D01*
X166737530Y-75016284D01*
X166749321Y-75004493D01*
X166751464Y-75001633D01*
X166751475Y-75001621D01*
X166756063Y-74995499D01*
X166761158Y-74989240D01*
X166765025Y-74984861D01*
X166792623Y-74953612D01*
X166796912Y-74944478D01*
X166807470Y-74926906D01*
X166809229Y-74924559D01*
X166813527Y-74918824D01*
X166816042Y-74912116D01*
X166816045Y-74912110D01*
X166830218Y-74874303D01*
X166833353Y-74866863D01*
X166850508Y-74830325D01*
X166850510Y-74830318D01*
X166853553Y-74823837D01*
X166855108Y-74813852D01*
X166860310Y-74794027D01*
X166863852Y-74784580D01*
X166867375Y-74737170D01*
X166868294Y-74729165D01*
X166870500Y-74714991D01*
X166870500Y-74698842D01*
X166870777Y-74691387D01*
X166873945Y-74648758D01*
X166873945Y-74648756D01*
X166874476Y-74641608D01*
X166872717Y-74633367D01*
X166870500Y-74612367D01*
X166870500Y-74168000D01*
X167288318Y-74168000D01*
X167289179Y-74174540D01*
X167305722Y-74300194D01*
X167308956Y-74324762D01*
X167369464Y-74470841D01*
X167465718Y-74596282D01*
X167470953Y-74600299D01*
X167529141Y-74644948D01*
X167564357Y-74696187D01*
X167568500Y-74724759D01*
X167568500Y-79483396D01*
X167568117Y-79492163D01*
X167564736Y-79530807D01*
X167567014Y-79539308D01*
X167574778Y-79568284D01*
X167576678Y-79576853D01*
X167583412Y-79615045D01*
X167587814Y-79622669D01*
X167589765Y-79628030D01*
X167592168Y-79633183D01*
X167594446Y-79641684D01*
X167599494Y-79648894D01*
X167599495Y-79648895D01*
X167616692Y-79673455D01*
X167621408Y-79680857D01*
X167636405Y-79706833D01*
X167636407Y-79706835D01*
X167640806Y-79714455D01*
X167647545Y-79720110D01*
X167647546Y-79720111D01*
X167670526Y-79739394D01*
X167676995Y-79745322D01*
X168174199Y-80242526D01*
X168202425Y-80297924D01*
X168195579Y-80352882D01*
X168193776Y-80356162D01*
X168131484Y-80552532D01*
X168130935Y-80557423D01*
X168130935Y-80557425D01*
X168129865Y-80566970D01*
X168108520Y-80757262D01*
X168125759Y-80962553D01*
X168182544Y-81160586D01*
X168276712Y-81343818D01*
X168279765Y-81347670D01*
X168279767Y-81347673D01*
X168308715Y-81384196D01*
X168404677Y-81505270D01*
X168561564Y-81638791D01*
X168741398Y-81739297D01*
X168746079Y-81740818D01*
X168932649Y-81801439D01*
X168932655Y-81801440D01*
X168937329Y-81802959D01*
X168942211Y-81803541D01*
X168942215Y-81803542D01*
X169117937Y-81824494D01*
X169141894Y-81827351D01*
X169146795Y-81826974D01*
X169146798Y-81826974D01*
X169257112Y-81818486D01*
X169347300Y-81811546D01*
X169352036Y-81810224D01*
X169352040Y-81810223D01*
X169540983Y-81757469D01*
X169545725Y-81756145D01*
X169729610Y-81663258D01*
X169891951Y-81536424D01*
X170026564Y-81380472D01*
X170083640Y-81280000D01*
X170125893Y-81205622D01*
X170125894Y-81205620D01*
X170128323Y-81201344D01*
X170193351Y-81005863D01*
X170193967Y-81000988D01*
X170193968Y-81000983D01*
X170218819Y-80804257D01*
X170219171Y-80801474D01*
X170219583Y-80772000D01*
X170218138Y-80757262D01*
X170648520Y-80757262D01*
X170665759Y-80962553D01*
X170722544Y-81160586D01*
X170816712Y-81343818D01*
X170819765Y-81347670D01*
X170819767Y-81347673D01*
X170848715Y-81384196D01*
X170944677Y-81505270D01*
X171101564Y-81638791D01*
X171281398Y-81739297D01*
X171286079Y-81740818D01*
X171472649Y-81801439D01*
X171472655Y-81801440D01*
X171477329Y-81802959D01*
X171482211Y-81803541D01*
X171482215Y-81803542D01*
X171657937Y-81824494D01*
X171681894Y-81827351D01*
X171686795Y-81826974D01*
X171686798Y-81826974D01*
X171797112Y-81818486D01*
X171887300Y-81811546D01*
X171892036Y-81810224D01*
X171892040Y-81810223D01*
X172080983Y-81757469D01*
X172085725Y-81756145D01*
X172269610Y-81663258D01*
X172431951Y-81536424D01*
X172566564Y-81380472D01*
X172623640Y-81280000D01*
X172665893Y-81205622D01*
X172665894Y-81205620D01*
X172668323Y-81201344D01*
X172733351Y-81005863D01*
X172733967Y-81000988D01*
X172733968Y-81000983D01*
X172758819Y-80804257D01*
X172759171Y-80801474D01*
X172759583Y-80772000D01*
X172758138Y-80757262D01*
X173188520Y-80757262D01*
X173205759Y-80962553D01*
X173262544Y-81160586D01*
X173356712Y-81343818D01*
X173359765Y-81347670D01*
X173359767Y-81347673D01*
X173388715Y-81384196D01*
X173484677Y-81505270D01*
X173641564Y-81638791D01*
X173821398Y-81739297D01*
X173826079Y-81740818D01*
X174012649Y-81801439D01*
X174012655Y-81801440D01*
X174017329Y-81802959D01*
X174022211Y-81803541D01*
X174022215Y-81803542D01*
X174197937Y-81824494D01*
X174221894Y-81827351D01*
X174226795Y-81826974D01*
X174226798Y-81826974D01*
X174337112Y-81818486D01*
X174427300Y-81811546D01*
X174432036Y-81810224D01*
X174432040Y-81810223D01*
X174620983Y-81757469D01*
X174625725Y-81756145D01*
X174809610Y-81663258D01*
X174971951Y-81536424D01*
X175106564Y-81380472D01*
X175163640Y-81280000D01*
X175205893Y-81205622D01*
X175205894Y-81205620D01*
X175208323Y-81201344D01*
X175273351Y-81005863D01*
X175273967Y-81000988D01*
X175273968Y-81000983D01*
X175298819Y-80804257D01*
X175299171Y-80801474D01*
X175299583Y-80772000D01*
X175279480Y-80566970D01*
X175278058Y-80562260D01*
X175278057Y-80562255D01*
X175221357Y-80374460D01*
X175219935Y-80369749D01*
X175123218Y-80187849D01*
X174993011Y-80028200D01*
X174937942Y-79982643D01*
X174838063Y-79900015D01*
X174838058Y-79900012D01*
X174834275Y-79896882D01*
X174676599Y-79811627D01*
X174657378Y-79801234D01*
X174657374Y-79801232D01*
X174653055Y-79798897D01*
X174456254Y-79737977D01*
X174251369Y-79716443D01*
X174246468Y-79716889D01*
X174246465Y-79716889D01*
X174051101Y-79734668D01*
X174051098Y-79734668D01*
X174046203Y-79735114D01*
X174041489Y-79736501D01*
X174041486Y-79736502D01*
X173944951Y-79764914D01*
X173848572Y-79793280D01*
X173844212Y-79795559D01*
X173844208Y-79795561D01*
X173768201Y-79835297D01*
X173666002Y-79888726D01*
X173505447Y-80017815D01*
X173373024Y-80175630D01*
X173370657Y-80179936D01*
X173370654Y-80179940D01*
X173304524Y-80300232D01*
X173273776Y-80356162D01*
X173211484Y-80552532D01*
X173210935Y-80557423D01*
X173210935Y-80557425D01*
X173209865Y-80566970D01*
X173188520Y-80757262D01*
X172758138Y-80757262D01*
X172739480Y-80566970D01*
X172738058Y-80562260D01*
X172738057Y-80562255D01*
X172681357Y-80374460D01*
X172679935Y-80369749D01*
X172583218Y-80187849D01*
X172453011Y-80028200D01*
X172397942Y-79982643D01*
X172298063Y-79900015D01*
X172298058Y-79900012D01*
X172294275Y-79896882D01*
X172136599Y-79811627D01*
X172117378Y-79801234D01*
X172117374Y-79801232D01*
X172113055Y-79798897D01*
X171916254Y-79737977D01*
X171711369Y-79716443D01*
X171706468Y-79716889D01*
X171706465Y-79716889D01*
X171511101Y-79734668D01*
X171511098Y-79734668D01*
X171506203Y-79735114D01*
X171501489Y-79736501D01*
X171501486Y-79736502D01*
X171404951Y-79764914D01*
X171308572Y-79793280D01*
X171304212Y-79795559D01*
X171304208Y-79795561D01*
X171228201Y-79835297D01*
X171126002Y-79888726D01*
X170965447Y-80017815D01*
X170833024Y-80175630D01*
X170830657Y-80179936D01*
X170830654Y-80179940D01*
X170764524Y-80300232D01*
X170733776Y-80356162D01*
X170671484Y-80552532D01*
X170670935Y-80557423D01*
X170670935Y-80557425D01*
X170669865Y-80566970D01*
X170648520Y-80757262D01*
X170218138Y-80757262D01*
X170199480Y-80566970D01*
X170198058Y-80562260D01*
X170198057Y-80562255D01*
X170141357Y-80374460D01*
X170139935Y-80369749D01*
X170043218Y-80187849D01*
X169913011Y-80028200D01*
X169857942Y-79982643D01*
X169758063Y-79900015D01*
X169758058Y-79900012D01*
X169754275Y-79896882D01*
X169596599Y-79811627D01*
X169577378Y-79801234D01*
X169577374Y-79801232D01*
X169573055Y-79798897D01*
X169376254Y-79737977D01*
X169171369Y-79716443D01*
X169166468Y-79716889D01*
X169166465Y-79716889D01*
X168971101Y-79734668D01*
X168971098Y-79734668D01*
X168966203Y-79735114D01*
X168961489Y-79736501D01*
X168961486Y-79736502D01*
X168864951Y-79764914D01*
X168768572Y-79793280D01*
X168764209Y-79795561D01*
X168764207Y-79795562D01*
X168753309Y-79801259D01*
X168692006Y-79811627D01*
X168635568Y-79783241D01*
X168248965Y-79396639D01*
X168220739Y-79341241D01*
X168219500Y-79325504D01*
X168219500Y-77357748D01*
X169081500Y-77357748D01*
X169082465Y-77362599D01*
X169082465Y-77362600D01*
X169083668Y-77368646D01*
X169093133Y-77416231D01*
X169137448Y-77482552D01*
X169203769Y-77526867D01*
X169242088Y-77534489D01*
X169257400Y-77537535D01*
X169257401Y-77537535D01*
X169262252Y-77538500D01*
X171180411Y-77538500D01*
X171239542Y-77557713D01*
X171276087Y-77608013D01*
X171281011Y-77639100D01*
X171281011Y-78037900D01*
X171261798Y-78097031D01*
X171211498Y-78133576D01*
X171180411Y-78138500D01*
X171064512Y-78138500D01*
X171023068Y-78145064D01*
X170972695Y-78153042D01*
X170972693Y-78153043D01*
X170964874Y-78154281D01*
X170844780Y-78215472D01*
X170749472Y-78310780D01*
X170688281Y-78430874D01*
X170687043Y-78438693D01*
X170687042Y-78438695D01*
X170681928Y-78470986D01*
X170672500Y-78530512D01*
X170672500Y-79097488D01*
X170673120Y-79101401D01*
X170681777Y-79156058D01*
X170688281Y-79197126D01*
X170749472Y-79317220D01*
X170844780Y-79412528D01*
X170964874Y-79473719D01*
X170972693Y-79474957D01*
X170972695Y-79474958D01*
X171019789Y-79482417D01*
X171064512Y-79489500D01*
X171581488Y-79489500D01*
X171626211Y-79482417D01*
X171673305Y-79474958D01*
X171673307Y-79474957D01*
X171681126Y-79473719D01*
X171801220Y-79412528D01*
X171896528Y-79317220D01*
X171957719Y-79197126D01*
X171964224Y-79156058D01*
X171972880Y-79101401D01*
X171973500Y-79097488D01*
X171973500Y-78530512D01*
X171964072Y-78470986D01*
X171958958Y-78438695D01*
X171958957Y-78438693D01*
X171957719Y-78430874D01*
X171942976Y-78401939D01*
X171932011Y-78356268D01*
X171932011Y-78352227D01*
X171951224Y-78293096D01*
X172001524Y-78256551D01*
X172063698Y-78256551D01*
X172071109Y-78259285D01*
X172191238Y-78309044D01*
X172197774Y-78309904D01*
X172197776Y-78309905D01*
X172341460Y-78328821D01*
X172348000Y-78329682D01*
X172457789Y-78315228D01*
X172518921Y-78326558D01*
X172544293Y-78348573D01*
X172544575Y-78348269D01*
X172580795Y-78381868D01*
X172583514Y-78384486D01*
X172597276Y-78398248D01*
X172601006Y-78400806D01*
X172604852Y-78404184D01*
X172619833Y-78418082D01*
X172619837Y-78418084D01*
X172626646Y-78424401D01*
X172635274Y-78427843D01*
X172637169Y-78428599D01*
X172656799Y-78439080D01*
X172666146Y-78445492D01*
X172689903Y-78451130D01*
X172691948Y-78451615D01*
X172705999Y-78456059D01*
X172730622Y-78465883D01*
X172736915Y-78466500D01*
X172737378Y-78466500D01*
X172744590Y-78468255D01*
X172743926Y-78470986D01*
X172789692Y-78490985D01*
X172806539Y-78510315D01*
X172843448Y-78565552D01*
X172909769Y-78609867D01*
X172948088Y-78617489D01*
X172963400Y-78620535D01*
X172963401Y-78620535D01*
X172968252Y-78621500D01*
X173707748Y-78621500D01*
X173712599Y-78620535D01*
X173712600Y-78620535D01*
X173727912Y-78617489D01*
X173766231Y-78609867D01*
X173832552Y-78565552D01*
X173838593Y-78556512D01*
X173871361Y-78507471D01*
X173876867Y-78499231D01*
X173887130Y-78447636D01*
X173887535Y-78445600D01*
X173887535Y-78445599D01*
X173888500Y-78440748D01*
X173888500Y-77891252D01*
X173876867Y-77832769D01*
X173832552Y-77766448D01*
X173825199Y-77761535D01*
X173797279Y-77706737D01*
X173807005Y-77645329D01*
X173824946Y-77620634D01*
X173832552Y-77615552D01*
X173876867Y-77549231D01*
X173888500Y-77490748D01*
X173888500Y-76941252D01*
X173886216Y-76929767D01*
X173882850Y-76912848D01*
X173876867Y-76882769D01*
X173841892Y-76830426D01*
X173838058Y-76824688D01*
X173832552Y-76816448D01*
X173825199Y-76811535D01*
X173797279Y-76756737D01*
X173807005Y-76695329D01*
X173824946Y-76670634D01*
X173832552Y-76665552D01*
X173845788Y-76645744D01*
X173871361Y-76607471D01*
X173876867Y-76599231D01*
X173888500Y-76540748D01*
X173888500Y-75991252D01*
X173876867Y-75932769D01*
X173848638Y-75890522D01*
X173838058Y-75874688D01*
X173832552Y-75866448D01*
X173824049Y-75860766D01*
X173783124Y-75833421D01*
X173766231Y-75822133D01*
X173727912Y-75814511D01*
X173712600Y-75811465D01*
X173712599Y-75811465D01*
X173707748Y-75810500D01*
X173384496Y-75810500D01*
X173325365Y-75791287D01*
X173313361Y-75781035D01*
X173298806Y-75766480D01*
X173292877Y-75760009D01*
X173273601Y-75737036D01*
X173273599Y-75737034D01*
X173267944Y-75730295D01*
X173260324Y-75725896D01*
X173260322Y-75725894D01*
X173234346Y-75710897D01*
X173226944Y-75706181D01*
X173202384Y-75688984D01*
X173202383Y-75688983D01*
X173195173Y-75683935D01*
X173186672Y-75681657D01*
X173181519Y-75679254D01*
X173176158Y-75677303D01*
X173168534Y-75672901D01*
X173137444Y-75667419D01*
X173130342Y-75666167D01*
X173121773Y-75664267D01*
X173092797Y-75656503D01*
X173084296Y-75654225D01*
X173075529Y-75654992D01*
X173045653Y-75657606D01*
X173036885Y-75657989D01*
X172649432Y-75657989D01*
X172590301Y-75638776D01*
X172553756Y-75588476D01*
X172549693Y-75544258D01*
X172562821Y-75444540D01*
X172563682Y-75438000D01*
X172559599Y-75406987D01*
X172543905Y-75287776D01*
X172543904Y-75287774D01*
X172543044Y-75281238D01*
X172482536Y-75135159D01*
X172386282Y-75009718D01*
X172260841Y-74913464D01*
X172114762Y-74852956D01*
X172108226Y-74852096D01*
X172108224Y-74852095D01*
X171964540Y-74833179D01*
X171958000Y-74832318D01*
X171951460Y-74833179D01*
X171807776Y-74852095D01*
X171807774Y-74852096D01*
X171801238Y-74852956D01*
X171655159Y-74913464D01*
X171644340Y-74921766D01*
X171585734Y-74942520D01*
X171526120Y-74924861D01*
X171488270Y-74875535D01*
X171482500Y-74841954D01*
X171482500Y-73518252D01*
X171470867Y-73459769D01*
X171426552Y-73393448D01*
X171360231Y-73349133D01*
X171316071Y-73340349D01*
X171306600Y-73338465D01*
X171306599Y-73338465D01*
X171301748Y-73337500D01*
X169262252Y-73337500D01*
X169257401Y-73338465D01*
X169257400Y-73338465D01*
X169247929Y-73340349D01*
X169203769Y-73349133D01*
X169137448Y-73393448D01*
X169093133Y-73459769D01*
X169081500Y-73518252D01*
X169081500Y-77357748D01*
X168219500Y-77357748D01*
X168219500Y-74724759D01*
X168238713Y-74665628D01*
X168258859Y-74644948D01*
X168317047Y-74600299D01*
X168322282Y-74596282D01*
X168418536Y-74470841D01*
X168479044Y-74324762D01*
X168482279Y-74300194D01*
X168498821Y-74174540D01*
X168499682Y-74168000D01*
X168486295Y-74066315D01*
X168479905Y-74017776D01*
X168479904Y-74017774D01*
X168479044Y-74011238D01*
X168418536Y-73865159D01*
X168322282Y-73739718D01*
X168196841Y-73643464D01*
X168050762Y-73582956D01*
X168044226Y-73582096D01*
X168044224Y-73582095D01*
X167900540Y-73563179D01*
X167894000Y-73562318D01*
X167887460Y-73563179D01*
X167743776Y-73582095D01*
X167743774Y-73582096D01*
X167737238Y-73582956D01*
X167591159Y-73643464D01*
X167465718Y-73739718D01*
X167369464Y-73865159D01*
X167308956Y-74011238D01*
X167308096Y-74017774D01*
X167308095Y-74017776D01*
X167301705Y-74066315D01*
X167288318Y-74168000D01*
X166870500Y-74168000D01*
X166870500Y-71695347D01*
X166871914Y-71682693D01*
X166871863Y-71682689D01*
X166872438Y-71675541D01*
X166874019Y-71668553D01*
X166870693Y-71614946D01*
X166870500Y-71608717D01*
X166870500Y-71592060D01*
X166869993Y-71588517D01*
X166869992Y-71588509D01*
X166868908Y-71580940D01*
X166868085Y-71572910D01*
X166865585Y-71532615D01*
X166865585Y-71532614D01*
X166865141Y-71525462D01*
X166861714Y-71515968D01*
X166856754Y-71496076D01*
X166856507Y-71494350D01*
X166855323Y-71486082D01*
X166835643Y-71442798D01*
X166832599Y-71435319D01*
X166818895Y-71397358D01*
X166816460Y-71390613D01*
X166810504Y-71382460D01*
X166800163Y-71364763D01*
X166798950Y-71362096D01*
X166795984Y-71355572D01*
X166764940Y-71319544D01*
X166759934Y-71313238D01*
X166755084Y-71306600D01*
X166753771Y-71304802D01*
X166753767Y-71304798D01*
X166751478Y-71301664D01*
X166740064Y-71290250D01*
X166734988Y-71284783D01*
X166707077Y-71252390D01*
X166707074Y-71252387D01*
X166702400Y-71246963D01*
X166696385Y-71243064D01*
X166695327Y-71242378D01*
X166678910Y-71229096D01*
X165769526Y-70319712D01*
X165761581Y-70309769D01*
X165761542Y-70309802D01*
X165756894Y-70304341D01*
X165753070Y-70298280D01*
X165712826Y-70262738D01*
X165708284Y-70258470D01*
X165696494Y-70246680D01*
X165693641Y-70244542D01*
X165693632Y-70244534D01*
X165687493Y-70239933D01*
X165681246Y-70234848D01*
X165645612Y-70203377D01*
X165639129Y-70200333D01*
X165639121Y-70200328D01*
X165636475Y-70199086D01*
X165618899Y-70188526D01*
X165616560Y-70186773D01*
X165616561Y-70186773D01*
X165610824Y-70182474D01*
X165604113Y-70179958D01*
X165604111Y-70179957D01*
X165566312Y-70165787D01*
X165558872Y-70162652D01*
X165522323Y-70145492D01*
X165522322Y-70145492D01*
X165515837Y-70142447D01*
X165508760Y-70141345D01*
X165508756Y-70141344D01*
X165505870Y-70140895D01*
X165486028Y-70135690D01*
X165476580Y-70132148D01*
X165429170Y-70128625D01*
X165421165Y-70127706D01*
X165406991Y-70125500D01*
X165390842Y-70125500D01*
X165383387Y-70125223D01*
X165340758Y-70122055D01*
X165340756Y-70122055D01*
X165333608Y-70121524D01*
X165325367Y-70123283D01*
X165304367Y-70125500D01*
X165283100Y-70125500D01*
X165223969Y-70106287D01*
X165187424Y-70055987D01*
X165182500Y-70024900D01*
X165182500Y-69856252D01*
X165180445Y-69845918D01*
X165172800Y-69807488D01*
X165170867Y-69797769D01*
X165138885Y-69749905D01*
X165132058Y-69739688D01*
X165126552Y-69731448D01*
X165060231Y-69687133D01*
X165021912Y-69679511D01*
X165006600Y-69676465D01*
X165006599Y-69676465D01*
X165001748Y-69675500D01*
X162962252Y-69675500D01*
X162957401Y-69676465D01*
X162957400Y-69676465D01*
X162942088Y-69679511D01*
X162903769Y-69687133D01*
X162837448Y-69731448D01*
X162831942Y-69739688D01*
X162812752Y-69768408D01*
X162793133Y-69797769D01*
X162790163Y-69795784D01*
X162761197Y-69829686D01*
X162708650Y-69844500D01*
X162415918Y-69844500D01*
X162356787Y-69825287D01*
X162344783Y-69815035D01*
X162301220Y-69771472D01*
X162181126Y-69710281D01*
X162173307Y-69709043D01*
X162173305Y-69709042D01*
X162124327Y-69701285D01*
X162081488Y-69694500D01*
X161514512Y-69694500D01*
X161471673Y-69701285D01*
X161422695Y-69709042D01*
X161422693Y-69709043D01*
X161414874Y-69710281D01*
X161294780Y-69771472D01*
X161199472Y-69866780D01*
X161138281Y-69986874D01*
X161137043Y-69994693D01*
X161137042Y-69994695D01*
X161134047Y-70013608D01*
X161122500Y-70086512D01*
X161122500Y-70603488D01*
X160520500Y-70603488D01*
X160520500Y-69837315D01*
X160538717Y-69783646D01*
X160537224Y-69782784D01*
X160540520Y-69777075D01*
X160544536Y-69771841D01*
X160605044Y-69625762D01*
X160606276Y-69616409D01*
X160624821Y-69475540D01*
X160625682Y-69469000D01*
X160623845Y-69455043D01*
X160605905Y-69318776D01*
X160605904Y-69318774D01*
X160605044Y-69312238D01*
X160544536Y-69166159D01*
X160540520Y-69160925D01*
X160537224Y-69155216D01*
X160538717Y-69154354D01*
X160520500Y-69100685D01*
X160520500Y-67885347D01*
X160521914Y-67872693D01*
X160521863Y-67872689D01*
X160522438Y-67865539D01*
X160524019Y-67858553D01*
X160523576Y-67851405D01*
X160523576Y-67851399D01*
X160523238Y-67845956D01*
X160538754Y-67785749D01*
X160586696Y-67746160D01*
X160648751Y-67742312D01*
X160694780Y-67768594D01*
X161558474Y-68632288D01*
X161566419Y-68642231D01*
X161566458Y-68642198D01*
X161571106Y-68647659D01*
X161574930Y-68653720D01*
X161580304Y-68658466D01*
X161615174Y-68689262D01*
X161619716Y-68693530D01*
X161631507Y-68705321D01*
X161634367Y-68707464D01*
X161634379Y-68707475D01*
X161640501Y-68712063D01*
X161646761Y-68717158D01*
X161682388Y-68748623D01*
X161690206Y-68752294D01*
X161691522Y-68752912D01*
X161709093Y-68763470D01*
X161717176Y-68769527D01*
X161723884Y-68772042D01*
X161723890Y-68772045D01*
X161761697Y-68786218D01*
X161769137Y-68789353D01*
X161805675Y-68806508D01*
X161805682Y-68806510D01*
X161812163Y-68809553D01*
X161822140Y-68811106D01*
X161841969Y-68816309D01*
X161851420Y-68819852D01*
X161898830Y-68823375D01*
X161906835Y-68824294D01*
X161921009Y-68826500D01*
X161937158Y-68826500D01*
X161944613Y-68826777D01*
X161987242Y-68829945D01*
X161987244Y-68829945D01*
X161994392Y-68830476D01*
X162002633Y-68828717D01*
X162023633Y-68826500D01*
X162680900Y-68826500D01*
X162740031Y-68845713D01*
X162776576Y-68896013D01*
X162781500Y-68927100D01*
X162781500Y-69095748D01*
X162793133Y-69154231D01*
X162837448Y-69220552D01*
X162845688Y-69226058D01*
X162857779Y-69234137D01*
X162903769Y-69264867D01*
X162930163Y-69270117D01*
X162957400Y-69275535D01*
X162957401Y-69275535D01*
X162962252Y-69276500D01*
X165001748Y-69276500D01*
X165006599Y-69275535D01*
X165006600Y-69275535D01*
X165033837Y-69270117D01*
X165060231Y-69264867D01*
X165106221Y-69234137D01*
X165118312Y-69226058D01*
X165126552Y-69220552D01*
X165170867Y-69154231D01*
X165182500Y-69095748D01*
X165182500Y-68950287D01*
X165201713Y-68891156D01*
X165252013Y-68854611D01*
X165314187Y-68854611D01*
X165321592Y-68857343D01*
X165451238Y-68911044D01*
X165457778Y-68911905D01*
X165464144Y-68913611D01*
X165463491Y-68916046D01*
X165512110Y-68940026D01*
X169418372Y-72846288D01*
X169426317Y-72856231D01*
X169426356Y-72856198D01*
X169431004Y-72861659D01*
X169434828Y-72867720D01*
X169440202Y-72872466D01*
X169475072Y-72903262D01*
X169479614Y-72907530D01*
X169491404Y-72919320D01*
X169494257Y-72921458D01*
X169494266Y-72921466D01*
X169500405Y-72926067D01*
X169506652Y-72931152D01*
X169542286Y-72962623D01*
X169548769Y-72965667D01*
X169548777Y-72965672D01*
X169551423Y-72966914D01*
X169568998Y-72977473D01*
X169577074Y-72983526D01*
X169621605Y-73000220D01*
X169629019Y-73003345D01*
X169665570Y-73020506D01*
X169665574Y-73020507D01*
X169672061Y-73023553D01*
X169682036Y-73025106D01*
X169701866Y-73030309D01*
X169711317Y-73033852D01*
X169757742Y-73037302D01*
X169758724Y-73037375D01*
X169766743Y-73038295D01*
X169777076Y-73039904D01*
X169777081Y-73039904D01*
X169780907Y-73040500D01*
X169797055Y-73040500D01*
X169804510Y-73040777D01*
X169847139Y-73043945D01*
X169847141Y-73043945D01*
X169854289Y-73044476D01*
X169862530Y-73042717D01*
X169883530Y-73040500D01*
X172197900Y-73040500D01*
X172257031Y-73059713D01*
X172293576Y-73110013D01*
X172298500Y-73141100D01*
X172298500Y-73397488D01*
X172299120Y-73401401D01*
X172311144Y-73477317D01*
X172314281Y-73497126D01*
X172375472Y-73617220D01*
X172470780Y-73712528D01*
X172590874Y-73773719D01*
X172598693Y-73774957D01*
X172598695Y-73774958D01*
X172645789Y-73782417D01*
X172690512Y-73789500D01*
X173257488Y-73789500D01*
X173302211Y-73782417D01*
X173349305Y-73774958D01*
X173349307Y-73774957D01*
X173357126Y-73773719D01*
X173477220Y-73712528D01*
X173520783Y-73668965D01*
X173576181Y-73640739D01*
X173591918Y-73639500D01*
X173724016Y-73639500D01*
X173783147Y-73658713D01*
X173795151Y-73668965D01*
X175895482Y-75769296D01*
X175917289Y-75801934D01*
X175920937Y-75810742D01*
X175920939Y-75810745D01*
X175923464Y-75816841D01*
X175975350Y-75884460D01*
X176014051Y-75934896D01*
X176019718Y-75942282D01*
X176145159Y-76038536D01*
X176291238Y-76099044D01*
X176297774Y-76099904D01*
X176297776Y-76099905D01*
X176441460Y-76118821D01*
X176448000Y-76119682D01*
X176454540Y-76118821D01*
X176598224Y-76099905D01*
X176598226Y-76099904D01*
X176604762Y-76099044D01*
X176750841Y-76038536D01*
X176876282Y-75942282D01*
X176881950Y-75934896D01*
X176920650Y-75884460D01*
X176972536Y-75816841D01*
X177033044Y-75670762D01*
X177035237Y-75654109D01*
X177052821Y-75520540D01*
X177053682Y-75514000D01*
X177045498Y-75451833D01*
X177040702Y-75415405D01*
X177052032Y-75354272D01*
X177097132Y-75311474D01*
X177160066Y-75303607D01*
X177167132Y-75305012D01*
X177178920Y-75307357D01*
X177233167Y-75337736D01*
X177257962Y-75386398D01*
X177264765Y-75420598D01*
X177270270Y-75428837D01*
X177302560Y-75477162D01*
X177308221Y-75485635D01*
X177433239Y-75610652D01*
X177498276Y-75654109D01*
X177600893Y-75674521D01*
X177703511Y-75654109D01*
X177755285Y-75619515D01*
X177764442Y-75613396D01*
X177764443Y-75613395D01*
X177768547Y-75610653D01*
X178236865Y-75142334D01*
X178292263Y-75114108D01*
X178353671Y-75123834D01*
X178379135Y-75142334D01*
X178847453Y-75610652D01*
X178851560Y-75613396D01*
X178851561Y-75613397D01*
X178871622Y-75626802D01*
X178910113Y-75675630D01*
X178916330Y-75710447D01*
X178916330Y-75822829D01*
X178897117Y-75881960D01*
X178886865Y-75893964D01*
X178779454Y-76001376D01*
X178713614Y-76067216D01*
X178658217Y-76095442D01*
X178596808Y-76085716D01*
X178571344Y-76067216D01*
X178504394Y-76000266D01*
X178493129Y-75986842D01*
X178487896Y-75979371D01*
X178487895Y-75979370D01*
X178482846Y-75972161D01*
X178475639Y-75967116D01*
X178475637Y-75967114D01*
X178466441Y-75960677D01*
X178461419Y-75956923D01*
X178444905Y-75943757D01*
X178393637Y-75902882D01*
X178306526Y-75860942D01*
X178297111Y-75856409D01*
X178297110Y-75856409D01*
X178292022Y-75853959D01*
X178286515Y-75852703D01*
X178286514Y-75852702D01*
X178210617Y-75835384D01*
X178182070Y-75828870D01*
X178176421Y-75828870D01*
X178125690Y-75828872D01*
X178069291Y-75828875D01*
X178014316Y-75841423D01*
X177964851Y-75852714D01*
X177964849Y-75852715D01*
X177959341Y-75853972D01*
X177954249Y-75856424D01*
X177862819Y-75900452D01*
X177862816Y-75900454D01*
X177857730Y-75902903D01*
X177826237Y-75928016D01*
X177813794Y-75935885D01*
X177810345Y-75938447D01*
X177801998Y-75942527D01*
X177792854Y-75952385D01*
X177776793Y-75966382D01*
X177775725Y-75967129D01*
X177775724Y-75967130D01*
X177768515Y-75972177D01*
X177763465Y-75979388D01*
X177756511Y-75989317D01*
X177752776Y-75994313D01*
X177747845Y-76000496D01*
X177742983Y-76006146D01*
X177725866Y-76024598D01*
X177723314Y-76030994D01*
X177721610Y-76033390D01*
X177699259Y-76061413D01*
X177650320Y-76163018D01*
X177649063Y-76168523D01*
X177626754Y-76266231D01*
X177625216Y-76272965D01*
X177625215Y-76278605D01*
X177625215Y-76278609D01*
X177625212Y-76311850D01*
X177625205Y-76385743D01*
X177626462Y-76391252D01*
X177626462Y-76391254D01*
X177649010Y-76490089D01*
X177650289Y-76495695D01*
X177654781Y-76505025D01*
X177695997Y-76590635D01*
X177699210Y-76597309D01*
X177715927Y-76618277D01*
X177719267Y-76622466D01*
X177726542Y-76632877D01*
X177727426Y-76634330D01*
X177730231Y-76640858D01*
X177734245Y-76645744D01*
X177746946Y-76658445D01*
X177758227Y-76671891D01*
X177768474Y-76686530D01*
X177775683Y-76691579D01*
X177783157Y-76696814D01*
X177796579Y-76708078D01*
X177863529Y-76775028D01*
X177891755Y-76830426D01*
X177882029Y-76891834D01*
X177863529Y-76917298D01*
X177807629Y-76973199D01*
X177696671Y-77084158D01*
X177644794Y-77136035D01*
X177589397Y-77164261D01*
X177573659Y-77165500D01*
X176599142Y-77165500D01*
X176540011Y-77146287D01*
X176528007Y-77136035D01*
X176433276Y-77041304D01*
X176430629Y-77038238D01*
X176428426Y-77033731D01*
X176392192Y-77000119D01*
X176389474Y-76997502D01*
X176375724Y-76983752D01*
X176371994Y-76981193D01*
X176368163Y-76977829D01*
X176357839Y-76968252D01*
X176346355Y-76957599D01*
X176337228Y-76953958D01*
X176335826Y-76953398D01*
X176316204Y-76942920D01*
X176314518Y-76941764D01*
X176314515Y-76941763D01*
X176306855Y-76936508D01*
X176281054Y-76930385D01*
X176267003Y-76925941D01*
X176242379Y-76916117D01*
X176243385Y-76913595D01*
X176200623Y-76887202D01*
X176193683Y-76878004D01*
X176152552Y-76816448D01*
X176137669Y-76806503D01*
X176094471Y-76777639D01*
X176086231Y-76772133D01*
X176037134Y-76762367D01*
X176032600Y-76761465D01*
X176032599Y-76761465D01*
X176027748Y-76760500D01*
X175288252Y-76760500D01*
X175283401Y-76761465D01*
X175283400Y-76761465D01*
X175278866Y-76762367D01*
X175229769Y-76772133D01*
X175221529Y-76777639D01*
X175178332Y-76806503D01*
X175163448Y-76816448D01*
X175157942Y-76824688D01*
X175154108Y-76830426D01*
X175119133Y-76882769D01*
X175113150Y-76912848D01*
X175109785Y-76929767D01*
X175107500Y-76941252D01*
X175107500Y-77490748D01*
X175119133Y-77549231D01*
X175163448Y-77615552D01*
X175170801Y-77620465D01*
X175198721Y-77675263D01*
X175188995Y-77736671D01*
X175171054Y-77761366D01*
X175163448Y-77766448D01*
X175119133Y-77832769D01*
X175107500Y-77891252D01*
X175107500Y-78440748D01*
X175108465Y-78445599D01*
X175108465Y-78445600D01*
X175108870Y-78447636D01*
X175119133Y-78499231D01*
X175124639Y-78507471D01*
X175157408Y-78556512D01*
X175163448Y-78565552D01*
X175229769Y-78609867D01*
X175268088Y-78617489D01*
X175283400Y-78620535D01*
X175283401Y-78620535D01*
X175288252Y-78621500D01*
X176027748Y-78621500D01*
X176032599Y-78620535D01*
X176032600Y-78620535D01*
X176047912Y-78617489D01*
X176086231Y-78609867D01*
X176152552Y-78565552D01*
X176158058Y-78557312D01*
X176193992Y-78503534D01*
X176242819Y-78465043D01*
X176244908Y-78464425D01*
X176250209Y-78464226D01*
X176258740Y-78460561D01*
X176258744Y-78460560D01*
X176260624Y-78459752D01*
X176281913Y-78453284D01*
X176282007Y-78453266D01*
X176293054Y-78451209D01*
X176315626Y-78437295D01*
X176328702Y-78430503D01*
X176353064Y-78420036D01*
X176357950Y-78416022D01*
X176362181Y-78411791D01*
X176380310Y-78397461D01*
X176380440Y-78397344D01*
X176388349Y-78392468D01*
X176393970Y-78385075D01*
X176393972Y-78385074D01*
X176405948Y-78369324D01*
X176414891Y-78359081D01*
X176528008Y-78245965D01*
X176583406Y-78217738D01*
X176599143Y-78216500D01*
X177872757Y-78216500D01*
X177876800Y-78216797D01*
X177881542Y-78218425D01*
X177890819Y-78218077D01*
X177890821Y-78218077D01*
X177924594Y-78216809D01*
X177930936Y-78216571D01*
X177934707Y-78216500D01*
X177954148Y-78216500D01*
X177958592Y-78215673D01*
X177963696Y-78215342D01*
X177984127Y-78214575D01*
X177984130Y-78214574D01*
X177993408Y-78214226D01*
X178001940Y-78210560D01*
X178001942Y-78210560D01*
X178003823Y-78209752D01*
X178025112Y-78203284D01*
X178025206Y-78203266D01*
X178036253Y-78201209D01*
X178058825Y-78187295D01*
X178071901Y-78180503D01*
X178089734Y-78172841D01*
X178096263Y-78170036D01*
X178101149Y-78166022D01*
X178105380Y-78161791D01*
X178123509Y-78147461D01*
X178123639Y-78147344D01*
X178131548Y-78142468D01*
X178137169Y-78135075D01*
X178137171Y-78135074D01*
X178149147Y-78119324D01*
X178158090Y-78109081D01*
X178318765Y-77948406D01*
X178374163Y-77920180D01*
X178435571Y-77929906D01*
X178479535Y-77973870D01*
X178490500Y-78019541D01*
X178490500Y-78563504D01*
X178471287Y-78622635D01*
X178461035Y-78634639D01*
X177313399Y-79782275D01*
X177258001Y-79810501D01*
X177202790Y-79801071D01*
X177201918Y-79803144D01*
X177197387Y-79801239D01*
X177193055Y-79798897D01*
X177188351Y-79797441D01*
X177188349Y-79797440D01*
X177117976Y-79775656D01*
X176996254Y-79737977D01*
X176791369Y-79716443D01*
X176786468Y-79716889D01*
X176786465Y-79716889D01*
X176591101Y-79734668D01*
X176591098Y-79734668D01*
X176586203Y-79735114D01*
X176581489Y-79736501D01*
X176581486Y-79736502D01*
X176484951Y-79764914D01*
X176388572Y-79793280D01*
X176384212Y-79795559D01*
X176384208Y-79795561D01*
X176308201Y-79835297D01*
X176206002Y-79888726D01*
X176045447Y-80017815D01*
X175913024Y-80175630D01*
X175910657Y-80179936D01*
X175910654Y-80179940D01*
X175844524Y-80300232D01*
X175813776Y-80356162D01*
X175751484Y-80552532D01*
X175750935Y-80557423D01*
X175750935Y-80557425D01*
X175749865Y-80566970D01*
X175728520Y-80757262D01*
X175745759Y-80962553D01*
X175802544Y-81160586D01*
X175896712Y-81343818D01*
X175899765Y-81347670D01*
X175899767Y-81347673D01*
X175928715Y-81384196D01*
X176024677Y-81505270D01*
X176181564Y-81638791D01*
X176361398Y-81739297D01*
X176366079Y-81740818D01*
X176552649Y-81801439D01*
X176552655Y-81801440D01*
X176557329Y-81802959D01*
X176562211Y-81803541D01*
X176562215Y-81803542D01*
X176737937Y-81824494D01*
X176761894Y-81827351D01*
X176766795Y-81826974D01*
X176766798Y-81826974D01*
X176877112Y-81818486D01*
X176967300Y-81811546D01*
X176972036Y-81810224D01*
X176972040Y-81810223D01*
X177160983Y-81757469D01*
X177165725Y-81756145D01*
X177349610Y-81663258D01*
X177511951Y-81536424D01*
X177646564Y-81380472D01*
X177703640Y-81280000D01*
X177745893Y-81205622D01*
X177745894Y-81205620D01*
X177748323Y-81201344D01*
X177813351Y-81005863D01*
X177813967Y-81000988D01*
X177813968Y-81000983D01*
X177838819Y-80804257D01*
X177839171Y-80801474D01*
X177839583Y-80772000D01*
X177819480Y-80566970D01*
X177818058Y-80562260D01*
X177818057Y-80562255D01*
X177761357Y-80374460D01*
X177759935Y-80369749D01*
X177757624Y-80365402D01*
X177755530Y-80361463D01*
X177744737Y-80300232D01*
X177773222Y-80243104D01*
X178826765Y-79189561D01*
X178882163Y-79161335D01*
X178943571Y-79171061D01*
X178987535Y-79215025D01*
X178998500Y-79260696D01*
X178998500Y-79697689D01*
X178979287Y-79756820D01*
X178935588Y-79790963D01*
X178933291Y-79791891D01*
X178928572Y-79793280D01*
X178746002Y-79888726D01*
X178585447Y-80017815D01*
X178453024Y-80175630D01*
X178450657Y-80179936D01*
X178450654Y-80179940D01*
X178384524Y-80300232D01*
X178353776Y-80356162D01*
X178291484Y-80552532D01*
X178290935Y-80557423D01*
X178290935Y-80557425D01*
X178289865Y-80566970D01*
X178268520Y-80757262D01*
X178285759Y-80962553D01*
X178342544Y-81160586D01*
X178436712Y-81343818D01*
X178439765Y-81347670D01*
X178439767Y-81347673D01*
X178468715Y-81384196D01*
X178564677Y-81505270D01*
X178721564Y-81638791D01*
X178901398Y-81739297D01*
X178906079Y-81740818D01*
X179092649Y-81801439D01*
X179092655Y-81801440D01*
X179097329Y-81802959D01*
X179102211Y-81803541D01*
X179102215Y-81803542D01*
X179277937Y-81824494D01*
X179301894Y-81827351D01*
X179306795Y-81826974D01*
X179306798Y-81826974D01*
X179417112Y-81818486D01*
X179507300Y-81811546D01*
X179512036Y-81810224D01*
X179512040Y-81810223D01*
X179700983Y-81757469D01*
X179705725Y-81756145D01*
X179889610Y-81663258D01*
X180051951Y-81536424D01*
X180186564Y-81380472D01*
X180243640Y-81280000D01*
X180285893Y-81205622D01*
X180285894Y-81205620D01*
X180288323Y-81201344D01*
X180353351Y-81005863D01*
X180353967Y-81000988D01*
X180353968Y-81000983D01*
X180378819Y-80804257D01*
X180379171Y-80801474D01*
X180379583Y-80772000D01*
X180359480Y-80566970D01*
X180358058Y-80562260D01*
X180358057Y-80562255D01*
X180301357Y-80374460D01*
X180299935Y-80369749D01*
X180203218Y-80187849D01*
X180073011Y-80028200D01*
X180017942Y-79982643D01*
X179918063Y-79900015D01*
X179918058Y-79900012D01*
X179914275Y-79896882D01*
X179733055Y-79798897D01*
X179728356Y-79797442D01*
X179728348Y-79797439D01*
X179720349Y-79794963D01*
X179669544Y-79759122D01*
X179649500Y-79698863D01*
X179649500Y-77930774D01*
X179668713Y-77871643D01*
X179678965Y-77859639D01*
X180128881Y-77409723D01*
X180184279Y-77381497D01*
X180245687Y-77391223D01*
X180289651Y-77435187D01*
X180300616Y-77480858D01*
X180300616Y-77515063D01*
X180303062Y-77522590D01*
X180303062Y-77522592D01*
X180308231Y-77538500D01*
X180342267Y-77643250D01*
X180346920Y-77649654D01*
X180399239Y-77721666D01*
X180399242Y-77721670D01*
X180401563Y-77724864D01*
X180767120Y-78090421D01*
X180770314Y-78092742D01*
X180770318Y-78092745D01*
X180820546Y-78129237D01*
X180848734Y-78149717D01*
X180898915Y-78166022D01*
X180969392Y-78188922D01*
X180969394Y-78188922D01*
X180976921Y-78191368D01*
X181111707Y-78191368D01*
X181119234Y-78188922D01*
X181119236Y-78188922D01*
X181186294Y-78167133D01*
X181239895Y-78149717D01*
X181268083Y-78129237D01*
X181318311Y-78092745D01*
X181318315Y-78092742D01*
X181321509Y-78090421D01*
X181722421Y-77689509D01*
X181724742Y-77686315D01*
X181724745Y-77686311D01*
X181777064Y-77614299D01*
X181781717Y-77607895D01*
X181823368Y-77479707D01*
X181823368Y-77344921D01*
X181814197Y-77316694D01*
X181790996Y-77245293D01*
X181781717Y-77216734D01*
X181748108Y-77170475D01*
X181724745Y-77138318D01*
X181724742Y-77138314D01*
X181722421Y-77135120D01*
X181416957Y-76829656D01*
X181388731Y-76774258D01*
X181387492Y-76758521D01*
X181387492Y-76442555D01*
X181406705Y-76383424D01*
X181416957Y-76371420D01*
X181476527Y-76311850D01*
X181531925Y-76283624D01*
X181593333Y-76293350D01*
X181618797Y-76311850D01*
X181649661Y-76342714D01*
X181699241Y-76375842D01*
X181749020Y-76385743D01*
X181762882Y-76388500D01*
X181777472Y-76391402D01*
X181787191Y-76389469D01*
X181845987Y-76377775D01*
X181845989Y-76377774D01*
X181855704Y-76375842D01*
X181905283Y-76342714D01*
X182498897Y-75749100D01*
X182501645Y-75744988D01*
X182522103Y-75714372D01*
X182569148Y-75677286D01*
X182567249Y-75676017D01*
X182548227Y-75621161D01*
X182547585Y-75621289D01*
X182546663Y-75616651D01*
X182546662Y-75616648D01*
X182532025Y-75543058D01*
X182498897Y-75493478D01*
X181834573Y-74829154D01*
X181826616Y-74823837D01*
X181784993Y-74796026D01*
X181785997Y-74794523D01*
X181769144Y-74783265D01*
X181155181Y-74169302D01*
X181126955Y-74113904D01*
X181136681Y-74052496D01*
X181180645Y-74008532D01*
X181226316Y-73997567D01*
X181325329Y-73997567D01*
X181334096Y-73997950D01*
X181372740Y-74001331D01*
X181382351Y-73998756D01*
X181410217Y-73991289D01*
X181418786Y-73989389D01*
X181432533Y-73986965D01*
X181456978Y-73982655D01*
X181464602Y-73978253D01*
X181469963Y-73976302D01*
X181475116Y-73973899D01*
X181483617Y-73971621D01*
X181491315Y-73966231D01*
X181515388Y-73949375D01*
X181522790Y-73944659D01*
X181548763Y-73929664D01*
X181548766Y-73929661D01*
X181556388Y-73925261D01*
X181575234Y-73902801D01*
X181581328Y-73895539D01*
X181587257Y-73889069D01*
X181715361Y-73760965D01*
X181770759Y-73732739D01*
X181786496Y-73731500D01*
X182334812Y-73731500D01*
X182393943Y-73750713D01*
X182405947Y-73760965D01*
X183154918Y-74509937D01*
X183183144Y-74565335D01*
X183184383Y-74581072D01*
X183184383Y-75161950D01*
X183165170Y-75221081D01*
X183154918Y-75233085D01*
X182753103Y-75634900D01*
X182750357Y-75639009D01*
X182750355Y-75639012D01*
X182729897Y-75669628D01*
X182682852Y-75706714D01*
X182684751Y-75707983D01*
X182703773Y-75762839D01*
X182704415Y-75762711D01*
X182705165Y-75766480D01*
X182719975Y-75840942D01*
X182737017Y-75866448D01*
X182749053Y-75884460D01*
X182753103Y-75890522D01*
X183417427Y-76554846D01*
X183421531Y-76557588D01*
X183421532Y-76557589D01*
X183423487Y-76558895D01*
X183467007Y-76587974D01*
X183545238Y-76603534D01*
X183554957Y-76601601D01*
X183613753Y-76589907D01*
X183613755Y-76589906D01*
X183623470Y-76587974D01*
X183659496Y-76563902D01*
X183668943Y-76557590D01*
X183668946Y-76557588D01*
X183673049Y-76554846D01*
X183675758Y-76552137D01*
X183733329Y-76529604D01*
X183793488Y-76545303D01*
X183810386Y-76558895D01*
X183908880Y-76657389D01*
X183936632Y-76711854D01*
X183936632Y-76717707D01*
X183978283Y-76845895D01*
X183982936Y-76852299D01*
X184035255Y-76924311D01*
X184035258Y-76924315D01*
X184037579Y-76927509D01*
X184438491Y-77328421D01*
X184441685Y-77330742D01*
X184441689Y-77330745D01*
X184477169Y-77356522D01*
X184520105Y-77387717D01*
X184553292Y-77398500D01*
X184640764Y-77426922D01*
X184640766Y-77426922D01*
X184648293Y-77429368D01*
X184783079Y-77429368D01*
X184790606Y-77426922D01*
X184790608Y-77426922D01*
X184856228Y-77405600D01*
X184911266Y-77387717D01*
X184954202Y-77356522D01*
X184989682Y-77330745D01*
X184989686Y-77330742D01*
X184992880Y-77328421D01*
X185358437Y-76962864D01*
X185360758Y-76959670D01*
X185360761Y-76959666D01*
X185413080Y-76887654D01*
X185417733Y-76881250D01*
X185439374Y-76814646D01*
X185456938Y-76760592D01*
X185456938Y-76760590D01*
X185459384Y-76753063D01*
X185459384Y-76618277D01*
X185417733Y-76490089D01*
X185376953Y-76433960D01*
X185360761Y-76411673D01*
X185360758Y-76411669D01*
X185358437Y-76408475D01*
X184957525Y-76007563D01*
X184954331Y-76005242D01*
X184954327Y-76005239D01*
X184887825Y-75956923D01*
X184875911Y-75948267D01*
X184802853Y-75924529D01*
X184755252Y-75909062D01*
X184755250Y-75909062D01*
X184747723Y-75906616D01*
X184612937Y-75906616D01*
X184605410Y-75909062D01*
X184605408Y-75909062D01*
X184570647Y-75920357D01*
X184484750Y-75948267D01*
X184467971Y-75960458D01*
X184408841Y-75979669D01*
X184349710Y-75960456D01*
X184313165Y-75910155D01*
X184310175Y-75859445D01*
X184313418Y-75843140D01*
X184315351Y-75833421D01*
X184299791Y-75755190D01*
X184266663Y-75705610D01*
X183864848Y-75303795D01*
X183836622Y-75248397D01*
X183835383Y-75232660D01*
X183835383Y-74423168D01*
X183835766Y-74414400D01*
X183838379Y-74384533D01*
X183839146Y-74375768D01*
X183836869Y-74367271D01*
X183836869Y-74367267D01*
X183829104Y-74338287D01*
X183827210Y-74329746D01*
X183820471Y-74291530D01*
X183816070Y-74283907D01*
X183814122Y-74278554D01*
X183811715Y-74273392D01*
X183809437Y-74264891D01*
X183787178Y-74233101D01*
X183782473Y-74225715D01*
X183782140Y-74225137D01*
X183763077Y-74192120D01*
X183753906Y-74184424D01*
X183733361Y-74167185D01*
X183726891Y-74161256D01*
X183280732Y-73715097D01*
X183252506Y-73659699D01*
X183262232Y-73598291D01*
X183292736Y-73562575D01*
X183297832Y-73558873D01*
X183323705Y-73540075D01*
X183350311Y-73520745D01*
X183350315Y-73520742D01*
X183353509Y-73518421D01*
X183483973Y-73387957D01*
X183539371Y-73359731D01*
X183555108Y-73358492D01*
X184240645Y-73358492D01*
X184253299Y-73359906D01*
X184253303Y-73359855D01*
X184260451Y-73360430D01*
X184267439Y-73362011D01*
X184321046Y-73358685D01*
X184327275Y-73358492D01*
X184343932Y-73358492D01*
X184347475Y-73357985D01*
X184347483Y-73357984D01*
X184355052Y-73356900D01*
X184363082Y-73356077D01*
X184403377Y-73353577D01*
X184403378Y-73353577D01*
X184410530Y-73353133D01*
X184417271Y-73350699D01*
X184417273Y-73350699D01*
X184420024Y-73349706D01*
X184439914Y-73344746D01*
X184449910Y-73343315D01*
X184493194Y-73323635D01*
X184500673Y-73320591D01*
X184538634Y-73306887D01*
X184545379Y-73304452D01*
X184553532Y-73298496D01*
X184571229Y-73288155D01*
X184580420Y-73283976D01*
X184616448Y-73252932D01*
X184622754Y-73247926D01*
X184627882Y-73244179D01*
X184631190Y-73241763D01*
X184631194Y-73241759D01*
X184634328Y-73239470D01*
X184645742Y-73228056D01*
X184651209Y-73222980D01*
X184683602Y-73195069D01*
X184683605Y-73195066D01*
X184689029Y-73190392D01*
X184692928Y-73184377D01*
X184693614Y-73183319D01*
X184706896Y-73166902D01*
X184766965Y-73106833D01*
X184822363Y-73078607D01*
X184838100Y-73077368D01*
X184899707Y-73077368D01*
X184907234Y-73074922D01*
X184907236Y-73074922D01*
X184963801Y-73056542D01*
X185027895Y-73035717D01*
X185059908Y-73012458D01*
X185106311Y-72978745D01*
X185106315Y-72978742D01*
X185109509Y-72976421D01*
X185510421Y-72575509D01*
X185512742Y-72572315D01*
X185512745Y-72572311D01*
X185565064Y-72500299D01*
X185569717Y-72493895D01*
X185596396Y-72411787D01*
X185608922Y-72373236D01*
X185608922Y-72373234D01*
X185611368Y-72365707D01*
X185611368Y-72304100D01*
X185630581Y-72244969D01*
X185640833Y-72232965D01*
X185866964Y-72006833D01*
X185922361Y-71978607D01*
X185938099Y-71977368D01*
X185999707Y-71977368D01*
X186007234Y-71974922D01*
X186007236Y-71974922D01*
X186095881Y-71946119D01*
X186127895Y-71935717D01*
X186171868Y-71903769D01*
X186206311Y-71878745D01*
X186206315Y-71878742D01*
X186209509Y-71876421D01*
X186610421Y-71475509D01*
X186612742Y-71472315D01*
X186612745Y-71472311D01*
X186663044Y-71403079D01*
X186669717Y-71393895D01*
X186700544Y-71299019D01*
X186708922Y-71273236D01*
X186708922Y-71273234D01*
X186711368Y-71265707D01*
X186711368Y-71130921D01*
X186705254Y-71112102D01*
X186679124Y-71031685D01*
X186669717Y-71002734D01*
X186639061Y-70960539D01*
X186612745Y-70924318D01*
X186612742Y-70924314D01*
X186610421Y-70921120D01*
X186244864Y-70555563D01*
X186241670Y-70553242D01*
X186241666Y-70553239D01*
X186169654Y-70500920D01*
X186163250Y-70496267D01*
X186073789Y-70467199D01*
X186042592Y-70457062D01*
X186042590Y-70457062D01*
X186035063Y-70454616D01*
X185900277Y-70454616D01*
X185892750Y-70457062D01*
X185892748Y-70457062D01*
X185836871Y-70475218D01*
X185772089Y-70496267D01*
X185765685Y-70500920D01*
X185693673Y-70553239D01*
X185693669Y-70553242D01*
X185690475Y-70555563D01*
X185289563Y-70956475D01*
X185287242Y-70959669D01*
X185287239Y-70959673D01*
X185260607Y-70996330D01*
X185230267Y-71038089D01*
X185227821Y-71045618D01*
X185192896Y-71153106D01*
X185188616Y-71166277D01*
X185188616Y-71227884D01*
X185169403Y-71287015D01*
X185159151Y-71299019D01*
X184933019Y-71525151D01*
X184877621Y-71553377D01*
X184861884Y-71554616D01*
X184800277Y-71554616D01*
X184792750Y-71557062D01*
X184792748Y-71557062D01*
X184743974Y-71572910D01*
X184672089Y-71596267D01*
X184665685Y-71600920D01*
X184593673Y-71653239D01*
X184593669Y-71653242D01*
X184590475Y-71655563D01*
X184189563Y-72056475D01*
X184187242Y-72059669D01*
X184187239Y-72059673D01*
X184183771Y-72064447D01*
X184130267Y-72138089D01*
X184088616Y-72266277D01*
X184088616Y-72273117D01*
X184060639Y-72328026D01*
X184005241Y-72356253D01*
X183989503Y-72357492D01*
X183590463Y-72357492D01*
X183531332Y-72338279D01*
X183519328Y-72328027D01*
X183388864Y-72197563D01*
X183385670Y-72195242D01*
X183385666Y-72195239D01*
X183335438Y-72158747D01*
X183307250Y-72138267D01*
X183220839Y-72110190D01*
X183186592Y-72099062D01*
X183186590Y-72099062D01*
X183179063Y-72096616D01*
X183082100Y-72096616D01*
X183022969Y-72077403D01*
X183010965Y-72067151D01*
X183001526Y-72057712D01*
X182993581Y-72047769D01*
X182993542Y-72047802D01*
X182988894Y-72042341D01*
X182985070Y-72036280D01*
X182944826Y-72000738D01*
X182940284Y-71996470D01*
X182928494Y-71984680D01*
X182925641Y-71982542D01*
X182925632Y-71982534D01*
X182919493Y-71977933D01*
X182913246Y-71972848D01*
X182877612Y-71941377D01*
X182871129Y-71938333D01*
X182871121Y-71938328D01*
X182868475Y-71937086D01*
X182850899Y-71926526D01*
X182848560Y-71924773D01*
X182848561Y-71924773D01*
X182842824Y-71920474D01*
X182836113Y-71917958D01*
X182836111Y-71917957D01*
X182798312Y-71903787D01*
X182790872Y-71900652D01*
X182754323Y-71883492D01*
X182754322Y-71883492D01*
X182747837Y-71880447D01*
X182740760Y-71879345D01*
X182740756Y-71879344D01*
X182737870Y-71878895D01*
X182718028Y-71873690D01*
X182708580Y-71870148D01*
X182661170Y-71866625D01*
X182653165Y-71865706D01*
X182638991Y-71863500D01*
X182622842Y-71863500D01*
X182615387Y-71863223D01*
X182572758Y-71860055D01*
X182572756Y-71860055D01*
X182565608Y-71859524D01*
X182557367Y-71861283D01*
X182536367Y-71863500D01*
X182416315Y-71863500D01*
X182362646Y-71845283D01*
X182361784Y-71846776D01*
X182356075Y-71843480D01*
X182350841Y-71839464D01*
X182204762Y-71778956D01*
X182198226Y-71778096D01*
X182198224Y-71778095D01*
X182054540Y-71759179D01*
X182048000Y-71758318D01*
X182041460Y-71759179D01*
X181897776Y-71778095D01*
X181897774Y-71778096D01*
X181891238Y-71778956D01*
X181861729Y-71791179D01*
X181799748Y-71796056D01*
X181746736Y-71763570D01*
X181722943Y-71706128D01*
X181737458Y-71645672D01*
X181752098Y-71627101D01*
X181782652Y-71596547D01*
X181785397Y-71592439D01*
X181785401Y-71592434D01*
X181807130Y-71559914D01*
X181819640Y-71544670D01*
X182125933Y-71238377D01*
X182169124Y-71212871D01*
X182212814Y-71200238D01*
X182392385Y-71148314D01*
X182810728Y-71027348D01*
X182821733Y-71025674D01*
X182821679Y-71025414D01*
X182830774Y-71023529D01*
X182840058Y-71023340D01*
X182848649Y-71019823D01*
X182848654Y-71019822D01*
X182872282Y-71010149D01*
X182882446Y-71006610D01*
X182883870Y-71006198D01*
X182883874Y-71006197D01*
X182888320Y-71004911D01*
X182899119Y-70999485D01*
X182906172Y-70996275D01*
X182937091Y-70983618D01*
X182937093Y-70983617D01*
X182943659Y-70980929D01*
X182948614Y-70977001D01*
X182950387Y-70975288D01*
X182951790Y-70974060D01*
X182955104Y-70971355D01*
X182962946Y-70967415D01*
X182969972Y-70959673D01*
X182982288Y-70946100D01*
X182992099Y-70935289D01*
X182996658Y-70930585D01*
X183152540Y-70779986D01*
X183162041Y-70771964D01*
X183165218Y-70770036D01*
X183173172Y-70763012D01*
X183248711Y-70687473D01*
X183258453Y-70680094D01*
X183258200Y-70679790D01*
X183265330Y-70673842D01*
X183273432Y-70669298D01*
X183295093Y-70643129D01*
X183302687Y-70634928D01*
X183303161Y-70634470D01*
X183306494Y-70631250D01*
X183309183Y-70627472D01*
X183309630Y-70626952D01*
X183314751Y-70621433D01*
X184110463Y-69825721D01*
X184126440Y-69812726D01*
X184251644Y-69730639D01*
X184251646Y-69730638D01*
X184256532Y-69727434D01*
X184260549Y-69723193D01*
X184260552Y-69723191D01*
X184335801Y-69643755D01*
X184372092Y-69605445D01*
X184375975Y-69598761D01*
X184405833Y-69547356D01*
X184456490Y-69460144D01*
X184456517Y-69460055D01*
X184464348Y-69446354D01*
X184472179Y-69435576D01*
X184505240Y-69390072D01*
X184521542Y-69339900D01*
X184543833Y-69271295D01*
X184543833Y-69271293D01*
X184546279Y-69263766D01*
X184546279Y-69130961D01*
X184535363Y-69097363D01*
X184525760Y-69067808D01*
X184505240Y-69004655D01*
X184500587Y-68998250D01*
X184496992Y-68991195D01*
X184497706Y-68990831D01*
X184488035Y-68971176D01*
X184487146Y-68966005D01*
X184428043Y-68827104D01*
X184422570Y-68765171D01*
X184454545Y-68711850D01*
X184511756Y-68687506D01*
X184558215Y-68694408D01*
X184713404Y-68756950D01*
X184712921Y-68758149D01*
X184724763Y-68763835D01*
X184725193Y-68762991D01*
X184732251Y-68766587D01*
X184738655Y-68771240D01*
X184746186Y-68773687D01*
X184857432Y-68809833D01*
X184857434Y-68809833D01*
X184864961Y-68812279D01*
X184997766Y-68812279D01*
X185005293Y-68809833D01*
X185005295Y-68809833D01*
X185116541Y-68773687D01*
X185124072Y-68771240D01*
X185180202Y-68730459D01*
X185197452Y-68720379D01*
X185201305Y-68718615D01*
X185206863Y-68716814D01*
X185350518Y-68629642D01*
X185353870Y-68626682D01*
X185353874Y-68626679D01*
X185357225Y-68623719D01*
X185358472Y-68622618D01*
X186035020Y-67946070D01*
X186090418Y-67917844D01*
X186106155Y-67916605D01*
X188636941Y-67916605D01*
X188653385Y-67918578D01*
X188654158Y-67918886D01*
X188660451Y-67919503D01*
X188661258Y-67919503D01*
X188665494Y-67920231D01*
X188665540Y-67919759D01*
X188674782Y-67920665D01*
X188683704Y-67923249D01*
X188692956Y-67922448D01*
X188692958Y-67922448D01*
X188722627Y-67919878D01*
X188731307Y-67919503D01*
X188762776Y-67919503D01*
X188769253Y-67919993D01*
X188774903Y-67920190D01*
X188780680Y-67921069D01*
X188795865Y-67919834D01*
X188804019Y-67919503D01*
X189017921Y-67919503D01*
X189018498Y-67919555D01*
X189019298Y-67919858D01*
X189021733Y-67919844D01*
X189021734Y-67919844D01*
X189080468Y-67919505D01*
X189081049Y-67919503D01*
X189101484Y-67919503D01*
X189102109Y-67919387D01*
X189102259Y-67919379D01*
X189121954Y-67919266D01*
X189124146Y-67919253D01*
X189131241Y-67919212D01*
X189137305Y-67917419D01*
X189148800Y-67912756D01*
X189168194Y-67907079D01*
X189169778Y-67906784D01*
X189183589Y-67904212D01*
X189202842Y-67892344D01*
X189217814Y-67884760D01*
X189244080Y-67874105D01*
X189589584Y-67733947D01*
X189651600Y-67729523D01*
X189704373Y-67762396D01*
X189727745Y-67820010D01*
X189728000Y-67827169D01*
X189728000Y-82321900D01*
X189708787Y-82381031D01*
X189658487Y-82417576D01*
X189627400Y-82422500D01*
X151668030Y-82422500D01*
X151659902Y-82421430D01*
X151650794Y-82421430D01*
X151638000Y-82418002D01*
X151625901Y-82421244D01*
X151621390Y-82421047D01*
X151448375Y-82405910D01*
X151431106Y-82402865D01*
X151375994Y-82388098D01*
X151255742Y-82355877D01*
X151239267Y-82349880D01*
X151074727Y-82273153D01*
X151059541Y-82264386D01*
X150910823Y-82160253D01*
X150897390Y-82148981D01*
X150769019Y-82020610D01*
X150757747Y-82007177D01*
X150653614Y-81858459D01*
X150644847Y-81843273D01*
X150568120Y-81678733D01*
X150562122Y-81662254D01*
X150561579Y-81660225D01*
X150520059Y-81505270D01*
X150515135Y-81486894D01*
X150512090Y-81469625D01*
X150496953Y-81296610D01*
X150496756Y-81292099D01*
X150499998Y-81280000D01*
X150496570Y-81267206D01*
X150496570Y-81258098D01*
X150495500Y-81249970D01*
X150495500Y-80757262D01*
X157948520Y-80757262D01*
X157965759Y-80962553D01*
X158022544Y-81160586D01*
X158116712Y-81343818D01*
X158119765Y-81347670D01*
X158119767Y-81347673D01*
X158148715Y-81384196D01*
X158244677Y-81505270D01*
X158401564Y-81638791D01*
X158581398Y-81739297D01*
X158586079Y-81740818D01*
X158772649Y-81801439D01*
X158772655Y-81801440D01*
X158777329Y-81802959D01*
X158782211Y-81803541D01*
X158782215Y-81803542D01*
X158957937Y-81824494D01*
X158981894Y-81827351D01*
X158986795Y-81826974D01*
X158986798Y-81826974D01*
X159097112Y-81818486D01*
X159187300Y-81811546D01*
X159192036Y-81810224D01*
X159192040Y-81810223D01*
X159380983Y-81757469D01*
X159385725Y-81756145D01*
X159569610Y-81663258D01*
X159731951Y-81536424D01*
X159866564Y-81380472D01*
X159923640Y-81280000D01*
X159965893Y-81205622D01*
X159965894Y-81205620D01*
X159968323Y-81201344D01*
X160033351Y-81005863D01*
X160033967Y-81000988D01*
X160033968Y-81000983D01*
X160058819Y-80804257D01*
X160059171Y-80801474D01*
X160059583Y-80772000D01*
X160058138Y-80757262D01*
X163028520Y-80757262D01*
X163045759Y-80962553D01*
X163102544Y-81160586D01*
X163196712Y-81343818D01*
X163199765Y-81347670D01*
X163199767Y-81347673D01*
X163228715Y-81384196D01*
X163324677Y-81505270D01*
X163481564Y-81638791D01*
X163661398Y-81739297D01*
X163666079Y-81740818D01*
X163852649Y-81801439D01*
X163852655Y-81801440D01*
X163857329Y-81802959D01*
X163862211Y-81803541D01*
X163862215Y-81803542D01*
X164037937Y-81824494D01*
X164061894Y-81827351D01*
X164066795Y-81826974D01*
X164066798Y-81826974D01*
X164177112Y-81818486D01*
X164267300Y-81811546D01*
X164272036Y-81810224D01*
X164272040Y-81810223D01*
X164460983Y-81757469D01*
X164465725Y-81756145D01*
X164649610Y-81663258D01*
X164811951Y-81536424D01*
X164946564Y-81380472D01*
X165003640Y-81280000D01*
X165045893Y-81205622D01*
X165045894Y-81205620D01*
X165048323Y-81201344D01*
X165113351Y-81005863D01*
X165113967Y-81000988D01*
X165113968Y-81000983D01*
X165138819Y-80804257D01*
X165139171Y-80801474D01*
X165139583Y-80772000D01*
X165138138Y-80757262D01*
X165568520Y-80757262D01*
X165585759Y-80962553D01*
X165642544Y-81160586D01*
X165736712Y-81343818D01*
X165739765Y-81347670D01*
X165739767Y-81347673D01*
X165768715Y-81384196D01*
X165864677Y-81505270D01*
X166021564Y-81638791D01*
X166201398Y-81739297D01*
X166206079Y-81740818D01*
X166392649Y-81801439D01*
X166392655Y-81801440D01*
X166397329Y-81802959D01*
X166402211Y-81803541D01*
X166402215Y-81803542D01*
X166577937Y-81824494D01*
X166601894Y-81827351D01*
X166606795Y-81826974D01*
X166606798Y-81826974D01*
X166717112Y-81818486D01*
X166807300Y-81811546D01*
X166812036Y-81810224D01*
X166812040Y-81810223D01*
X167000983Y-81757469D01*
X167005725Y-81756145D01*
X167189610Y-81663258D01*
X167351951Y-81536424D01*
X167486564Y-81380472D01*
X167543640Y-81280000D01*
X167585893Y-81205622D01*
X167585894Y-81205620D01*
X167588323Y-81201344D01*
X167653351Y-81005863D01*
X167653967Y-81000988D01*
X167653968Y-81000983D01*
X167678819Y-80804257D01*
X167679171Y-80801474D01*
X167679583Y-80772000D01*
X167659480Y-80566970D01*
X167658058Y-80562260D01*
X167658057Y-80562255D01*
X167601357Y-80374460D01*
X167599935Y-80369749D01*
X167503218Y-80187849D01*
X167373011Y-80028200D01*
X167317942Y-79982643D01*
X167218063Y-79900015D01*
X167218058Y-79900012D01*
X167214275Y-79896882D01*
X167056599Y-79811627D01*
X167037378Y-79801234D01*
X167037374Y-79801232D01*
X167033055Y-79798897D01*
X166836254Y-79737977D01*
X166631369Y-79716443D01*
X166626468Y-79716889D01*
X166626465Y-79716889D01*
X166431101Y-79734668D01*
X166431098Y-79734668D01*
X166426203Y-79735114D01*
X166421489Y-79736501D01*
X166421486Y-79736502D01*
X166324951Y-79764914D01*
X166228572Y-79793280D01*
X166224212Y-79795559D01*
X166224208Y-79795561D01*
X166148201Y-79835297D01*
X166046002Y-79888726D01*
X165885447Y-80017815D01*
X165753024Y-80175630D01*
X165750657Y-80179936D01*
X165750654Y-80179940D01*
X165684524Y-80300232D01*
X165653776Y-80356162D01*
X165591484Y-80552532D01*
X165590935Y-80557423D01*
X165590935Y-80557425D01*
X165589865Y-80566970D01*
X165568520Y-80757262D01*
X165138138Y-80757262D01*
X165119480Y-80566970D01*
X165118058Y-80562260D01*
X165118057Y-80562255D01*
X165061357Y-80374460D01*
X165059935Y-80369749D01*
X164963218Y-80187849D01*
X164833011Y-80028200D01*
X164777942Y-79982643D01*
X164678063Y-79900015D01*
X164678058Y-79900012D01*
X164674275Y-79896882D01*
X164516599Y-79811627D01*
X164497378Y-79801234D01*
X164497374Y-79801232D01*
X164493055Y-79798897D01*
X164296254Y-79737977D01*
X164091369Y-79716443D01*
X164086468Y-79716889D01*
X164086465Y-79716889D01*
X163891101Y-79734668D01*
X163891098Y-79734668D01*
X163886203Y-79735114D01*
X163881489Y-79736501D01*
X163881486Y-79736502D01*
X163784951Y-79764914D01*
X163688572Y-79793280D01*
X163684212Y-79795559D01*
X163684208Y-79795561D01*
X163608201Y-79835297D01*
X163506002Y-79888726D01*
X163345447Y-80017815D01*
X163213024Y-80175630D01*
X163210657Y-80179936D01*
X163210654Y-80179940D01*
X163144524Y-80300232D01*
X163113776Y-80356162D01*
X163051484Y-80552532D01*
X163050935Y-80557423D01*
X163050935Y-80557425D01*
X163049865Y-80566970D01*
X163028520Y-80757262D01*
X160058138Y-80757262D01*
X160039480Y-80566970D01*
X160028442Y-80530411D01*
X160029743Y-80468254D01*
X160053613Y-80430201D01*
X162215848Y-78267965D01*
X162271246Y-78239739D01*
X162286983Y-78238500D01*
X162680900Y-78238500D01*
X162740031Y-78257713D01*
X162776576Y-78308013D01*
X162781500Y-78339100D01*
X162781500Y-78507748D01*
X162793133Y-78566231D01*
X162798639Y-78574471D01*
X162830822Y-78622635D01*
X162837448Y-78632552D01*
X162903769Y-78676867D01*
X162942088Y-78684489D01*
X162957400Y-78687535D01*
X162957401Y-78687535D01*
X162962252Y-78688500D01*
X165001748Y-78688500D01*
X165006599Y-78687535D01*
X165006600Y-78687535D01*
X165021912Y-78684489D01*
X165060231Y-78676867D01*
X165126552Y-78632552D01*
X165133179Y-78622635D01*
X165165361Y-78574471D01*
X165170867Y-78566231D01*
X165182500Y-78507748D01*
X165182500Y-76968252D01*
X165170867Y-76909769D01*
X165143614Y-76868983D01*
X165132058Y-76851688D01*
X165126552Y-76843448D01*
X165060231Y-76799133D01*
X165021912Y-76791511D01*
X165006600Y-76788465D01*
X165006599Y-76788465D01*
X165001748Y-76787500D01*
X162962252Y-76787500D01*
X162957401Y-76788465D01*
X162957400Y-76788465D01*
X162942088Y-76791511D01*
X162903769Y-76799133D01*
X162837448Y-76843448D01*
X162831942Y-76851688D01*
X162820386Y-76868983D01*
X162793133Y-76909769D01*
X162781500Y-76968252D01*
X162781500Y-77136900D01*
X162762287Y-77196031D01*
X162711987Y-77232576D01*
X162680900Y-77237500D01*
X162105347Y-77237500D01*
X162092693Y-77236086D01*
X162092689Y-77236137D01*
X162085541Y-77235562D01*
X162078553Y-77233981D01*
X162024947Y-77237307D01*
X162018717Y-77237500D01*
X162002060Y-77237500D01*
X161998517Y-77238007D01*
X161998509Y-77238008D01*
X161990940Y-77239092D01*
X161982910Y-77239915D01*
X161942615Y-77242415D01*
X161942614Y-77242415D01*
X161935462Y-77242859D01*
X161928721Y-77245293D01*
X161928719Y-77245293D01*
X161925968Y-77246286D01*
X161906078Y-77251246D01*
X161896082Y-77252677D01*
X161852798Y-77272357D01*
X161845319Y-77275401D01*
X161800613Y-77291540D01*
X161792460Y-77297496D01*
X161774763Y-77307837D01*
X161765572Y-77312016D01*
X161729544Y-77343060D01*
X161723238Y-77348066D01*
X161718110Y-77351813D01*
X161714802Y-77354229D01*
X161714798Y-77354233D01*
X161711664Y-77356522D01*
X161700250Y-77367936D01*
X161694783Y-77373012D01*
X161662390Y-77400923D01*
X161662387Y-77400926D01*
X161656963Y-77405600D01*
X161653065Y-77411614D01*
X161653064Y-77411615D01*
X161652378Y-77412673D01*
X161639096Y-77429090D01*
X159346184Y-79722002D01*
X159290786Y-79750228D01*
X159245301Y-79746968D01*
X159220953Y-79739431D01*
X159220947Y-79739430D01*
X159216254Y-79737977D01*
X159211367Y-79737463D01*
X159211365Y-79737463D01*
X159147325Y-79730732D01*
X159011369Y-79716443D01*
X159006468Y-79716889D01*
X159006465Y-79716889D01*
X158811101Y-79734668D01*
X158811098Y-79734668D01*
X158806203Y-79735114D01*
X158801489Y-79736501D01*
X158801486Y-79736502D01*
X158704951Y-79764914D01*
X158608572Y-79793280D01*
X158604212Y-79795559D01*
X158604208Y-79795561D01*
X158528201Y-79835297D01*
X158426002Y-79888726D01*
X158265447Y-80017815D01*
X158133024Y-80175630D01*
X158130657Y-80179936D01*
X158130654Y-80179940D01*
X158064524Y-80300232D01*
X158033776Y-80356162D01*
X157971484Y-80552532D01*
X157970935Y-80557423D01*
X157970935Y-80557425D01*
X157969865Y-80566970D01*
X157948520Y-80757262D01*
X150495500Y-80757262D01*
X150495500Y-67643105D01*
X151707031Y-67643105D01*
X151708447Y-67649002D01*
X151708447Y-67649004D01*
X151736788Y-67767048D01*
X151746612Y-67807968D01*
X151749392Y-67813354D01*
X151749393Y-67813357D01*
X151806113Y-67923249D01*
X151824375Y-67958631D01*
X151828357Y-67963196D01*
X151828358Y-67963197D01*
X151928978Y-68078540D01*
X151935831Y-68086396D01*
X151940794Y-68089884D01*
X151940795Y-68089885D01*
X152058136Y-68172353D01*
X152074547Y-68183887D01*
X152080197Y-68186090D01*
X152080199Y-68186091D01*
X152226857Y-68243271D01*
X152226859Y-68243271D01*
X152232513Y-68245476D01*
X152361826Y-68262500D01*
X153450516Y-68262500D01*
X153529418Y-68252952D01*
X153570298Y-68248005D01*
X153570300Y-68248004D01*
X153576320Y-68247276D01*
X153581990Y-68245133D01*
X153581992Y-68245133D01*
X153729255Y-68189487D01*
X153729257Y-68189486D01*
X153734923Y-68187345D01*
X153874651Y-68091312D01*
X153987440Y-67964721D01*
X153990665Y-67958631D01*
X154063937Y-67820243D01*
X154066776Y-67814881D01*
X154108081Y-67650441D01*
X154108120Y-67643105D01*
X154108667Y-67538500D01*
X154108969Y-67480895D01*
X154106145Y-67469130D01*
X154070804Y-67321930D01*
X154069388Y-67316032D01*
X154063053Y-67303757D01*
X153994405Y-67170755D01*
X153991625Y-67165369D01*
X153987642Y-67160803D01*
X153884156Y-67042174D01*
X153884154Y-67042173D01*
X153880169Y-67037604D01*
X153873175Y-67032688D01*
X153746416Y-66943601D01*
X153741453Y-66940113D01*
X153735803Y-66937910D01*
X153735801Y-66937909D01*
X153589143Y-66880729D01*
X153589141Y-66880729D01*
X153583487Y-66878524D01*
X153454174Y-66861500D01*
X152365484Y-66861500D01*
X152286582Y-66871048D01*
X152245702Y-66875995D01*
X152245700Y-66875996D01*
X152239680Y-66876724D01*
X152234010Y-66878867D01*
X152234008Y-66878867D01*
X152086745Y-66934513D01*
X152086743Y-66934514D01*
X152081077Y-66936655D01*
X151941349Y-67032688D01*
X151828560Y-67159279D01*
X151825722Y-67164639D01*
X151806521Y-67200904D01*
X151749224Y-67309119D01*
X151707919Y-67473559D01*
X151707887Y-67479616D01*
X151707887Y-67479618D01*
X151707742Y-67507355D01*
X151707031Y-67643105D01*
X150495500Y-67643105D01*
X150495500Y-63277748D01*
X151123500Y-63277748D01*
X151135133Y-63336231D01*
X151140639Y-63344471D01*
X151167697Y-63384965D01*
X151179448Y-63402552D01*
X151245769Y-63446867D01*
X151284088Y-63454489D01*
X151299400Y-63457535D01*
X151299401Y-63457535D01*
X151304252Y-63458500D01*
X152393748Y-63458500D01*
X152398599Y-63457535D01*
X152398600Y-63457535D01*
X152413912Y-63454489D01*
X152452231Y-63446867D01*
X152518552Y-63402552D01*
X152534379Y-63378865D01*
X152583204Y-63340376D01*
X152645330Y-63337935D01*
X152697834Y-63373517D01*
X152733718Y-63420282D01*
X152859159Y-63516536D01*
X153005238Y-63577044D01*
X153011774Y-63577904D01*
X153011776Y-63577905D01*
X153155460Y-63596821D01*
X153162000Y-63597682D01*
X153168540Y-63596821D01*
X153312224Y-63577905D01*
X153312226Y-63577904D01*
X153318762Y-63577044D01*
X153464841Y-63516536D01*
X153590282Y-63420282D01*
X153686536Y-63294841D01*
X153747044Y-63148762D01*
X153767682Y-62992000D01*
X153747044Y-62835238D01*
X153686536Y-62689159D01*
X153590282Y-62563718D01*
X153464841Y-62467464D01*
X153318762Y-62406956D01*
X153312226Y-62406096D01*
X153312224Y-62406095D01*
X153168540Y-62387179D01*
X153162000Y-62386318D01*
X153155460Y-62387179D01*
X153011776Y-62406095D01*
X153011774Y-62406096D01*
X153005238Y-62406956D01*
X152859159Y-62467464D01*
X152733718Y-62563718D01*
X152729701Y-62568953D01*
X152728190Y-62570464D01*
X152672792Y-62598690D01*
X152611384Y-62588964D01*
X152567420Y-62545000D01*
X152564741Y-62539190D01*
X152562867Y-62529769D01*
X152552351Y-62514030D01*
X152524058Y-62471688D01*
X152518552Y-62463448D01*
X152452231Y-62419133D01*
X152413912Y-62411511D01*
X152398600Y-62408465D01*
X152398599Y-62408465D01*
X152393748Y-62407500D01*
X151304252Y-62407500D01*
X151299401Y-62408465D01*
X151299400Y-62408465D01*
X151284088Y-62411511D01*
X151245769Y-62419133D01*
X151179448Y-62463448D01*
X151135133Y-62529769D01*
X151123500Y-62588252D01*
X151123500Y-63277748D01*
X150495500Y-63277748D01*
X150495500Y-62514030D01*
X150496570Y-62505902D01*
X150496570Y-62496794D01*
X150499998Y-62484000D01*
X150496756Y-62471901D01*
X150496953Y-62467390D01*
X150512090Y-62294375D01*
X150515135Y-62277106D01*
X150532445Y-62212502D01*
X150562123Y-62101742D01*
X150568120Y-62085267D01*
X150644847Y-61920727D01*
X150653614Y-61905541D01*
X150757747Y-61756823D01*
X150769019Y-61743390D01*
X150897390Y-61615019D01*
X150910823Y-61603747D01*
X151059541Y-61499614D01*
X151074727Y-61490847D01*
X151239267Y-61414120D01*
X151255742Y-61408123D01*
X151375994Y-61375902D01*
X151431106Y-61361135D01*
X151448375Y-61358090D01*
X151621390Y-61342953D01*
X151625901Y-61342756D01*
X151638000Y-61345998D01*
X151650794Y-61342570D01*
X151659902Y-61342570D01*
X151668030Y-61341500D01*
X154891740Y-61341500D01*
X154950871Y-61360713D01*
G37*
%TD.AperFunction*%
%TA.AperFunction,Conductor*%
G36*
X159588416Y-74437323D02*
G01*
X159610501Y-74500217D01*
X159610501Y-74728518D01*
X159611118Y-74732411D01*
X159611118Y-74732417D01*
X159617387Y-74772000D01*
X159625354Y-74822304D01*
X159628947Y-74829355D01*
X159628948Y-74829359D01*
X159679356Y-74928289D01*
X159682950Y-74935342D01*
X159772658Y-75025050D01*
X159781751Y-75029683D01*
X159783371Y-75031303D01*
X159786117Y-75033298D01*
X159785801Y-75033733D01*
X159825717Y-75073643D01*
X159835446Y-75135052D01*
X159807219Y-75190455D01*
X158786991Y-76210683D01*
X158780520Y-76216612D01*
X158757547Y-76235888D01*
X158757545Y-76235890D01*
X158750806Y-76241545D01*
X158746407Y-76249165D01*
X158746405Y-76249167D01*
X158731408Y-76275143D01*
X158726692Y-76282545D01*
X158709495Y-76307105D01*
X158704446Y-76314316D01*
X158702168Y-76322817D01*
X158699765Y-76327970D01*
X158697814Y-76333331D01*
X158693412Y-76340955D01*
X158691884Y-76349623D01*
X158686678Y-76379147D01*
X158684778Y-76387716D01*
X158679281Y-76408233D01*
X158674736Y-76425193D01*
X158675503Y-76433960D01*
X158678117Y-76463836D01*
X158678500Y-76472604D01*
X158678500Y-76531504D01*
X158659287Y-76590635D01*
X158649035Y-76602639D01*
X158332159Y-76919515D01*
X158276761Y-76947741D01*
X158261024Y-76948980D01*
X158133826Y-76948980D01*
X158074695Y-76929767D01*
X158038150Y-76879467D01*
X158038150Y-76817293D01*
X158073542Y-76770959D01*
X158072170Y-76769318D01*
X158076646Y-76765576D01*
X158081540Y-76762367D01*
X158197885Y-76639550D01*
X158261747Y-76529604D01*
X158279920Y-76498317D01*
X158279921Y-76498316D01*
X158282856Y-76493262D01*
X158309382Y-76405681D01*
X158330202Y-76336941D01*
X158330203Y-76336938D01*
X158331895Y-76331350D01*
X158332878Y-76315515D01*
X158342008Y-76168334D01*
X158342370Y-76162499D01*
X158333443Y-76110547D01*
X158314710Y-76001527D01*
X158314709Y-76001525D01*
X158313720Y-75995767D01*
X158258694Y-75866448D01*
X158249774Y-75845484D01*
X158249773Y-75845482D01*
X158247482Y-75840098D01*
X158235416Y-75823702D01*
X158150675Y-75708551D01*
X158150672Y-75708548D01*
X158147209Y-75703842D01*
X158124418Y-75684479D01*
X158022739Y-75598096D01*
X158022738Y-75598095D01*
X158018280Y-75594308D01*
X157983709Y-75576655D01*
X157872820Y-75520033D01*
X157872821Y-75520033D01*
X157867611Y-75517373D01*
X157861935Y-75515984D01*
X157861932Y-75515983D01*
X157782789Y-75496617D01*
X157703283Y-75477162D01*
X157698814Y-75476885D01*
X157698809Y-75476884D01*
X157694519Y-75476618D01*
X157692612Y-75476500D01*
X156896790Y-75476500D01*
X156837659Y-75457287D01*
X156801114Y-75406987D01*
X156801114Y-75344813D01*
X156837659Y-75294513D01*
X156858289Y-75282959D01*
X156878233Y-75274698D01*
X156883464Y-75270684D01*
X156883466Y-75270683D01*
X156993220Y-75186465D01*
X156998451Y-75182451D01*
X157034822Y-75135052D01*
X157086683Y-75067466D01*
X157086684Y-75067464D01*
X157090698Y-75062233D01*
X157102684Y-75033298D01*
X157127719Y-74972857D01*
X157148687Y-74922236D01*
X157155568Y-74869968D01*
X157182334Y-74813852D01*
X157236974Y-74784185D01*
X157255307Y-74782500D01*
X158822653Y-74782500D01*
X158835307Y-74783914D01*
X158835311Y-74783863D01*
X158842459Y-74784438D01*
X158849447Y-74786019D01*
X158903054Y-74782693D01*
X158909283Y-74782500D01*
X158925940Y-74782500D01*
X158929483Y-74781993D01*
X158929491Y-74781992D01*
X158937060Y-74780908D01*
X158945090Y-74780085D01*
X158985385Y-74777585D01*
X158985386Y-74777585D01*
X158992538Y-74777141D01*
X158999279Y-74774707D01*
X158999281Y-74774707D01*
X159002032Y-74773714D01*
X159021922Y-74768754D01*
X159031918Y-74767323D01*
X159075202Y-74747643D01*
X159082681Y-74744599D01*
X159120642Y-74730895D01*
X159127387Y-74728460D01*
X159135540Y-74722504D01*
X159153237Y-74712163D01*
X159162428Y-74707984D01*
X159198456Y-74676940D01*
X159204762Y-74671934D01*
X159209890Y-74668187D01*
X159213198Y-74665771D01*
X159213202Y-74665767D01*
X159216336Y-74663478D01*
X159227750Y-74652064D01*
X159233217Y-74646988D01*
X159265610Y-74619077D01*
X159265613Y-74619074D01*
X159271037Y-74614400D01*
X159274936Y-74608385D01*
X159275622Y-74607327D01*
X159288904Y-74590910D01*
X159310288Y-74569526D01*
X159320231Y-74561581D01*
X159320198Y-74561542D01*
X159325659Y-74556894D01*
X159331720Y-74553070D01*
X159367262Y-74512826D01*
X159371530Y-74508284D01*
X159383320Y-74496494D01*
X159385458Y-74493641D01*
X159385466Y-74493632D01*
X159390067Y-74487493D01*
X159395152Y-74481246D01*
X159426623Y-74445612D01*
X159427581Y-74443572D01*
X159474347Y-74406110D01*
X159536452Y-74403185D01*
X159588416Y-74437323D01*
G37*
%TD.AperFunction*%
%TA.AperFunction,Conductor*%
G36*
X178353670Y-69643755D02*
G01*
X178379135Y-69662256D01*
X178405511Y-69688632D01*
X178470548Y-69732089D01*
X178504745Y-69738891D01*
X178558992Y-69769270D01*
X178583787Y-69817932D01*
X178590590Y-69852132D01*
X178596095Y-69860371D01*
X178631174Y-69912870D01*
X178634046Y-69917169D01*
X178759064Y-70042186D01*
X178763177Y-70044934D01*
X178815863Y-70080139D01*
X178815865Y-70080140D01*
X178824101Y-70085643D01*
X178833816Y-70087575D01*
X178833817Y-70087576D01*
X178858301Y-70092446D01*
X178912548Y-70122826D01*
X178937342Y-70171488D01*
X178942211Y-70195965D01*
X178944144Y-70205685D01*
X178949647Y-70213921D01*
X178949648Y-70213923D01*
X178982265Y-70262738D01*
X178987600Y-70270722D01*
X179112618Y-70395739D01*
X179177655Y-70439196D01*
X179211852Y-70445998D01*
X179266099Y-70476377D01*
X179290894Y-70525039D01*
X179297697Y-70559239D01*
X179303202Y-70567478D01*
X179329878Y-70607401D01*
X179341153Y-70624276D01*
X179466171Y-70749293D01*
X179531208Y-70792750D01*
X179540925Y-70794683D01*
X179540928Y-70794684D01*
X179561797Y-70798835D01*
X179565405Y-70799552D01*
X179619653Y-70829930D01*
X179644448Y-70878595D01*
X179651250Y-70912792D01*
X179656753Y-70921028D01*
X179656754Y-70921030D01*
X179691958Y-70973716D01*
X179694706Y-70977829D01*
X179819724Y-71102846D01*
X179840998Y-71117061D01*
X179876523Y-71140799D01*
X179876525Y-71140800D01*
X179884761Y-71146303D01*
X179894476Y-71148235D01*
X179894477Y-71148236D01*
X179918961Y-71153106D01*
X179973208Y-71183486D01*
X179998002Y-71232148D01*
X180002871Y-71256625D01*
X180004804Y-71266345D01*
X180010307Y-71274581D01*
X180010308Y-71274583D01*
X180042784Y-71323187D01*
X180048260Y-71331382D01*
X180173278Y-71456399D01*
X180238315Y-71499856D01*
X180272512Y-71506658D01*
X180326759Y-71537037D01*
X180351554Y-71585699D01*
X180358357Y-71619899D01*
X180363862Y-71628138D01*
X180384054Y-71658357D01*
X180401813Y-71684936D01*
X180526831Y-71809953D01*
X180530944Y-71812701D01*
X180583630Y-71847906D01*
X180583632Y-71847907D01*
X180591868Y-71853410D01*
X180601583Y-71855342D01*
X180601584Y-71855343D01*
X180626068Y-71860213D01*
X180680315Y-71890593D01*
X180705109Y-71939255D01*
X180709978Y-71963732D01*
X180711911Y-71973452D01*
X180717414Y-71981688D01*
X180717415Y-71981690D01*
X180743205Y-72020287D01*
X180755367Y-72038489D01*
X180781744Y-72064865D01*
X180809970Y-72120261D01*
X180800245Y-72181670D01*
X180781744Y-72207135D01*
X180755368Y-72233511D01*
X180711911Y-72298548D01*
X180705109Y-72332745D01*
X180674730Y-72386992D01*
X180626068Y-72411787D01*
X180591868Y-72418590D01*
X180526831Y-72462046D01*
X180401814Y-72587064D01*
X180387599Y-72608338D01*
X180363861Y-72643863D01*
X180363860Y-72643865D01*
X180358357Y-72652101D01*
X180356425Y-72661816D01*
X180356424Y-72661817D01*
X180351554Y-72686301D01*
X180321174Y-72740548D01*
X180272513Y-72765342D01*
X180260499Y-72767731D01*
X180248032Y-72770211D01*
X180248031Y-72770211D01*
X180238315Y-72772144D01*
X180230079Y-72777647D01*
X180230077Y-72777648D01*
X180177389Y-72812853D01*
X180173278Y-72815600D01*
X180048261Y-72940618D01*
X180004804Y-73005655D01*
X179998495Y-73037375D01*
X179998002Y-73039852D01*
X179967623Y-73094099D01*
X179918961Y-73118894D01*
X179884761Y-73125697D01*
X179876524Y-73131201D01*
X179876522Y-73131202D01*
X179861709Y-73141100D01*
X179819724Y-73169153D01*
X179694707Y-73294171D01*
X179651250Y-73359208D01*
X179649317Y-73368925D01*
X179649316Y-73368928D01*
X179644448Y-73393405D01*
X179614070Y-73447653D01*
X179565405Y-73472448D01*
X179531208Y-73479250D01*
X179522972Y-73484753D01*
X179522970Y-73484754D01*
X179472837Y-73518252D01*
X179466171Y-73522706D01*
X179341154Y-73647724D01*
X179332234Y-73661073D01*
X179303201Y-73704523D01*
X179303200Y-73704525D01*
X179297697Y-73712761D01*
X179295765Y-73722476D01*
X179295764Y-73722477D01*
X179290894Y-73746961D01*
X179260514Y-73801208D01*
X179211853Y-73826002D01*
X179199839Y-73828391D01*
X179187372Y-73830871D01*
X179187371Y-73830871D01*
X179177655Y-73832804D01*
X179169419Y-73838307D01*
X179169417Y-73838308D01*
X179116729Y-73873513D01*
X179112618Y-73876260D01*
X178987601Y-74001278D01*
X178944144Y-74066315D01*
X178942211Y-74076035D01*
X178937342Y-74100512D01*
X178906963Y-74154759D01*
X178858301Y-74179554D01*
X178824101Y-74186357D01*
X178815864Y-74191861D01*
X178815862Y-74191862D01*
X178805907Y-74198514D01*
X178759064Y-74229813D01*
X178634047Y-74354831D01*
X178625131Y-74368175D01*
X178596094Y-74411630D01*
X178596093Y-74411632D01*
X178590590Y-74419868D01*
X178588658Y-74429583D01*
X178588657Y-74429584D01*
X178583787Y-74454068D01*
X178553407Y-74508315D01*
X178504746Y-74533109D01*
X178492732Y-74535498D01*
X178480265Y-74537978D01*
X178480264Y-74537978D01*
X178470548Y-74539911D01*
X178462312Y-74545414D01*
X178462310Y-74545415D01*
X178409622Y-74580620D01*
X178405511Y-74583367D01*
X178379135Y-74609744D01*
X178323739Y-74637970D01*
X178262330Y-74628245D01*
X178236865Y-74609744D01*
X178210489Y-74583368D01*
X178145452Y-74539911D01*
X178111255Y-74533109D01*
X178057008Y-74502730D01*
X178032213Y-74454068D01*
X178027343Y-74429586D01*
X178025410Y-74419868D01*
X177990870Y-74368175D01*
X177984697Y-74358936D01*
X177984696Y-74358935D01*
X177981954Y-74354831D01*
X177856936Y-74229814D01*
X177827959Y-74210452D01*
X177800137Y-74191861D01*
X177800135Y-74191860D01*
X177791899Y-74186357D01*
X177782184Y-74184425D01*
X177782183Y-74184424D01*
X177757699Y-74179554D01*
X177703452Y-74149174D01*
X177678658Y-74100512D01*
X177673789Y-74076032D01*
X177673789Y-74076031D01*
X177671856Y-74066315D01*
X177666351Y-74058075D01*
X177631143Y-74005383D01*
X177631142Y-74005382D01*
X177628400Y-74001278D01*
X177503382Y-73876261D01*
X177438345Y-73832804D01*
X177404148Y-73826002D01*
X177349901Y-73795623D01*
X177325106Y-73746961D01*
X177322277Y-73732739D01*
X177318303Y-73712761D01*
X177289040Y-73668965D01*
X177277590Y-73651829D01*
X177277589Y-73651828D01*
X177274847Y-73647724D01*
X177149829Y-73522707D01*
X177084792Y-73479250D01*
X177075075Y-73477317D01*
X177075072Y-73477316D01*
X177054203Y-73473165D01*
X177050595Y-73472448D01*
X176996347Y-73442070D01*
X176971552Y-73393405D01*
X176969284Y-73382000D01*
X176964750Y-73359208D01*
X176959245Y-73350968D01*
X176924037Y-73298276D01*
X176924036Y-73298275D01*
X176921294Y-73294171D01*
X176796276Y-73169154D01*
X176739478Y-73131202D01*
X176739477Y-73131201D01*
X176739475Y-73131200D01*
X176731239Y-73125697D01*
X176721524Y-73123765D01*
X176721523Y-73123764D01*
X176697039Y-73118894D01*
X176642792Y-73088514D01*
X176617998Y-73039852D01*
X176616768Y-73033665D01*
X176614150Y-73020506D01*
X176613129Y-73015372D01*
X176613129Y-73015371D01*
X176611196Y-73005655D01*
X176605691Y-72997415D01*
X176570483Y-72944723D01*
X176570482Y-72944722D01*
X176567740Y-72940618D01*
X176442722Y-72815601D01*
X176377685Y-72772144D01*
X176343488Y-72765342D01*
X176289241Y-72734963D01*
X176264446Y-72686301D01*
X176259576Y-72661819D01*
X176257643Y-72652101D01*
X176248555Y-72638500D01*
X176216930Y-72591169D01*
X176216929Y-72591168D01*
X176214187Y-72587064D01*
X176089169Y-72462047D01*
X176052139Y-72437304D01*
X176032370Y-72424094D01*
X176032368Y-72424093D01*
X176024132Y-72418590D01*
X176014417Y-72416658D01*
X176014416Y-72416657D01*
X175989932Y-72411787D01*
X175935685Y-72381407D01*
X175910891Y-72332745D01*
X175909953Y-72328026D01*
X175906321Y-72309769D01*
X175906022Y-72308265D01*
X175906022Y-72308264D01*
X175904089Y-72298548D01*
X175898584Y-72290308D01*
X175863376Y-72237616D01*
X175863375Y-72237615D01*
X175860633Y-72233511D01*
X175834256Y-72207135D01*
X175806030Y-72151739D01*
X175815755Y-72090330D01*
X175834256Y-72064865D01*
X175860632Y-72038489D01*
X175904089Y-71973452D01*
X175910891Y-71939255D01*
X175941270Y-71885008D01*
X175989932Y-71860213D01*
X175998398Y-71858529D01*
X176024132Y-71853410D01*
X176089169Y-71809954D01*
X176214186Y-71684936D01*
X176252138Y-71628138D01*
X176252139Y-71628137D01*
X176252140Y-71628135D01*
X176257643Y-71619899D01*
X176259868Y-71608717D01*
X176264446Y-71585699D01*
X176294826Y-71531452D01*
X176343487Y-71506658D01*
X176355501Y-71504269D01*
X176367968Y-71501789D01*
X176367969Y-71501789D01*
X176377685Y-71499856D01*
X176385921Y-71494353D01*
X176385923Y-71494352D01*
X176438617Y-71459143D01*
X176438618Y-71459142D01*
X176442722Y-71456400D01*
X176567739Y-71331382D01*
X176611196Y-71266345D01*
X176617998Y-71232148D01*
X176648377Y-71177901D01*
X176697039Y-71153106D01*
X176721521Y-71148236D01*
X176731239Y-71146303D01*
X176796276Y-71102847D01*
X176921293Y-70977829D01*
X176964750Y-70912792D01*
X176966683Y-70903074D01*
X176966684Y-70903072D01*
X176971552Y-70878595D01*
X177001930Y-70824347D01*
X177050595Y-70799552D01*
X177084792Y-70792750D01*
X177093028Y-70787247D01*
X177093030Y-70787246D01*
X177145724Y-70752037D01*
X177145725Y-70752036D01*
X177149829Y-70749294D01*
X177274846Y-70624276D01*
X177312798Y-70567478D01*
X177312799Y-70567477D01*
X177312800Y-70567475D01*
X177318303Y-70559239D01*
X177325106Y-70525039D01*
X177355486Y-70470792D01*
X177404147Y-70445998D01*
X177416161Y-70443609D01*
X177428628Y-70441129D01*
X177428629Y-70441129D01*
X177438345Y-70439196D01*
X177446581Y-70433693D01*
X177446583Y-70433692D01*
X177499277Y-70398483D01*
X177499278Y-70398482D01*
X177503382Y-70395740D01*
X177628399Y-70270722D01*
X177671856Y-70205685D01*
X177678658Y-70171488D01*
X177709037Y-70117241D01*
X177757699Y-70092446D01*
X177782181Y-70087576D01*
X177791899Y-70085643D01*
X177856936Y-70042187D01*
X177981953Y-69917169D01*
X178010908Y-69873836D01*
X178019906Y-69860370D01*
X178019907Y-69860368D01*
X178025410Y-69852132D01*
X178028358Y-69837315D01*
X178032213Y-69817932D01*
X178062593Y-69763685D01*
X178111254Y-69738891D01*
X178123268Y-69736502D01*
X178135735Y-69734022D01*
X178135736Y-69734022D01*
X178145452Y-69732089D01*
X178153688Y-69726586D01*
X178153690Y-69726585D01*
X178206384Y-69691376D01*
X178206385Y-69691375D01*
X178210489Y-69688633D01*
X178236865Y-69662256D01*
X178292261Y-69634030D01*
X178353670Y-69643755D01*
G37*
%TD.AperFunction*%
%TA.AperFunction,Conductor*%
G36*
X159478031Y-70001713D02*
G01*
X159514576Y-70052013D01*
X159519500Y-70083100D01*
X159519500Y-72536900D01*
X159500287Y-72596031D01*
X159449987Y-72632576D01*
X159418900Y-72637500D01*
X159339340Y-72637500D01*
X159326690Y-72636087D01*
X159326686Y-72636138D01*
X159319541Y-72635563D01*
X159312552Y-72633982D01*
X159258956Y-72637307D01*
X159252727Y-72637500D01*
X159236060Y-72637500D01*
X159224928Y-72639094D01*
X159216920Y-72639914D01*
X159194185Y-72641325D01*
X159176615Y-72642415D01*
X159176614Y-72642415D01*
X159169462Y-72642859D01*
X159162720Y-72645293D01*
X159159968Y-72646286D01*
X159140078Y-72651246D01*
X159130082Y-72652677D01*
X159086798Y-72672357D01*
X159079319Y-72675401D01*
X159034613Y-72691540D01*
X159026460Y-72697496D01*
X159008763Y-72707837D01*
X158999572Y-72712016D01*
X158963544Y-72743060D01*
X158957238Y-72748066D01*
X158953880Y-72750520D01*
X158948802Y-72754229D01*
X158948798Y-72754233D01*
X158945664Y-72756522D01*
X158934250Y-72767936D01*
X158928783Y-72773012D01*
X158896390Y-72800923D01*
X158896387Y-72800926D01*
X158890963Y-72805600D01*
X158887065Y-72811614D01*
X158887064Y-72811615D01*
X158886378Y-72812673D01*
X158873096Y-72829090D01*
X158697712Y-73004474D01*
X158687769Y-73012419D01*
X158687802Y-73012458D01*
X158682341Y-73017106D01*
X158676280Y-73020930D01*
X158660944Y-73038295D01*
X158640738Y-73061174D01*
X158636470Y-73065716D01*
X158624680Y-73077506D01*
X158622539Y-73080363D01*
X158622531Y-73080372D01*
X158619601Y-73084281D01*
X158568765Y-73120077D01*
X158506598Y-73119155D01*
X158456845Y-73081868D01*
X158438500Y-73023950D01*
X158438500Y-72962252D01*
X158426867Y-72903769D01*
X158430335Y-72903079D01*
X158426958Y-72860249D01*
X158426867Y-72860231D01*
X158426931Y-72859910D01*
X158426931Y-72859909D01*
X158435050Y-72819091D01*
X158437535Y-72806600D01*
X158437535Y-72806599D01*
X158438500Y-72801748D01*
X158438500Y-72462252D01*
X158426867Y-72403769D01*
X158430335Y-72403079D01*
X158426958Y-72360249D01*
X158426867Y-72360231D01*
X158426931Y-72359910D01*
X158426931Y-72359909D01*
X158438500Y-72301748D01*
X158438500Y-71962252D01*
X158426867Y-71903769D01*
X158430335Y-71903079D01*
X158426958Y-71860249D01*
X158426867Y-71860231D01*
X158426931Y-71859910D01*
X158426931Y-71859909D01*
X158438500Y-71801748D01*
X158438500Y-71462252D01*
X158437174Y-71455583D01*
X158426867Y-71403769D01*
X158430335Y-71403079D01*
X158426958Y-71360249D01*
X158426867Y-71360231D01*
X158426931Y-71359910D01*
X158426931Y-71359909D01*
X158438500Y-71301748D01*
X158438500Y-70962252D01*
X158430955Y-70924318D01*
X158426867Y-70903769D01*
X158430335Y-70903079D01*
X158426958Y-70860249D01*
X158426867Y-70860231D01*
X158426931Y-70859910D01*
X158426931Y-70859909D01*
X158434229Y-70823220D01*
X158437535Y-70806600D01*
X158437535Y-70806599D01*
X158438500Y-70801748D01*
X158438500Y-70462252D01*
X158435166Y-70445488D01*
X158426867Y-70403769D01*
X158430335Y-70403079D01*
X158426958Y-70360249D01*
X158426867Y-70360231D01*
X158426931Y-70359910D01*
X158426931Y-70359909D01*
X158438500Y-70301748D01*
X158438500Y-70083100D01*
X158457713Y-70023969D01*
X158508013Y-69987424D01*
X158539100Y-69982500D01*
X159418900Y-69982500D01*
X159478031Y-70001713D01*
G37*
%TD.AperFunction*%
%TA.AperFunction,Conductor*%
G36*
X189686531Y-61360713D02*
G01*
X189723076Y-61411013D01*
X189728000Y-61442100D01*
X189728000Y-64347020D01*
X189708787Y-64406151D01*
X189663849Y-64438800D01*
X189664068Y-64439256D01*
X189661561Y-64440463D01*
X189658487Y-64442696D01*
X189654814Y-64443710D01*
X189653863Y-64444168D01*
X189642815Y-64446688D01*
X189633667Y-64453978D01*
X189614519Y-64465989D01*
X189614189Y-64466147D01*
X189614186Y-64466149D01*
X189603976Y-64471052D01*
X189596501Y-64480399D01*
X189580630Y-64496241D01*
X189571276Y-64503695D01*
X189566354Y-64513899D01*
X189566353Y-64513901D01*
X189566196Y-64514227D01*
X189554152Y-64533353D01*
X189553921Y-64533642D01*
X189553920Y-64533645D01*
X189546844Y-64542492D01*
X189544305Y-64553532D01*
X189544304Y-64553535D01*
X189544161Y-64554157D01*
X189536731Y-64575313D01*
X189536458Y-64575880D01*
X189531535Y-64586087D01*
X189531515Y-64609155D01*
X189529753Y-64609153D01*
X189529759Y-64609219D01*
X189531500Y-64609219D01*
X189531500Y-64626108D01*
X189531461Y-64671187D01*
X189531455Y-64677563D01*
X189531498Y-64677652D01*
X189531500Y-64677674D01*
X189531500Y-65256108D01*
X189531455Y-65307563D01*
X189536358Y-65317773D01*
X189536634Y-65318348D01*
X189544026Y-65339516D01*
X189546688Y-65351185D01*
X189553978Y-65360333D01*
X189565989Y-65379481D01*
X189566147Y-65379811D01*
X189566149Y-65379814D01*
X189571052Y-65390024D01*
X189580399Y-65397499D01*
X189596241Y-65413370D01*
X189603695Y-65422724D01*
X189613899Y-65427646D01*
X189613901Y-65427647D01*
X189614227Y-65427804D01*
X189633353Y-65439848D01*
X189633642Y-65440079D01*
X189633645Y-65440080D01*
X189642492Y-65447156D01*
X189653532Y-65449695D01*
X189663733Y-65454626D01*
X189662792Y-65456574D01*
X189703270Y-65480850D01*
X189727610Y-65538062D01*
X189728000Y-65546912D01*
X189728000Y-66563175D01*
X189708787Y-66622306D01*
X189658487Y-66658851D01*
X189591110Y-66657001D01*
X189187125Y-66500743D01*
X189186290Y-66500415D01*
X189132914Y-66479120D01*
X189126621Y-66478503D01*
X189110936Y-66478503D01*
X189092438Y-66476788D01*
X189073782Y-66473298D01*
X189064651Y-66474991D01*
X189064648Y-66474991D01*
X189054801Y-66476817D01*
X189036462Y-66478503D01*
X188916746Y-66478503D01*
X188901616Y-66477359D01*
X188900027Y-66477117D01*
X188895674Y-66476052D01*
X188891205Y-66475775D01*
X188891200Y-66475774D01*
X188886647Y-66475492D01*
X188886646Y-66475492D01*
X188885083Y-66475395D01*
X188883415Y-66475395D01*
X188883345Y-66475390D01*
X188881967Y-66475347D01*
X188881969Y-66475286D01*
X188868285Y-66474251D01*
X188849576Y-66471405D01*
X188833320Y-66468932D01*
X188762976Y-66474653D01*
X188757922Y-66475064D01*
X188749767Y-66475395D01*
X188745571Y-66475395D01*
X188745571Y-66474653D01*
X188743708Y-66474855D01*
X188743368Y-66474757D01*
X188736001Y-66475395D01*
X188732451Y-66475395D01*
X188732206Y-66475371D01*
X188731651Y-66475395D01*
X185828274Y-66475395D01*
X185813144Y-66474251D01*
X185797098Y-66471810D01*
X185791320Y-66470931D01*
X185741219Y-66475006D01*
X185740506Y-66475064D01*
X185732351Y-66475395D01*
X185723920Y-66475395D01*
X185721017Y-66475734D01*
X185721009Y-66475734D01*
X185696789Y-66478558D01*
X185693294Y-66478904D01*
X185629663Y-66484079D01*
X185629660Y-66484080D01*
X185623839Y-66484553D01*
X185618280Y-66486354D01*
X185612547Y-66487500D01*
X185612508Y-66487304D01*
X185610547Y-66487731D01*
X185610593Y-66487926D01*
X185604903Y-66489271D01*
X185599096Y-66489948D01*
X185533554Y-66513739D01*
X185530272Y-66514865D01*
X185463984Y-66536340D01*
X185458985Y-66539374D01*
X185453672Y-66541806D01*
X185453588Y-66541622D01*
X185451773Y-66542492D01*
X185451863Y-66542671D01*
X185446637Y-66545288D01*
X185441146Y-66547281D01*
X185436264Y-66550482D01*
X185382839Y-66585508D01*
X185379880Y-66587374D01*
X185320329Y-66623511D01*
X185316977Y-66626471D01*
X185316973Y-66626474D01*
X185312623Y-66630316D01*
X185309925Y-66632375D01*
X185309995Y-66632458D01*
X185305512Y-66636206D01*
X185300621Y-66639413D01*
X185279611Y-66661592D01*
X185249878Y-66692979D01*
X185247980Y-66694930D01*
X184365547Y-67577363D01*
X184363733Y-67579656D01*
X184363732Y-67579657D01*
X184301298Y-67658572D01*
X184287574Y-67675918D01*
X184255998Y-67743480D01*
X184253980Y-67747797D01*
X184244230Y-67764333D01*
X184190760Y-67837928D01*
X184188313Y-67845459D01*
X184153292Y-67953245D01*
X184149721Y-67964234D01*
X184149721Y-68097039D01*
X184152167Y-68104566D01*
X184152167Y-68104568D01*
X184185225Y-68206309D01*
X184190760Y-68223345D01*
X184195415Y-68229752D01*
X184195416Y-68229754D01*
X184199594Y-68235505D01*
X184215449Y-68268856D01*
X184229819Y-68323053D01*
X184232574Y-68328201D01*
X184271736Y-68401392D01*
X184282692Y-68462593D01*
X184255583Y-68518546D01*
X184200763Y-68547879D01*
X184137286Y-68538449D01*
X184062539Y-68500282D01*
X184044046Y-68490839D01*
X184003253Y-68480857D01*
X183968034Y-68464526D01*
X183963750Y-68461413D01*
X183963748Y-68461412D01*
X183957345Y-68456760D01*
X183879027Y-68431313D01*
X183838568Y-68418167D01*
X183838566Y-68418167D01*
X183831039Y-68415721D01*
X183698234Y-68415721D01*
X183690707Y-68418167D01*
X183690705Y-68418167D01*
X183650246Y-68431313D01*
X183571928Y-68456760D01*
X183561240Y-68464526D01*
X183553901Y-68469858D01*
X183529091Y-68483036D01*
X183519673Y-68486454D01*
X183513850Y-68488568D01*
X183510531Y-68489707D01*
X183449799Y-68509381D01*
X183449790Y-68509385D01*
X183444231Y-68511186D01*
X183439233Y-68514219D01*
X183433923Y-68516650D01*
X183433839Y-68516467D01*
X183432021Y-68517338D01*
X183432111Y-68517518D01*
X183426890Y-68520133D01*
X183421393Y-68522128D01*
X183416503Y-68525334D01*
X183363103Y-68560345D01*
X183360132Y-68562219D01*
X183304407Y-68596033D01*
X183304404Y-68596035D01*
X183300576Y-68598358D01*
X183297224Y-68601318D01*
X183297220Y-68601321D01*
X183292870Y-68605163D01*
X183290172Y-68607222D01*
X183290242Y-68607305D01*
X183285759Y-68611053D01*
X183280868Y-68614260D01*
X183257544Y-68638882D01*
X183230125Y-68667826D01*
X183228227Y-68669777D01*
X182311990Y-69586014D01*
X182306757Y-69590759D01*
X182306767Y-69590770D01*
X182304946Y-69592421D01*
X182303051Y-69593978D01*
X182301540Y-69595489D01*
X182297249Y-69598578D01*
X182297402Y-69598761D01*
X182290272Y-69604709D01*
X182282169Y-69609253D01*
X182276246Y-69616409D01*
X182258253Y-69638148D01*
X182251890Y-69645139D01*
X182054690Y-69842339D01*
X182046839Y-69848289D01*
X182047298Y-69848838D01*
X182040169Y-69854790D01*
X182032070Y-69859337D01*
X182026151Y-69866494D01*
X182026149Y-69866496D01*
X182008224Y-69888171D01*
X182001834Y-69895195D01*
X181995752Y-69901277D01*
X181993130Y-69905100D01*
X181993126Y-69905104D01*
X181990349Y-69909151D01*
X181984923Y-69916347D01*
X181980662Y-69921500D01*
X181960728Y-69945605D01*
X181958213Y-69951406D01*
X181957464Y-69953733D01*
X181955301Y-69959015D01*
X181953762Y-69962488D01*
X181948508Y-69970146D01*
X181939105Y-70009770D01*
X181936987Y-70017358D01*
X181721318Y-70687473D01*
X181712215Y-70715756D01*
X181687587Y-70756071D01*
X181553670Y-70889988D01*
X181498272Y-70918214D01*
X181436864Y-70908488D01*
X181411403Y-70889990D01*
X181314334Y-70792922D01*
X181286108Y-70737524D01*
X181295834Y-70676116D01*
X181314334Y-70650652D01*
X181513569Y-70451417D01*
X181520040Y-70445488D01*
X181543013Y-70426212D01*
X181543015Y-70426210D01*
X181549754Y-70420555D01*
X181554153Y-70412935D01*
X181554155Y-70412933D01*
X181569152Y-70386957D01*
X181573868Y-70379555D01*
X181591065Y-70354995D01*
X181591066Y-70354994D01*
X181596114Y-70347784D01*
X181598392Y-70339283D01*
X181600795Y-70334130D01*
X181602746Y-70328769D01*
X181607148Y-70321145D01*
X181613882Y-70282953D01*
X181615782Y-70274384D01*
X181623546Y-70245408D01*
X181625824Y-70236907D01*
X181624340Y-70219939D01*
X181622443Y-70198264D01*
X181622060Y-70189496D01*
X181622060Y-69851255D01*
X181641273Y-69792124D01*
X181691573Y-69755579D01*
X181709527Y-69751516D01*
X181721764Y-69749905D01*
X181721766Y-69749904D01*
X181728302Y-69749044D01*
X181874381Y-69688536D01*
X181999822Y-69592282D01*
X182096076Y-69466841D01*
X182156584Y-69320762D01*
X182159258Y-69300455D01*
X182176361Y-69170540D01*
X182177222Y-69164000D01*
X182171881Y-69123432D01*
X182157445Y-69013776D01*
X182157444Y-69013774D01*
X182156584Y-69007238D01*
X182110839Y-68896800D01*
X182105960Y-68834819D01*
X182132646Y-68787168D01*
X182566965Y-68352849D01*
X182622363Y-68324623D01*
X182638100Y-68323384D01*
X182735063Y-68323384D01*
X182742590Y-68320938D01*
X182742592Y-68320938D01*
X182813247Y-68297980D01*
X182863250Y-68281733D01*
X182905963Y-68250700D01*
X182941666Y-68224761D01*
X182941670Y-68224758D01*
X182944864Y-68222437D01*
X183310421Y-67856880D01*
X183312742Y-67853686D01*
X183312745Y-67853682D01*
X183362059Y-67785806D01*
X183369717Y-67775266D01*
X183391009Y-67709736D01*
X183408922Y-67654608D01*
X183408922Y-67654606D01*
X183411368Y-67647079D01*
X183411368Y-67512293D01*
X183403972Y-67489529D01*
X183387777Y-67439688D01*
X183369717Y-67384105D01*
X183335205Y-67336603D01*
X183312745Y-67305689D01*
X183312742Y-67305685D01*
X183310421Y-67302491D01*
X182909509Y-66901579D01*
X182906315Y-66899258D01*
X182906311Y-66899255D01*
X182845624Y-66855164D01*
X182827895Y-66842283D01*
X182731752Y-66811044D01*
X182707236Y-66803078D01*
X182707234Y-66803078D01*
X182699707Y-66800632D01*
X182648100Y-66800632D01*
X182588969Y-66781419D01*
X182576965Y-66771167D01*
X182358833Y-66553035D01*
X182330607Y-66497637D01*
X182329368Y-66481900D01*
X182329368Y-66420293D01*
X182325477Y-66408316D01*
X182303126Y-66339529D01*
X182287717Y-66292105D01*
X182257057Y-66249905D01*
X182230745Y-66213689D01*
X182230742Y-66213685D01*
X182228421Y-66210491D01*
X181827509Y-65809579D01*
X181824315Y-65807258D01*
X181824311Y-65807255D01*
X181752299Y-65754936D01*
X181745895Y-65750283D01*
X181681801Y-65729457D01*
X181625236Y-65711078D01*
X181625234Y-65711078D01*
X181617707Y-65708632D01*
X181556100Y-65708632D01*
X181496969Y-65689419D01*
X181484965Y-65679167D01*
X180663510Y-64857712D01*
X180655564Y-64847767D01*
X180655525Y-64847800D01*
X180650876Y-64842337D01*
X180647054Y-64836280D01*
X180641685Y-64831538D01*
X180637037Y-64826077D01*
X180638578Y-64824765D01*
X180613299Y-64778734D01*
X180612332Y-64779048D01*
X180610681Y-64773965D01*
X180610107Y-64772921D01*
X180609884Y-64771515D01*
X180608646Y-64763696D01*
X180570583Y-64688993D01*
X180560856Y-64627585D01*
X180589083Y-64572187D01*
X180644480Y-64543961D01*
X180653306Y-64543652D01*
X180653272Y-64543264D01*
X180662039Y-64542497D01*
X180670807Y-64543264D01*
X180684854Y-64539500D01*
X180708284Y-64533222D01*
X180716853Y-64531322D01*
X180723955Y-64530070D01*
X180755045Y-64524588D01*
X180762669Y-64520186D01*
X180768030Y-64518235D01*
X180773183Y-64515832D01*
X180781684Y-64513554D01*
X180788895Y-64508505D01*
X180813455Y-64491308D01*
X180820857Y-64486592D01*
X180846830Y-64471597D01*
X180846833Y-64471594D01*
X180854455Y-64467194D01*
X180876001Y-64441517D01*
X180879395Y-64437472D01*
X180885324Y-64431002D01*
X181334522Y-63981804D01*
X181389920Y-63953578D01*
X181441124Y-63960140D01*
X181441398Y-63959297D01*
X181445862Y-63960748D01*
X181445865Y-63960748D01*
X181446083Y-63960819D01*
X181446087Y-63960821D01*
X181632649Y-64021439D01*
X181632655Y-64021440D01*
X181637329Y-64022959D01*
X181642211Y-64023541D01*
X181642215Y-64023542D01*
X181781569Y-64040158D01*
X181841894Y-64047351D01*
X181846795Y-64046974D01*
X181846798Y-64046974D01*
X181957112Y-64038486D01*
X182047300Y-64031546D01*
X182052036Y-64030224D01*
X182052040Y-64030223D01*
X182240983Y-63977469D01*
X182245725Y-63976145D01*
X182429610Y-63883258D01*
X182591951Y-63756424D01*
X182595312Y-63752531D01*
X182658631Y-63679174D01*
X182726564Y-63600472D01*
X182801278Y-63468952D01*
X182825893Y-63425622D01*
X182825894Y-63425620D01*
X182828323Y-63421344D01*
X182893351Y-63225863D01*
X182893967Y-63220988D01*
X182893968Y-63220983D01*
X182918819Y-63024257D01*
X182919171Y-63021474D01*
X182919583Y-62992000D01*
X182899480Y-62786970D01*
X182898058Y-62782260D01*
X182898057Y-62782255D01*
X182841357Y-62594460D01*
X182839935Y-62589749D01*
X182743218Y-62407849D01*
X182613011Y-62248200D01*
X182556189Y-62201193D01*
X182458063Y-62120015D01*
X182458058Y-62120012D01*
X182454275Y-62116882D01*
X182430395Y-62103970D01*
X182277378Y-62021234D01*
X182277374Y-62021232D01*
X182273055Y-62018897D01*
X182076254Y-61957977D01*
X181871369Y-61936443D01*
X181866468Y-61936889D01*
X181866465Y-61936889D01*
X181671101Y-61954668D01*
X181671098Y-61954668D01*
X181666203Y-61955114D01*
X181661489Y-61956501D01*
X181661486Y-61956502D01*
X181538796Y-61992612D01*
X181468572Y-62013280D01*
X181464212Y-62015559D01*
X181464208Y-62015561D01*
X181396147Y-62051143D01*
X181286002Y-62108726D01*
X181125447Y-62237815D01*
X180993024Y-62395630D01*
X180990657Y-62399936D01*
X180990654Y-62399940D01*
X180927933Y-62514030D01*
X180893776Y-62576162D01*
X180831484Y-62772532D01*
X180830935Y-62777423D01*
X180830935Y-62777425D01*
X180829865Y-62786970D01*
X180808520Y-62977262D01*
X180825759Y-63182553D01*
X180882544Y-63380586D01*
X180884790Y-63384956D01*
X180884795Y-63384969D01*
X180894006Y-63402892D01*
X180903945Y-63464267D01*
X180875665Y-63520009D01*
X180536639Y-63859035D01*
X180481241Y-63887261D01*
X180465504Y-63888500D01*
X180157675Y-63888500D01*
X180098544Y-63869287D01*
X180061999Y-63818987D01*
X180061999Y-63756813D01*
X180081521Y-63722166D01*
X180084967Y-63718174D01*
X180186564Y-63600472D01*
X180261278Y-63468952D01*
X180285893Y-63425622D01*
X180285894Y-63425620D01*
X180288323Y-63421344D01*
X180353351Y-63225863D01*
X180353967Y-63220988D01*
X180353968Y-63220983D01*
X180378819Y-63024257D01*
X180379171Y-63021474D01*
X180379583Y-62992000D01*
X180359480Y-62786970D01*
X180358058Y-62782260D01*
X180358057Y-62782255D01*
X180301357Y-62594460D01*
X180299935Y-62589749D01*
X180203218Y-62407849D01*
X180073011Y-62248200D01*
X180016189Y-62201193D01*
X179918063Y-62120015D01*
X179918058Y-62120012D01*
X179914275Y-62116882D01*
X179890395Y-62103970D01*
X179737378Y-62021234D01*
X179737374Y-62021232D01*
X179733055Y-62018897D01*
X179536254Y-61957977D01*
X179331369Y-61936443D01*
X179326468Y-61936889D01*
X179326465Y-61936889D01*
X179131101Y-61954668D01*
X179131098Y-61954668D01*
X179126203Y-61955114D01*
X179121489Y-61956501D01*
X179121486Y-61956502D01*
X178998796Y-61992612D01*
X178928572Y-62013280D01*
X178924212Y-62015559D01*
X178924208Y-62015561D01*
X178856147Y-62051143D01*
X178746002Y-62108726D01*
X178585447Y-62237815D01*
X178582282Y-62241587D01*
X178519919Y-62315908D01*
X178467192Y-62348855D01*
X178405169Y-62344518D01*
X178357541Y-62304553D01*
X178351681Y-62293760D01*
X178349832Y-62289795D01*
X178347554Y-62281294D01*
X178325295Y-62249504D01*
X178320590Y-62242118D01*
X178320284Y-62241587D01*
X178301194Y-62208523D01*
X178278039Y-62189093D01*
X178271478Y-62183588D01*
X178265008Y-62177659D01*
X177687827Y-61600479D01*
X177681898Y-61594008D01*
X177662623Y-61571036D01*
X177662621Y-61571034D01*
X177656966Y-61564295D01*
X177649346Y-61559896D01*
X177649344Y-61559894D01*
X177623368Y-61544897D01*
X177615966Y-61540181D01*
X177593580Y-61524506D01*
X177556163Y-61474852D01*
X177555078Y-61412687D01*
X177590740Y-61361757D01*
X177651282Y-61341500D01*
X189627400Y-61341500D01*
X189686531Y-61360713D01*
G37*
%TD.AperFunction*%
%TA.AperFunction,Conductor*%
G36*
X171789213Y-68508713D02*
G01*
X171801217Y-68518965D01*
X171844780Y-68562528D01*
X171964874Y-68623719D01*
X171972693Y-68624957D01*
X171972695Y-68624958D01*
X172018977Y-68632288D01*
X172064512Y-68639500D01*
X172631488Y-68639500D01*
X172677023Y-68632288D01*
X172723305Y-68624958D01*
X172723307Y-68624957D01*
X172731126Y-68623719D01*
X172851220Y-68562528D01*
X172855359Y-68558389D01*
X172913495Y-68539500D01*
X173316159Y-68539500D01*
X173375291Y-68558713D01*
X173379058Y-68561450D01*
X173384658Y-68567050D01*
X173497696Y-68624646D01*
X173543907Y-68631965D01*
X173587577Y-68638882D01*
X173587581Y-68638882D01*
X173589296Y-68639154D01*
X173591481Y-68639500D01*
X173591398Y-68640025D01*
X173646327Y-68662784D01*
X173678808Y-68715799D01*
X173673923Y-68777781D01*
X173642229Y-68819083D01*
X173537356Y-68899554D01*
X173441102Y-69024995D01*
X173380594Y-69171074D01*
X173379734Y-69177610D01*
X173379733Y-69177612D01*
X173361748Y-69314224D01*
X173359956Y-69327836D01*
X173360817Y-69334376D01*
X173360817Y-69339900D01*
X173341604Y-69399031D01*
X173291304Y-69435576D01*
X173260217Y-69440500D01*
X172767329Y-69440501D01*
X172667482Y-69440501D01*
X172663589Y-69441118D01*
X172663583Y-69441118D01*
X172612985Y-69449132D01*
X172573696Y-69455354D01*
X172566645Y-69458947D01*
X172566641Y-69458948D01*
X172467711Y-69509356D01*
X172467710Y-69509357D01*
X172460658Y-69512950D01*
X172370950Y-69602658D01*
X172367357Y-69609710D01*
X172367356Y-69609711D01*
X172343097Y-69657322D01*
X172299133Y-69701285D01*
X172262230Y-69711867D01*
X172254960Y-69712503D01*
X172246193Y-69711736D01*
X172237692Y-69714014D01*
X172237691Y-69714014D01*
X172208716Y-69721778D01*
X172200147Y-69723678D01*
X172193045Y-69724930D01*
X172161955Y-69730412D01*
X172154331Y-69734814D01*
X172148970Y-69736765D01*
X172143817Y-69739168D01*
X172135316Y-69741446D01*
X172128106Y-69746494D01*
X172128105Y-69746495D01*
X172103545Y-69763692D01*
X172096143Y-69768408D01*
X172070170Y-69783403D01*
X172070167Y-69783406D01*
X172062545Y-69787806D01*
X172056887Y-69794549D01*
X172037605Y-69817528D01*
X172031676Y-69823998D01*
X171654235Y-70201439D01*
X171598837Y-70229665D01*
X171537429Y-70219939D01*
X171493465Y-70175975D01*
X171482500Y-70130304D01*
X171482500Y-68590100D01*
X171501713Y-68530969D01*
X171552013Y-68494424D01*
X171583100Y-68489500D01*
X171730082Y-68489500D01*
X171789213Y-68508713D01*
G37*
%TD.AperFunction*%
%TA.AperFunction,Conductor*%
G36*
X165808408Y-62162202D02*
G01*
X165844953Y-62212502D01*
X165844953Y-62274676D01*
X165826341Y-62308253D01*
X165756189Y-62391857D01*
X165756186Y-62391862D01*
X165753024Y-62395630D01*
X165750657Y-62399936D01*
X165750654Y-62399940D01*
X165687933Y-62514030D01*
X165653776Y-62576162D01*
X165591484Y-62772532D01*
X165590935Y-62777423D01*
X165590935Y-62777425D01*
X165589865Y-62786970D01*
X165568520Y-62977262D01*
X165585759Y-63182553D01*
X165611637Y-63272801D01*
X165628945Y-63333159D01*
X165642544Y-63380586D01*
X165736712Y-63563818D01*
X165739765Y-63567670D01*
X165739767Y-63567673D01*
X165768715Y-63604196D01*
X165864677Y-63725270D01*
X166021564Y-63858791D01*
X166201398Y-63959297D01*
X166206079Y-63960818D01*
X166392649Y-64021439D01*
X166392655Y-64021440D01*
X166397329Y-64022959D01*
X166402211Y-64023541D01*
X166402215Y-64023542D01*
X166541569Y-64040158D01*
X166601894Y-64047351D01*
X166606795Y-64046974D01*
X166606798Y-64046974D01*
X166717112Y-64038486D01*
X166807300Y-64031546D01*
X166812036Y-64030224D01*
X166812040Y-64030223D01*
X167000983Y-63977469D01*
X167005725Y-63976145D01*
X167189610Y-63883258D01*
X167351951Y-63756424D01*
X167355312Y-63752531D01*
X167418631Y-63679174D01*
X167486564Y-63600472D01*
X167561278Y-63468952D01*
X167585893Y-63425622D01*
X167585894Y-63425620D01*
X167588323Y-63421344D01*
X167653351Y-63225863D01*
X167653967Y-63220988D01*
X167653968Y-63220983D01*
X167678819Y-63024257D01*
X167679171Y-63021474D01*
X167679583Y-62992000D01*
X167659480Y-62786970D01*
X167658058Y-62782260D01*
X167658057Y-62782255D01*
X167601357Y-62594460D01*
X167599935Y-62589749D01*
X167503218Y-62407849D01*
X167444098Y-62335361D01*
X167421107Y-62307171D01*
X167398623Y-62249205D01*
X167414505Y-62189093D01*
X167462687Y-62149797D01*
X167499066Y-62142989D01*
X168289277Y-62142989D01*
X168348408Y-62162202D01*
X168384953Y-62212502D01*
X168384953Y-62274676D01*
X168366341Y-62308253D01*
X168296189Y-62391857D01*
X168296186Y-62391862D01*
X168293024Y-62395630D01*
X168290657Y-62399936D01*
X168290654Y-62399940D01*
X168227933Y-62514030D01*
X168193776Y-62576162D01*
X168131484Y-62772532D01*
X168130935Y-62777423D01*
X168130935Y-62777425D01*
X168129865Y-62786970D01*
X168108520Y-62977262D01*
X168125759Y-63182553D01*
X168151637Y-63272801D01*
X168168945Y-63333159D01*
X168182544Y-63380586D01*
X168276712Y-63563818D01*
X168279765Y-63567670D01*
X168279767Y-63567673D01*
X168308715Y-63604196D01*
X168404677Y-63725270D01*
X168561564Y-63858791D01*
X168741398Y-63959297D01*
X168746079Y-63960818D01*
X168932649Y-64021439D01*
X168932655Y-64021440D01*
X168937329Y-64022959D01*
X168942211Y-64023541D01*
X168942215Y-64023542D01*
X169081569Y-64040158D01*
X169141894Y-64047351D01*
X169146795Y-64046974D01*
X169146798Y-64046974D01*
X169257112Y-64038486D01*
X169347300Y-64031546D01*
X169352036Y-64030224D01*
X169352040Y-64030223D01*
X169540983Y-63977469D01*
X169545725Y-63976145D01*
X169571605Y-63963072D01*
X169575131Y-63961291D01*
X169636573Y-63951779D01*
X169691624Y-63979950D01*
X170842203Y-65130529D01*
X170848132Y-65137000D01*
X170867408Y-65159973D01*
X170867410Y-65159975D01*
X170873065Y-65166714D01*
X170880685Y-65171113D01*
X170880687Y-65171115D01*
X170906663Y-65186112D01*
X170914065Y-65190828D01*
X170938625Y-65208025D01*
X170945836Y-65213074D01*
X170954337Y-65215352D01*
X170959490Y-65217755D01*
X170964851Y-65219706D01*
X170972475Y-65224108D01*
X170995088Y-65228095D01*
X171010667Y-65230842D01*
X171019236Y-65232742D01*
X171047102Y-65240209D01*
X171056713Y-65242784D01*
X171065480Y-65242017D01*
X171095360Y-65239403D01*
X171104127Y-65239020D01*
X175073497Y-65239020D01*
X175132628Y-65258233D01*
X175169173Y-65308533D01*
X175169173Y-65370707D01*
X175166439Y-65378118D01*
X175148110Y-65422369D01*
X175112956Y-65507238D01*
X175112096Y-65513774D01*
X175112095Y-65513776D01*
X175105443Y-65564304D01*
X175092318Y-65664000D01*
X175102753Y-65743261D01*
X175091423Y-65804392D01*
X175074149Y-65827525D01*
X174867639Y-66034035D01*
X174812241Y-66062261D01*
X174796504Y-66063500D01*
X174620194Y-66063500D01*
X174561063Y-66044287D01*
X174530559Y-66008572D01*
X174504644Y-65957711D01*
X174504643Y-65957710D01*
X174501050Y-65950658D01*
X174411342Y-65860950D01*
X174404290Y-65857357D01*
X174404289Y-65857356D01*
X174340092Y-65824646D01*
X174298304Y-65803354D01*
X174204519Y-65788500D01*
X174200561Y-65788500D01*
X173897690Y-65788501D01*
X173591482Y-65788501D01*
X173587589Y-65789118D01*
X173587583Y-65789118D01*
X173536985Y-65797132D01*
X173497696Y-65803354D01*
X173490645Y-65806947D01*
X173490641Y-65806948D01*
X173391711Y-65857356D01*
X173391710Y-65857357D01*
X173384658Y-65860950D01*
X173294950Y-65950658D01*
X173291357Y-65957710D01*
X173291356Y-65957711D01*
X173286704Y-65966841D01*
X173237354Y-66063696D01*
X173222500Y-66157481D01*
X173222501Y-66620518D01*
X173223118Y-66624411D01*
X173223118Y-66624417D01*
X173229753Y-66666308D01*
X173237354Y-66714304D01*
X173240947Y-66721355D01*
X173240948Y-66721359D01*
X173291356Y-66820289D01*
X173294950Y-66827342D01*
X173384658Y-66917050D01*
X173391710Y-66920643D01*
X173391711Y-66920644D01*
X173397754Y-66923723D01*
X173497696Y-66974646D01*
X173591481Y-66989500D01*
X173595439Y-66989500D01*
X173898310Y-66989499D01*
X174204518Y-66989499D01*
X174208411Y-66988882D01*
X174208417Y-66988882D01*
X174259015Y-66980868D01*
X174298304Y-66974646D01*
X174305355Y-66971053D01*
X174305359Y-66971052D01*
X174404289Y-66920644D01*
X174404290Y-66920643D01*
X174411342Y-66917050D01*
X174501050Y-66827342D01*
X174505727Y-66818164D01*
X174530559Y-66769428D01*
X174574523Y-66725465D01*
X174620194Y-66714500D01*
X174954396Y-66714500D01*
X174963163Y-66714883D01*
X175001807Y-66718264D01*
X175011418Y-66715689D01*
X175039284Y-66708222D01*
X175047853Y-66706322D01*
X175058101Y-66704515D01*
X175086045Y-66699588D01*
X175093669Y-66695186D01*
X175099030Y-66693235D01*
X175104183Y-66690832D01*
X175112684Y-66688554D01*
X175119895Y-66683505D01*
X175144455Y-66666308D01*
X175151857Y-66661592D01*
X175177830Y-66646597D01*
X175177833Y-66646594D01*
X175185455Y-66642194D01*
X175210395Y-66612472D01*
X175216324Y-66606002D01*
X175534475Y-66287851D01*
X175589873Y-66259625D01*
X175618738Y-66259247D01*
X175698000Y-66269682D01*
X175704540Y-66268821D01*
X175848224Y-66249905D01*
X175848226Y-66249904D01*
X175854762Y-66249044D01*
X176000841Y-66188536D01*
X176126282Y-66092282D01*
X176222536Y-65966841D01*
X176280162Y-65827720D01*
X176320539Y-65780444D01*
X176380996Y-65765929D01*
X176438437Y-65789722D01*
X176444238Y-65795084D01*
X177054713Y-66405559D01*
X177082939Y-66460957D01*
X177084178Y-66476694D01*
X177084178Y-67297960D01*
X177083795Y-67306727D01*
X177080414Y-67345371D01*
X177082802Y-67354281D01*
X177084075Y-67359033D01*
X177080822Y-67421122D01*
X177041695Y-67469441D01*
X177000035Y-67484811D01*
X176983738Y-67486956D01*
X176837659Y-67547464D01*
X176712218Y-67643718D01*
X176615964Y-67769159D01*
X176555456Y-67915238D01*
X176554596Y-67921774D01*
X176554595Y-67921776D01*
X176548941Y-67964721D01*
X176534818Y-68072000D01*
X176535679Y-68078540D01*
X176544423Y-68144957D01*
X176533093Y-68206090D01*
X176487993Y-68248888D01*
X176426351Y-68257003D01*
X176373549Y-68229223D01*
X175966317Y-67821991D01*
X175960388Y-67815520D01*
X175941112Y-67792547D01*
X175941110Y-67792545D01*
X175935455Y-67785806D01*
X175927835Y-67781407D01*
X175927833Y-67781405D01*
X175901857Y-67766408D01*
X175894455Y-67761692D01*
X175869895Y-67744495D01*
X175869894Y-67744494D01*
X175862684Y-67739446D01*
X175854183Y-67737168D01*
X175849030Y-67734765D01*
X175843669Y-67732814D01*
X175836045Y-67728412D01*
X175804955Y-67722930D01*
X175797853Y-67721678D01*
X175789284Y-67719778D01*
X175760308Y-67712014D01*
X175751807Y-67709736D01*
X175743040Y-67710503D01*
X175713164Y-67713117D01*
X175704396Y-67713500D01*
X174620194Y-67713500D01*
X174561063Y-67694287D01*
X174530559Y-67658572D01*
X174504644Y-67607711D01*
X174504643Y-67607710D01*
X174501050Y-67600658D01*
X174411342Y-67510950D01*
X174404290Y-67507357D01*
X174404289Y-67507356D01*
X174326422Y-67467681D01*
X174298304Y-67453354D01*
X174204519Y-67438500D01*
X174200561Y-67438500D01*
X173897690Y-67438501D01*
X173591482Y-67438501D01*
X173587589Y-67439118D01*
X173587583Y-67439118D01*
X173536985Y-67447132D01*
X173497696Y-67453354D01*
X173490645Y-67456947D01*
X173490641Y-67456948D01*
X173431150Y-67487261D01*
X173384658Y-67510950D01*
X173379058Y-67516550D01*
X173375291Y-67519287D01*
X173316159Y-67538500D01*
X173015918Y-67538500D01*
X172956787Y-67519287D01*
X172944783Y-67509035D01*
X172851220Y-67415472D01*
X172731126Y-67354281D01*
X172723307Y-67353043D01*
X172723305Y-67353042D01*
X172674870Y-67345371D01*
X172631488Y-67338500D01*
X172064512Y-67338500D01*
X172021130Y-67345371D01*
X171972695Y-67353042D01*
X171972693Y-67353043D01*
X171964874Y-67354281D01*
X171844780Y-67415472D01*
X171801217Y-67459035D01*
X171745819Y-67487261D01*
X171730082Y-67488500D01*
X171583100Y-67488500D01*
X171523969Y-67469287D01*
X171487424Y-67418987D01*
X171482500Y-67387900D01*
X171482500Y-66406252D01*
X171470867Y-66347769D01*
X171426552Y-66281448D01*
X171360231Y-66237133D01*
X171321912Y-66229511D01*
X171306600Y-66226465D01*
X171306599Y-66226465D01*
X171301748Y-66225500D01*
X170628086Y-66225500D01*
X170568955Y-66206287D01*
X170532410Y-66155987D01*
X170532410Y-66093813D01*
X170535144Y-66086402D01*
X170544549Y-66063696D01*
X170583044Y-65970762D01*
X170603682Y-65814000D01*
X170583044Y-65657238D01*
X170522536Y-65511159D01*
X170426282Y-65385718D01*
X170416378Y-65378118D01*
X170313326Y-65299044D01*
X170300841Y-65289464D01*
X170154762Y-65228956D01*
X170148226Y-65228096D01*
X170148224Y-65228095D01*
X170004540Y-65209179D01*
X169998000Y-65208318D01*
X169991460Y-65209179D01*
X169847776Y-65228095D01*
X169847774Y-65228096D01*
X169841238Y-65228956D01*
X169695159Y-65289464D01*
X169682674Y-65299044D01*
X169579623Y-65378118D01*
X169569718Y-65385718D01*
X169473464Y-65511159D01*
X169412956Y-65657238D01*
X169392318Y-65814000D01*
X169412956Y-65970762D01*
X169451451Y-66063696D01*
X169460856Y-66086402D01*
X169465734Y-66148384D01*
X169433249Y-66201397D01*
X169375807Y-66225190D01*
X169367914Y-66225500D01*
X169262252Y-66225500D01*
X169257401Y-66226465D01*
X169257400Y-66226465D01*
X169242088Y-66229511D01*
X169203769Y-66237133D01*
X169137448Y-66281448D01*
X169093133Y-66347769D01*
X169081500Y-66406252D01*
X169081500Y-70080304D01*
X169062287Y-70139435D01*
X169011987Y-70175980D01*
X168949813Y-70175980D01*
X168909765Y-70151439D01*
X168756965Y-69998639D01*
X168728739Y-69943241D01*
X168727500Y-69927504D01*
X168727500Y-66566604D01*
X168727883Y-66557836D01*
X168730497Y-66527960D01*
X168731264Y-66519193D01*
X168725488Y-66497637D01*
X168721222Y-66481716D01*
X168719322Y-66473147D01*
X168714116Y-66443623D01*
X168712588Y-66434955D01*
X168708186Y-66427331D01*
X168706235Y-66421970D01*
X168703832Y-66416817D01*
X168701554Y-66408316D01*
X168696505Y-66401105D01*
X168679308Y-66376545D01*
X168674592Y-66369143D01*
X168659597Y-66343170D01*
X168659594Y-66343167D01*
X168655194Y-66335545D01*
X168635679Y-66319169D01*
X168625472Y-66310605D01*
X168619002Y-66304676D01*
X166867317Y-64552991D01*
X166861388Y-64546520D01*
X166842112Y-64523547D01*
X166842110Y-64523545D01*
X166836455Y-64516806D01*
X166828835Y-64512407D01*
X166828833Y-64512405D01*
X166802857Y-64497408D01*
X166795455Y-64492692D01*
X166770895Y-64475495D01*
X166770894Y-64475494D01*
X166763684Y-64470446D01*
X166755183Y-64468168D01*
X166750030Y-64465765D01*
X166744669Y-64463814D01*
X166737045Y-64459412D01*
X166704927Y-64453749D01*
X166698853Y-64452678D01*
X166690284Y-64450778D01*
X166661308Y-64443014D01*
X166652807Y-64440736D01*
X166618816Y-64443710D01*
X166614164Y-64444117D01*
X166605396Y-64444500D01*
X163147729Y-64444500D01*
X163088598Y-64425287D01*
X163067922Y-64405146D01*
X162976282Y-64285718D01*
X162850841Y-64189464D01*
X162704762Y-64128956D01*
X162698226Y-64128096D01*
X162698224Y-64128095D01*
X162554540Y-64109179D01*
X162548000Y-64108318D01*
X162541460Y-64109179D01*
X162397776Y-64128095D01*
X162397774Y-64128096D01*
X162391238Y-64128956D01*
X162245159Y-64189464D01*
X162119718Y-64285718D01*
X162023464Y-64411159D01*
X161962956Y-64557238D01*
X161962096Y-64563774D01*
X161962095Y-64563776D01*
X161947954Y-64671187D01*
X161942318Y-64714000D01*
X161943179Y-64720540D01*
X161961729Y-64861439D01*
X161962956Y-64870762D01*
X162023464Y-65016841D01*
X162119718Y-65142282D01*
X162245159Y-65238536D01*
X162391238Y-65299044D01*
X162397774Y-65299904D01*
X162397776Y-65299905D01*
X162541460Y-65318821D01*
X162548000Y-65319682D01*
X162554540Y-65318821D01*
X162698224Y-65299905D01*
X162698226Y-65299904D01*
X162704762Y-65299044D01*
X162850841Y-65238536D01*
X162976282Y-65142282D01*
X162981979Y-65134857D01*
X162983609Y-65133737D01*
X162984958Y-65132388D01*
X162985208Y-65132638D01*
X163033218Y-65099642D01*
X163061789Y-65095500D01*
X166447504Y-65095500D01*
X166506635Y-65114713D01*
X166518639Y-65124965D01*
X168047035Y-66653361D01*
X168075261Y-66708759D01*
X168076500Y-66724496D01*
X168076500Y-69845918D01*
X168057287Y-69905049D01*
X168006987Y-69941594D01*
X167944813Y-69941594D01*
X167904765Y-69917053D01*
X166222663Y-68234951D01*
X166196503Y-68181905D01*
X166195611Y-68182144D01*
X166194410Y-68177662D01*
X166194059Y-68176950D01*
X166193904Y-68175773D01*
X166193044Y-68169238D01*
X166132536Y-68023159D01*
X166043465Y-67907079D01*
X166040299Y-67902953D01*
X166036282Y-67897718D01*
X166029279Y-67892344D01*
X165968824Y-67845956D01*
X165910841Y-67801464D01*
X165764762Y-67740956D01*
X165758226Y-67740096D01*
X165758224Y-67740095D01*
X165614540Y-67721179D01*
X165608000Y-67720318D01*
X165601460Y-67721179D01*
X165457776Y-67740095D01*
X165457774Y-67740096D01*
X165451238Y-67740956D01*
X165321597Y-67794655D01*
X165259616Y-67799533D01*
X165206603Y-67767048D01*
X165182810Y-67709606D01*
X165182500Y-67701713D01*
X165182500Y-67556252D01*
X165170867Y-67497769D01*
X165140362Y-67452116D01*
X165132058Y-67439688D01*
X165126552Y-67431448D01*
X165060231Y-67387133D01*
X165018700Y-67378872D01*
X165006600Y-67376465D01*
X165006599Y-67376465D01*
X165001748Y-67375500D01*
X162962252Y-67375500D01*
X162957401Y-67376465D01*
X162957400Y-67376465D01*
X162945300Y-67378872D01*
X162903769Y-67387133D01*
X162837448Y-67431448D01*
X162831942Y-67439688D01*
X162823638Y-67452116D01*
X162793133Y-67497769D01*
X162781500Y-67556252D01*
X162781500Y-67724900D01*
X162762287Y-67784031D01*
X162711987Y-67820576D01*
X162680900Y-67825500D01*
X162208984Y-67825500D01*
X162149853Y-67806287D01*
X162137849Y-67796035D01*
X161023916Y-66682102D01*
X160995690Y-66626704D01*
X161005416Y-66565296D01*
X161023916Y-66539832D01*
X161046528Y-66517220D01*
X161107719Y-66397126D01*
X161110707Y-66378264D01*
X161117913Y-66332763D01*
X161123500Y-66297488D01*
X161123500Y-65730512D01*
X161115079Y-65677342D01*
X161108958Y-65638695D01*
X161108957Y-65638693D01*
X161107719Y-65630874D01*
X161046528Y-65510780D01*
X161002965Y-65467217D01*
X160974739Y-65411819D01*
X160973500Y-65396082D01*
X160973500Y-64311984D01*
X160992713Y-64252853D01*
X161002965Y-64240849D01*
X161200923Y-64042891D01*
X161256321Y-64014665D01*
X161303143Y-64018350D01*
X161317329Y-64022959D01*
X161322211Y-64023541D01*
X161322215Y-64023542D01*
X161461569Y-64040158D01*
X161521894Y-64047351D01*
X161526795Y-64046974D01*
X161526798Y-64046974D01*
X161637112Y-64038486D01*
X161727300Y-64031546D01*
X161732036Y-64030224D01*
X161732040Y-64030223D01*
X161920983Y-63977469D01*
X161925725Y-63976145D01*
X162109610Y-63883258D01*
X162271951Y-63756424D01*
X162275312Y-63752531D01*
X162338631Y-63679174D01*
X162406564Y-63600472D01*
X162481278Y-63468952D01*
X162505893Y-63425622D01*
X162505894Y-63425620D01*
X162508323Y-63421344D01*
X162573351Y-63225863D01*
X162573967Y-63220988D01*
X162573968Y-63220983D01*
X162598819Y-63024257D01*
X162599171Y-63021474D01*
X162599583Y-62992000D01*
X162579480Y-62786970D01*
X162578058Y-62782260D01*
X162578057Y-62782255D01*
X162521357Y-62594460D01*
X162519935Y-62589749D01*
X162423218Y-62407849D01*
X162364098Y-62335361D01*
X162341107Y-62307171D01*
X162318623Y-62249205D01*
X162334505Y-62189093D01*
X162382687Y-62149797D01*
X162419066Y-62142989D01*
X165749277Y-62142989D01*
X165808408Y-62162202D01*
G37*
%TD.AperFunction*%
%TA.AperFunction,Conductor*%
G36*
X158188408Y-62162202D02*
G01*
X158224953Y-62212502D01*
X158224953Y-62274676D01*
X158206341Y-62308253D01*
X158136189Y-62391857D01*
X158136186Y-62391862D01*
X158133024Y-62395630D01*
X158130657Y-62399936D01*
X158130654Y-62399940D01*
X158067933Y-62514030D01*
X158033776Y-62576162D01*
X157971484Y-62772532D01*
X157970935Y-62777423D01*
X157970935Y-62777425D01*
X157969865Y-62786970D01*
X157948520Y-62977262D01*
X157965759Y-63182553D01*
X157991637Y-63272801D01*
X158008945Y-63333159D01*
X158022544Y-63380586D01*
X158116712Y-63563818D01*
X158119765Y-63567670D01*
X158119767Y-63567673D01*
X158148715Y-63604196D01*
X158244677Y-63725270D01*
X158401564Y-63858791D01*
X158425428Y-63872128D01*
X158451979Y-63886967D01*
X158494222Y-63932586D01*
X158503500Y-63974783D01*
X158503500Y-66734653D01*
X158502086Y-66747307D01*
X158502137Y-66747311D01*
X158501562Y-66754459D01*
X158499981Y-66761447D01*
X158501400Y-66784311D01*
X158503307Y-66815053D01*
X158503500Y-66821283D01*
X158503500Y-66837940D01*
X158504007Y-66841483D01*
X158504008Y-66841491D01*
X158505092Y-66849060D01*
X158505915Y-66857090D01*
X158508415Y-66897385D01*
X158508859Y-66904538D01*
X158511293Y-66911279D01*
X158511293Y-66911281D01*
X158512286Y-66914032D01*
X158517246Y-66933922D01*
X158518677Y-66943918D01*
X158533910Y-66977421D01*
X158538357Y-66987202D01*
X158541401Y-66994681D01*
X158557540Y-67039387D01*
X158563495Y-67047538D01*
X158573837Y-67065237D01*
X158578016Y-67074428D01*
X158609060Y-67110456D01*
X158614066Y-67116762D01*
X158616584Y-67120208D01*
X158620229Y-67125198D01*
X158620233Y-67125202D01*
X158622522Y-67128336D01*
X158633936Y-67139750D01*
X158639012Y-67145217D01*
X158666923Y-67177610D01*
X158666926Y-67177613D01*
X158671600Y-67183037D01*
X158677614Y-67186935D01*
X158677615Y-67186936D01*
X158678673Y-67187622D01*
X158695090Y-67200904D01*
X159490035Y-67995849D01*
X159518261Y-68051247D01*
X159519500Y-68066984D01*
X159519500Y-68880900D01*
X159500287Y-68940031D01*
X159449987Y-68976576D01*
X159418900Y-68981500D01*
X157255307Y-68981500D01*
X157196176Y-68962287D01*
X157159631Y-68911987D01*
X157155568Y-68894031D01*
X157149548Y-68848302D01*
X157149548Y-68848300D01*
X157148687Y-68841764D01*
X157099143Y-68722154D01*
X157093223Y-68707862D01*
X157093222Y-68707860D01*
X157090698Y-68701767D01*
X157085052Y-68694408D01*
X157002465Y-68586780D01*
X156998451Y-68581549D01*
X156978348Y-68566123D01*
X156883466Y-68493317D01*
X156883464Y-68493316D01*
X156878233Y-68489302D01*
X156858290Y-68481041D01*
X156811014Y-68440663D01*
X156796500Y-68380206D01*
X156820294Y-68322765D01*
X156873306Y-68290279D01*
X156896790Y-68287500D01*
X157655363Y-68287500D01*
X157658268Y-68287161D01*
X157658273Y-68287161D01*
X157775231Y-68273525D01*
X157775232Y-68273525D01*
X157781037Y-68272848D01*
X157786529Y-68270854D01*
X157786531Y-68270854D01*
X157854264Y-68246268D01*
X157940061Y-68215125D01*
X157944951Y-68211919D01*
X157944953Y-68211918D01*
X158076646Y-68125576D01*
X158076648Y-68125574D01*
X158081540Y-68122367D01*
X158197885Y-67999550D01*
X158242204Y-67923249D01*
X158279920Y-67858317D01*
X158279921Y-67858316D01*
X158282856Y-67853262D01*
X158309827Y-67764213D01*
X158330202Y-67696941D01*
X158330203Y-67696938D01*
X158331895Y-67691350D01*
X158332853Y-67675918D01*
X158342008Y-67528334D01*
X158342370Y-67522499D01*
X158333199Y-67469130D01*
X158314710Y-67361527D01*
X158314709Y-67361525D01*
X158313720Y-67355767D01*
X158273863Y-67262097D01*
X158249774Y-67205484D01*
X158249773Y-67205482D01*
X158247482Y-67200098D01*
X158234927Y-67183037D01*
X158150675Y-67068551D01*
X158150672Y-67068548D01*
X158147209Y-67063842D01*
X158121705Y-67042174D01*
X158022739Y-66958096D01*
X158022738Y-66958095D01*
X158018280Y-66954308D01*
X157997933Y-66943918D01*
X157934016Y-66911281D01*
X157867611Y-66877373D01*
X157861935Y-66875984D01*
X157861932Y-66875983D01*
X157757688Y-66850475D01*
X157703283Y-66837162D01*
X157698814Y-66836885D01*
X157698809Y-66836884D01*
X157694519Y-66836618D01*
X157692612Y-66836500D01*
X156520637Y-66836500D01*
X156517732Y-66836839D01*
X156517727Y-66836839D01*
X156400769Y-66850475D01*
X156400768Y-66850475D01*
X156394963Y-66851152D01*
X156389471Y-66853146D01*
X156389469Y-66853146D01*
X156365452Y-66861864D01*
X156235939Y-66908875D01*
X156231049Y-66912081D01*
X156231047Y-66912082D01*
X156099354Y-66998424D01*
X156099352Y-66998426D01*
X156094460Y-67001633D01*
X155978115Y-67124450D01*
X155969228Y-67139750D01*
X155916577Y-67230396D01*
X155893144Y-67270738D01*
X155881058Y-67310643D01*
X155846137Y-67425942D01*
X155844105Y-67432650D01*
X155843743Y-67438479D01*
X155843743Y-67438481D01*
X155839164Y-67512293D01*
X155833630Y-67601501D01*
X155838377Y-67629125D01*
X155858027Y-67743480D01*
X155862280Y-67768233D01*
X155887358Y-67827169D01*
X155925719Y-67917323D01*
X155928518Y-67923902D01*
X155931987Y-67928615D01*
X155931987Y-67928616D01*
X156025325Y-68055449D01*
X156025328Y-68055452D01*
X156028791Y-68060158D01*
X156033246Y-68063942D01*
X156033247Y-68063944D01*
X156085734Y-68108535D01*
X156157720Y-68169692D01*
X156162930Y-68172352D01*
X156162931Y-68172353D01*
X156196486Y-68189487D01*
X156308389Y-68246627D01*
X156314065Y-68248016D01*
X156314068Y-68248017D01*
X156343968Y-68255333D01*
X156371485Y-68262067D01*
X156424354Y-68294783D01*
X156447896Y-68352327D01*
X156433119Y-68412720D01*
X156386071Y-68452725D01*
X156303862Y-68486777D01*
X156303860Y-68486778D01*
X156297767Y-68489302D01*
X156292536Y-68493316D01*
X156292534Y-68493317D01*
X156197652Y-68566123D01*
X156177549Y-68581549D01*
X156173535Y-68586780D01*
X156090949Y-68694408D01*
X156085302Y-68701767D01*
X156082778Y-68707860D01*
X156082777Y-68707862D01*
X156076857Y-68722154D01*
X156027313Y-68841764D01*
X156026452Y-68848300D01*
X156026452Y-68848302D01*
X156014376Y-68940031D01*
X156007534Y-68992000D01*
X156008395Y-68998540D01*
X156026339Y-69134835D01*
X156027313Y-69142236D01*
X156028567Y-69145263D01*
X156025386Y-69205952D01*
X155986258Y-69254271D01*
X155931468Y-69270500D01*
X155212593Y-69270500D01*
X155203825Y-69270117D01*
X155173960Y-69267504D01*
X155165193Y-69266737D01*
X155156692Y-69269015D01*
X155128694Y-69276517D01*
X155066605Y-69273264D01*
X155018286Y-69234137D01*
X155002194Y-69174081D01*
X155005483Y-69153309D01*
X155010201Y-69135698D01*
X155015263Y-69116807D01*
X155011883Y-69078172D01*
X155011500Y-69069404D01*
X155011500Y-63277748D01*
X155273500Y-63277748D01*
X155285133Y-63336231D01*
X155290639Y-63344471D01*
X155317697Y-63384965D01*
X155329448Y-63402552D01*
X155395769Y-63446867D01*
X155434088Y-63454489D01*
X155449400Y-63457535D01*
X155449401Y-63457535D01*
X155454252Y-63458500D01*
X155572900Y-63458500D01*
X155632031Y-63477713D01*
X155668576Y-63528013D01*
X155673500Y-63559100D01*
X155673500Y-63714033D01*
X155665842Y-63752531D01*
X155624956Y-63851238D01*
X155624096Y-63857774D01*
X155624095Y-63857776D01*
X155610776Y-63958948D01*
X155604318Y-64008000D01*
X155605179Y-64014540D01*
X155621499Y-64138500D01*
X155624956Y-64164762D01*
X155685464Y-64310841D01*
X155763671Y-64412762D01*
X155777667Y-64431002D01*
X155781718Y-64436282D01*
X155786953Y-64440299D01*
X155804775Y-64453974D01*
X155907159Y-64532536D01*
X156053238Y-64593044D01*
X156059774Y-64593904D01*
X156059776Y-64593905D01*
X156203460Y-64612821D01*
X156210000Y-64613682D01*
X156216540Y-64612821D01*
X156360224Y-64593905D01*
X156360226Y-64593904D01*
X156366762Y-64593044D01*
X156512841Y-64532536D01*
X156615225Y-64453974D01*
X156633047Y-64440299D01*
X156638282Y-64436282D01*
X156642334Y-64431002D01*
X156656329Y-64412762D01*
X156734536Y-64310841D01*
X156795044Y-64164762D01*
X156798502Y-64138500D01*
X156814821Y-64014540D01*
X156815682Y-64008000D01*
X156809224Y-63958948D01*
X156795905Y-63857776D01*
X156795904Y-63857774D01*
X156795044Y-63851238D01*
X156734536Y-63705159D01*
X156638282Y-63579718D01*
X156633047Y-63575701D01*
X156630151Y-63572805D01*
X156601925Y-63517407D01*
X156611651Y-63455999D01*
X156645395Y-63418025D01*
X156668552Y-63402552D01*
X156680304Y-63384965D01*
X156707361Y-63344471D01*
X156712867Y-63336231D01*
X156724500Y-63277748D01*
X156724500Y-62588252D01*
X156712867Y-62529769D01*
X156668552Y-62463448D01*
X156602231Y-62419133D01*
X156563912Y-62411511D01*
X156548600Y-62408465D01*
X156548599Y-62408465D01*
X156543748Y-62407500D01*
X155454252Y-62407500D01*
X155449401Y-62408465D01*
X155449400Y-62408465D01*
X155434088Y-62411511D01*
X155395769Y-62419133D01*
X155329448Y-62463448D01*
X155285133Y-62529769D01*
X155273500Y-62588252D01*
X155273500Y-63277748D01*
X155011500Y-63277748D01*
X155011500Y-62406496D01*
X155030713Y-62347365D01*
X155040965Y-62335361D01*
X155203872Y-62172454D01*
X155259270Y-62144228D01*
X155275007Y-62142989D01*
X158129277Y-62142989D01*
X158188408Y-62162202D01*
G37*
%TD.AperFunction*%
%TD*%
M02*
