%TF.GenerationSoftware,KiCad,Pcbnew,(6.0.5-0)*%
%TF.CreationDate,2022-07-11T15:01:11+02:00*%
%TF.ProjectId,ESP32-C3_breakout,45535033-322d-4433-935f-627265616b6f,rev?*%
%TF.SameCoordinates,Original*%
%TF.FileFunction,Legend,Bot*%
%TF.FilePolarity,Positive*%
%FSLAX46Y46*%
G04 Gerber Fmt 4.6, Leading zero omitted, Abs format (unit mm)*
G04 Created by KiCad (PCBNEW (6.0.5-0)) date 2022-07-11 15:01:11*
%MOMM*%
%LPD*%
G01*
G04 APERTURE LIST*
%ADD10C,0.150000*%
%ADD11C,0.120000*%
G04 APERTURE END LIST*
D10*
X161100380Y-64854357D02*
X161100380Y-65473404D01*
X161481333Y-65140071D01*
X161481333Y-65282928D01*
X161528952Y-65378166D01*
X161576571Y-65425785D01*
X161671809Y-65473404D01*
X161909904Y-65473404D01*
X162005142Y-65425785D01*
X162052761Y-65378166D01*
X162100380Y-65282928D01*
X162100380Y-64997214D01*
X162052761Y-64901976D01*
X162005142Y-64854357D01*
X161100380Y-65759119D02*
X162100380Y-66092452D01*
X161100380Y-66425785D01*
X161100380Y-66663880D02*
X161100380Y-67282928D01*
X161481333Y-66949595D01*
X161481333Y-67092452D01*
X161528952Y-67187690D01*
X161576571Y-67235309D01*
X161671809Y-67282928D01*
X161909904Y-67282928D01*
X162005142Y-67235309D01*
X162052761Y-67187690D01*
X162100380Y-67092452D01*
X162100380Y-66806738D01*
X162052761Y-66711500D01*
X162005142Y-66663880D01*
X173744000Y-74483833D02*
X173696380Y-74388595D01*
X173696380Y-74245738D01*
X173744000Y-74102880D01*
X173839238Y-74007642D01*
X173934476Y-73960023D01*
X174124952Y-73912404D01*
X174267809Y-73912404D01*
X174458285Y-73960023D01*
X174553523Y-74007642D01*
X174648761Y-74102880D01*
X174696380Y-74245738D01*
X174696380Y-74340976D01*
X174648761Y-74483833D01*
X174601142Y-74531452D01*
X174267809Y-74531452D01*
X174267809Y-74340976D01*
X174696380Y-74960023D02*
X173696380Y-74960023D01*
X173696380Y-75340976D01*
X173744000Y-75436214D01*
X173791619Y-75483833D01*
X173886857Y-75531452D01*
X174029714Y-75531452D01*
X174124952Y-75483833D01*
X174172571Y-75436214D01*
X174220190Y-75340976D01*
X174220190Y-74960023D01*
X174696380Y-75960023D02*
X173696380Y-75960023D01*
X173696380Y-76626690D02*
X173696380Y-76817166D01*
X173744000Y-76912404D01*
X173839238Y-77007642D01*
X174029714Y-77055261D01*
X174363047Y-77055261D01*
X174553523Y-77007642D01*
X174648761Y-76912404D01*
X174696380Y-76817166D01*
X174696380Y-76626690D01*
X174648761Y-76531452D01*
X174553523Y-76436214D01*
X174363047Y-76388595D01*
X174029714Y-76388595D01*
X173839238Y-76436214D01*
X173744000Y-76531452D01*
X173696380Y-76626690D01*
X174696380Y-78007642D02*
X174696380Y-77436214D01*
X174696380Y-77721928D02*
X173696380Y-77721928D01*
X173839238Y-77626690D01*
X173934476Y-77531452D01*
X173982095Y-77436214D01*
X173696380Y-78626690D02*
X173696380Y-78721928D01*
X173744000Y-78817166D01*
X173791619Y-78864785D01*
X173886857Y-78912404D01*
X174077333Y-78960023D01*
X174315428Y-78960023D01*
X174505904Y-78912404D01*
X174601142Y-78864785D01*
X174648761Y-78817166D01*
X174696380Y-78721928D01*
X174696380Y-78626690D01*
X174648761Y-78531452D01*
X174601142Y-78483833D01*
X174505904Y-78436214D01*
X174315428Y-78388595D01*
X174077333Y-78388595D01*
X173886857Y-78436214D01*
X173791619Y-78483833D01*
X173744000Y-78531452D01*
X173696380Y-78626690D01*
X183904000Y-76864785D02*
X183856380Y-76769547D01*
X183856380Y-76626690D01*
X183904000Y-76483833D01*
X183999238Y-76388595D01*
X184094476Y-76340976D01*
X184284952Y-76293357D01*
X184427809Y-76293357D01*
X184618285Y-76340976D01*
X184713523Y-76388595D01*
X184808761Y-76483833D01*
X184856380Y-76626690D01*
X184856380Y-76721928D01*
X184808761Y-76864785D01*
X184761142Y-76912404D01*
X184427809Y-76912404D01*
X184427809Y-76721928D01*
X184856380Y-77340976D02*
X183856380Y-77340976D01*
X184856380Y-77912404D01*
X183856380Y-77912404D01*
X184856380Y-78388595D02*
X183856380Y-78388595D01*
X183856380Y-78626690D01*
X183904000Y-78769547D01*
X183999238Y-78864785D01*
X184094476Y-78912404D01*
X184284952Y-78960023D01*
X184427809Y-78960023D01*
X184618285Y-78912404D01*
X184713523Y-78864785D01*
X184808761Y-78769547D01*
X184856380Y-78626690D01*
X184856380Y-78388595D01*
X171168000Y-65375404D02*
X171120380Y-65280166D01*
X171120380Y-65137309D01*
X171168000Y-64994452D01*
X171263238Y-64899214D01*
X171358476Y-64851595D01*
X171548952Y-64803976D01*
X171691809Y-64803976D01*
X171882285Y-64851595D01*
X171977523Y-64899214D01*
X172072761Y-64994452D01*
X172120380Y-65137309D01*
X172120380Y-65232547D01*
X172072761Y-65375404D01*
X172025142Y-65423023D01*
X171691809Y-65423023D01*
X171691809Y-65232547D01*
X172120380Y-65851595D02*
X171120380Y-65851595D01*
X171120380Y-66232547D01*
X171168000Y-66327785D01*
X171215619Y-66375404D01*
X171310857Y-66423023D01*
X171453714Y-66423023D01*
X171548952Y-66375404D01*
X171596571Y-66327785D01*
X171644190Y-66232547D01*
X171644190Y-65851595D01*
X172120380Y-66851595D02*
X171120380Y-66851595D01*
X171120380Y-67518261D02*
X171120380Y-67708738D01*
X171168000Y-67803976D01*
X171263238Y-67899214D01*
X171453714Y-67946833D01*
X171787047Y-67946833D01*
X171977523Y-67899214D01*
X172072761Y-67803976D01*
X172120380Y-67708738D01*
X172120380Y-67518261D01*
X172072761Y-67423023D01*
X171977523Y-67327785D01*
X171787047Y-67280166D01*
X171453714Y-67280166D01*
X171263238Y-67327785D01*
X171168000Y-67423023D01*
X171120380Y-67518261D01*
X171120380Y-68280166D02*
X171120380Y-68899214D01*
X171501333Y-68565880D01*
X171501333Y-68708738D01*
X171548952Y-68803976D01*
X171596571Y-68851595D01*
X171691809Y-68899214D01*
X171929904Y-68899214D01*
X172025142Y-68851595D01*
X172072761Y-68803976D01*
X172120380Y-68708738D01*
X172120380Y-68423023D01*
X172072761Y-68327785D01*
X172025142Y-68280166D01*
X168882000Y-65375404D02*
X168834380Y-65280166D01*
X168834380Y-65137309D01*
X168882000Y-64994452D01*
X168977238Y-64899214D01*
X169072476Y-64851595D01*
X169262952Y-64803976D01*
X169405809Y-64803976D01*
X169596285Y-64851595D01*
X169691523Y-64899214D01*
X169786761Y-64994452D01*
X169834380Y-65137309D01*
X169834380Y-65232547D01*
X169786761Y-65375404D01*
X169739142Y-65423023D01*
X169405809Y-65423023D01*
X169405809Y-65232547D01*
X169834380Y-65851595D02*
X168834380Y-65851595D01*
X168834380Y-66232547D01*
X168882000Y-66327785D01*
X168929619Y-66375404D01*
X169024857Y-66423023D01*
X169167714Y-66423023D01*
X169262952Y-66375404D01*
X169310571Y-66327785D01*
X169358190Y-66232547D01*
X169358190Y-65851595D01*
X169834380Y-66851595D02*
X168834380Y-66851595D01*
X168834380Y-67518261D02*
X168834380Y-67708738D01*
X168882000Y-67803976D01*
X168977238Y-67899214D01*
X169167714Y-67946833D01*
X169501047Y-67946833D01*
X169691523Y-67899214D01*
X169786761Y-67803976D01*
X169834380Y-67708738D01*
X169834380Y-67518261D01*
X169786761Y-67423023D01*
X169691523Y-67327785D01*
X169501047Y-67280166D01*
X169167714Y-67280166D01*
X168977238Y-67327785D01*
X168882000Y-67423023D01*
X168834380Y-67518261D01*
X169167714Y-68803976D02*
X169834380Y-68803976D01*
X168786761Y-68565880D02*
X169501047Y-68327785D01*
X169501047Y-68946833D01*
X178788000Y-65375404D02*
X178740380Y-65280166D01*
X178740380Y-65137309D01*
X178788000Y-64994452D01*
X178883238Y-64899214D01*
X178978476Y-64851595D01*
X179168952Y-64803976D01*
X179311809Y-64803976D01*
X179502285Y-64851595D01*
X179597523Y-64899214D01*
X179692761Y-64994452D01*
X179740380Y-65137309D01*
X179740380Y-65232547D01*
X179692761Y-65375404D01*
X179645142Y-65423023D01*
X179311809Y-65423023D01*
X179311809Y-65232547D01*
X179740380Y-65851595D02*
X178740380Y-65851595D01*
X178740380Y-66232547D01*
X178788000Y-66327785D01*
X178835619Y-66375404D01*
X178930857Y-66423023D01*
X179073714Y-66423023D01*
X179168952Y-66375404D01*
X179216571Y-66327785D01*
X179264190Y-66232547D01*
X179264190Y-65851595D01*
X179740380Y-66851595D02*
X178740380Y-66851595D01*
X178740380Y-67518261D02*
X178740380Y-67708738D01*
X178788000Y-67803976D01*
X178883238Y-67899214D01*
X179073714Y-67946833D01*
X179407047Y-67946833D01*
X179597523Y-67899214D01*
X179692761Y-67803976D01*
X179740380Y-67708738D01*
X179740380Y-67518261D01*
X179692761Y-67423023D01*
X179597523Y-67327785D01*
X179407047Y-67280166D01*
X179073714Y-67280166D01*
X178883238Y-67327785D01*
X178788000Y-67423023D01*
X178740380Y-67518261D01*
X178740380Y-68565880D02*
X178740380Y-68661119D01*
X178788000Y-68756357D01*
X178835619Y-68803976D01*
X178930857Y-68851595D01*
X179121333Y-68899214D01*
X179359428Y-68899214D01*
X179549904Y-68851595D01*
X179645142Y-68803976D01*
X179692761Y-68756357D01*
X179740380Y-68661119D01*
X179740380Y-68565880D01*
X179692761Y-68470642D01*
X179645142Y-68423023D01*
X179549904Y-68375404D01*
X179359428Y-68327785D01*
X179121333Y-68327785D01*
X178930857Y-68375404D01*
X178835619Y-68423023D01*
X178788000Y-68470642D01*
X178740380Y-68565880D01*
X163584000Y-75436214D02*
X163536380Y-75340976D01*
X163536380Y-75198119D01*
X163584000Y-75055261D01*
X163679238Y-74960023D01*
X163774476Y-74912404D01*
X163964952Y-74864785D01*
X164107809Y-74864785D01*
X164298285Y-74912404D01*
X164393523Y-74960023D01*
X164488761Y-75055261D01*
X164536380Y-75198119D01*
X164536380Y-75293357D01*
X164488761Y-75436214D01*
X164441142Y-75483833D01*
X164107809Y-75483833D01*
X164107809Y-75293357D01*
X164536380Y-75912404D02*
X163536380Y-75912404D01*
X163536380Y-76293357D01*
X163584000Y-76388595D01*
X163631619Y-76436214D01*
X163726857Y-76483833D01*
X163869714Y-76483833D01*
X163964952Y-76436214D01*
X164012571Y-76388595D01*
X164060190Y-76293357D01*
X164060190Y-75912404D01*
X164536380Y-76912404D02*
X163536380Y-76912404D01*
X163536380Y-77579071D02*
X163536380Y-77769547D01*
X163584000Y-77864785D01*
X163679238Y-77960023D01*
X163869714Y-78007642D01*
X164203047Y-78007642D01*
X164393523Y-77960023D01*
X164488761Y-77864785D01*
X164536380Y-77769547D01*
X164536380Y-77579071D01*
X164488761Y-77483833D01*
X164393523Y-77388595D01*
X164203047Y-77340976D01*
X163869714Y-77340976D01*
X163679238Y-77388595D01*
X163584000Y-77483833D01*
X163536380Y-77579071D01*
X163536380Y-78864785D02*
X163536380Y-78674309D01*
X163584000Y-78579071D01*
X163631619Y-78531452D01*
X163774476Y-78436214D01*
X163964952Y-78388595D01*
X164345904Y-78388595D01*
X164441142Y-78436214D01*
X164488761Y-78483833D01*
X164536380Y-78579071D01*
X164536380Y-78769547D01*
X164488761Y-78864785D01*
X164441142Y-78912404D01*
X164345904Y-78960023D01*
X164107809Y-78960023D01*
X164012571Y-78912404D01*
X163964952Y-78864785D01*
X163917333Y-78769547D01*
X163917333Y-78579071D01*
X163964952Y-78483833D01*
X164012571Y-78436214D01*
X164107809Y-78388595D01*
X161044000Y-76864785D02*
X160996380Y-76769547D01*
X160996380Y-76626690D01*
X161044000Y-76483833D01*
X161139238Y-76388595D01*
X161234476Y-76340976D01*
X161424952Y-76293357D01*
X161567809Y-76293357D01*
X161758285Y-76340976D01*
X161853523Y-76388595D01*
X161948761Y-76483833D01*
X161996380Y-76626690D01*
X161996380Y-76721928D01*
X161948761Y-76864785D01*
X161901142Y-76912404D01*
X161567809Y-76912404D01*
X161567809Y-76721928D01*
X161996380Y-77340976D02*
X160996380Y-77340976D01*
X161996380Y-77912404D01*
X160996380Y-77912404D01*
X161996380Y-78388595D02*
X160996380Y-78388595D01*
X160996380Y-78626690D01*
X161044000Y-78769547D01*
X161139238Y-78864785D01*
X161234476Y-78912404D01*
X161424952Y-78960023D01*
X161567809Y-78960023D01*
X161758285Y-78912404D01*
X161853523Y-78864785D01*
X161948761Y-78769547D01*
X161996380Y-78626690D01*
X161996380Y-78388595D01*
X163548000Y-65375404D02*
X163500380Y-65280166D01*
X163500380Y-65137309D01*
X163548000Y-64994452D01*
X163643238Y-64899214D01*
X163738476Y-64851595D01*
X163928952Y-64803976D01*
X164071809Y-64803976D01*
X164262285Y-64851595D01*
X164357523Y-64899214D01*
X164452761Y-64994452D01*
X164500380Y-65137309D01*
X164500380Y-65232547D01*
X164452761Y-65375404D01*
X164405142Y-65423023D01*
X164071809Y-65423023D01*
X164071809Y-65232547D01*
X164500380Y-65851595D02*
X163500380Y-65851595D01*
X164500380Y-66423023D01*
X163500380Y-66423023D01*
X164500380Y-66899214D02*
X163500380Y-66899214D01*
X163500380Y-67137309D01*
X163548000Y-67280166D01*
X163643238Y-67375404D01*
X163738476Y-67423023D01*
X163928952Y-67470642D01*
X164071809Y-67470642D01*
X164262285Y-67423023D01*
X164357523Y-67375404D01*
X164452761Y-67280166D01*
X164500380Y-67137309D01*
X164500380Y-66899214D01*
X176248000Y-65375404D02*
X176200380Y-65280166D01*
X176200380Y-65137309D01*
X176248000Y-64994452D01*
X176343238Y-64899214D01*
X176438476Y-64851595D01*
X176628952Y-64803976D01*
X176771809Y-64803976D01*
X176962285Y-64851595D01*
X177057523Y-64899214D01*
X177152761Y-64994452D01*
X177200380Y-65137309D01*
X177200380Y-65232547D01*
X177152761Y-65375404D01*
X177105142Y-65423023D01*
X176771809Y-65423023D01*
X176771809Y-65232547D01*
X177200380Y-65851595D02*
X176200380Y-65851595D01*
X176200380Y-66232547D01*
X176248000Y-66327785D01*
X176295619Y-66375404D01*
X176390857Y-66423023D01*
X176533714Y-66423023D01*
X176628952Y-66375404D01*
X176676571Y-66327785D01*
X176724190Y-66232547D01*
X176724190Y-65851595D01*
X177200380Y-66851595D02*
X176200380Y-66851595D01*
X176200380Y-67518261D02*
X176200380Y-67708738D01*
X176248000Y-67803976D01*
X176343238Y-67899214D01*
X176533714Y-67946833D01*
X176867047Y-67946833D01*
X177057523Y-67899214D01*
X177152761Y-67803976D01*
X177200380Y-67708738D01*
X177200380Y-67518261D01*
X177152761Y-67423023D01*
X177057523Y-67327785D01*
X176867047Y-67280166D01*
X176533714Y-67280166D01*
X176343238Y-67327785D01*
X176248000Y-67423023D01*
X176200380Y-67518261D01*
X177200380Y-68899214D02*
X177200380Y-68327785D01*
X177200380Y-68613500D02*
X176200380Y-68613500D01*
X176343238Y-68518261D01*
X176438476Y-68423023D01*
X176486095Y-68327785D01*
X185729619Y-70421714D02*
X185682000Y-70469333D01*
X185634380Y-70564571D01*
X185634380Y-70802666D01*
X185682000Y-70897904D01*
X185729619Y-70945523D01*
X185824857Y-70993142D01*
X185920095Y-70993142D01*
X186062952Y-70945523D01*
X186634380Y-70374095D01*
X186634380Y-70993142D01*
X185634380Y-71612190D02*
X185634380Y-71707428D01*
X185682000Y-71802666D01*
X185729619Y-71850285D01*
X185824857Y-71897904D01*
X186015333Y-71945523D01*
X186253428Y-71945523D01*
X186443904Y-71897904D01*
X186539142Y-71850285D01*
X186586761Y-71802666D01*
X186634380Y-71707428D01*
X186634380Y-71612190D01*
X186586761Y-71516952D01*
X186539142Y-71469333D01*
X186443904Y-71421714D01*
X186253428Y-71374095D01*
X186015333Y-71374095D01*
X185824857Y-71421714D01*
X185729619Y-71469333D01*
X185682000Y-71516952D01*
X185634380Y-71612190D01*
X185729619Y-72326476D02*
X185682000Y-72374095D01*
X185634380Y-72469333D01*
X185634380Y-72707428D01*
X185682000Y-72802666D01*
X185729619Y-72850285D01*
X185824857Y-72897904D01*
X185920095Y-72897904D01*
X186062952Y-72850285D01*
X186634380Y-72278857D01*
X186634380Y-72897904D01*
X185729619Y-73278857D02*
X185682000Y-73326476D01*
X185634380Y-73421714D01*
X185634380Y-73659809D01*
X185682000Y-73755047D01*
X185729619Y-73802666D01*
X185824857Y-73850285D01*
X185920095Y-73850285D01*
X186062952Y-73802666D01*
X186634380Y-73231238D01*
X186634380Y-73850285D01*
X184158000Y-65181404D02*
X184110380Y-65086166D01*
X184110380Y-64943309D01*
X184158000Y-64800452D01*
X184253238Y-64705214D01*
X184348476Y-64657595D01*
X184538952Y-64609976D01*
X184681809Y-64609976D01*
X184872285Y-64657595D01*
X184967523Y-64705214D01*
X185062761Y-64800452D01*
X185110380Y-64943309D01*
X185110380Y-65038547D01*
X185062761Y-65181404D01*
X185015142Y-65229023D01*
X184681809Y-65229023D01*
X184681809Y-65038547D01*
X185110380Y-65657595D02*
X184110380Y-65657595D01*
X185110380Y-66229023D01*
X184110380Y-66229023D01*
X185110380Y-66705214D02*
X184110380Y-66705214D01*
X184110380Y-66943309D01*
X184158000Y-67086166D01*
X184253238Y-67181404D01*
X184348476Y-67229023D01*
X184538952Y-67276642D01*
X184681809Y-67276642D01*
X184872285Y-67229023D01*
X184967523Y-67181404D01*
X185062761Y-67086166D01*
X185110380Y-66943309D01*
X185110380Y-66705214D01*
X154868571Y-65254952D02*
X154868571Y-65588285D01*
X155392380Y-65731142D02*
X155392380Y-65254952D01*
X154392380Y-65254952D01*
X154392380Y-65731142D01*
X155344761Y-66112095D02*
X155392380Y-66254952D01*
X155392380Y-66493047D01*
X155344761Y-66588285D01*
X155297142Y-66635904D01*
X155201904Y-66683523D01*
X155106666Y-66683523D01*
X155011428Y-66635904D01*
X154963809Y-66588285D01*
X154916190Y-66493047D01*
X154868571Y-66302571D01*
X154820952Y-66207333D01*
X154773333Y-66159714D01*
X154678095Y-66112095D01*
X154582857Y-66112095D01*
X154487619Y-66159714D01*
X154440000Y-66207333D01*
X154392380Y-66302571D01*
X154392380Y-66540666D01*
X154440000Y-66683523D01*
X155392380Y-67112095D02*
X154392380Y-67112095D01*
X154392380Y-67493047D01*
X154440000Y-67588285D01*
X154487619Y-67635904D01*
X154582857Y-67683523D01*
X154725714Y-67683523D01*
X154820952Y-67635904D01*
X154868571Y-67588285D01*
X154916190Y-67493047D01*
X154916190Y-67112095D01*
X154392380Y-68016857D02*
X154392380Y-68635904D01*
X154773333Y-68302571D01*
X154773333Y-68445428D01*
X154820952Y-68540666D01*
X154868571Y-68588285D01*
X154963809Y-68635904D01*
X155201904Y-68635904D01*
X155297142Y-68588285D01*
X155344761Y-68540666D01*
X155392380Y-68445428D01*
X155392380Y-68159714D01*
X155344761Y-68064476D01*
X155297142Y-68016857D01*
X154487619Y-69016857D02*
X154440000Y-69064476D01*
X154392380Y-69159714D01*
X154392380Y-69397809D01*
X154440000Y-69493047D01*
X154487619Y-69540666D01*
X154582857Y-69588285D01*
X154678095Y-69588285D01*
X154820952Y-69540666D01*
X155392380Y-68969238D01*
X155392380Y-69588285D01*
X155011428Y-70016857D02*
X155011428Y-70778761D01*
X155297142Y-71826380D02*
X155344761Y-71778761D01*
X155392380Y-71635904D01*
X155392380Y-71540666D01*
X155344761Y-71397809D01*
X155249523Y-71302571D01*
X155154285Y-71254952D01*
X154963809Y-71207333D01*
X154820952Y-71207333D01*
X154630476Y-71254952D01*
X154535238Y-71302571D01*
X154440000Y-71397809D01*
X154392380Y-71540666D01*
X154392380Y-71635904D01*
X154440000Y-71778761D01*
X154487619Y-71826380D01*
X154392380Y-72159714D02*
X154392380Y-72778761D01*
X154773333Y-72445428D01*
X154773333Y-72588285D01*
X154820952Y-72683523D01*
X154868571Y-72731142D01*
X154963809Y-72778761D01*
X155201904Y-72778761D01*
X155297142Y-72731142D01*
X155344761Y-72683523D01*
X155392380Y-72588285D01*
X155392380Y-72302571D01*
X155344761Y-72207333D01*
X155297142Y-72159714D01*
X155392380Y-73969238D02*
X154392380Y-73969238D01*
X155392380Y-74540666D01*
X154392380Y-74540666D01*
X155106666Y-74969238D02*
X155106666Y-75445428D01*
X155392380Y-74874000D02*
X154392380Y-75207333D01*
X155392380Y-75540666D01*
X155392380Y-75874000D02*
X154392380Y-75874000D01*
X155392380Y-76445428D01*
X154392380Y-76445428D01*
X154392380Y-77112095D02*
X154392380Y-77302571D01*
X154440000Y-77397809D01*
X154535238Y-77493047D01*
X154725714Y-77540666D01*
X155059047Y-77540666D01*
X155249523Y-77493047D01*
X155344761Y-77397809D01*
X155392380Y-77302571D01*
X155392380Y-77112095D01*
X155344761Y-77016857D01*
X155249523Y-76921619D01*
X155059047Y-76874000D01*
X154725714Y-76874000D01*
X154535238Y-76921619D01*
X154440000Y-77016857D01*
X154392380Y-77112095D01*
X173708000Y-65375404D02*
X173660380Y-65280166D01*
X173660380Y-65137309D01*
X173708000Y-64994452D01*
X173803238Y-64899214D01*
X173898476Y-64851595D01*
X174088952Y-64803976D01*
X174231809Y-64803976D01*
X174422285Y-64851595D01*
X174517523Y-64899214D01*
X174612761Y-64994452D01*
X174660380Y-65137309D01*
X174660380Y-65232547D01*
X174612761Y-65375404D01*
X174565142Y-65423023D01*
X174231809Y-65423023D01*
X174231809Y-65232547D01*
X174660380Y-65851595D02*
X173660380Y-65851595D01*
X173660380Y-66232547D01*
X173708000Y-66327785D01*
X173755619Y-66375404D01*
X173850857Y-66423023D01*
X173993714Y-66423023D01*
X174088952Y-66375404D01*
X174136571Y-66327785D01*
X174184190Y-66232547D01*
X174184190Y-65851595D01*
X174660380Y-66851595D02*
X173660380Y-66851595D01*
X173660380Y-67518261D02*
X173660380Y-67708738D01*
X173708000Y-67803976D01*
X173803238Y-67899214D01*
X173993714Y-67946833D01*
X174327047Y-67946833D01*
X174517523Y-67899214D01*
X174612761Y-67803976D01*
X174660380Y-67708738D01*
X174660380Y-67518261D01*
X174612761Y-67423023D01*
X174517523Y-67327785D01*
X174327047Y-67280166D01*
X173993714Y-67280166D01*
X173803238Y-67327785D01*
X173708000Y-67423023D01*
X173660380Y-67518261D01*
X173755619Y-68327785D02*
X173708000Y-68375404D01*
X173660380Y-68470642D01*
X173660380Y-68708738D01*
X173708000Y-68803976D01*
X173755619Y-68851595D01*
X173850857Y-68899214D01*
X173946095Y-68899214D01*
X174088952Y-68851595D01*
X174660380Y-68280166D01*
X174660380Y-68899214D01*
X171204000Y-75436214D02*
X171156380Y-75340976D01*
X171156380Y-75198119D01*
X171204000Y-75055261D01*
X171299238Y-74960023D01*
X171394476Y-74912404D01*
X171584952Y-74864785D01*
X171727809Y-74864785D01*
X171918285Y-74912404D01*
X172013523Y-74960023D01*
X172108761Y-75055261D01*
X172156380Y-75198119D01*
X172156380Y-75293357D01*
X172108761Y-75436214D01*
X172061142Y-75483833D01*
X171727809Y-75483833D01*
X171727809Y-75293357D01*
X172156380Y-75912404D02*
X171156380Y-75912404D01*
X171156380Y-76293357D01*
X171204000Y-76388595D01*
X171251619Y-76436214D01*
X171346857Y-76483833D01*
X171489714Y-76483833D01*
X171584952Y-76436214D01*
X171632571Y-76388595D01*
X171680190Y-76293357D01*
X171680190Y-75912404D01*
X172156380Y-76912404D02*
X171156380Y-76912404D01*
X171156380Y-77579071D02*
X171156380Y-77769547D01*
X171204000Y-77864785D01*
X171299238Y-77960023D01*
X171489714Y-78007642D01*
X171823047Y-78007642D01*
X172013523Y-77960023D01*
X172108761Y-77864785D01*
X172156380Y-77769547D01*
X172156380Y-77579071D01*
X172108761Y-77483833D01*
X172013523Y-77388595D01*
X171823047Y-77340976D01*
X171489714Y-77340976D01*
X171299238Y-77388595D01*
X171204000Y-77483833D01*
X171156380Y-77579071D01*
X172156380Y-78483833D02*
X172156380Y-78674309D01*
X172108761Y-78769547D01*
X172061142Y-78817166D01*
X171918285Y-78912404D01*
X171727809Y-78960023D01*
X171346857Y-78960023D01*
X171251619Y-78912404D01*
X171204000Y-78864785D01*
X171156380Y-78769547D01*
X171156380Y-78579071D01*
X171204000Y-78483833D01*
X171251619Y-78436214D01*
X171346857Y-78388595D01*
X171584952Y-78388595D01*
X171680190Y-78436214D01*
X171727809Y-78483833D01*
X171775428Y-78579071D01*
X171775428Y-78769547D01*
X171727809Y-78864785D01*
X171680190Y-78912404D01*
X171584952Y-78960023D01*
X166342000Y-65375404D02*
X166294380Y-65280166D01*
X166294380Y-65137309D01*
X166342000Y-64994452D01*
X166437238Y-64899214D01*
X166532476Y-64851595D01*
X166722952Y-64803976D01*
X166865809Y-64803976D01*
X167056285Y-64851595D01*
X167151523Y-64899214D01*
X167246761Y-64994452D01*
X167294380Y-65137309D01*
X167294380Y-65232547D01*
X167246761Y-65375404D01*
X167199142Y-65423023D01*
X166865809Y-65423023D01*
X166865809Y-65232547D01*
X167294380Y-65851595D02*
X166294380Y-65851595D01*
X166294380Y-66232547D01*
X166342000Y-66327785D01*
X166389619Y-66375404D01*
X166484857Y-66423023D01*
X166627714Y-66423023D01*
X166722952Y-66375404D01*
X166770571Y-66327785D01*
X166818190Y-66232547D01*
X166818190Y-65851595D01*
X167294380Y-66851595D02*
X166294380Y-66851595D01*
X166294380Y-67518261D02*
X166294380Y-67708738D01*
X166342000Y-67803976D01*
X166437238Y-67899214D01*
X166627714Y-67946833D01*
X166961047Y-67946833D01*
X167151523Y-67899214D01*
X167246761Y-67803976D01*
X167294380Y-67708738D01*
X167294380Y-67518261D01*
X167246761Y-67423023D01*
X167151523Y-67327785D01*
X166961047Y-67280166D01*
X166627714Y-67280166D01*
X166437238Y-67327785D01*
X166342000Y-67423023D01*
X166294380Y-67518261D01*
X166294380Y-68851595D02*
X166294380Y-68375404D01*
X166770571Y-68327785D01*
X166722952Y-68375404D01*
X166675333Y-68470642D01*
X166675333Y-68708738D01*
X166722952Y-68803976D01*
X166770571Y-68851595D01*
X166865809Y-68899214D01*
X167103904Y-68899214D01*
X167199142Y-68851595D01*
X167246761Y-68803976D01*
X167294380Y-68708738D01*
X167294380Y-68470642D01*
X167246761Y-68375404D01*
X167199142Y-68327785D01*
X158456380Y-76864785D02*
X159456380Y-77198119D01*
X158456380Y-77531452D01*
X159456380Y-77864785D02*
X158456380Y-77864785D01*
X159456380Y-78340976D02*
X158456380Y-78340976D01*
X159456380Y-78912404D01*
X158456380Y-78912404D01*
X178776380Y-77531452D02*
X178776380Y-78102880D01*
X179776380Y-77817166D02*
X178776380Y-77817166D01*
X178776380Y-78340976D02*
X179776380Y-79007642D01*
X178776380Y-79007642D02*
X179776380Y-78340976D01*
X166124000Y-75436214D02*
X166076380Y-75340976D01*
X166076380Y-75198119D01*
X166124000Y-75055261D01*
X166219238Y-74960023D01*
X166314476Y-74912404D01*
X166504952Y-74864785D01*
X166647809Y-74864785D01*
X166838285Y-74912404D01*
X166933523Y-74960023D01*
X167028761Y-75055261D01*
X167076380Y-75198119D01*
X167076380Y-75293357D01*
X167028761Y-75436214D01*
X166981142Y-75483833D01*
X166647809Y-75483833D01*
X166647809Y-75293357D01*
X167076380Y-75912404D02*
X166076380Y-75912404D01*
X166076380Y-76293357D01*
X166124000Y-76388595D01*
X166171619Y-76436214D01*
X166266857Y-76483833D01*
X166409714Y-76483833D01*
X166504952Y-76436214D01*
X166552571Y-76388595D01*
X166600190Y-76293357D01*
X166600190Y-75912404D01*
X167076380Y-76912404D02*
X166076380Y-76912404D01*
X166076380Y-77579071D02*
X166076380Y-77769547D01*
X166124000Y-77864785D01*
X166219238Y-77960023D01*
X166409714Y-78007642D01*
X166743047Y-78007642D01*
X166933523Y-77960023D01*
X167028761Y-77864785D01*
X167076380Y-77769547D01*
X167076380Y-77579071D01*
X167028761Y-77483833D01*
X166933523Y-77388595D01*
X166743047Y-77340976D01*
X166409714Y-77340976D01*
X166219238Y-77388595D01*
X166124000Y-77483833D01*
X166076380Y-77579071D01*
X166076380Y-78340976D02*
X166076380Y-79007642D01*
X167076380Y-78579071D01*
X188110761Y-63874095D02*
X188158380Y-64016952D01*
X188158380Y-64255047D01*
X188110761Y-64350285D01*
X188063142Y-64397904D01*
X187967904Y-64445523D01*
X187872666Y-64445523D01*
X187777428Y-64397904D01*
X187729809Y-64350285D01*
X187682190Y-64255047D01*
X187634571Y-64064571D01*
X187586952Y-63969333D01*
X187539333Y-63921714D01*
X187444095Y-63874095D01*
X187348857Y-63874095D01*
X187253619Y-63921714D01*
X187206000Y-63969333D01*
X187158380Y-64064571D01*
X187158380Y-64302666D01*
X187206000Y-64445523D01*
X187158380Y-64778857D02*
X187158380Y-65445523D01*
X188158380Y-64778857D01*
X188158380Y-65445523D01*
X188158380Y-65826476D02*
X187158380Y-65826476D01*
X188158380Y-66397904D02*
X187586952Y-65969333D01*
X187158380Y-66397904D02*
X187729809Y-65826476D01*
X187872666Y-66778857D02*
X187872666Y-67255047D01*
X188158380Y-66683619D02*
X187158380Y-67016952D01*
X188158380Y-67350285D01*
X188158380Y-67683619D02*
X187158380Y-67683619D01*
X188158380Y-68255047D01*
X187158380Y-68255047D01*
X188158380Y-68731238D02*
X187158380Y-68731238D01*
X187158380Y-68969333D01*
X187206000Y-69112190D01*
X187301238Y-69207428D01*
X187396476Y-69255047D01*
X187586952Y-69302666D01*
X187729809Y-69302666D01*
X187920285Y-69255047D01*
X188015523Y-69207428D01*
X188110761Y-69112190D01*
X188158380Y-68969333D01*
X188158380Y-68731238D01*
X187634571Y-69731238D02*
X187634571Y-70064571D01*
X188158380Y-70207428D02*
X188158380Y-69731238D01*
X187158380Y-69731238D01*
X187158380Y-70207428D01*
X188158380Y-71207428D02*
X187682190Y-70874095D01*
X188158380Y-70636000D02*
X187158380Y-70636000D01*
X187158380Y-71016952D01*
X187206000Y-71112190D01*
X187253619Y-71159809D01*
X187348857Y-71207428D01*
X187491714Y-71207428D01*
X187586952Y-71159809D01*
X187634571Y-71112190D01*
X187682190Y-71016952D01*
X187682190Y-70636000D01*
X187872666Y-71588380D02*
X187872666Y-72064571D01*
X188158380Y-71493142D02*
X187158380Y-71826476D01*
X188158380Y-72159809D01*
X188158380Y-74064571D02*
X188158380Y-74016952D01*
X188110761Y-73921714D01*
X187967904Y-73778857D01*
X187682190Y-73540761D01*
X187539333Y-73445523D01*
X187396476Y-73397904D01*
X187301238Y-73397904D01*
X187206000Y-73445523D01*
X187158380Y-73540761D01*
X187158380Y-73588380D01*
X187206000Y-73683619D01*
X187301238Y-73731238D01*
X187348857Y-73731238D01*
X187444095Y-73683619D01*
X187491714Y-73636000D01*
X187682190Y-73350285D01*
X187729809Y-73302666D01*
X187825047Y-73255047D01*
X187967904Y-73255047D01*
X188063142Y-73302666D01*
X188110761Y-73350285D01*
X188158380Y-73445523D01*
X188158380Y-73588380D01*
X188110761Y-73683619D01*
X188063142Y-73731238D01*
X187872666Y-73874095D01*
X187729809Y-73921714D01*
X187634571Y-73921714D01*
X187634571Y-75588380D02*
X187634571Y-75255047D01*
X188158380Y-75255047D02*
X187158380Y-75255047D01*
X187158380Y-75731238D01*
X188158380Y-76683619D02*
X187682190Y-76350285D01*
X188158380Y-76112190D02*
X187158380Y-76112190D01*
X187158380Y-76493142D01*
X187206000Y-76588380D01*
X187253619Y-76636000D01*
X187348857Y-76683619D01*
X187491714Y-76683619D01*
X187586952Y-76636000D01*
X187634571Y-76588380D01*
X187682190Y-76493142D01*
X187682190Y-76112190D01*
X187682190Y-77302666D02*
X188158380Y-77302666D01*
X187158380Y-76969333D02*
X187682190Y-77302666D01*
X187158380Y-77636000D01*
X188063142Y-78540761D02*
X188110761Y-78493142D01*
X188158380Y-78350285D01*
X188158380Y-78255047D01*
X188110761Y-78112190D01*
X188015523Y-78016952D01*
X187920285Y-77969333D01*
X187729809Y-77921714D01*
X187586952Y-77921714D01*
X187396476Y-77969333D01*
X187301238Y-78016952D01*
X187206000Y-78112190D01*
X187158380Y-78255047D01*
X187158380Y-78350285D01*
X187206000Y-78493142D01*
X187253619Y-78540761D01*
X187872666Y-78921714D02*
X187872666Y-79397904D01*
X188158380Y-78826476D02*
X187158380Y-79159809D01*
X188158380Y-79493142D01*
X188158380Y-79826476D02*
X187158380Y-79826476D01*
X188158380Y-80397904D02*
X187586952Y-79969333D01*
X187158380Y-80397904D02*
X187729809Y-79826476D01*
X177236380Y-78007642D02*
X176760190Y-77674309D01*
X177236380Y-77436214D02*
X176236380Y-77436214D01*
X176236380Y-77817166D01*
X176284000Y-77912404D01*
X176331619Y-77960023D01*
X176426857Y-78007642D01*
X176569714Y-78007642D01*
X176664952Y-77960023D01*
X176712571Y-77912404D01*
X176760190Y-77817166D01*
X176760190Y-77436214D01*
X176236380Y-78340976D02*
X177236380Y-79007642D01*
X176236380Y-79007642D02*
X177236380Y-78340976D01*
X181364000Y-76864785D02*
X181316380Y-76769547D01*
X181316380Y-76626690D01*
X181364000Y-76483833D01*
X181459238Y-76388595D01*
X181554476Y-76340976D01*
X181744952Y-76293357D01*
X181887809Y-76293357D01*
X182078285Y-76340976D01*
X182173523Y-76388595D01*
X182268761Y-76483833D01*
X182316380Y-76626690D01*
X182316380Y-76721928D01*
X182268761Y-76864785D01*
X182221142Y-76912404D01*
X181887809Y-76912404D01*
X181887809Y-76721928D01*
X182316380Y-77340976D02*
X181316380Y-77340976D01*
X182316380Y-77912404D01*
X181316380Y-77912404D01*
X182316380Y-78388595D02*
X181316380Y-78388595D01*
X181316380Y-78626690D01*
X181364000Y-78769547D01*
X181459238Y-78864785D01*
X181554476Y-78912404D01*
X181744952Y-78960023D01*
X181887809Y-78960023D01*
X182078285Y-78912404D01*
X182173523Y-78864785D01*
X182268761Y-78769547D01*
X182316380Y-78626690D01*
X182316380Y-78388595D01*
X168664000Y-75436214D02*
X168616380Y-75340976D01*
X168616380Y-75198119D01*
X168664000Y-75055261D01*
X168759238Y-74960023D01*
X168854476Y-74912404D01*
X169044952Y-74864785D01*
X169187809Y-74864785D01*
X169378285Y-74912404D01*
X169473523Y-74960023D01*
X169568761Y-75055261D01*
X169616380Y-75198119D01*
X169616380Y-75293357D01*
X169568761Y-75436214D01*
X169521142Y-75483833D01*
X169187809Y-75483833D01*
X169187809Y-75293357D01*
X169616380Y-75912404D02*
X168616380Y-75912404D01*
X168616380Y-76293357D01*
X168664000Y-76388595D01*
X168711619Y-76436214D01*
X168806857Y-76483833D01*
X168949714Y-76483833D01*
X169044952Y-76436214D01*
X169092571Y-76388595D01*
X169140190Y-76293357D01*
X169140190Y-75912404D01*
X169616380Y-76912404D02*
X168616380Y-76912404D01*
X168616380Y-77579071D02*
X168616380Y-77769547D01*
X168664000Y-77864785D01*
X168759238Y-77960023D01*
X168949714Y-78007642D01*
X169283047Y-78007642D01*
X169473523Y-77960023D01*
X169568761Y-77864785D01*
X169616380Y-77769547D01*
X169616380Y-77579071D01*
X169568761Y-77483833D01*
X169473523Y-77388595D01*
X169283047Y-77340976D01*
X168949714Y-77340976D01*
X168759238Y-77388595D01*
X168664000Y-77483833D01*
X168616380Y-77579071D01*
X169044952Y-78579071D02*
X168997333Y-78483833D01*
X168949714Y-78436214D01*
X168854476Y-78388595D01*
X168806857Y-78388595D01*
X168711619Y-78436214D01*
X168664000Y-78483833D01*
X168616380Y-78579071D01*
X168616380Y-78769547D01*
X168664000Y-78864785D01*
X168711619Y-78912404D01*
X168806857Y-78960023D01*
X168854476Y-78960023D01*
X168949714Y-78912404D01*
X168997333Y-78864785D01*
X169044952Y-78769547D01*
X169044952Y-78579071D01*
X169092571Y-78483833D01*
X169140190Y-78436214D01*
X169235428Y-78388595D01*
X169425904Y-78388595D01*
X169521142Y-78436214D01*
X169568761Y-78483833D01*
X169616380Y-78579071D01*
X169616380Y-78769547D01*
X169568761Y-78864785D01*
X169521142Y-78912404D01*
X169425904Y-78960023D01*
X169235428Y-78960023D01*
X169140190Y-78912404D01*
X169092571Y-78864785D01*
X169044952Y-78769547D01*
X182010571Y-64851595D02*
X182010571Y-65184928D01*
X182534380Y-65327785D02*
X182534380Y-64851595D01*
X181534380Y-64851595D01*
X181534380Y-65327785D01*
X182534380Y-65756357D02*
X181534380Y-65756357D01*
X182534380Y-66327785D01*
X181534380Y-66327785D01*
X158456380Y-64851595D02*
X159265904Y-64851595D01*
X159361142Y-64899214D01*
X159408761Y-64946833D01*
X159456380Y-65042071D01*
X159456380Y-65232547D01*
X159408761Y-65327785D01*
X159361142Y-65375404D01*
X159265904Y-65423023D01*
X158456380Y-65423023D01*
X159408761Y-65851595D02*
X159456380Y-65994452D01*
X159456380Y-66232547D01*
X159408761Y-66327785D01*
X159361142Y-66375404D01*
X159265904Y-66423023D01*
X159170666Y-66423023D01*
X159075428Y-66375404D01*
X159027809Y-66327785D01*
X158980190Y-66232547D01*
X158932571Y-66042071D01*
X158884952Y-65946833D01*
X158837333Y-65899214D01*
X158742095Y-65851595D01*
X158646857Y-65851595D01*
X158551619Y-65899214D01*
X158504000Y-65946833D01*
X158456380Y-66042071D01*
X158456380Y-66280166D01*
X158504000Y-66423023D01*
X158932571Y-67184928D02*
X158980190Y-67327785D01*
X159027809Y-67375404D01*
X159123047Y-67423023D01*
X159265904Y-67423023D01*
X159361142Y-67375404D01*
X159408761Y-67327785D01*
X159456380Y-67232547D01*
X159456380Y-66851595D01*
X158456380Y-66851595D01*
X158456380Y-67184928D01*
X158504000Y-67280166D01*
X158551619Y-67327785D01*
X158646857Y-67375404D01*
X158742095Y-67375404D01*
X158837333Y-67327785D01*
X158884952Y-67280166D01*
X158932571Y-67184928D01*
X158932571Y-66851595D01*
X158456380Y-69089690D02*
X158456380Y-68613500D01*
X158932571Y-68565880D01*
X158884952Y-68613500D01*
X158837333Y-68708738D01*
X158837333Y-68946833D01*
X158884952Y-69042071D01*
X158932571Y-69089690D01*
X159027809Y-69137309D01*
X159265904Y-69137309D01*
X159361142Y-69089690D01*
X159408761Y-69042071D01*
X159456380Y-68946833D01*
X159456380Y-68708738D01*
X159408761Y-68613500D01*
X159361142Y-68565880D01*
X158456380Y-69423023D02*
X159456380Y-69756357D01*
X158456380Y-70089690D01*
D11*
%TO.C,J3*%
X184404000Y-64322000D02*
X185734000Y-64322000D01*
X183134000Y-61662000D02*
X157674000Y-61662000D01*
X157674000Y-64322000D02*
X157674000Y-61662000D01*
X183134000Y-64322000D02*
X183134000Y-61662000D01*
X185734000Y-64322000D02*
X185734000Y-62992000D01*
X183134000Y-64322000D02*
X157674000Y-64322000D01*
%TO.C,J2*%
X183134000Y-79442000D02*
X157674000Y-79442000D01*
X184404000Y-82102000D02*
X185734000Y-82102000D01*
X183134000Y-82102000D02*
X157674000Y-82102000D01*
X157674000Y-82102000D02*
X157674000Y-79442000D01*
X185734000Y-82102000D02*
X185734000Y-80772000D01*
X183134000Y-82102000D02*
X183134000Y-79442000D01*
%TD*%
M02*
