M48
; DRILL file {KiCad (6.0.5-0)} date 2022 July 11, Monday 15:01:15
; FORMAT={-:-/ absolute / inch / decimal}
; #@! TF.CreationDate,2022-07-11T15:01:15+02:00
; #@! TF.GenerationSoftware,Kicad,Pcbnew,(6.0.5-0)
; #@! TF.FileFunction,Plated,1,2,PTH
FMAT,2
INCH
; #@! TA.AperFunction,Plated,PTH,ViaDrill
T1C0.0157
; #@! TA.AperFunction,Plated,PTH,ComponentDrill
T2C0.0236
; #@! TA.AperFunction,Plated,PTH,ComponentDrill
T3C0.0394
%
G90
G05
T1
X6.02Y-2.72
X6.02Y-2.93
X6.03Y-2.48
X6.05Y-2.54
X6.06Y-3.14
X6.14Y-2.77
X6.14Y-2.8093
X6.1403Y-2.8503
X6.15Y-2.52
X6.21Y-2.61
X6.2598Y-2.9698
X6.26Y-2.7
X6.26Y-2.84
X6.3Y-2.735
X6.31Y-3.07
X6.3444Y-2.725
X6.3739Y-2.975
X6.3877Y-2.6462
X6.3995Y-2.5478
X6.52Y-2.69
X6.53Y-2.6
X6.55Y-3.08
X6.56Y-3.0
X6.59Y-2.86
X6.6Y-2.72
X6.61Y-2.92
X6.6102Y-2.5281
X6.6397Y-3.0
X6.6417Y-3.0803
X6.65Y-2.59
X6.6928Y-2.5911
X6.71Y-2.7915
X6.7361Y-2.5891
X6.77Y-2.72
X6.77Y-2.91
X6.77Y-2.97
X6.7854Y-3.02
X6.7854Y-3.06
X6.849Y-2.7294
X6.87Y-3.12
X6.8707Y-2.8399
X6.8883Y-2.7315
X6.9172Y-2.5852
X6.9468Y-2.973
X6.97Y-2.84
X6.97Y-3.11
X6.9704Y-3.0163
X6.974Y-2.68
X7.02Y-2.79
X7.02Y-2.88
X7.0512Y-2.6264
X7.07Y-2.84
X7.1003Y-3.0911
X7.1023Y-2.6383
X7.1279Y-3.1187
X7.1316Y-2.6646
X7.1485Y-2.723
X7.1609Y-2.9194
X7.1672Y-2.849
X7.1909Y-2.8116
X7.2302Y-3.1187
X7.246Y-2.5635
X7.2617Y-3.095
X7.2735Y-2.7525
X7.2893Y-2.595
X7.2932Y-3.0675
X7.2972Y-2.9336
X7.2972Y-2.973
X7.3011Y-2.725
X7.3247Y-3.0006
X7.3247Y-3.0399
X7.3287Y-2.6974
X7.3326Y-2.595
X7.368Y-2.4376
X7.368Y-2.6974
X7.368Y-3.2092
X7.4074Y-2.4376
X7.4074Y-2.6974
X7.4074Y-3.2092
X7.4468Y-2.4376
X7.4468Y-2.4769
X7.4468Y-2.5163
X7.4468Y-2.5557
X7.4468Y-2.595
X7.4468Y-2.6974
X7.4468Y-2.7368
X7.4468Y-2.7761
X7.4468Y-2.8155
X7.4468Y-2.8549
X7.4468Y-2.8943
X7.4468Y-2.9336
X7.4468Y-2.973
X7.4468Y-3.0124
X7.4468Y-3.0517
X7.4468Y-3.0911
X7.4468Y-3.1305
X7.4468Y-3.1698
X7.4468Y-3.2092
T3
X6.26Y-2.48
X6.26Y-3.18
X6.36Y-2.48
X6.36Y-3.18
X6.46Y-2.48
X6.46Y-3.18
X6.56Y-2.48
X6.56Y-3.18
X6.66Y-2.48
X6.66Y-3.18
X6.76Y-2.48
X6.76Y-3.18
X6.86Y-2.48
X6.86Y-3.18
X6.96Y-2.48
X6.96Y-3.18
X7.06Y-2.48
X7.06Y-3.18
X7.16Y-2.48
X7.16Y-3.18
X7.26Y-2.48
X7.26Y-3.18
T2
G00X6.0357Y-2.6599
M15
G01X6.0043Y-2.6599
M16
G05
G00X6.0357Y-3.0001
M15
G01X6.0043Y-3.0001
M16
G05
G00X6.2062Y-2.6599
M15
G01X6.1629Y-2.6599
M16
G05
G00X6.2062Y-3.0001
M15
G01X6.1629Y-3.0001
M16
G05
T0
M30
