%TF.GenerationSoftware,KiCad,Pcbnew,(6.0.5-0)*%
%TF.CreationDate,2022-07-11T15:01:11+02:00*%
%TF.ProjectId,ESP32-C3_breakout,45535033-322d-4433-935f-627265616b6f,rev?*%
%TF.SameCoordinates,Original*%
%TF.FileFunction,Paste,Top*%
%TF.FilePolarity,Positive*%
%FSLAX46Y46*%
G04 Gerber Fmt 4.6, Leading zero omitted, Abs format (unit mm)*
G04 Created by KiCad (PCBNEW (6.0.5-0)) date 2022-07-11 15:01:11*
%MOMM*%
%LPD*%
G01*
G04 APERTURE LIST*
G04 Aperture macros list*
%AMRoundRect*
0 Rectangle with rounded corners*
0 $1 Rounding radius*
0 $2 $3 $4 $5 $6 $7 $8 $9 X,Y pos of 4 corners*
0 Add a 4 corners polygon primitive as box body*
4,1,4,$2,$3,$4,$5,$6,$7,$8,$9,$2,$3,0*
0 Add four circle primitives for the rounded corners*
1,1,$1+$1,$2,$3*
1,1,$1+$1,$4,$5*
1,1,$1+$1,$6,$7*
1,1,$1+$1,$8,$9*
0 Add four rect primitives between the rounded corners*
20,1,$1+$1,$2,$3,$4,$5,0*
20,1,$1+$1,$4,$5,$6,$7,0*
20,1,$1+$1,$6,$7,$8,$9,0*
20,1,$1+$1,$8,$9,$2,$3,0*%
%AMRotRect*
0 Rectangle, with rotation*
0 The origin of the aperture is its center*
0 $1 length*
0 $2 width*
0 $3 Rotation angle, in degrees counterclockwise*
0 Add horizontal line*
21,1,$1,$2,0,0,$3*%
G04 Aperture macros list end*
%ADD10RoundRect,0.200000X-0.200000X-0.275000X0.200000X-0.275000X0.200000X0.275000X-0.200000X0.275000X0*%
%ADD11R,1.050000X0.650000*%
%ADD12RoundRect,0.225000X-0.250000X0.225000X-0.250000X-0.225000X0.250000X-0.225000X0.250000X0.225000X0*%
%ADD13R,0.700000X0.510000*%
%ADD14RotRect,0.900000X0.800000X135.000000*%
%ADD15RoundRect,0.200000X0.275000X-0.200000X0.275000X0.200000X-0.275000X0.200000X-0.275000X-0.200000X0*%
%ADD16RoundRect,0.225000X-0.225000X-0.250000X0.225000X-0.250000X0.225000X0.250000X-0.225000X0.250000X0*%
%ADD17RoundRect,0.225000X-0.335876X-0.017678X-0.017678X-0.335876X0.335876X0.017678X0.017678X0.335876X0*%
%ADD18RoundRect,0.225000X0.250000X-0.225000X0.250000X0.225000X-0.250000X0.225000X-0.250000X-0.225000X0*%
%ADD19RoundRect,0.200000X0.200000X0.275000X-0.200000X0.275000X-0.200000X-0.275000X0.200000X-0.275000X0*%
%ADD20R,2.000000X1.500000*%
%ADD21R,2.000000X3.800000*%
%ADD22RoundRect,0.225000X0.017678X-0.335876X0.335876X-0.017678X-0.017678X0.335876X-0.335876X0.017678X0*%
%ADD23RoundRect,0.218750X0.026517X-0.335876X0.335876X-0.026517X-0.026517X0.335876X-0.335876X0.026517X0*%
%ADD24RoundRect,0.232500X0.000000X0.328805X-0.328805X0.000000X0.000000X-0.328805X0.328805X0.000000X0*%
%ADD25RoundRect,0.062500X0.220971X0.309359X-0.309359X-0.220971X-0.220971X-0.309359X0.309359X0.220971X0*%
%ADD26RoundRect,0.062500X-0.220971X0.309359X-0.309359X0.220971X0.220971X-0.309359X0.309359X-0.220971X0*%
%ADD27RoundRect,0.225000X-0.017678X0.335876X-0.335876X0.017678X0.017678X-0.335876X0.335876X-0.017678X0*%
%ADD28RoundRect,0.225000X0.225000X0.250000X-0.225000X0.250000X-0.225000X-0.250000X0.225000X-0.250000X0*%
%ADD29R,1.150000X0.600000*%
%ADD30R,1.150000X0.300000*%
G04 APERTURE END LIST*
D10*
%TO.C,R3*%
X160211000Y-74422000D03*
X161861000Y-74422000D03*
%TD*%
D11*
%TO.C,SW2*%
X151849000Y-62933000D03*
X155999000Y-62933000D03*
X151849000Y-65083000D03*
X155999000Y-65083000D03*
%TD*%
D12*
%TO.C,C11*%
X172974000Y-73139000D03*
X172974000Y-74689000D03*
%TD*%
D13*
%TO.C,IC1*%
X173338000Y-76266000D03*
X173338000Y-77216000D03*
X173338000Y-78166000D03*
X175658000Y-78166000D03*
X175658000Y-77216000D03*
X175658000Y-76266000D03*
%TD*%
D14*
%TO.C,Y1*%
X183509883Y-75798066D03*
X182519934Y-74808117D03*
X181742117Y-75585934D03*
X182732066Y-76575883D03*
%TD*%
D15*
%TO.C,R4*%
X173898000Y-68039000D03*
X173898000Y-66389000D03*
%TD*%
D16*
%TO.C,C4*%
X157721000Y-78740000D03*
X159271000Y-78740000D03*
%TD*%
D17*
%TO.C,C13*%
X182712992Y-70190992D03*
X183809008Y-71287008D03*
%TD*%
D18*
%TO.C,C12*%
X187706000Y-67196000D03*
X187706000Y-65646000D03*
%TD*%
D19*
%TO.C,R1*%
X180023000Y-65164000D03*
X178373000Y-65164000D03*
%TD*%
D20*
%TO.C,U1*%
X163982000Y-66026000D03*
X163982000Y-68326000D03*
D21*
X170282000Y-68326000D03*
D20*
X163982000Y-70626000D03*
%TD*%
D22*
%TO.C,C9*%
X181567992Y-66470008D03*
X182664008Y-65373992D03*
%TD*%
D12*
%TO.C,C1*%
X161798000Y-70345000D03*
X161798000Y-71895000D03*
%TD*%
D22*
%TO.C,C8*%
X182649992Y-67562008D03*
X183746008Y-66465992D03*
%TD*%
D17*
%TO.C,C7*%
X184849992Y-72315992D03*
X185946008Y-73412008D03*
%TD*%
D20*
%TO.C,D1*%
X163982000Y-73138000D03*
X163982000Y-75438000D03*
X163982000Y-77738000D03*
D21*
X170282000Y-75438000D03*
%TD*%
D23*
%TO.C,L1*%
X183791153Y-69170847D03*
X184904847Y-68057153D03*
%TD*%
D10*
%TO.C,R2*%
X160211000Y-76708000D03*
X161861000Y-76708000D03*
%TD*%
D15*
%TO.C,R5*%
X172974000Y-71691000D03*
X172974000Y-70041000D03*
%TD*%
D24*
%TO.C,U2*%
X179934346Y-72136000D03*
X178308000Y-72136000D03*
X177494827Y-72949173D03*
X177494827Y-71322827D03*
X178308000Y-73762346D03*
X179121173Y-71322827D03*
X176681654Y-72136000D03*
X178308000Y-70509654D03*
X179121173Y-72949173D03*
D25*
X181269010Y-71649864D03*
X180915456Y-71296311D03*
X180561903Y-70942757D03*
X180208349Y-70589204D03*
X179854796Y-70235651D03*
X179501243Y-69882097D03*
X179147689Y-69528544D03*
X178794136Y-69174990D03*
D26*
X177821864Y-69174990D03*
X177468311Y-69528544D03*
X177114757Y-69882097D03*
X176761204Y-70235651D03*
X176407651Y-70589204D03*
X176054097Y-70942757D03*
X175700544Y-71296311D03*
X175346990Y-71649864D03*
D25*
X175346990Y-72622136D03*
X175700544Y-72975689D03*
X176054097Y-73329243D03*
X176407651Y-73682796D03*
X176761204Y-74036349D03*
X177114757Y-74389903D03*
X177468311Y-74743456D03*
X177821864Y-75097010D03*
D26*
X178794136Y-75097010D03*
X179147689Y-74743456D03*
X179501243Y-74389903D03*
X179854796Y-74036349D03*
X180208349Y-73682796D03*
X180561903Y-73329243D03*
X180915456Y-72975689D03*
X181269010Y-72622136D03*
%TD*%
D17*
%TO.C,C10*%
X185949992Y-71215992D03*
X187046008Y-72312008D03*
%TD*%
%TO.C,C6*%
X183093992Y-72857992D03*
X184190008Y-73954008D03*
%TD*%
D27*
%TO.C,C15*%
X184698008Y-76667992D03*
X183601992Y-77764008D03*
%TD*%
D17*
%TO.C,C14*%
X181061992Y-77429992D03*
X182158008Y-78526008D03*
%TD*%
D18*
%TO.C,C3*%
X172348000Y-67989000D03*
X172348000Y-66439000D03*
%TD*%
D11*
%TO.C,SW1*%
X151849000Y-78681000D03*
X155999000Y-78681000D03*
X151849000Y-80831000D03*
X155999000Y-80831000D03*
%TD*%
D16*
%TO.C,C2*%
X160473000Y-66014000D03*
X162023000Y-66014000D03*
%TD*%
D28*
%TO.C,C5*%
X171323000Y-78814000D03*
X169773000Y-78814000D03*
%TD*%
D29*
%TO.C,J1*%
X157663000Y-68682000D03*
X157663000Y-69482000D03*
D30*
X157663000Y-70632000D03*
X157663000Y-71632000D03*
X157663000Y-72132000D03*
X157663000Y-73132000D03*
D29*
X157663000Y-75082000D03*
X157663000Y-74282000D03*
D30*
X157663000Y-73632000D03*
X157663000Y-72632000D03*
X157663000Y-71132000D03*
X157663000Y-70132000D03*
%TD*%
M02*
