%TF.GenerationSoftware,KiCad,Pcbnew,(6.0.5-0)*%
%TF.CreationDate,2022-07-11T15:01:11+02:00*%
%TF.ProjectId,ESP32-C3_breakout,45535033-322d-4433-935f-627265616b6f,rev?*%
%TF.SameCoordinates,Original*%
%TF.FileFunction,Copper,L2,Bot*%
%TF.FilePolarity,Positive*%
%FSLAX46Y46*%
G04 Gerber Fmt 4.6, Leading zero omitted, Abs format (unit mm)*
G04 Created by KiCad (PCBNEW (6.0.5-0)) date 2022-07-11 15:01:11*
%MOMM*%
%LPD*%
G01*
G04 APERTURE LIST*
%TA.AperFunction,ComponentPad*%
%ADD10O,2.100000X1.050000*%
%TD*%
%TA.AperFunction,ComponentPad*%
%ADD11O,2.000000X1.000000*%
%TD*%
%TA.AperFunction,ComponentPad*%
%ADD12R,1.700000X1.700000*%
%TD*%
%TA.AperFunction,ComponentPad*%
%ADD13O,1.700000X1.700000*%
%TD*%
%TA.AperFunction,ViaPad*%
%ADD14C,0.800000*%
%TD*%
%TA.AperFunction,Conductor*%
%ADD15C,0.600000*%
%TD*%
%TA.AperFunction,Conductor*%
%ADD16C,0.250000*%
%TD*%
%TA.AperFunction,Conductor*%
%ADD17C,0.200000*%
%TD*%
G04 APERTURE END LIST*
D10*
%TO.P,J1,S1,SHELL_GND*%
%TO.N,unconnected-(J1-PadS1)*%
X157088000Y-67562000D03*
D11*
%TO.P,J1,S2,SHELL_GND*%
X152908000Y-67562000D03*
%TO.P,J1,S3,SHELL_GND*%
X152908000Y-76202000D03*
D10*
%TO.P,J1,S4,SHELL_GND*%
X157088000Y-76202000D03*
%TD*%
D12*
%TO.P,J3,1,Pin_1*%
%TO.N,GND*%
X184404000Y-62992000D03*
D13*
%TO.P,J3,2,Pin_2*%
%TO.N,/EN*%
X181864000Y-62992000D03*
%TO.P,J3,3,Pin_3*%
%TO.N,/GPIO0*%
X179324000Y-62992000D03*
%TO.P,J3,4,Pin_4*%
%TO.N,/GPIO1*%
X176784000Y-62992000D03*
%TO.P,J3,5,Pin_5*%
%TO.N,/GPIO2*%
X174244000Y-62992000D03*
%TO.P,J3,6,Pin_6*%
%TO.N,/GPIO3*%
X171704000Y-62992000D03*
%TO.P,J3,7,Pin_7*%
%TO.N,/GPIO4*%
X169164000Y-62992000D03*
%TO.P,J3,8,Pin_8*%
%TO.N,/GPIO5*%
X166624000Y-62992000D03*
%TO.P,J3,9,Pin_9*%
%TO.N,GND*%
X164084000Y-62992000D03*
%TO.P,J3,10,Pin_10*%
%TO.N,+3V3*%
X161544000Y-62992000D03*
%TO.P,J3,11,Pin_11*%
%TO.N,/USB_+5V*%
X159004000Y-62992000D03*
%TD*%
D12*
%TO.P,J2,1,Pin_1*%
%TO.N,GND*%
X184404000Y-80772000D03*
D13*
%TO.P,J2,2,Pin_2*%
X181864000Y-80772000D03*
%TO.P,J2,3,Pin_3*%
%TO.N,/TX*%
X179324000Y-80772000D03*
%TO.P,J2,4,Pin_4*%
%TO.N,/RX*%
X176784000Y-80772000D03*
%TO.P,J2,5,Pin_5*%
%TO.N,/GPIO10*%
X174244000Y-80772000D03*
%TO.P,J2,6,Pin_6*%
%TO.N,/GPIO9*%
X171704000Y-80772000D03*
%TO.P,J2,7,Pin_7*%
%TO.N,/GPIO8*%
X169164000Y-80772000D03*
%TO.P,J2,8,Pin_8*%
%TO.N,/GPIO7*%
X166624000Y-80772000D03*
%TO.P,J2,9,Pin_9*%
%TO.N,/GPIO6*%
X164084000Y-80772000D03*
%TO.P,J2,10,Pin_10*%
%TO.N,GND*%
X161544000Y-80772000D03*
%TO.P,J2,11,Pin_11*%
%TO.N,/VIN*%
X159004000Y-80772000D03*
%TD*%
D14*
%TO.N,GND*%
X186048000Y-77214000D03*
X178308000Y-73152000D03*
X189148000Y-62914000D03*
X158999701Y-75433701D03*
X184448000Y-78614000D03*
X168648000Y-76200000D03*
X189148000Y-79514000D03*
X167386000Y-72644000D03*
X185348000Y-75514000D03*
X187148000Y-68514000D03*
X159004000Y-72136000D03*
X189148000Y-70514000D03*
X161898000Y-75564000D03*
X189148000Y-73514000D03*
X189148000Y-77514000D03*
X168698000Y-78239000D03*
X162248000Y-67214000D03*
X183648000Y-79214000D03*
X188148000Y-61914000D03*
X161148000Y-69214000D03*
X167640000Y-69088000D03*
X152908000Y-69088000D03*
X185348000Y-74514000D03*
X184048000Y-65114000D03*
X174498000Y-79248000D03*
X189148000Y-80514000D03*
X166370000Y-78232000D03*
X189148000Y-76514000D03*
X185248000Y-77914000D03*
X186248000Y-65914000D03*
X157734000Y-66294000D03*
X178308000Y-70866000D03*
X177038000Y-78994000D03*
X177038000Y-72136000D03*
X152908000Y-74422000D03*
X189148000Y-74514000D03*
X159004000Y-68580000D03*
X181048000Y-79214000D03*
X189148000Y-64914000D03*
X188148000Y-81514000D03*
X153670000Y-64516000D03*
X177048000Y-76614000D03*
X189148000Y-81514000D03*
X187148000Y-81514000D03*
X182648000Y-71414000D03*
X160274000Y-77978000D03*
X166624000Y-76200000D03*
X171958000Y-69088000D03*
X189148000Y-75514000D03*
X186148000Y-68514000D03*
X180348000Y-78514000D03*
X171958000Y-73914000D03*
X186048000Y-76214000D03*
X165862000Y-66040000D03*
X181887050Y-74153550D03*
X184748000Y-69914000D03*
X189148000Y-68514000D03*
X189148000Y-61914000D03*
X167898000Y-64214000D03*
X189148000Y-78514000D03*
X189148000Y-65914000D03*
X185148000Y-65914000D03*
X187148000Y-61914000D03*
X188148000Y-68514000D03*
X168910000Y-65786000D03*
X189148000Y-63914000D03*
X189148000Y-69514000D03*
X185448000Y-69214000D03*
X153924000Y-79756000D03*
X189148000Y-72514000D03*
X171098000Y-65764000D03*
X179578000Y-72136000D03*
X189148000Y-71514000D03*
%TO.N,+3V3*%
X181571540Y-69164000D03*
X182048000Y-72364000D03*
X169998000Y-65814000D03*
X165608000Y-68326000D03*
X176448000Y-75514000D03*
%TO.N,/BOOT*%
X153162000Y-62992000D03*
X156210000Y-64008000D03*
X162548000Y-64714000D03*
%TO.N,/GPIO0*%
X181141750Y-67681713D03*
%TO.N,/GPIO1*%
X180398000Y-67014000D03*
%TO.N,/GPIO2*%
X179100574Y-66711426D03*
X175698000Y-65664000D03*
%TO.N,/GPIO5*%
X177140500Y-68072000D03*
%TO.N,/GPIO6*%
X173965638Y-69327836D03*
%TO.N,/GPIO7*%
X174963805Y-69379500D03*
%TO.N,/GPIO8*%
X170434000Y-70903500D03*
X167894000Y-74168000D03*
%TO.N,/GPIO10*%
X174516490Y-72134463D03*
%TO.N,/D_P*%
X155956000Y-71357000D03*
X172348000Y-77724000D03*
%TO.N,/D_N*%
X155956000Y-70357497D03*
X155964500Y-72398500D03*
X172348000Y-76708000D03*
%TO.N,/USB_+5V*%
X160020000Y-69469000D03*
X171958000Y-75438000D03*
%TD*%
D15*
%TO.N,+3V3*%
X177948000Y-75514000D02*
X176448000Y-75514000D01*
X180548000Y-69164000D02*
X181571540Y-69164000D01*
X166878000Y-67056000D02*
X170006000Y-67056000D01*
X180498000Y-69214000D02*
X180548000Y-69164000D01*
X170006000Y-65822000D02*
X169998000Y-65814000D01*
X180498000Y-72314000D02*
X180498000Y-72964000D01*
X165608000Y-68326000D02*
X166878000Y-67056000D01*
X177396602Y-67056000D02*
X179504602Y-69164000D01*
X180498000Y-72964000D02*
X181448000Y-72964000D01*
X180498000Y-72314000D02*
X180498000Y-69214000D01*
X181448000Y-72964000D02*
X182048000Y-72364000D01*
X179504602Y-69164000D02*
X180548000Y-69164000D01*
X180498000Y-72964000D02*
X177948000Y-75514000D01*
X170006000Y-67056000D02*
X177396602Y-67056000D01*
X170006000Y-67056000D02*
X170006000Y-65822000D01*
D16*
%TO.N,/BOOT*%
X156210000Y-64008000D02*
X156916000Y-64714000D01*
X155194000Y-62992000D02*
X154686000Y-62992000D01*
X156916000Y-64714000D02*
X162548000Y-64714000D01*
X153162000Y-62992000D02*
X154686000Y-62992000D01*
X156210000Y-64008000D02*
X155194000Y-62992000D01*
%TO.N,/GPIO0*%
X181122511Y-66388511D02*
X179324000Y-64590000D01*
X179324000Y-62992000D02*
X179324000Y-64590000D01*
X181122511Y-67700952D02*
X181122511Y-66388511D01*
X181141750Y-67681713D02*
X181122511Y-67700952D01*
%TO.N,/GPIO1*%
X180398000Y-66606000D02*
X176784000Y-62992000D01*
X180398000Y-67014000D02*
X180398000Y-66606000D01*
%TO.N,/GPIO2*%
X178053148Y-65664000D02*
X179100574Y-66711426D01*
X175698000Y-65664000D02*
X178053148Y-65664000D01*
X174244000Y-64210000D02*
X174244000Y-62992000D01*
X175698000Y-65664000D02*
X174244000Y-64210000D01*
%TO.N,/GPIO5*%
X164084000Y-68580000D02*
X164084000Y-65532000D01*
X164084000Y-65532000D02*
X166624000Y-62992000D01*
X167381480Y-67680520D02*
X166011489Y-69050511D01*
X176749020Y-67680520D02*
X167381480Y-67680520D01*
X177140500Y-68072000D02*
X176749020Y-67680520D01*
X166011489Y-69050511D02*
X164554511Y-69050511D01*
X164554511Y-69050511D02*
X164084000Y-68580000D01*
%TO.N,/GPIO6*%
X172778480Y-70514994D02*
X173965638Y-69327836D01*
X164084000Y-80772000D02*
X165708031Y-79147969D01*
X173548000Y-78420000D02*
X173548000Y-74624331D01*
X172778480Y-73854811D02*
X172778480Y-70514994D01*
X165708031Y-79147969D02*
X172820031Y-79147969D01*
X173548000Y-74624331D02*
X172778480Y-73854811D01*
X172820031Y-79147969D02*
X173548000Y-78420000D01*
%TO.N,/GPIO7*%
X173228000Y-71115305D02*
X173228000Y-73668614D01*
X174963805Y-69379500D02*
X173228000Y-71115305D01*
X173997520Y-78723866D02*
X173123897Y-79597489D01*
X173123897Y-79597489D02*
X167798511Y-79597489D01*
X173997520Y-74438134D02*
X173997520Y-78723866D01*
X167798511Y-79597489D02*
X166624000Y-80772000D01*
X173228000Y-73668614D02*
X173997520Y-74438134D01*
%TO.N,/GPIO8*%
X170434000Y-70903500D02*
X167894000Y-73443500D01*
X167894000Y-73443500D02*
X167894000Y-74168000D01*
%TO.N,/GPIO10*%
X174244000Y-80772000D02*
X175222511Y-79793489D01*
X175222511Y-79793489D02*
X175222511Y-72840484D01*
X175222511Y-72840484D02*
X174516490Y-72134463D01*
D17*
%TO.N,/D_P*%
X156230751Y-71082249D02*
X159410049Y-71082249D01*
X155956000Y-71357000D02*
X156230751Y-71082249D01*
X159410049Y-71082249D02*
X165768801Y-77441001D01*
X172065001Y-77441001D02*
X172348000Y-77724000D01*
X165768801Y-77441001D02*
X172065001Y-77441001D01*
%TO.N,/D_N*%
X155256489Y-71707489D02*
X155956000Y-72407000D01*
X165955199Y-76990999D02*
X172065001Y-76990999D01*
X155956000Y-70357497D02*
X156230751Y-70632248D01*
X159596448Y-70632248D02*
X165955199Y-76990999D01*
X172065001Y-76990999D02*
X172348000Y-76708000D01*
X155256489Y-71057008D02*
X155256489Y-71707489D01*
X156230751Y-70632248D02*
X159596448Y-70632248D01*
X155956000Y-70357497D02*
X155256489Y-71057008D01*
D16*
%TO.N,/USB_+5V*%
X160637511Y-70086511D02*
X165989000Y-75438000D01*
X165989000Y-75438000D02*
X171958000Y-75438000D01*
X160637511Y-70086511D02*
X160020000Y-69469000D01*
%TD*%
%TA.AperFunction,Conductor*%
%TO.N,GND*%
G36*
X189686531Y-61360713D02*
G01*
X189723076Y-61411013D01*
X189728000Y-61442100D01*
X189728000Y-82321900D01*
X189708787Y-82381031D01*
X189658487Y-82417576D01*
X189627400Y-82422500D01*
X151668030Y-82422500D01*
X151659902Y-82421430D01*
X151650794Y-82421430D01*
X151638000Y-82418002D01*
X151625901Y-82421244D01*
X151621390Y-82421047D01*
X151448375Y-82405910D01*
X151431106Y-82402865D01*
X151375994Y-82388098D01*
X151255742Y-82355877D01*
X151239267Y-82349880D01*
X151074727Y-82273153D01*
X151059541Y-82264386D01*
X150910823Y-82160253D01*
X150897390Y-82148981D01*
X150769019Y-82020610D01*
X150757747Y-82007177D01*
X150653614Y-81858459D01*
X150644847Y-81843273D01*
X150568120Y-81678733D01*
X150562122Y-81662254D01*
X150561579Y-81660225D01*
X150520059Y-81505270D01*
X150515135Y-81486894D01*
X150512090Y-81469625D01*
X150496953Y-81296610D01*
X150496756Y-81292099D01*
X150499998Y-81280000D01*
X150496570Y-81267206D01*
X150496570Y-81258098D01*
X150495500Y-81249970D01*
X150495500Y-80757262D01*
X157948520Y-80757262D01*
X157965759Y-80962553D01*
X158022544Y-81160586D01*
X158116712Y-81343818D01*
X158119765Y-81347670D01*
X158119767Y-81347673D01*
X158148715Y-81384196D01*
X158244677Y-81505270D01*
X158401564Y-81638791D01*
X158581398Y-81739297D01*
X158586079Y-81740818D01*
X158772649Y-81801439D01*
X158772655Y-81801440D01*
X158777329Y-81802959D01*
X158782211Y-81803541D01*
X158782215Y-81803542D01*
X158957937Y-81824494D01*
X158981894Y-81827351D01*
X158986795Y-81826974D01*
X158986798Y-81826974D01*
X159097112Y-81818486D01*
X159187300Y-81811546D01*
X159192036Y-81810224D01*
X159192040Y-81810223D01*
X159380983Y-81757469D01*
X159385725Y-81756145D01*
X159569610Y-81663258D01*
X159731951Y-81536424D01*
X159866564Y-81380472D01*
X159923640Y-81280000D01*
X159965893Y-81205622D01*
X159965894Y-81205620D01*
X159968323Y-81201344D01*
X160033351Y-81005863D01*
X160033967Y-81000988D01*
X160033968Y-81000983D01*
X160058819Y-80804257D01*
X160059171Y-80801474D01*
X160059583Y-80772000D01*
X160058138Y-80757262D01*
X163028520Y-80757262D01*
X163045759Y-80962553D01*
X163102544Y-81160586D01*
X163196712Y-81343818D01*
X163199765Y-81347670D01*
X163199767Y-81347673D01*
X163228715Y-81384196D01*
X163324677Y-81505270D01*
X163481564Y-81638791D01*
X163661398Y-81739297D01*
X163666079Y-81740818D01*
X163852649Y-81801439D01*
X163852655Y-81801440D01*
X163857329Y-81802959D01*
X163862211Y-81803541D01*
X163862215Y-81803542D01*
X164037937Y-81824494D01*
X164061894Y-81827351D01*
X164066795Y-81826974D01*
X164066798Y-81826974D01*
X164177112Y-81818486D01*
X164267300Y-81811546D01*
X164272036Y-81810224D01*
X164272040Y-81810223D01*
X164460983Y-81757469D01*
X164465725Y-81756145D01*
X164649610Y-81663258D01*
X164811951Y-81536424D01*
X164946564Y-81380472D01*
X165003640Y-81280000D01*
X165045893Y-81205622D01*
X165045894Y-81205620D01*
X165048323Y-81201344D01*
X165113351Y-81005863D01*
X165113967Y-81000988D01*
X165113968Y-81000983D01*
X165138819Y-80804257D01*
X165139171Y-80801474D01*
X165139583Y-80772000D01*
X165119480Y-80566970D01*
X165118058Y-80562260D01*
X165118057Y-80562255D01*
X165083162Y-80446681D01*
X165059935Y-80369749D01*
X165055535Y-80361473D01*
X165055530Y-80361463D01*
X165044737Y-80300232D01*
X165073222Y-80243104D01*
X165813392Y-79502934D01*
X165868790Y-79474708D01*
X165884527Y-79473469D01*
X167219334Y-79473469D01*
X167278465Y-79492682D01*
X167315010Y-79542982D01*
X167315010Y-79605156D01*
X167290469Y-79645204D01*
X167153398Y-79782275D01*
X167098000Y-79810501D01*
X167042793Y-79801063D01*
X167041918Y-79803144D01*
X167037387Y-79801239D01*
X167033055Y-79798897D01*
X167028351Y-79797441D01*
X167028349Y-79797440D01*
X166955472Y-79774881D01*
X166836254Y-79737977D01*
X166631369Y-79716443D01*
X166626468Y-79716889D01*
X166626465Y-79716889D01*
X166431101Y-79734668D01*
X166431098Y-79734668D01*
X166426203Y-79735114D01*
X166421489Y-79736501D01*
X166421486Y-79736502D01*
X166291086Y-79774881D01*
X166228572Y-79793280D01*
X166224212Y-79795559D01*
X166224208Y-79795561D01*
X166156807Y-79830798D01*
X166046002Y-79888726D01*
X166042170Y-79891807D01*
X165893176Y-80011601D01*
X165885447Y-80017815D01*
X165753024Y-80175630D01*
X165750657Y-80179936D01*
X165750654Y-80179940D01*
X165743916Y-80192197D01*
X165653776Y-80356162D01*
X165591484Y-80552532D01*
X165590935Y-80557423D01*
X165590935Y-80557425D01*
X165589865Y-80566970D01*
X165568520Y-80757262D01*
X165585759Y-80962553D01*
X165642544Y-81160586D01*
X165736712Y-81343818D01*
X165739765Y-81347670D01*
X165739767Y-81347673D01*
X165768715Y-81384196D01*
X165864677Y-81505270D01*
X166021564Y-81638791D01*
X166201398Y-81739297D01*
X166206079Y-81740818D01*
X166392649Y-81801439D01*
X166392655Y-81801440D01*
X166397329Y-81802959D01*
X166402211Y-81803541D01*
X166402215Y-81803542D01*
X166577937Y-81824494D01*
X166601894Y-81827351D01*
X166606795Y-81826974D01*
X166606798Y-81826974D01*
X166717112Y-81818486D01*
X166807300Y-81811546D01*
X166812036Y-81810224D01*
X166812040Y-81810223D01*
X167000983Y-81757469D01*
X167005725Y-81756145D01*
X167189610Y-81663258D01*
X167351951Y-81536424D01*
X167486564Y-81380472D01*
X167543640Y-81280000D01*
X167585893Y-81205622D01*
X167585894Y-81205620D01*
X167588323Y-81201344D01*
X167653351Y-81005863D01*
X167653967Y-81000988D01*
X167653968Y-81000983D01*
X167678819Y-80804257D01*
X167679171Y-80801474D01*
X167679583Y-80772000D01*
X167659480Y-80566970D01*
X167658058Y-80562260D01*
X167658057Y-80562255D01*
X167601359Y-80374464D01*
X167601357Y-80374460D01*
X167599935Y-80369749D01*
X167595534Y-80361471D01*
X167584735Y-80300243D01*
X167613222Y-80243105D01*
X167903873Y-79952454D01*
X167959271Y-79924228D01*
X167975008Y-79922989D01*
X168289277Y-79922989D01*
X168348408Y-79942202D01*
X168384953Y-79992502D01*
X168384953Y-80054676D01*
X168366341Y-80088253D01*
X168296189Y-80171857D01*
X168296186Y-80171862D01*
X168293024Y-80175630D01*
X168290657Y-80179936D01*
X168290654Y-80179940D01*
X168283916Y-80192197D01*
X168193776Y-80356162D01*
X168131484Y-80552532D01*
X168130935Y-80557423D01*
X168130935Y-80557425D01*
X168129865Y-80566970D01*
X168108520Y-80757262D01*
X168125759Y-80962553D01*
X168182544Y-81160586D01*
X168276712Y-81343818D01*
X168279765Y-81347670D01*
X168279767Y-81347673D01*
X168308715Y-81384196D01*
X168404677Y-81505270D01*
X168561564Y-81638791D01*
X168741398Y-81739297D01*
X168746079Y-81740818D01*
X168932649Y-81801439D01*
X168932655Y-81801440D01*
X168937329Y-81802959D01*
X168942211Y-81803541D01*
X168942215Y-81803542D01*
X169117937Y-81824494D01*
X169141894Y-81827351D01*
X169146795Y-81826974D01*
X169146798Y-81826974D01*
X169257112Y-81818486D01*
X169347300Y-81811546D01*
X169352036Y-81810224D01*
X169352040Y-81810223D01*
X169540983Y-81757469D01*
X169545725Y-81756145D01*
X169729610Y-81663258D01*
X169891951Y-81536424D01*
X170026564Y-81380472D01*
X170083640Y-81280000D01*
X170125893Y-81205622D01*
X170125894Y-81205620D01*
X170128323Y-81201344D01*
X170193351Y-81005863D01*
X170193967Y-81000988D01*
X170193968Y-81000983D01*
X170218819Y-80804257D01*
X170219171Y-80801474D01*
X170219583Y-80772000D01*
X170199480Y-80566970D01*
X170198058Y-80562260D01*
X170198057Y-80562255D01*
X170163162Y-80446681D01*
X170139935Y-80369749D01*
X170043218Y-80187849D01*
X169961107Y-80087171D01*
X169938623Y-80029205D01*
X169954505Y-79969093D01*
X170002687Y-79929797D01*
X170039066Y-79922989D01*
X170829277Y-79922989D01*
X170888408Y-79942202D01*
X170924953Y-79992502D01*
X170924953Y-80054676D01*
X170906341Y-80088253D01*
X170836189Y-80171857D01*
X170836186Y-80171862D01*
X170833024Y-80175630D01*
X170830657Y-80179936D01*
X170830654Y-80179940D01*
X170823916Y-80192197D01*
X170733776Y-80356162D01*
X170671484Y-80552532D01*
X170670935Y-80557423D01*
X170670935Y-80557425D01*
X170669865Y-80566970D01*
X170648520Y-80757262D01*
X170665759Y-80962553D01*
X170722544Y-81160586D01*
X170816712Y-81343818D01*
X170819765Y-81347670D01*
X170819767Y-81347673D01*
X170848715Y-81384196D01*
X170944677Y-81505270D01*
X171101564Y-81638791D01*
X171281398Y-81739297D01*
X171286079Y-81740818D01*
X171472649Y-81801439D01*
X171472655Y-81801440D01*
X171477329Y-81802959D01*
X171482211Y-81803541D01*
X171482215Y-81803542D01*
X171657937Y-81824494D01*
X171681894Y-81827351D01*
X171686795Y-81826974D01*
X171686798Y-81826974D01*
X171797112Y-81818486D01*
X171887300Y-81811546D01*
X171892036Y-81810224D01*
X171892040Y-81810223D01*
X172080983Y-81757469D01*
X172085725Y-81756145D01*
X172269610Y-81663258D01*
X172431951Y-81536424D01*
X172566564Y-81380472D01*
X172623640Y-81280000D01*
X172665893Y-81205622D01*
X172665894Y-81205620D01*
X172668323Y-81201344D01*
X172733351Y-81005863D01*
X172733967Y-81000988D01*
X172733968Y-81000983D01*
X172758819Y-80804257D01*
X172759171Y-80801474D01*
X172759583Y-80772000D01*
X172758138Y-80757262D01*
X173188520Y-80757262D01*
X173205759Y-80962553D01*
X173262544Y-81160586D01*
X173356712Y-81343818D01*
X173359765Y-81347670D01*
X173359767Y-81347673D01*
X173388715Y-81384196D01*
X173484677Y-81505270D01*
X173641564Y-81638791D01*
X173821398Y-81739297D01*
X173826079Y-81740818D01*
X174012649Y-81801439D01*
X174012655Y-81801440D01*
X174017329Y-81802959D01*
X174022211Y-81803541D01*
X174022215Y-81803542D01*
X174197937Y-81824494D01*
X174221894Y-81827351D01*
X174226795Y-81826974D01*
X174226798Y-81826974D01*
X174337112Y-81818486D01*
X174427300Y-81811546D01*
X174432036Y-81810224D01*
X174432040Y-81810223D01*
X174620983Y-81757469D01*
X174625725Y-81756145D01*
X174809610Y-81663258D01*
X174971951Y-81536424D01*
X175106564Y-81380472D01*
X175163640Y-81280000D01*
X175205893Y-81205622D01*
X175205894Y-81205620D01*
X175208323Y-81201344D01*
X175273351Y-81005863D01*
X175273967Y-81000988D01*
X175273968Y-81000983D01*
X175298819Y-80804257D01*
X175299171Y-80801474D01*
X175299583Y-80772000D01*
X175298138Y-80757262D01*
X175728520Y-80757262D01*
X175745759Y-80962553D01*
X175802544Y-81160586D01*
X175896712Y-81343818D01*
X175899765Y-81347670D01*
X175899767Y-81347673D01*
X175928715Y-81384196D01*
X176024677Y-81505270D01*
X176181564Y-81638791D01*
X176361398Y-81739297D01*
X176366079Y-81740818D01*
X176552649Y-81801439D01*
X176552655Y-81801440D01*
X176557329Y-81802959D01*
X176562211Y-81803541D01*
X176562215Y-81803542D01*
X176737937Y-81824494D01*
X176761894Y-81827351D01*
X176766795Y-81826974D01*
X176766798Y-81826974D01*
X176877112Y-81818486D01*
X176967300Y-81811546D01*
X176972036Y-81810224D01*
X176972040Y-81810223D01*
X177160983Y-81757469D01*
X177165725Y-81756145D01*
X177349610Y-81663258D01*
X177511951Y-81536424D01*
X177646564Y-81380472D01*
X177703640Y-81280000D01*
X177745893Y-81205622D01*
X177745894Y-81205620D01*
X177748323Y-81201344D01*
X177813351Y-81005863D01*
X177813967Y-81000988D01*
X177813968Y-81000983D01*
X177838819Y-80804257D01*
X177839171Y-80801474D01*
X177839583Y-80772000D01*
X177838138Y-80757262D01*
X178268520Y-80757262D01*
X178285759Y-80962553D01*
X178342544Y-81160586D01*
X178436712Y-81343818D01*
X178439765Y-81347670D01*
X178439767Y-81347673D01*
X178468715Y-81384196D01*
X178564677Y-81505270D01*
X178721564Y-81638791D01*
X178901398Y-81739297D01*
X178906079Y-81740818D01*
X179092649Y-81801439D01*
X179092655Y-81801440D01*
X179097329Y-81802959D01*
X179102211Y-81803541D01*
X179102215Y-81803542D01*
X179277937Y-81824494D01*
X179301894Y-81827351D01*
X179306795Y-81826974D01*
X179306798Y-81826974D01*
X179417112Y-81818486D01*
X179507300Y-81811546D01*
X179512036Y-81810224D01*
X179512040Y-81810223D01*
X179700983Y-81757469D01*
X179705725Y-81756145D01*
X179889610Y-81663258D01*
X180051951Y-81536424D01*
X180186564Y-81380472D01*
X180243640Y-81280000D01*
X180285893Y-81205622D01*
X180285894Y-81205620D01*
X180288323Y-81201344D01*
X180353351Y-81005863D01*
X180353967Y-81000988D01*
X180353968Y-81000983D01*
X180378819Y-80804257D01*
X180379171Y-80801474D01*
X180379583Y-80772000D01*
X180359480Y-80566970D01*
X180358058Y-80562260D01*
X180358057Y-80562255D01*
X180323162Y-80446681D01*
X180299935Y-80369749D01*
X180203218Y-80187849D01*
X180073011Y-80028200D01*
X179981450Y-79952454D01*
X179918063Y-79900015D01*
X179918058Y-79900012D01*
X179914275Y-79896882D01*
X179868767Y-79872276D01*
X179737378Y-79801234D01*
X179737374Y-79801232D01*
X179733055Y-79798897D01*
X179536254Y-79737977D01*
X179331369Y-79716443D01*
X179326468Y-79716889D01*
X179326465Y-79716889D01*
X179131101Y-79734668D01*
X179131098Y-79734668D01*
X179126203Y-79735114D01*
X179121489Y-79736501D01*
X179121486Y-79736502D01*
X178991086Y-79774881D01*
X178928572Y-79793280D01*
X178924212Y-79795559D01*
X178924208Y-79795561D01*
X178856807Y-79830798D01*
X178746002Y-79888726D01*
X178742170Y-79891807D01*
X178593176Y-80011601D01*
X178585447Y-80017815D01*
X178453024Y-80175630D01*
X178450657Y-80179936D01*
X178450654Y-80179940D01*
X178443916Y-80192197D01*
X178353776Y-80356162D01*
X178291484Y-80552532D01*
X178290935Y-80557423D01*
X178290935Y-80557425D01*
X178289865Y-80566970D01*
X178268520Y-80757262D01*
X177838138Y-80757262D01*
X177819480Y-80566970D01*
X177818058Y-80562260D01*
X177818057Y-80562255D01*
X177783162Y-80446681D01*
X177759935Y-80369749D01*
X177663218Y-80187849D01*
X177533011Y-80028200D01*
X177441450Y-79952454D01*
X177378063Y-79900015D01*
X177378058Y-79900012D01*
X177374275Y-79896882D01*
X177328767Y-79872276D01*
X177197378Y-79801234D01*
X177197374Y-79801232D01*
X177193055Y-79798897D01*
X176996254Y-79737977D01*
X176791369Y-79716443D01*
X176786468Y-79716889D01*
X176786465Y-79716889D01*
X176591101Y-79734668D01*
X176591098Y-79734668D01*
X176586203Y-79735114D01*
X176581489Y-79736501D01*
X176581486Y-79736502D01*
X176451086Y-79774881D01*
X176388572Y-79793280D01*
X176384212Y-79795559D01*
X176384208Y-79795561D01*
X176316807Y-79830798D01*
X176206002Y-79888726D01*
X176202170Y-79891807D01*
X176053176Y-80011601D01*
X176045447Y-80017815D01*
X175913024Y-80175630D01*
X175910657Y-80179936D01*
X175910654Y-80179940D01*
X175903916Y-80192197D01*
X175813776Y-80356162D01*
X175751484Y-80552532D01*
X175750935Y-80557423D01*
X175750935Y-80557425D01*
X175749865Y-80566970D01*
X175728520Y-80757262D01*
X175298138Y-80757262D01*
X175279480Y-80566970D01*
X175278058Y-80562260D01*
X175278057Y-80562255D01*
X175243162Y-80446681D01*
X175219935Y-80369749D01*
X175215535Y-80361473D01*
X175215530Y-80361463D01*
X175204737Y-80300232D01*
X175233222Y-80243104D01*
X175439520Y-80036806D01*
X175445991Y-80030877D01*
X175468964Y-80011601D01*
X175468966Y-80011599D01*
X175475705Y-80005944D01*
X175480104Y-79998324D01*
X175480106Y-79998322D01*
X175495103Y-79972346D01*
X175499819Y-79964944D01*
X175517016Y-79940384D01*
X175517017Y-79940383D01*
X175522065Y-79933173D01*
X175524343Y-79924673D01*
X175526749Y-79919513D01*
X175528699Y-79914154D01*
X175533099Y-79906534D01*
X175534627Y-79897869D01*
X175534628Y-79897866D01*
X175539837Y-79868329D01*
X175541736Y-79859764D01*
X175549497Y-79830798D01*
X175549497Y-79830796D01*
X175551775Y-79822295D01*
X175549933Y-79801234D01*
X175548394Y-79783648D01*
X175548011Y-79774881D01*
X175548011Y-72859077D01*
X175548394Y-72850309D01*
X175551007Y-72820444D01*
X175551774Y-72811677D01*
X175544934Y-72786151D01*
X175541735Y-72774211D01*
X175539835Y-72765642D01*
X175534627Y-72736105D01*
X175533099Y-72727439D01*
X175528698Y-72719817D01*
X175526752Y-72714469D01*
X175524342Y-72709300D01*
X175522064Y-72700800D01*
X175515705Y-72691718D01*
X175499818Y-72669028D01*
X175495105Y-72661629D01*
X175480107Y-72635652D01*
X175480104Y-72635649D01*
X175475705Y-72628029D01*
X175445989Y-72603094D01*
X175439519Y-72597165D01*
X175140341Y-72297987D01*
X175112115Y-72242589D01*
X175111737Y-72213725D01*
X175122172Y-72134463D01*
X175113324Y-72067255D01*
X175102395Y-71984239D01*
X175102394Y-71984237D01*
X175101534Y-71977701D01*
X175041026Y-71831622D01*
X174944772Y-71706181D01*
X174819331Y-71609927D01*
X174673252Y-71549419D01*
X174666716Y-71548559D01*
X174666714Y-71548558D01*
X174523030Y-71529642D01*
X174516490Y-71528781D01*
X174509950Y-71529642D01*
X174366266Y-71548558D01*
X174366264Y-71548559D01*
X174359728Y-71549419D01*
X174213649Y-71609927D01*
X174088208Y-71706181D01*
X173991954Y-71831622D01*
X173931446Y-71977701D01*
X173930586Y-71984237D01*
X173930585Y-71984239D01*
X173919656Y-72067255D01*
X173910808Y-72134463D01*
X173911669Y-72141002D01*
X173911669Y-72141003D01*
X173925792Y-72248276D01*
X173931446Y-72291225D01*
X173991954Y-72437304D01*
X174088208Y-72562745D01*
X174213649Y-72658999D01*
X174359728Y-72719507D01*
X174366264Y-72720367D01*
X174366266Y-72720368D01*
X174509950Y-72739284D01*
X174516490Y-72740145D01*
X174595749Y-72729710D01*
X174656881Y-72741040D01*
X174680014Y-72758314D01*
X174867546Y-72945846D01*
X174895772Y-73001244D01*
X174897011Y-73016981D01*
X174897011Y-79616993D01*
X174877798Y-79676124D01*
X174867546Y-79688128D01*
X174773399Y-79782275D01*
X174718001Y-79810501D01*
X174662790Y-79801071D01*
X174661918Y-79803144D01*
X174657387Y-79801239D01*
X174653055Y-79798897D01*
X174648351Y-79797441D01*
X174648349Y-79797440D01*
X174575472Y-79774881D01*
X174456254Y-79737977D01*
X174251369Y-79716443D01*
X174246468Y-79716889D01*
X174246465Y-79716889D01*
X174051101Y-79734668D01*
X174051098Y-79734668D01*
X174046203Y-79735114D01*
X174041489Y-79736501D01*
X174041486Y-79736502D01*
X173911086Y-79774881D01*
X173848572Y-79793280D01*
X173844212Y-79795559D01*
X173844208Y-79795561D01*
X173776807Y-79830798D01*
X173666002Y-79888726D01*
X173662170Y-79891807D01*
X173513176Y-80011601D01*
X173505447Y-80017815D01*
X173373024Y-80175630D01*
X173370657Y-80179936D01*
X173370654Y-80179940D01*
X173363916Y-80192197D01*
X173273776Y-80356162D01*
X173211484Y-80552532D01*
X173210935Y-80557423D01*
X173210935Y-80557425D01*
X173209865Y-80566970D01*
X173188520Y-80757262D01*
X172758138Y-80757262D01*
X172739480Y-80566970D01*
X172738058Y-80562260D01*
X172738057Y-80562255D01*
X172703162Y-80446681D01*
X172679935Y-80369749D01*
X172583218Y-80187849D01*
X172501107Y-80087171D01*
X172478623Y-80029205D01*
X172494505Y-79969093D01*
X172542687Y-79929797D01*
X172579066Y-79922989D01*
X173105293Y-79922989D01*
X173114060Y-79923372D01*
X173152704Y-79926753D01*
X173162315Y-79924178D01*
X173190181Y-79916711D01*
X173198750Y-79914811D01*
X173205852Y-79913559D01*
X173236942Y-79908077D01*
X173244566Y-79903675D01*
X173249927Y-79901724D01*
X173255080Y-79899321D01*
X173263581Y-79897043D01*
X173275459Y-79888726D01*
X173295352Y-79874797D01*
X173302754Y-79870081D01*
X173328727Y-79855086D01*
X173328730Y-79855083D01*
X173336352Y-79850683D01*
X173361291Y-79820962D01*
X173367220Y-79814492D01*
X174214535Y-78967178D01*
X174221006Y-78961249D01*
X174243969Y-78941981D01*
X174243970Y-78941980D01*
X174250714Y-78936321D01*
X174255116Y-78928696D01*
X174255118Y-78928694D01*
X174270114Y-78902721D01*
X174274827Y-78895322D01*
X174292026Y-78870758D01*
X174297073Y-78863550D01*
X174299351Y-78855050D01*
X174301761Y-78849881D01*
X174303707Y-78844533D01*
X174308108Y-78836911D01*
X174314844Y-78798708D01*
X174316744Y-78790139D01*
X174324505Y-78761174D01*
X174326783Y-78752673D01*
X174323403Y-78714038D01*
X174323020Y-78705270D01*
X174323020Y-74456738D01*
X174323403Y-74447970D01*
X174326017Y-74418094D01*
X174326784Y-74409327D01*
X174324209Y-74399716D01*
X174316742Y-74371850D01*
X174314842Y-74363281D01*
X174309636Y-74333757D01*
X174308108Y-74325089D01*
X174303706Y-74317465D01*
X174301755Y-74312104D01*
X174299352Y-74306951D01*
X174297074Y-74298450D01*
X174292025Y-74291239D01*
X174274828Y-74266679D01*
X174270112Y-74259277D01*
X174255117Y-74233304D01*
X174255114Y-74233301D01*
X174250714Y-74225679D01*
X174220992Y-74200739D01*
X174214522Y-74194810D01*
X173582965Y-73563253D01*
X173554739Y-73507855D01*
X173553500Y-73492118D01*
X173553500Y-71291801D01*
X173572713Y-71232670D01*
X173582965Y-71220666D01*
X174800280Y-70003351D01*
X174855678Y-69975125D01*
X174884543Y-69974747D01*
X174963805Y-69985182D01*
X174970345Y-69984321D01*
X175114029Y-69965405D01*
X175114031Y-69965404D01*
X175120567Y-69964544D01*
X175266646Y-69904036D01*
X175392087Y-69807782D01*
X175488341Y-69682341D01*
X175548849Y-69536262D01*
X175557989Y-69466841D01*
X175568626Y-69386040D01*
X175569487Y-69379500D01*
X175559830Y-69306146D01*
X175549710Y-69229276D01*
X175549709Y-69229274D01*
X175548849Y-69222738D01*
X175488341Y-69076659D01*
X175392087Y-68951218D01*
X175266646Y-68854964D01*
X175120567Y-68794456D01*
X175114031Y-68793596D01*
X175114029Y-68793595D01*
X174970345Y-68774679D01*
X174963805Y-68773818D01*
X174957265Y-68774679D01*
X174813581Y-68793595D01*
X174813579Y-68793596D01*
X174807043Y-68794456D01*
X174660964Y-68854964D01*
X174551158Y-68939221D01*
X174492552Y-68959974D01*
X174432938Y-68942315D01*
X174410108Y-68920650D01*
X174397936Y-68904787D01*
X174397933Y-68904784D01*
X174393920Y-68899554D01*
X174268479Y-68803300D01*
X174122400Y-68742792D01*
X174115864Y-68741932D01*
X174115862Y-68741931D01*
X173972178Y-68723015D01*
X173965638Y-68722154D01*
X173959098Y-68723015D01*
X173815414Y-68741931D01*
X173815412Y-68741932D01*
X173808876Y-68742792D01*
X173662797Y-68803300D01*
X173537356Y-68899554D01*
X173441102Y-69024995D01*
X173380594Y-69171074D01*
X173379734Y-69177610D01*
X173379733Y-69177612D01*
X173361748Y-69314224D01*
X173359956Y-69327836D01*
X173370391Y-69407097D01*
X173359061Y-69468228D01*
X173341787Y-69491361D01*
X172561471Y-70271677D01*
X172555000Y-70277606D01*
X172532027Y-70296882D01*
X172532025Y-70296884D01*
X172525286Y-70302539D01*
X172520887Y-70310159D01*
X172520885Y-70310161D01*
X172505888Y-70336137D01*
X172501172Y-70343539D01*
X172485796Y-70365499D01*
X172478926Y-70375310D01*
X172476648Y-70383811D01*
X172474245Y-70388964D01*
X172472294Y-70394325D01*
X172467892Y-70401949D01*
X172465578Y-70415073D01*
X172461158Y-70440141D01*
X172459258Y-70448710D01*
X172457491Y-70455306D01*
X172449216Y-70486187D01*
X172449983Y-70494954D01*
X172452597Y-70524830D01*
X172452980Y-70533598D01*
X172452980Y-73836207D01*
X172452597Y-73844974D01*
X172449216Y-73883618D01*
X172451494Y-73892119D01*
X172459258Y-73921095D01*
X172461158Y-73929664D01*
X172467892Y-73967856D01*
X172472294Y-73975480D01*
X172474245Y-73980841D01*
X172476648Y-73985994D01*
X172478926Y-73994495D01*
X172483974Y-74001705D01*
X172483975Y-74001706D01*
X172501172Y-74026266D01*
X172505888Y-74033668D01*
X172520883Y-74059641D01*
X172520886Y-74059644D01*
X172525286Y-74067266D01*
X172532029Y-74072924D01*
X172555008Y-74092206D01*
X172561478Y-74098135D01*
X173193035Y-74729692D01*
X173221261Y-74785090D01*
X173222500Y-74800827D01*
X173222500Y-78243504D01*
X173203287Y-78302635D01*
X173193035Y-78314639D01*
X172714670Y-78793004D01*
X172659272Y-78821230D01*
X172643535Y-78822469D01*
X165726635Y-78822469D01*
X165717867Y-78822086D01*
X165687991Y-78819472D01*
X165679224Y-78818705D01*
X165670723Y-78820983D01*
X165641747Y-78828747D01*
X165633178Y-78830647D01*
X165626076Y-78831899D01*
X165594986Y-78837381D01*
X165587362Y-78841783D01*
X165582001Y-78843734D01*
X165576848Y-78846137D01*
X165568347Y-78848415D01*
X165561137Y-78853463D01*
X165561136Y-78853464D01*
X165536576Y-78870661D01*
X165529174Y-78875377D01*
X165503201Y-78890372D01*
X165503198Y-78890375D01*
X165495576Y-78894775D01*
X165479200Y-78914290D01*
X165470636Y-78924497D01*
X165464707Y-78930967D01*
X164613399Y-79782275D01*
X164558001Y-79810501D01*
X164502790Y-79801071D01*
X164501918Y-79803144D01*
X164497387Y-79801239D01*
X164493055Y-79798897D01*
X164488351Y-79797441D01*
X164488349Y-79797440D01*
X164415472Y-79774881D01*
X164296254Y-79737977D01*
X164091369Y-79716443D01*
X164086468Y-79716889D01*
X164086465Y-79716889D01*
X163891101Y-79734668D01*
X163891098Y-79734668D01*
X163886203Y-79735114D01*
X163881489Y-79736501D01*
X163881486Y-79736502D01*
X163751086Y-79774881D01*
X163688572Y-79793280D01*
X163684212Y-79795559D01*
X163684208Y-79795561D01*
X163616807Y-79830798D01*
X163506002Y-79888726D01*
X163502170Y-79891807D01*
X163353176Y-80011601D01*
X163345447Y-80017815D01*
X163213024Y-80175630D01*
X163210657Y-80179936D01*
X163210654Y-80179940D01*
X163203916Y-80192197D01*
X163113776Y-80356162D01*
X163051484Y-80552532D01*
X163050935Y-80557423D01*
X163050935Y-80557425D01*
X163049865Y-80566970D01*
X163028520Y-80757262D01*
X160058138Y-80757262D01*
X160039480Y-80566970D01*
X160038058Y-80562260D01*
X160038057Y-80562255D01*
X160003162Y-80446681D01*
X159979935Y-80369749D01*
X159883218Y-80187849D01*
X159753011Y-80028200D01*
X159661450Y-79952454D01*
X159598063Y-79900015D01*
X159598058Y-79900012D01*
X159594275Y-79896882D01*
X159548767Y-79872276D01*
X159417378Y-79801234D01*
X159417374Y-79801232D01*
X159413055Y-79798897D01*
X159216254Y-79737977D01*
X159011369Y-79716443D01*
X159006468Y-79716889D01*
X159006465Y-79716889D01*
X158811101Y-79734668D01*
X158811098Y-79734668D01*
X158806203Y-79735114D01*
X158801489Y-79736501D01*
X158801486Y-79736502D01*
X158671086Y-79774881D01*
X158608572Y-79793280D01*
X158604212Y-79795559D01*
X158604208Y-79795561D01*
X158536807Y-79830798D01*
X158426002Y-79888726D01*
X158422170Y-79891807D01*
X158273176Y-80011601D01*
X158265447Y-80017815D01*
X158133024Y-80175630D01*
X158130657Y-80179936D01*
X158130654Y-80179940D01*
X158123916Y-80192197D01*
X158033776Y-80356162D01*
X157971484Y-80552532D01*
X157970935Y-80557423D01*
X157970935Y-80557425D01*
X157969865Y-80566970D01*
X157948520Y-80757262D01*
X150495500Y-80757262D01*
X150495500Y-76283105D01*
X151707031Y-76283105D01*
X151746612Y-76447968D01*
X151749392Y-76453354D01*
X151749393Y-76453357D01*
X151803288Y-76557776D01*
X151824375Y-76598631D01*
X151828357Y-76603196D01*
X151828358Y-76603197D01*
X151887756Y-76671286D01*
X151935831Y-76726396D01*
X151940794Y-76729884D01*
X151940795Y-76729885D01*
X152058136Y-76812353D01*
X152074547Y-76823887D01*
X152080197Y-76826090D01*
X152080199Y-76826091D01*
X152226857Y-76883271D01*
X152226859Y-76883271D01*
X152232513Y-76885476D01*
X152361826Y-76902500D01*
X153450516Y-76902500D01*
X153529418Y-76892952D01*
X153570298Y-76888005D01*
X153570300Y-76888004D01*
X153576320Y-76887276D01*
X153581990Y-76885133D01*
X153581992Y-76885133D01*
X153729255Y-76829487D01*
X153729257Y-76829486D01*
X153734923Y-76827345D01*
X153874651Y-76731312D01*
X153987440Y-76604721D01*
X153990665Y-76598631D01*
X154063937Y-76460243D01*
X154066776Y-76454881D01*
X154108081Y-76290441D01*
X154108120Y-76283105D01*
X154108338Y-76241501D01*
X155833630Y-76241501D01*
X155834620Y-76247262D01*
X155843050Y-76296319D01*
X155862280Y-76408233D01*
X155928518Y-76563902D01*
X155931987Y-76568615D01*
X155931987Y-76568616D01*
X156025325Y-76695449D01*
X156025328Y-76695452D01*
X156028791Y-76700158D01*
X156033246Y-76703942D01*
X156033247Y-76703944D01*
X156065461Y-76731312D01*
X156157720Y-76809692D01*
X156162930Y-76812352D01*
X156162931Y-76812353D01*
X156196486Y-76829487D01*
X156308389Y-76886627D01*
X156314065Y-76888016D01*
X156314068Y-76888017D01*
X156373256Y-76902500D01*
X156472717Y-76926838D01*
X156477186Y-76927115D01*
X156477191Y-76927116D01*
X156481481Y-76927382D01*
X156483388Y-76927500D01*
X157655363Y-76927500D01*
X157658268Y-76927161D01*
X157658273Y-76927161D01*
X157775231Y-76913525D01*
X157775232Y-76913525D01*
X157781037Y-76912848D01*
X157786529Y-76910854D01*
X157786531Y-76910854D01*
X157854264Y-76886268D01*
X157940061Y-76855125D01*
X157944951Y-76851919D01*
X157944953Y-76851918D01*
X158076646Y-76765576D01*
X158076648Y-76765574D01*
X158081540Y-76762367D01*
X158197885Y-76639550D01*
X158282856Y-76493262D01*
X158331895Y-76331350D01*
X158334774Y-76284953D01*
X158342008Y-76168334D01*
X158342370Y-76162499D01*
X158333961Y-76113559D01*
X158314710Y-76001527D01*
X158314709Y-76001525D01*
X158313720Y-75995767D01*
X158272022Y-75897771D01*
X158249774Y-75845484D01*
X158249773Y-75845482D01*
X158247482Y-75840098D01*
X158225881Y-75810745D01*
X158150675Y-75708551D01*
X158150672Y-75708548D01*
X158147209Y-75703842D01*
X158132322Y-75691194D01*
X158022739Y-75598096D01*
X158022738Y-75598095D01*
X158018280Y-75594308D01*
X157997312Y-75583601D01*
X157872820Y-75520033D01*
X157872821Y-75520033D01*
X157867611Y-75517373D01*
X157861935Y-75515984D01*
X157861932Y-75515983D01*
X157760455Y-75491152D01*
X157703283Y-75477162D01*
X157698814Y-75476885D01*
X157698809Y-75476884D01*
X157694519Y-75476618D01*
X157692612Y-75476500D01*
X156896790Y-75476500D01*
X156837659Y-75457287D01*
X156801114Y-75406987D01*
X156801114Y-75344813D01*
X156837659Y-75294513D01*
X156858289Y-75282959D01*
X156878233Y-75274698D01*
X156883464Y-75270684D01*
X156883466Y-75270683D01*
X156993220Y-75186465D01*
X156998451Y-75182451D01*
X157034740Y-75135159D01*
X157086683Y-75067466D01*
X157086684Y-75067464D01*
X157090698Y-75062233D01*
X157148687Y-74922236D01*
X157150175Y-74910939D01*
X157167605Y-74778540D01*
X157168466Y-74772000D01*
X157158004Y-74692536D01*
X157149548Y-74628302D01*
X157149548Y-74628300D01*
X157148687Y-74621764D01*
X157090698Y-74481767D01*
X157082315Y-74470841D01*
X157002465Y-74366780D01*
X156998451Y-74361549D01*
X156950936Y-74325089D01*
X156883466Y-74273317D01*
X156883464Y-74273316D01*
X156878233Y-74269302D01*
X156872140Y-74266778D01*
X156872138Y-74266777D01*
X156824566Y-74247072D01*
X156738236Y-74211313D01*
X156731700Y-74210453D01*
X156731698Y-74210452D01*
X156628982Y-74196929D01*
X156628975Y-74196929D01*
X156625720Y-74196500D01*
X156550280Y-74196500D01*
X156547025Y-74196929D01*
X156547018Y-74196929D01*
X156444302Y-74210452D01*
X156444300Y-74210453D01*
X156437764Y-74211313D01*
X156351434Y-74247072D01*
X156303862Y-74266777D01*
X156303860Y-74266778D01*
X156297767Y-74269302D01*
X156292536Y-74273316D01*
X156292534Y-74273317D01*
X156225064Y-74325089D01*
X156177549Y-74361549D01*
X156173535Y-74366780D01*
X156093686Y-74470841D01*
X156085302Y-74481767D01*
X156027313Y-74621764D01*
X156026452Y-74628300D01*
X156026452Y-74628302D01*
X156017996Y-74692536D01*
X156007534Y-74772000D01*
X156008395Y-74778540D01*
X156025826Y-74910939D01*
X156027313Y-74922236D01*
X156085302Y-75062233D01*
X156089316Y-75067464D01*
X156089317Y-75067466D01*
X156141260Y-75135159D01*
X156177549Y-75182451D01*
X156182780Y-75186465D01*
X156292534Y-75270683D01*
X156292536Y-75270684D01*
X156297767Y-75274698D01*
X156303860Y-75277222D01*
X156303862Y-75277223D01*
X156382358Y-75309737D01*
X156429636Y-75350116D01*
X156444150Y-75410572D01*
X156420357Y-75468014D01*
X156378185Y-75497242D01*
X156235939Y-75548875D01*
X156231049Y-75552081D01*
X156231047Y-75552082D01*
X156099354Y-75638424D01*
X156099352Y-75638426D01*
X156094460Y-75641633D01*
X155978115Y-75764450D01*
X155975180Y-75769503D01*
X155908638Y-75884064D01*
X155893144Y-75910738D01*
X155878010Y-75960706D01*
X155852879Y-76043682D01*
X155844105Y-76072650D01*
X155843743Y-76078479D01*
X155843743Y-76078481D01*
X155840736Y-76126959D01*
X155833630Y-76241501D01*
X154108338Y-76241501D01*
X154108641Y-76183464D01*
X154108969Y-76120895D01*
X154090432Y-76043682D01*
X154071036Y-75962895D01*
X154069388Y-75956032D01*
X154065464Y-75948428D01*
X153994405Y-75810755D01*
X153991625Y-75805369D01*
X153987642Y-75800803D01*
X153884156Y-75682174D01*
X153884154Y-75682173D01*
X153880169Y-75677604D01*
X153873175Y-75672688D01*
X153746416Y-75583601D01*
X153741453Y-75580113D01*
X153735803Y-75577910D01*
X153735801Y-75577909D01*
X153589143Y-75520729D01*
X153589141Y-75520729D01*
X153583487Y-75518524D01*
X153454174Y-75501500D01*
X152365484Y-75501500D01*
X152286582Y-75511048D01*
X152245702Y-75515995D01*
X152245700Y-75515996D01*
X152239680Y-75516724D01*
X152234010Y-75518867D01*
X152234008Y-75518867D01*
X152086745Y-75574513D01*
X152086743Y-75574514D01*
X152081077Y-75576655D01*
X151941349Y-75672688D01*
X151828560Y-75799279D01*
X151825722Y-75804639D01*
X151790957Y-75870299D01*
X151749224Y-75949119D01*
X151707919Y-76113559D01*
X151707887Y-76119616D01*
X151707887Y-76119618D01*
X151707849Y-76126959D01*
X151707031Y-76283105D01*
X150495500Y-76283105D01*
X150495500Y-71042074D01*
X154951149Y-71042074D01*
X154954453Y-71066354D01*
X154955070Y-71070885D01*
X154955989Y-71084451D01*
X154955989Y-71654046D01*
X154955692Y-71658089D01*
X154954064Y-71662831D01*
X154954412Y-71672108D01*
X154954412Y-71672110D01*
X154955918Y-71712222D01*
X154955989Y-71715996D01*
X154955989Y-71735437D01*
X154956816Y-71739881D01*
X154957147Y-71744985D01*
X154957914Y-71765416D01*
X154957915Y-71765419D01*
X154958263Y-71774697D01*
X154961929Y-71783229D01*
X154961929Y-71783231D01*
X154962737Y-71785112D01*
X154969205Y-71806401D01*
X154971280Y-71817542D01*
X154979959Y-71831622D01*
X154985194Y-71840115D01*
X154991986Y-71853190D01*
X155002453Y-71877552D01*
X155006467Y-71882438D01*
X155010698Y-71886669D01*
X155025028Y-71904798D01*
X155025145Y-71904928D01*
X155030021Y-71912837D01*
X155037414Y-71918458D01*
X155037415Y-71918460D01*
X155053165Y-71930436D01*
X155063408Y-71939379D01*
X155342784Y-72218755D01*
X155371010Y-72274153D01*
X155371388Y-72303018D01*
X155358818Y-72398500D01*
X155379456Y-72555262D01*
X155439964Y-72701341D01*
X155536218Y-72826782D01*
X155661659Y-72923036D01*
X155807738Y-72983544D01*
X155814274Y-72984404D01*
X155814276Y-72984405D01*
X155957960Y-73003321D01*
X155964500Y-73004182D01*
X155971040Y-73003321D01*
X156114724Y-72984405D01*
X156114726Y-72984404D01*
X156121262Y-72983544D01*
X156267341Y-72923036D01*
X156392782Y-72826782D01*
X156489036Y-72701341D01*
X156549544Y-72555262D01*
X156570182Y-72398500D01*
X156556059Y-72291225D01*
X156550405Y-72248276D01*
X156550404Y-72248274D01*
X156549544Y-72241738D01*
X156489036Y-72095659D01*
X156392782Y-71970218D01*
X156372035Y-71954299D01*
X156336821Y-71903062D01*
X156338448Y-71840909D01*
X156372035Y-71794680D01*
X156384282Y-71785282D01*
X156480536Y-71659841D01*
X156541044Y-71513762D01*
X156544697Y-71486020D01*
X156546777Y-71470217D01*
X156573544Y-71414100D01*
X156628184Y-71384433D01*
X156646516Y-71382749D01*
X159243908Y-71382749D01*
X159303039Y-71401962D01*
X159315043Y-71412214D01*
X165518529Y-77615701D01*
X165521174Y-77618765D01*
X165523376Y-77623270D01*
X165530188Y-77629589D01*
X165559595Y-77656868D01*
X165562314Y-77659486D01*
X165576077Y-77673249D01*
X165579807Y-77675807D01*
X165583653Y-77679185D01*
X165598634Y-77693083D01*
X165598638Y-77693085D01*
X165605447Y-77699402D01*
X165614075Y-77702844D01*
X165615970Y-77703600D01*
X165635600Y-77714081D01*
X165644947Y-77720493D01*
X165668704Y-77726131D01*
X165670749Y-77726616D01*
X165684800Y-77731060D01*
X165709423Y-77740884D01*
X165715716Y-77741501D01*
X165721696Y-77741501D01*
X165744664Y-77744189D01*
X165744834Y-77744197D01*
X165753867Y-77746341D01*
X165782678Y-77742420D01*
X165796244Y-77741501D01*
X171656398Y-77741501D01*
X171715529Y-77760714D01*
X171752074Y-77811014D01*
X171756137Y-77828969D01*
X171762956Y-77880762D01*
X171823464Y-78026841D01*
X171919718Y-78152282D01*
X172045159Y-78248536D01*
X172191238Y-78309044D01*
X172197774Y-78309904D01*
X172197776Y-78309905D01*
X172341460Y-78328821D01*
X172348000Y-78329682D01*
X172354540Y-78328821D01*
X172498224Y-78309905D01*
X172498226Y-78309904D01*
X172504762Y-78309044D01*
X172650841Y-78248536D01*
X172776282Y-78152282D01*
X172872536Y-78026841D01*
X172933044Y-77880762D01*
X172942227Y-77811014D01*
X172952821Y-77730540D01*
X172953682Y-77724000D01*
X172945189Y-77659486D01*
X172933905Y-77573776D01*
X172933904Y-77573774D01*
X172933044Y-77567238D01*
X172872536Y-77421159D01*
X172776282Y-77295718D01*
X172771047Y-77291701D01*
X172766481Y-77287135D01*
X172738255Y-77231737D01*
X172747981Y-77170329D01*
X172766481Y-77144865D01*
X172771047Y-77140299D01*
X172776282Y-77136282D01*
X172872536Y-77010841D01*
X172933044Y-76864762D01*
X172938885Y-76820399D01*
X172952821Y-76714540D01*
X172953682Y-76708000D01*
X172945229Y-76643792D01*
X172933905Y-76557776D01*
X172933904Y-76557774D01*
X172933044Y-76551238D01*
X172872536Y-76405159D01*
X172776282Y-76279718D01*
X172650841Y-76183464D01*
X172504762Y-76122956D01*
X172498226Y-76122096D01*
X172498224Y-76122095D01*
X172388736Y-76107681D01*
X172358907Y-76103754D01*
X172302790Y-76076988D01*
X172273123Y-76022348D01*
X172281238Y-75960706D01*
X172310796Y-75924204D01*
X172321055Y-75916332D01*
X172386282Y-75866282D01*
X172482536Y-75740841D01*
X172543044Y-75594762D01*
X172544514Y-75583601D01*
X172562821Y-75444540D01*
X172563682Y-75438000D01*
X172551414Y-75344813D01*
X172543905Y-75287776D01*
X172543904Y-75287774D01*
X172543044Y-75281238D01*
X172482536Y-75135159D01*
X172386282Y-75009718D01*
X172260841Y-74913464D01*
X172114762Y-74852956D01*
X172108226Y-74852096D01*
X172108224Y-74852095D01*
X171964540Y-74833179D01*
X171958000Y-74832318D01*
X171951460Y-74833179D01*
X171807776Y-74852095D01*
X171807774Y-74852096D01*
X171801238Y-74852956D01*
X171655159Y-74913464D01*
X171529718Y-75009718D01*
X171525701Y-75014953D01*
X171481052Y-75073141D01*
X171429813Y-75108357D01*
X171401241Y-75112500D01*
X166165497Y-75112500D01*
X166106366Y-75093287D01*
X166094362Y-75083035D01*
X165179327Y-74168000D01*
X167288318Y-74168000D01*
X167289179Y-74174540D01*
X167307290Y-74312104D01*
X167308956Y-74324762D01*
X167369464Y-74470841D01*
X167465718Y-74596282D01*
X167591159Y-74692536D01*
X167737238Y-74753044D01*
X167743774Y-74753904D01*
X167743776Y-74753905D01*
X167887460Y-74772821D01*
X167894000Y-74773682D01*
X167900540Y-74772821D01*
X168044224Y-74753905D01*
X168044226Y-74753904D01*
X168050762Y-74753044D01*
X168196841Y-74692536D01*
X168322282Y-74596282D01*
X168418536Y-74470841D01*
X168479044Y-74324762D01*
X168480711Y-74312104D01*
X168498821Y-74174540D01*
X168499682Y-74168000D01*
X168486420Y-74067266D01*
X168479905Y-74017776D01*
X168479904Y-74017774D01*
X168479044Y-74011238D01*
X168418536Y-73865159D01*
X168322282Y-73739718D01*
X168263811Y-73694852D01*
X168228597Y-73643614D01*
X168230224Y-73581461D01*
X168253919Y-73543907D01*
X169249102Y-72548724D01*
X170270477Y-71527350D01*
X170325873Y-71499125D01*
X170354738Y-71498747D01*
X170434000Y-71509182D01*
X170440540Y-71508321D01*
X170584224Y-71489405D01*
X170584226Y-71489404D01*
X170590762Y-71488544D01*
X170736841Y-71428036D01*
X170862282Y-71331782D01*
X170958536Y-71206341D01*
X171019044Y-71060262D01*
X171021439Y-71042074D01*
X171038821Y-70910040D01*
X171039682Y-70903500D01*
X171027238Y-70808979D01*
X171019905Y-70753276D01*
X171019904Y-70753274D01*
X171019044Y-70746738D01*
X170958536Y-70600659D01*
X170862282Y-70475218D01*
X170736841Y-70378964D01*
X170590762Y-70318456D01*
X170584226Y-70317596D01*
X170584224Y-70317595D01*
X170440540Y-70298679D01*
X170434000Y-70297818D01*
X170427460Y-70298679D01*
X170283776Y-70317595D01*
X170283774Y-70317596D01*
X170277238Y-70318456D01*
X170131159Y-70378964D01*
X170005718Y-70475218D01*
X169909464Y-70600659D01*
X169848956Y-70746738D01*
X169848096Y-70753274D01*
X169848095Y-70753276D01*
X169840762Y-70808979D01*
X169828318Y-70903500D01*
X169829179Y-70910040D01*
X169838753Y-70982759D01*
X169827423Y-71043892D01*
X169810152Y-71067021D01*
X168749251Y-72127923D01*
X167676991Y-73200183D01*
X167670520Y-73206112D01*
X167647547Y-73225388D01*
X167647545Y-73225390D01*
X167640806Y-73231045D01*
X167636407Y-73238665D01*
X167636405Y-73238667D01*
X167621408Y-73264643D01*
X167616692Y-73272045D01*
X167599639Y-73296400D01*
X167594446Y-73303816D01*
X167592168Y-73312317D01*
X167589765Y-73317470D01*
X167587814Y-73322831D01*
X167583412Y-73330455D01*
X167581884Y-73339123D01*
X167576678Y-73368647D01*
X167574778Y-73377216D01*
X167571357Y-73389984D01*
X167564736Y-73414693D01*
X167565503Y-73423460D01*
X167568117Y-73453336D01*
X167568500Y-73462104D01*
X167568500Y-73611241D01*
X167549287Y-73670372D01*
X167529141Y-73691052D01*
X167470953Y-73735701D01*
X167465718Y-73739718D01*
X167369464Y-73865159D01*
X167308956Y-74011238D01*
X167308096Y-74017774D01*
X167308095Y-74017776D01*
X167301580Y-74067266D01*
X167288318Y-74168000D01*
X165179327Y-74168000D01*
X160887811Y-69876485D01*
X160887809Y-69876482D01*
X160643851Y-69632524D01*
X160615625Y-69577126D01*
X160615247Y-69548262D01*
X160625682Y-69469000D01*
X160614760Y-69386040D01*
X160605905Y-69318776D01*
X160605904Y-69318774D01*
X160605044Y-69312238D01*
X160544536Y-69166159D01*
X160448282Y-69040718D01*
X160322841Y-68944464D01*
X160176762Y-68883956D01*
X160170226Y-68883096D01*
X160170224Y-68883095D01*
X160026540Y-68864179D01*
X160020000Y-68863318D01*
X160013460Y-68864179D01*
X159869776Y-68883095D01*
X159869774Y-68883096D01*
X159863238Y-68883956D01*
X159717159Y-68944464D01*
X159591718Y-69040718D01*
X159495464Y-69166159D01*
X159434956Y-69312238D01*
X159434096Y-69318774D01*
X159434095Y-69318776D01*
X159425240Y-69386040D01*
X159414318Y-69469000D01*
X159415179Y-69475539D01*
X159415179Y-69475540D01*
X159430945Y-69595292D01*
X159434956Y-69625762D01*
X159495464Y-69771841D01*
X159591718Y-69897282D01*
X159717159Y-69993536D01*
X159863238Y-70054044D01*
X159869774Y-70054904D01*
X159869776Y-70054905D01*
X160013460Y-70073821D01*
X160020000Y-70074682D01*
X160099259Y-70064247D01*
X160160391Y-70075577D01*
X160183524Y-70092851D01*
X160427482Y-70336809D01*
X160427484Y-70336810D01*
X160427488Y-70336814D01*
X165745689Y-75655016D01*
X165751618Y-75661487D01*
X165765142Y-75677604D01*
X165776545Y-75691194D01*
X165810145Y-75710593D01*
X165817526Y-75715295D01*
X165849316Y-75737554D01*
X165857817Y-75739832D01*
X165862979Y-75742239D01*
X165868332Y-75744187D01*
X165875955Y-75748588D01*
X165914171Y-75755327D01*
X165922712Y-75757221D01*
X165951692Y-75764986D01*
X165951696Y-75764986D01*
X165960193Y-75767263D01*
X165998828Y-75763883D01*
X166007596Y-75763500D01*
X171401241Y-75763500D01*
X171460372Y-75782713D01*
X171481052Y-75802859D01*
X171529718Y-75866282D01*
X171655159Y-75962536D01*
X171801238Y-76023044D01*
X171807774Y-76023904D01*
X171807776Y-76023905D01*
X171888392Y-76034518D01*
X171947093Y-76042246D01*
X172003210Y-76069012D01*
X172032877Y-76123652D01*
X172024762Y-76185294D01*
X171995205Y-76221795D01*
X171919718Y-76279718D01*
X171823464Y-76405159D01*
X171762956Y-76551238D01*
X171762096Y-76557774D01*
X171762095Y-76557776D01*
X171756137Y-76603031D01*
X171729370Y-76659148D01*
X171674730Y-76688815D01*
X171656398Y-76690499D01*
X166121340Y-76690499D01*
X166062209Y-76671286D01*
X166050205Y-76661034D01*
X159846723Y-70457552D01*
X159844076Y-70454486D01*
X159841873Y-70449979D01*
X159805639Y-70416367D01*
X159802921Y-70413750D01*
X159789171Y-70400000D01*
X159785441Y-70397441D01*
X159781610Y-70394077D01*
X159776522Y-70389357D01*
X159759802Y-70373847D01*
X159750675Y-70370206D01*
X159749273Y-70369646D01*
X159729651Y-70359168D01*
X159727965Y-70358012D01*
X159727962Y-70358011D01*
X159720302Y-70352756D01*
X159694501Y-70346633D01*
X159680450Y-70342189D01*
X159676844Y-70340750D01*
X159655826Y-70332365D01*
X159649533Y-70331748D01*
X159643553Y-70331748D01*
X159620585Y-70329060D01*
X159620415Y-70329052D01*
X159611382Y-70326908D01*
X159582571Y-70330829D01*
X159569005Y-70331748D01*
X156646516Y-70331748D01*
X156587385Y-70312535D01*
X156550840Y-70262235D01*
X156546777Y-70244280D01*
X156541905Y-70207273D01*
X156541904Y-70207271D01*
X156541044Y-70200735D01*
X156480536Y-70054656D01*
X156384282Y-69929215D01*
X156258841Y-69832961D01*
X156112762Y-69772453D01*
X156106226Y-69771593D01*
X156106224Y-69771592D01*
X155962540Y-69752676D01*
X155956000Y-69751815D01*
X155949460Y-69752676D01*
X155805776Y-69771592D01*
X155805774Y-69771593D01*
X155799238Y-69772453D01*
X155653159Y-69832961D01*
X155527718Y-69929215D01*
X155431464Y-70054656D01*
X155370956Y-70200735D01*
X155370096Y-70207271D01*
X155370095Y-70207273D01*
X155354345Y-70326908D01*
X155350318Y-70357497D01*
X155363491Y-70457552D01*
X155364866Y-70467998D01*
X155353536Y-70529131D01*
X155336262Y-70552264D01*
X155081793Y-70806733D01*
X155078727Y-70809380D01*
X155074220Y-70811583D01*
X155067901Y-70818395D01*
X155040609Y-70847816D01*
X155037991Y-70850535D01*
X155024241Y-70864285D01*
X155021682Y-70868015D01*
X155018326Y-70871837D01*
X154998088Y-70893654D01*
X154994647Y-70902279D01*
X154993887Y-70904183D01*
X154983409Y-70923805D01*
X154982253Y-70925491D01*
X154982252Y-70925494D01*
X154976997Y-70933154D01*
X154974853Y-70942190D01*
X154970874Y-70958956D01*
X154966430Y-70973006D01*
X154956606Y-70997630D01*
X154955989Y-71003923D01*
X154955989Y-71009903D01*
X154953301Y-71032871D01*
X154953293Y-71033041D01*
X154951149Y-71042074D01*
X150495500Y-71042074D01*
X150495500Y-67643105D01*
X151707031Y-67643105D01*
X151746612Y-67807968D01*
X151749392Y-67813354D01*
X151749393Y-67813357D01*
X151769990Y-67853262D01*
X151824375Y-67958631D01*
X151828357Y-67963196D01*
X151828358Y-67963197D01*
X151926355Y-68075533D01*
X151935831Y-68086396D01*
X151940794Y-68089884D01*
X151940795Y-68089885D01*
X152058136Y-68172353D01*
X152074547Y-68183887D01*
X152080197Y-68186090D01*
X152080199Y-68186091D01*
X152226857Y-68243271D01*
X152226859Y-68243271D01*
X152232513Y-68245476D01*
X152361826Y-68262500D01*
X153450516Y-68262500D01*
X153529418Y-68252952D01*
X153570298Y-68248005D01*
X153570300Y-68248004D01*
X153576320Y-68247276D01*
X153581990Y-68245133D01*
X153581992Y-68245133D01*
X153729255Y-68189487D01*
X153729257Y-68189486D01*
X153734923Y-68187345D01*
X153874651Y-68091312D01*
X153987440Y-67964721D01*
X153990665Y-67958631D01*
X154063937Y-67820243D01*
X154066776Y-67814881D01*
X154108081Y-67650441D01*
X154108120Y-67643105D01*
X154108338Y-67601501D01*
X155833630Y-67601501D01*
X155834620Y-67607262D01*
X155858027Y-67743480D01*
X155862280Y-67768233D01*
X155892168Y-67838475D01*
X155917377Y-67897718D01*
X155928518Y-67923902D01*
X155931987Y-67928615D01*
X155931987Y-67928616D01*
X156025325Y-68055449D01*
X156025328Y-68055452D01*
X156028791Y-68060158D01*
X156033246Y-68063942D01*
X156033247Y-68063944D01*
X156092181Y-68114012D01*
X156157720Y-68169692D01*
X156162930Y-68172352D01*
X156162931Y-68172353D01*
X156196486Y-68189487D01*
X156308389Y-68246627D01*
X156314065Y-68248016D01*
X156314068Y-68248017D01*
X156343968Y-68255333D01*
X156371485Y-68262067D01*
X156424354Y-68294783D01*
X156447896Y-68352327D01*
X156433119Y-68412720D01*
X156386071Y-68452725D01*
X156303862Y-68486777D01*
X156303860Y-68486778D01*
X156297767Y-68489302D01*
X156292536Y-68493316D01*
X156292534Y-68493317D01*
X156192386Y-68570164D01*
X156177549Y-68581549D01*
X156173535Y-68586780D01*
X156090076Y-68695546D01*
X156085302Y-68701767D01*
X156082778Y-68707860D01*
X156082777Y-68707862D01*
X156068665Y-68741931D01*
X156027313Y-68841764D01*
X156026452Y-68848300D01*
X156026452Y-68848302D01*
X156016927Y-68920650D01*
X156007534Y-68992000D01*
X156008395Y-68998540D01*
X156018680Y-69076659D01*
X156027313Y-69142236D01*
X156058135Y-69216646D01*
X156081885Y-69273983D01*
X156085302Y-69282233D01*
X156089316Y-69287464D01*
X156089317Y-69287466D01*
X156158401Y-69377497D01*
X156177549Y-69402451D01*
X156182780Y-69406465D01*
X156292534Y-69490683D01*
X156292536Y-69490684D01*
X156297767Y-69494698D01*
X156303860Y-69497222D01*
X156303862Y-69497223D01*
X156351434Y-69516928D01*
X156437764Y-69552687D01*
X156444300Y-69553547D01*
X156444302Y-69553548D01*
X156547018Y-69567071D01*
X156547025Y-69567071D01*
X156550280Y-69567500D01*
X156625720Y-69567500D01*
X156628975Y-69567071D01*
X156628982Y-69567071D01*
X156731698Y-69553548D01*
X156731700Y-69553547D01*
X156738236Y-69552687D01*
X156824566Y-69516928D01*
X156872138Y-69497223D01*
X156872140Y-69497222D01*
X156878233Y-69494698D01*
X156883464Y-69490684D01*
X156883466Y-69490683D01*
X156993220Y-69406465D01*
X156998451Y-69402451D01*
X157017599Y-69377497D01*
X157086683Y-69287466D01*
X157086684Y-69287464D01*
X157090698Y-69282233D01*
X157094116Y-69273983D01*
X157117865Y-69216646D01*
X157148687Y-69142236D01*
X157157321Y-69076659D01*
X157167605Y-68998540D01*
X157168466Y-68992000D01*
X157159073Y-68920650D01*
X157149548Y-68848302D01*
X157149548Y-68848300D01*
X157148687Y-68841764D01*
X157107335Y-68741931D01*
X157093223Y-68707862D01*
X157093222Y-68707860D01*
X157090698Y-68701767D01*
X157085925Y-68695546D01*
X157019367Y-68608807D01*
X163754736Y-68608807D01*
X163757014Y-68617308D01*
X163764778Y-68646284D01*
X163766678Y-68654853D01*
X163773412Y-68693045D01*
X163777814Y-68700669D01*
X163779765Y-68706030D01*
X163782168Y-68711183D01*
X163784446Y-68719684D01*
X163789494Y-68726894D01*
X163789495Y-68726895D01*
X163806692Y-68751455D01*
X163811408Y-68758857D01*
X163826403Y-68784830D01*
X163826406Y-68784833D01*
X163830806Y-68792455D01*
X163848519Y-68807318D01*
X163860528Y-68817395D01*
X163866998Y-68823324D01*
X164311194Y-69267520D01*
X164317123Y-69273991D01*
X164336399Y-69296964D01*
X164336401Y-69296966D01*
X164342056Y-69303705D01*
X164349676Y-69308104D01*
X164349678Y-69308106D01*
X164375654Y-69323103D01*
X164383056Y-69327819D01*
X164407616Y-69345016D01*
X164414827Y-69350065D01*
X164423328Y-69352343D01*
X164428481Y-69354746D01*
X164433842Y-69356697D01*
X164441466Y-69361099D01*
X164472556Y-69366581D01*
X164479658Y-69367833D01*
X164488227Y-69369733D01*
X164516093Y-69377200D01*
X164525704Y-69379775D01*
X164534471Y-69379008D01*
X164564347Y-69376394D01*
X164573115Y-69376011D01*
X165992885Y-69376011D01*
X166001652Y-69376394D01*
X166040296Y-69379775D01*
X166049907Y-69377200D01*
X166077773Y-69369733D01*
X166086342Y-69367833D01*
X166093444Y-69366581D01*
X166124534Y-69361099D01*
X166132158Y-69356697D01*
X166137519Y-69354746D01*
X166142672Y-69352343D01*
X166151173Y-69350065D01*
X166158384Y-69345016D01*
X166182944Y-69327819D01*
X166190346Y-69323103D01*
X166216319Y-69308108D01*
X166216322Y-69308105D01*
X166223944Y-69303705D01*
X166248884Y-69273983D01*
X166254813Y-69267513D01*
X167486841Y-68035485D01*
X167542239Y-68007259D01*
X167557976Y-68006020D01*
X176437908Y-68006020D01*
X176497039Y-68025233D01*
X176533584Y-68075533D01*
X176537647Y-68093489D01*
X176553661Y-68215125D01*
X176555456Y-68228762D01*
X176615964Y-68374841D01*
X176712218Y-68500282D01*
X176837659Y-68596536D01*
X176983738Y-68657044D01*
X176990274Y-68657904D01*
X176990276Y-68657905D01*
X177133960Y-68676821D01*
X177140500Y-68677682D01*
X177147040Y-68676821D01*
X177290724Y-68657905D01*
X177290726Y-68657904D01*
X177297262Y-68657044D01*
X177443341Y-68596536D01*
X177568782Y-68500282D01*
X177665036Y-68374841D01*
X177707763Y-68271689D01*
X177748142Y-68224411D01*
X177808598Y-68209897D01*
X177866040Y-68233690D01*
X177871840Y-68239052D01*
X179103076Y-69470288D01*
X179111021Y-69480231D01*
X179111060Y-69480198D01*
X179115708Y-69485659D01*
X179119532Y-69491720D01*
X179124906Y-69496466D01*
X179159776Y-69527262D01*
X179164318Y-69531530D01*
X179176108Y-69543320D01*
X179178961Y-69545458D01*
X179178970Y-69545466D01*
X179185109Y-69550067D01*
X179191356Y-69555152D01*
X179226990Y-69586623D01*
X179233473Y-69589667D01*
X179233481Y-69589672D01*
X179236127Y-69590914D01*
X179253702Y-69601473D01*
X179261778Y-69607526D01*
X179306309Y-69624220D01*
X179313723Y-69627345D01*
X179350274Y-69644506D01*
X179350278Y-69644507D01*
X179356765Y-69647553D01*
X179366740Y-69649106D01*
X179386570Y-69654309D01*
X179396021Y-69657852D01*
X179442446Y-69661302D01*
X179443428Y-69661375D01*
X179451447Y-69662295D01*
X179461780Y-69663904D01*
X179461785Y-69663904D01*
X179465611Y-69664500D01*
X179481759Y-69664500D01*
X179489214Y-69664777D01*
X179531843Y-69667945D01*
X179531845Y-69667945D01*
X179538993Y-69668476D01*
X179547234Y-69666717D01*
X179568234Y-69664500D01*
X179896900Y-69664500D01*
X179956031Y-69683713D01*
X179992576Y-69734013D01*
X179997500Y-69765100D01*
X179997500Y-72715016D01*
X179978287Y-72774147D01*
X179968035Y-72786151D01*
X177770151Y-74984035D01*
X177714753Y-75012261D01*
X177699016Y-75013500D01*
X176816315Y-75013500D01*
X176762646Y-74995283D01*
X176761784Y-74996776D01*
X176756075Y-74993480D01*
X176750841Y-74989464D01*
X176604762Y-74928956D01*
X176598226Y-74928096D01*
X176598224Y-74928095D01*
X176454540Y-74909179D01*
X176448000Y-74908318D01*
X176441460Y-74909179D01*
X176297776Y-74928095D01*
X176297774Y-74928096D01*
X176291238Y-74928956D01*
X176145159Y-74989464D01*
X176019718Y-75085718D01*
X175923464Y-75211159D01*
X175862956Y-75357238D01*
X175862096Y-75363774D01*
X175862095Y-75363776D01*
X175849784Y-75457287D01*
X175842318Y-75514000D01*
X175843179Y-75520540D01*
X175861292Y-75658119D01*
X175862956Y-75670762D01*
X175923464Y-75816841D01*
X176019718Y-75942282D01*
X176145159Y-76038536D01*
X176291238Y-76099044D01*
X176297774Y-76099904D01*
X176297776Y-76099905D01*
X176441460Y-76118821D01*
X176448000Y-76119682D01*
X176454540Y-76118821D01*
X176598224Y-76099905D01*
X176598226Y-76099904D01*
X176604762Y-76099044D01*
X176750841Y-76038536D01*
X176756075Y-76034520D01*
X176761784Y-76031224D01*
X176762646Y-76032717D01*
X176816315Y-76014500D01*
X177880653Y-76014500D01*
X177893307Y-76015914D01*
X177893311Y-76015863D01*
X177900459Y-76016438D01*
X177907447Y-76018019D01*
X177961054Y-76014693D01*
X177967283Y-76014500D01*
X177983940Y-76014500D01*
X177987483Y-76013993D01*
X177987491Y-76013992D01*
X177995060Y-76012908D01*
X178003090Y-76012085D01*
X178043385Y-76009585D01*
X178043386Y-76009585D01*
X178050538Y-76009141D01*
X178057279Y-76006707D01*
X178057281Y-76006707D01*
X178060032Y-76005714D01*
X178079922Y-76000754D01*
X178089918Y-75999323D01*
X178133202Y-75979643D01*
X178140681Y-75976599D01*
X178178642Y-75962895D01*
X178185387Y-75960460D01*
X178193540Y-75954504D01*
X178211237Y-75944163D01*
X178212130Y-75943757D01*
X178220428Y-75939984D01*
X178256456Y-75908940D01*
X178262762Y-75903934D01*
X178267890Y-75900187D01*
X178271198Y-75897771D01*
X178271202Y-75897767D01*
X178274336Y-75895478D01*
X178285750Y-75884064D01*
X178291217Y-75878988D01*
X178323610Y-75851077D01*
X178323613Y-75851074D01*
X178329037Y-75846400D01*
X178333122Y-75840098D01*
X178333622Y-75839327D01*
X178346904Y-75822910D01*
X180675849Y-73493965D01*
X180731247Y-73465739D01*
X180746984Y-73464500D01*
X181380653Y-73464500D01*
X181393307Y-73465914D01*
X181393311Y-73465863D01*
X181400459Y-73466438D01*
X181407447Y-73468019D01*
X181461054Y-73464693D01*
X181467283Y-73464500D01*
X181483940Y-73464500D01*
X181487483Y-73463993D01*
X181487491Y-73463992D01*
X181495060Y-73462908D01*
X181503090Y-73462085D01*
X181543385Y-73459585D01*
X181543386Y-73459585D01*
X181550538Y-73459141D01*
X181557279Y-73456707D01*
X181557281Y-73456707D01*
X181560032Y-73455714D01*
X181579922Y-73450754D01*
X181589918Y-73449323D01*
X181633202Y-73429643D01*
X181640681Y-73426599D01*
X181678642Y-73412895D01*
X181685387Y-73410460D01*
X181693540Y-73404504D01*
X181711237Y-73394163D01*
X181720428Y-73389984D01*
X181756456Y-73358940D01*
X181762762Y-73353934D01*
X181767890Y-73350187D01*
X181771198Y-73347771D01*
X181771202Y-73347767D01*
X181774336Y-73345478D01*
X181785750Y-73334064D01*
X181791217Y-73328988D01*
X181823610Y-73301077D01*
X181823613Y-73301074D01*
X181829037Y-73296400D01*
X181832936Y-73290385D01*
X181833622Y-73289327D01*
X181846904Y-73272910D01*
X182141470Y-72978344D01*
X182192303Y-72953278D01*
X182191856Y-72951611D01*
X182198223Y-72949905D01*
X182204762Y-72949044D01*
X182210854Y-72946520D01*
X182210856Y-72946520D01*
X182344745Y-72891061D01*
X182350841Y-72888536D01*
X182476282Y-72792282D01*
X182480987Y-72786151D01*
X182535990Y-72714469D01*
X182572536Y-72666841D01*
X182633044Y-72520762D01*
X182644032Y-72437304D01*
X182652821Y-72370540D01*
X182653682Y-72364000D01*
X182643240Y-72284687D01*
X182633905Y-72213776D01*
X182633904Y-72213774D01*
X182633044Y-72207238D01*
X182572536Y-72061159D01*
X182476282Y-71935718D01*
X182350841Y-71839464D01*
X182204762Y-71778956D01*
X182198226Y-71778096D01*
X182198224Y-71778095D01*
X182054540Y-71759179D01*
X182048000Y-71758318D01*
X182041460Y-71759179D01*
X181897776Y-71778095D01*
X181897774Y-71778096D01*
X181891238Y-71778956D01*
X181745159Y-71839464D01*
X181619718Y-71935718D01*
X181523464Y-72061159D01*
X181462956Y-72207238D01*
X181462095Y-72213776D01*
X181460389Y-72220144D01*
X181458722Y-72219697D01*
X181433656Y-72270530D01*
X181270151Y-72434035D01*
X181214753Y-72462261D01*
X181199016Y-72463500D01*
X181099100Y-72463500D01*
X181039969Y-72444287D01*
X181003424Y-72393987D01*
X180998500Y-72362900D01*
X180998500Y-69765100D01*
X181017713Y-69705969D01*
X181068013Y-69669424D01*
X181099100Y-69664500D01*
X181203225Y-69664500D01*
X181256894Y-69682717D01*
X181257756Y-69681224D01*
X181263465Y-69684520D01*
X181268699Y-69688536D01*
X181414778Y-69749044D01*
X181421314Y-69749904D01*
X181421316Y-69749905D01*
X181565000Y-69768821D01*
X181571540Y-69769682D01*
X181578080Y-69768821D01*
X181721764Y-69749905D01*
X181721766Y-69749904D01*
X181728302Y-69749044D01*
X181874381Y-69688536D01*
X181999822Y-69592282D01*
X182096076Y-69466841D01*
X182156584Y-69320762D01*
X182159718Y-69296962D01*
X182176361Y-69170540D01*
X182177222Y-69164000D01*
X182166526Y-69082755D01*
X182157445Y-69013776D01*
X182157444Y-69013774D01*
X182156584Y-69007238D01*
X182096076Y-68861159D01*
X181999822Y-68735718D01*
X181874381Y-68639464D01*
X181728302Y-68578956D01*
X181721766Y-68578096D01*
X181721764Y-68578095D01*
X181578080Y-68559179D01*
X181571540Y-68558318D01*
X181565000Y-68559179D01*
X181421316Y-68578095D01*
X181421314Y-68578096D01*
X181414778Y-68578956D01*
X181268699Y-68639464D01*
X181263465Y-68643480D01*
X181257756Y-68646776D01*
X181256894Y-68645283D01*
X181203225Y-68663500D01*
X180615347Y-68663500D01*
X180602693Y-68662086D01*
X180602689Y-68662137D01*
X180595541Y-68661562D01*
X180588553Y-68659981D01*
X180534947Y-68663307D01*
X180528717Y-68663500D01*
X179753586Y-68663500D01*
X179694455Y-68644287D01*
X179682451Y-68634035D01*
X177798128Y-66749712D01*
X177790183Y-66739769D01*
X177790144Y-66739802D01*
X177785496Y-66734341D01*
X177781672Y-66728280D01*
X177741428Y-66692738D01*
X177736886Y-66688470D01*
X177725096Y-66676680D01*
X177722243Y-66674542D01*
X177722234Y-66674534D01*
X177716095Y-66669933D01*
X177709848Y-66664848D01*
X177674214Y-66633377D01*
X177667731Y-66630333D01*
X177667723Y-66630328D01*
X177665077Y-66629086D01*
X177647501Y-66618526D01*
X177645162Y-66616773D01*
X177645163Y-66616773D01*
X177639426Y-66612474D01*
X177632715Y-66609958D01*
X177632713Y-66609957D01*
X177594914Y-66595787D01*
X177587474Y-66592652D01*
X177550925Y-66575492D01*
X177550924Y-66575492D01*
X177544439Y-66572447D01*
X177537362Y-66571345D01*
X177537358Y-66571344D01*
X177534472Y-66570895D01*
X177514630Y-66565690D01*
X177505182Y-66562148D01*
X177457772Y-66558625D01*
X177449767Y-66557706D01*
X177435593Y-66555500D01*
X177419444Y-66555500D01*
X177411989Y-66555223D01*
X177369360Y-66552055D01*
X177369358Y-66552055D01*
X177362210Y-66551524D01*
X177353969Y-66553283D01*
X177332969Y-66555500D01*
X170607100Y-66555500D01*
X170547969Y-66536287D01*
X170511424Y-66485987D01*
X170506500Y-66454900D01*
X170506500Y-66169851D01*
X170519720Y-66120510D01*
X170522536Y-66116841D01*
X170527504Y-66104849D01*
X170558979Y-66028859D01*
X170583044Y-65970762D01*
X170586139Y-65947257D01*
X170602821Y-65820540D01*
X170603682Y-65814000D01*
X170584795Y-65670540D01*
X170583905Y-65663776D01*
X170583904Y-65663774D01*
X170583044Y-65657238D01*
X170522536Y-65511159D01*
X170426282Y-65385718D01*
X170300841Y-65289464D01*
X170154762Y-65228956D01*
X170148226Y-65228096D01*
X170148224Y-65228095D01*
X170004540Y-65209179D01*
X169998000Y-65208318D01*
X169991460Y-65209179D01*
X169847776Y-65228095D01*
X169847774Y-65228096D01*
X169841238Y-65228956D01*
X169695159Y-65289464D01*
X169569718Y-65385718D01*
X169473464Y-65511159D01*
X169412956Y-65657238D01*
X169412096Y-65663774D01*
X169412095Y-65663776D01*
X169411205Y-65670540D01*
X169392318Y-65814000D01*
X169393179Y-65820540D01*
X169409862Y-65947257D01*
X169412956Y-65970762D01*
X169473464Y-66116841D01*
X169480785Y-66126382D01*
X169484711Y-66131498D01*
X169505500Y-66192740D01*
X169505500Y-66454900D01*
X169486287Y-66514031D01*
X169435987Y-66550576D01*
X169404900Y-66555500D01*
X166945340Y-66555500D01*
X166932690Y-66554087D01*
X166932686Y-66554138D01*
X166925541Y-66553563D01*
X166918552Y-66551982D01*
X166866310Y-66555223D01*
X166864956Y-66555307D01*
X166858727Y-66555500D01*
X166842060Y-66555500D01*
X166830928Y-66557094D01*
X166822920Y-66557914D01*
X166798920Y-66559403D01*
X166782615Y-66560415D01*
X166782614Y-66560415D01*
X166775462Y-66560859D01*
X166768720Y-66563293D01*
X166765968Y-66564286D01*
X166746078Y-66569246D01*
X166736082Y-66570677D01*
X166692798Y-66590357D01*
X166685319Y-66593401D01*
X166640613Y-66609540D01*
X166632460Y-66615496D01*
X166614763Y-66625837D01*
X166605572Y-66630016D01*
X166569544Y-66661060D01*
X166563238Y-66666066D01*
X166561249Y-66667520D01*
X166554802Y-66672229D01*
X166554798Y-66672233D01*
X166551664Y-66674522D01*
X166540250Y-66685936D01*
X166534783Y-66691012D01*
X166502390Y-66718923D01*
X166502387Y-66718926D01*
X166496963Y-66723600D01*
X166493065Y-66729614D01*
X166493064Y-66729615D01*
X166492378Y-66730673D01*
X166479096Y-66747090D01*
X165514530Y-67711656D01*
X165463697Y-67736722D01*
X165464144Y-67738389D01*
X165457777Y-67740095D01*
X165451238Y-67740956D01*
X165445146Y-67743480D01*
X165445144Y-67743480D01*
X165372395Y-67773614D01*
X165305159Y-67801464D01*
X165179718Y-67897718D01*
X165083464Y-68023159D01*
X165022956Y-68169238D01*
X165022096Y-68175774D01*
X165022095Y-68175776D01*
X165009226Y-68273525D01*
X165002318Y-68326000D01*
X165003179Y-68332540D01*
X165021887Y-68474639D01*
X165022956Y-68482762D01*
X165063875Y-68581549D01*
X165065683Y-68585913D01*
X165070562Y-68647895D01*
X165038076Y-68700908D01*
X164980634Y-68724701D01*
X164972741Y-68725011D01*
X164731007Y-68725011D01*
X164671876Y-68705798D01*
X164659872Y-68695546D01*
X164438965Y-68474639D01*
X164410739Y-68419241D01*
X164409500Y-68403504D01*
X164409500Y-65708496D01*
X164428713Y-65649365D01*
X164438965Y-65637361D01*
X166094522Y-63981805D01*
X166149920Y-63953579D01*
X166201125Y-63960137D01*
X166201398Y-63959297D01*
X166206072Y-63960816D01*
X166206075Y-63960817D01*
X166392649Y-64021439D01*
X166392655Y-64021440D01*
X166397329Y-64022959D01*
X166402211Y-64023541D01*
X166402215Y-64023542D01*
X166577937Y-64044494D01*
X166601894Y-64047351D01*
X166606795Y-64046974D01*
X166606798Y-64046974D01*
X166717112Y-64038486D01*
X166807300Y-64031546D01*
X166812036Y-64030224D01*
X166812040Y-64030223D01*
X167000983Y-63977469D01*
X167005725Y-63976145D01*
X167189610Y-63883258D01*
X167351951Y-63756424D01*
X167486564Y-63600472D01*
X167588323Y-63421344D01*
X167653351Y-63225863D01*
X167653967Y-63220988D01*
X167653968Y-63220983D01*
X167678819Y-63024257D01*
X167679171Y-63021474D01*
X167679583Y-62992000D01*
X167678138Y-62977262D01*
X168108520Y-62977262D01*
X168125759Y-63182553D01*
X168156209Y-63288745D01*
X168169964Y-63336713D01*
X168182544Y-63380586D01*
X168276712Y-63563818D01*
X168279765Y-63567670D01*
X168279767Y-63567673D01*
X168308715Y-63604196D01*
X168404677Y-63725270D01*
X168561564Y-63858791D01*
X168741398Y-63959297D01*
X168746079Y-63960818D01*
X168932649Y-64021439D01*
X168932655Y-64021440D01*
X168937329Y-64022959D01*
X168942211Y-64023541D01*
X168942215Y-64023542D01*
X169117937Y-64044494D01*
X169141894Y-64047351D01*
X169146795Y-64046974D01*
X169146798Y-64046974D01*
X169257112Y-64038486D01*
X169347300Y-64031546D01*
X169352036Y-64030224D01*
X169352040Y-64030223D01*
X169540983Y-63977469D01*
X169545725Y-63976145D01*
X169729610Y-63883258D01*
X169891951Y-63756424D01*
X170026564Y-63600472D01*
X170128323Y-63421344D01*
X170193351Y-63225863D01*
X170193967Y-63220988D01*
X170193968Y-63220983D01*
X170218819Y-63024257D01*
X170219171Y-63021474D01*
X170219583Y-62992000D01*
X170218138Y-62977262D01*
X170648520Y-62977262D01*
X170665759Y-63182553D01*
X170696209Y-63288745D01*
X170709964Y-63336713D01*
X170722544Y-63380586D01*
X170816712Y-63563818D01*
X170819765Y-63567670D01*
X170819767Y-63567673D01*
X170848715Y-63604196D01*
X170944677Y-63725270D01*
X171101564Y-63858791D01*
X171281398Y-63959297D01*
X171286079Y-63960818D01*
X171472649Y-64021439D01*
X171472655Y-64021440D01*
X171477329Y-64022959D01*
X171482211Y-64023541D01*
X171482215Y-64023542D01*
X171657937Y-64044494D01*
X171681894Y-64047351D01*
X171686795Y-64046974D01*
X171686798Y-64046974D01*
X171797112Y-64038486D01*
X171887300Y-64031546D01*
X171892036Y-64030224D01*
X171892040Y-64030223D01*
X172080983Y-63977469D01*
X172085725Y-63976145D01*
X172269610Y-63883258D01*
X172431951Y-63756424D01*
X172566564Y-63600472D01*
X172668323Y-63421344D01*
X172733351Y-63225863D01*
X172733967Y-63220988D01*
X172733968Y-63220983D01*
X172758819Y-63024257D01*
X172759171Y-63021474D01*
X172759583Y-62992000D01*
X172758138Y-62977262D01*
X173188520Y-62977262D01*
X173205759Y-63182553D01*
X173236209Y-63288745D01*
X173249964Y-63336713D01*
X173262544Y-63380586D01*
X173356712Y-63563818D01*
X173359765Y-63567670D01*
X173359767Y-63567673D01*
X173388715Y-63604196D01*
X173484677Y-63725270D01*
X173641564Y-63858791D01*
X173821398Y-63959297D01*
X173826081Y-63960819D01*
X173826082Y-63960819D01*
X173848986Y-63968261D01*
X173899287Y-64004805D01*
X173918500Y-64063937D01*
X173918500Y-64191396D01*
X173918117Y-64200163D01*
X173914736Y-64238807D01*
X173917014Y-64247308D01*
X173924778Y-64276284D01*
X173926678Y-64284853D01*
X173933412Y-64323045D01*
X173937814Y-64330669D01*
X173939765Y-64336030D01*
X173942168Y-64341183D01*
X173944446Y-64349684D01*
X173949494Y-64356894D01*
X173949495Y-64356895D01*
X173966692Y-64381455D01*
X173971408Y-64388857D01*
X173986403Y-64414830D01*
X173986406Y-64414833D01*
X173990806Y-64422455D01*
X174007284Y-64436282D01*
X174020528Y-64447395D01*
X174026998Y-64453324D01*
X175074149Y-65500475D01*
X175102375Y-65555873D01*
X175102753Y-65584738D01*
X175092318Y-65664000D01*
X175112956Y-65820762D01*
X175173464Y-65966841D01*
X175269718Y-66092282D01*
X175395159Y-66188536D01*
X175541238Y-66249044D01*
X175547774Y-66249904D01*
X175547776Y-66249905D01*
X175691460Y-66268821D01*
X175698000Y-66269682D01*
X175704540Y-66268821D01*
X175848224Y-66249905D01*
X175848226Y-66249904D01*
X175854762Y-66249044D01*
X176000841Y-66188536D01*
X176126282Y-66092282D01*
X176174948Y-66028859D01*
X176226187Y-65993643D01*
X176254759Y-65989500D01*
X177876652Y-65989500D01*
X177935783Y-66008713D01*
X177947787Y-66018965D01*
X178476723Y-66547901D01*
X178504949Y-66603299D01*
X178505327Y-66632164D01*
X178494892Y-66711426D01*
X178495753Y-66717966D01*
X178514650Y-66861500D01*
X178515530Y-66868188D01*
X178576038Y-67014267D01*
X178672292Y-67139708D01*
X178797733Y-67235962D01*
X178943812Y-67296470D01*
X178950348Y-67297330D01*
X178950350Y-67297331D01*
X179094034Y-67316247D01*
X179100574Y-67317108D01*
X179107114Y-67316247D01*
X179250798Y-67297331D01*
X179250800Y-67297330D01*
X179257336Y-67296470D01*
X179403415Y-67235962D01*
X179528856Y-67139708D01*
X179607203Y-67037604D01*
X179620012Y-67020911D01*
X179671251Y-66985695D01*
X179733404Y-66987322D01*
X179782730Y-67025171D01*
X179799562Y-67069021D01*
X179806859Y-67124450D01*
X179809397Y-67143725D01*
X179812956Y-67170762D01*
X179873464Y-67316841D01*
X179969718Y-67442282D01*
X180095159Y-67538536D01*
X180241238Y-67599044D01*
X180247774Y-67599904D01*
X180247776Y-67599905D01*
X180391460Y-67618821D01*
X180398000Y-67619682D01*
X180425950Y-67616002D01*
X180487081Y-67627331D01*
X180529879Y-67672430D01*
X180538819Y-67702610D01*
X180554306Y-67820243D01*
X180556706Y-67838475D01*
X180617214Y-67984554D01*
X180713468Y-68109995D01*
X180838909Y-68206249D01*
X180984988Y-68266757D01*
X180991524Y-68267617D01*
X180991526Y-68267618D01*
X181135210Y-68286534D01*
X181141750Y-68287395D01*
X181148290Y-68286534D01*
X181291974Y-68267618D01*
X181291976Y-68267617D01*
X181298512Y-68266757D01*
X181444591Y-68206249D01*
X181570032Y-68109995D01*
X181666286Y-67984554D01*
X181726794Y-67838475D01*
X181729195Y-67820243D01*
X181746571Y-67688253D01*
X181747432Y-67681713D01*
X181738781Y-67616002D01*
X181727655Y-67531489D01*
X181727654Y-67531487D01*
X181726794Y-67524951D01*
X181666286Y-67378872D01*
X181570032Y-67253431D01*
X181487368Y-67190001D01*
X181452154Y-67138763D01*
X181448011Y-67110191D01*
X181448011Y-66407115D01*
X181448394Y-66398347D01*
X181451008Y-66368471D01*
X181451775Y-66359704D01*
X181449200Y-66350093D01*
X181441733Y-66322227D01*
X181439833Y-66313658D01*
X181434627Y-66284134D01*
X181433099Y-66275466D01*
X181428697Y-66267842D01*
X181426746Y-66262481D01*
X181424343Y-66257328D01*
X181422065Y-66248827D01*
X181417016Y-66241616D01*
X181399819Y-66217056D01*
X181395103Y-66209654D01*
X181380108Y-66183681D01*
X181380105Y-66183678D01*
X181375705Y-66176056D01*
X181345983Y-66151116D01*
X181339513Y-66145187D01*
X179678965Y-64484639D01*
X179650739Y-64429241D01*
X179649500Y-64413504D01*
X179649500Y-64066320D01*
X179668713Y-64007189D01*
X179706652Y-63977979D01*
X179705725Y-63976145D01*
X179739078Y-63959297D01*
X179889610Y-63883258D01*
X180051951Y-63756424D01*
X180186564Y-63600472D01*
X180288323Y-63421344D01*
X180353351Y-63225863D01*
X180353967Y-63220988D01*
X180353968Y-63220983D01*
X180378819Y-63024257D01*
X180379171Y-63021474D01*
X180379583Y-62992000D01*
X180378138Y-62977262D01*
X180808520Y-62977262D01*
X180825759Y-63182553D01*
X180856209Y-63288745D01*
X180869964Y-63336713D01*
X180882544Y-63380586D01*
X180976712Y-63563818D01*
X180979765Y-63567670D01*
X180979767Y-63567673D01*
X181008715Y-63604196D01*
X181104677Y-63725270D01*
X181261564Y-63858791D01*
X181441398Y-63959297D01*
X181446079Y-63960818D01*
X181632649Y-64021439D01*
X181632655Y-64021440D01*
X181637329Y-64022959D01*
X181642211Y-64023541D01*
X181642215Y-64023542D01*
X181817937Y-64044494D01*
X181841894Y-64047351D01*
X181846795Y-64046974D01*
X181846798Y-64046974D01*
X181957112Y-64038486D01*
X182047300Y-64031546D01*
X182052036Y-64030224D01*
X182052040Y-64030223D01*
X182240983Y-63977469D01*
X182245725Y-63976145D01*
X182429610Y-63883258D01*
X182591951Y-63756424D01*
X182726564Y-63600472D01*
X182828323Y-63421344D01*
X182893351Y-63225863D01*
X182893967Y-63220988D01*
X182893968Y-63220983D01*
X182918819Y-63024257D01*
X182919171Y-63021474D01*
X182919583Y-62992000D01*
X182899480Y-62786970D01*
X182898058Y-62782260D01*
X182898057Y-62782255D01*
X182841357Y-62594460D01*
X182839935Y-62589749D01*
X182743218Y-62407849D01*
X182613011Y-62248200D01*
X182557942Y-62202643D01*
X182458063Y-62120015D01*
X182458058Y-62120012D01*
X182454275Y-62116882D01*
X182434978Y-62106448D01*
X182277378Y-62021234D01*
X182277374Y-62021232D01*
X182273055Y-62018897D01*
X182076254Y-61957977D01*
X181871369Y-61936443D01*
X181866468Y-61936889D01*
X181866465Y-61936889D01*
X181671101Y-61954668D01*
X181671098Y-61954668D01*
X181666203Y-61955114D01*
X181661489Y-61956501D01*
X181661486Y-61956502D01*
X181503484Y-62003005D01*
X181468572Y-62013280D01*
X181464212Y-62015559D01*
X181464208Y-62015561D01*
X181362149Y-62068917D01*
X181286002Y-62108726D01*
X181125447Y-62237815D01*
X180993024Y-62395630D01*
X180990657Y-62399936D01*
X180990654Y-62399940D01*
X180927933Y-62514030D01*
X180893776Y-62576162D01*
X180831484Y-62772532D01*
X180830935Y-62777423D01*
X180830935Y-62777425D01*
X180829865Y-62786970D01*
X180808520Y-62977262D01*
X180378138Y-62977262D01*
X180359480Y-62786970D01*
X180358058Y-62782260D01*
X180358057Y-62782255D01*
X180301357Y-62594460D01*
X180299935Y-62589749D01*
X180203218Y-62407849D01*
X180073011Y-62248200D01*
X180017942Y-62202643D01*
X179918063Y-62120015D01*
X179918058Y-62120012D01*
X179914275Y-62116882D01*
X179894978Y-62106448D01*
X179737378Y-62021234D01*
X179737374Y-62021232D01*
X179733055Y-62018897D01*
X179536254Y-61957977D01*
X179331369Y-61936443D01*
X179326468Y-61936889D01*
X179326465Y-61936889D01*
X179131101Y-61954668D01*
X179131098Y-61954668D01*
X179126203Y-61955114D01*
X179121489Y-61956501D01*
X179121486Y-61956502D01*
X178963484Y-62003005D01*
X178928572Y-62013280D01*
X178924212Y-62015559D01*
X178924208Y-62015561D01*
X178822149Y-62068917D01*
X178746002Y-62108726D01*
X178585447Y-62237815D01*
X178453024Y-62395630D01*
X178450657Y-62399936D01*
X178450654Y-62399940D01*
X178387933Y-62514030D01*
X178353776Y-62576162D01*
X178291484Y-62772532D01*
X178290935Y-62777423D01*
X178290935Y-62777425D01*
X178289865Y-62786970D01*
X178268520Y-62977262D01*
X178285759Y-63182553D01*
X178316209Y-63288745D01*
X178329964Y-63336713D01*
X178342544Y-63380586D01*
X178436712Y-63563818D01*
X178439765Y-63567670D01*
X178439767Y-63567673D01*
X178468715Y-63604196D01*
X178564677Y-63725270D01*
X178721564Y-63858791D01*
X178901398Y-63959297D01*
X178906081Y-63960819D01*
X178906082Y-63960819D01*
X178928986Y-63968261D01*
X178979287Y-64004805D01*
X178998500Y-64063937D01*
X178998500Y-64503304D01*
X178979287Y-64562435D01*
X178928987Y-64598980D01*
X178866813Y-64598980D01*
X178826765Y-64574439D01*
X177773622Y-63521296D01*
X177745396Y-63465898D01*
X177749300Y-63418407D01*
X177811798Y-63230531D01*
X177813351Y-63225863D01*
X177813967Y-63220988D01*
X177813968Y-63220983D01*
X177838819Y-63024257D01*
X177839171Y-63021474D01*
X177839583Y-62992000D01*
X177819480Y-62786970D01*
X177818058Y-62782260D01*
X177818057Y-62782255D01*
X177761357Y-62594460D01*
X177759935Y-62589749D01*
X177663218Y-62407849D01*
X177533011Y-62248200D01*
X177477942Y-62202643D01*
X177378063Y-62120015D01*
X177378058Y-62120012D01*
X177374275Y-62116882D01*
X177354978Y-62106448D01*
X177197378Y-62021234D01*
X177197374Y-62021232D01*
X177193055Y-62018897D01*
X176996254Y-61957977D01*
X176791369Y-61936443D01*
X176786468Y-61936889D01*
X176786465Y-61936889D01*
X176591101Y-61954668D01*
X176591098Y-61954668D01*
X176586203Y-61955114D01*
X176581489Y-61956501D01*
X176581486Y-61956502D01*
X176423484Y-62003005D01*
X176388572Y-62013280D01*
X176384212Y-62015559D01*
X176384208Y-62015561D01*
X176282149Y-62068917D01*
X176206002Y-62108726D01*
X176045447Y-62237815D01*
X175913024Y-62395630D01*
X175910657Y-62399936D01*
X175910654Y-62399940D01*
X175847933Y-62514030D01*
X175813776Y-62576162D01*
X175751484Y-62772532D01*
X175750935Y-62777423D01*
X175750935Y-62777425D01*
X175749865Y-62786970D01*
X175728520Y-62977262D01*
X175745759Y-63182553D01*
X175776209Y-63288745D01*
X175789964Y-63336713D01*
X175802544Y-63380586D01*
X175896712Y-63563818D01*
X175899765Y-63567670D01*
X175899767Y-63567673D01*
X175928715Y-63604196D01*
X176024677Y-63725270D01*
X176181564Y-63858791D01*
X176361398Y-63959297D01*
X176366079Y-63960818D01*
X176552649Y-64021439D01*
X176552655Y-64021440D01*
X176557329Y-64022959D01*
X176562211Y-64023541D01*
X176562215Y-64023542D01*
X176737937Y-64044494D01*
X176761894Y-64047351D01*
X176766795Y-64046974D01*
X176766798Y-64046974D01*
X176877112Y-64038486D01*
X176967300Y-64031546D01*
X176972036Y-64030224D01*
X176972040Y-64030223D01*
X177160983Y-63977469D01*
X177165725Y-63976145D01*
X177195131Y-63961291D01*
X177256573Y-63951779D01*
X177311624Y-63979950D01*
X179278931Y-65947257D01*
X179307157Y-66002655D01*
X179297431Y-66064063D01*
X179253467Y-66108027D01*
X179194665Y-66118131D01*
X179107114Y-66106605D01*
X179100574Y-66105744D01*
X179021313Y-66116179D01*
X178960182Y-66104849D01*
X178937049Y-66087575D01*
X178296465Y-65446991D01*
X178290536Y-65440520D01*
X178271260Y-65417547D01*
X178271258Y-65417545D01*
X178265603Y-65410806D01*
X178257983Y-65406407D01*
X178257981Y-65406405D01*
X178232005Y-65391408D01*
X178224603Y-65386692D01*
X178200043Y-65369495D01*
X178200042Y-65369494D01*
X178192832Y-65364446D01*
X178184331Y-65362168D01*
X178179178Y-65359765D01*
X178173817Y-65357814D01*
X178166193Y-65353412D01*
X178135103Y-65347930D01*
X178128001Y-65346678D01*
X178119432Y-65344778D01*
X178090456Y-65337014D01*
X178081955Y-65334736D01*
X178073188Y-65335503D01*
X178043312Y-65338117D01*
X178034544Y-65338500D01*
X176254759Y-65338500D01*
X176195628Y-65319287D01*
X176174948Y-65299141D01*
X176130299Y-65240953D01*
X176126282Y-65235718D01*
X176116348Y-65228095D01*
X176006076Y-65143481D01*
X176000841Y-65139464D01*
X175854762Y-65078956D01*
X175848226Y-65078096D01*
X175848224Y-65078095D01*
X175704540Y-65059179D01*
X175698000Y-65058318D01*
X175618739Y-65068753D01*
X175557608Y-65057423D01*
X175534475Y-65040149D01*
X174620844Y-64126518D01*
X174592618Y-64071120D01*
X174602344Y-64009712D01*
X174646620Y-63965590D01*
X174809610Y-63883258D01*
X174971951Y-63756424D01*
X175106564Y-63600472D01*
X175208323Y-63421344D01*
X175273351Y-63225863D01*
X175273967Y-63220988D01*
X175273968Y-63220983D01*
X175298819Y-63024257D01*
X175299171Y-63021474D01*
X175299583Y-62992000D01*
X175279480Y-62786970D01*
X175278058Y-62782260D01*
X175278057Y-62782255D01*
X175221357Y-62594460D01*
X175219935Y-62589749D01*
X175123218Y-62407849D01*
X174993011Y-62248200D01*
X174937942Y-62202643D01*
X174838063Y-62120015D01*
X174838058Y-62120012D01*
X174834275Y-62116882D01*
X174814978Y-62106448D01*
X174657378Y-62021234D01*
X174657374Y-62021232D01*
X174653055Y-62018897D01*
X174456254Y-61957977D01*
X174251369Y-61936443D01*
X174246468Y-61936889D01*
X174246465Y-61936889D01*
X174051101Y-61954668D01*
X174051098Y-61954668D01*
X174046203Y-61955114D01*
X174041489Y-61956501D01*
X174041486Y-61956502D01*
X173883484Y-62003005D01*
X173848572Y-62013280D01*
X173844212Y-62015559D01*
X173844208Y-62015561D01*
X173742149Y-62068917D01*
X173666002Y-62108726D01*
X173505447Y-62237815D01*
X173373024Y-62395630D01*
X173370657Y-62399936D01*
X173370654Y-62399940D01*
X173307933Y-62514030D01*
X173273776Y-62576162D01*
X173211484Y-62772532D01*
X173210935Y-62777423D01*
X173210935Y-62777425D01*
X173209865Y-62786970D01*
X173188520Y-62977262D01*
X172758138Y-62977262D01*
X172739480Y-62786970D01*
X172738058Y-62782260D01*
X172738057Y-62782255D01*
X172681357Y-62594460D01*
X172679935Y-62589749D01*
X172583218Y-62407849D01*
X172453011Y-62248200D01*
X172397942Y-62202643D01*
X172298063Y-62120015D01*
X172298058Y-62120012D01*
X172294275Y-62116882D01*
X172274978Y-62106448D01*
X172117378Y-62021234D01*
X172117374Y-62021232D01*
X172113055Y-62018897D01*
X171916254Y-61957977D01*
X171711369Y-61936443D01*
X171706468Y-61936889D01*
X171706465Y-61936889D01*
X171511101Y-61954668D01*
X171511098Y-61954668D01*
X171506203Y-61955114D01*
X171501489Y-61956501D01*
X171501486Y-61956502D01*
X171343484Y-62003005D01*
X171308572Y-62013280D01*
X171304212Y-62015559D01*
X171304208Y-62015561D01*
X171202149Y-62068917D01*
X171126002Y-62108726D01*
X170965447Y-62237815D01*
X170833024Y-62395630D01*
X170830657Y-62399936D01*
X170830654Y-62399940D01*
X170767933Y-62514030D01*
X170733776Y-62576162D01*
X170671484Y-62772532D01*
X170670935Y-62777423D01*
X170670935Y-62777425D01*
X170669865Y-62786970D01*
X170648520Y-62977262D01*
X170218138Y-62977262D01*
X170199480Y-62786970D01*
X170198058Y-62782260D01*
X170198057Y-62782255D01*
X170141357Y-62594460D01*
X170139935Y-62589749D01*
X170043218Y-62407849D01*
X169913011Y-62248200D01*
X169857942Y-62202643D01*
X169758063Y-62120015D01*
X169758058Y-62120012D01*
X169754275Y-62116882D01*
X169734978Y-62106448D01*
X169577378Y-62021234D01*
X169577374Y-62021232D01*
X169573055Y-62018897D01*
X169376254Y-61957977D01*
X169171369Y-61936443D01*
X169166468Y-61936889D01*
X169166465Y-61936889D01*
X168971101Y-61954668D01*
X168971098Y-61954668D01*
X168966203Y-61955114D01*
X168961489Y-61956501D01*
X168961486Y-61956502D01*
X168803484Y-62003005D01*
X168768572Y-62013280D01*
X168764212Y-62015559D01*
X168764208Y-62015561D01*
X168662149Y-62068917D01*
X168586002Y-62108726D01*
X168425447Y-62237815D01*
X168293024Y-62395630D01*
X168290657Y-62399936D01*
X168290654Y-62399940D01*
X168227933Y-62514030D01*
X168193776Y-62576162D01*
X168131484Y-62772532D01*
X168130935Y-62777423D01*
X168130935Y-62777425D01*
X168129865Y-62786970D01*
X168108520Y-62977262D01*
X167678138Y-62977262D01*
X167659480Y-62786970D01*
X167658058Y-62782260D01*
X167658057Y-62782255D01*
X167601357Y-62594460D01*
X167599935Y-62589749D01*
X167503218Y-62407849D01*
X167373011Y-62248200D01*
X167317942Y-62202643D01*
X167218063Y-62120015D01*
X167218058Y-62120012D01*
X167214275Y-62116882D01*
X167194978Y-62106448D01*
X167037378Y-62021234D01*
X167037374Y-62021232D01*
X167033055Y-62018897D01*
X166836254Y-61957977D01*
X166631369Y-61936443D01*
X166626468Y-61936889D01*
X166626465Y-61936889D01*
X166431101Y-61954668D01*
X166431098Y-61954668D01*
X166426203Y-61955114D01*
X166421489Y-61956501D01*
X166421486Y-61956502D01*
X166263484Y-62003005D01*
X166228572Y-62013280D01*
X166224212Y-62015559D01*
X166224208Y-62015561D01*
X166122149Y-62068917D01*
X166046002Y-62108726D01*
X165885447Y-62237815D01*
X165753024Y-62395630D01*
X165750657Y-62399936D01*
X165750654Y-62399940D01*
X165687933Y-62514030D01*
X165653776Y-62576162D01*
X165591484Y-62772532D01*
X165590935Y-62777423D01*
X165590935Y-62777425D01*
X165589865Y-62786970D01*
X165568520Y-62977262D01*
X165585759Y-63182553D01*
X165616209Y-63288745D01*
X165629964Y-63336713D01*
X165642544Y-63380586D01*
X165654006Y-63402889D01*
X165663947Y-63464261D01*
X165635666Y-63520007D01*
X163866991Y-65288683D01*
X163860520Y-65294612D01*
X163837547Y-65313888D01*
X163837545Y-65313890D01*
X163830806Y-65319545D01*
X163826407Y-65327165D01*
X163826405Y-65327167D01*
X163811408Y-65353143D01*
X163806692Y-65360545D01*
X163789495Y-65385105D01*
X163784446Y-65392316D01*
X163782168Y-65400817D01*
X163779765Y-65405970D01*
X163777814Y-65411331D01*
X163773412Y-65418955D01*
X163771884Y-65427623D01*
X163766678Y-65457147D01*
X163764778Y-65465716D01*
X163757311Y-65493582D01*
X163754736Y-65503193D01*
X163755503Y-65511960D01*
X163758117Y-65541836D01*
X163758500Y-65550604D01*
X163758500Y-68561396D01*
X163758117Y-68570163D01*
X163754736Y-68608807D01*
X157019367Y-68608807D01*
X157002465Y-68586780D01*
X156998451Y-68581549D01*
X156983614Y-68570164D01*
X156883466Y-68493317D01*
X156883464Y-68493316D01*
X156878233Y-68489302D01*
X156858290Y-68481041D01*
X156811014Y-68440663D01*
X156796500Y-68380206D01*
X156820294Y-68322765D01*
X156873306Y-68290279D01*
X156896790Y-68287500D01*
X157655363Y-68287500D01*
X157658268Y-68287161D01*
X157658273Y-68287161D01*
X157775231Y-68273525D01*
X157775232Y-68273525D01*
X157781037Y-68272848D01*
X157786529Y-68270854D01*
X157786531Y-68270854D01*
X157854264Y-68246268D01*
X157940061Y-68215125D01*
X157944951Y-68211919D01*
X157944953Y-68211918D01*
X158076646Y-68125576D01*
X158076648Y-68125574D01*
X158081540Y-68122367D01*
X158197885Y-67999550D01*
X158282856Y-67853262D01*
X158331895Y-67691350D01*
X158336395Y-67618821D01*
X158342008Y-67528334D01*
X158342370Y-67522499D01*
X158333961Y-67473559D01*
X158314710Y-67361527D01*
X158314709Y-67361525D01*
X158313720Y-67355767D01*
X158272403Y-67258666D01*
X158249774Y-67205484D01*
X158249773Y-67205482D01*
X158247482Y-67200098D01*
X158240052Y-67190002D01*
X158150675Y-67068551D01*
X158150672Y-67068548D01*
X158147209Y-67063842D01*
X158121705Y-67042174D01*
X158022739Y-66958096D01*
X158022738Y-66958095D01*
X158018280Y-66954308D01*
X157997312Y-66943601D01*
X157872820Y-66880033D01*
X157872821Y-66880033D01*
X157867611Y-66877373D01*
X157861935Y-66875984D01*
X157861932Y-66875983D01*
X157757688Y-66850475D01*
X157703283Y-66837162D01*
X157698814Y-66836885D01*
X157698809Y-66836884D01*
X157694519Y-66836618D01*
X157692612Y-66836500D01*
X156520637Y-66836500D01*
X156517732Y-66836839D01*
X156517727Y-66836839D01*
X156400769Y-66850475D01*
X156400768Y-66850475D01*
X156394963Y-66851152D01*
X156389471Y-66853146D01*
X156389469Y-66853146D01*
X156327520Y-66875633D01*
X156235939Y-66908875D01*
X156231049Y-66912081D01*
X156231047Y-66912082D01*
X156099354Y-66998424D01*
X156099352Y-66998426D01*
X156094460Y-67001633D01*
X155978115Y-67124450D01*
X155975180Y-67129503D01*
X155913344Y-67235962D01*
X155893144Y-67270738D01*
X155879181Y-67316841D01*
X155858547Y-67384968D01*
X155844105Y-67432650D01*
X155843743Y-67438479D01*
X155843743Y-67438481D01*
X155834500Y-67587476D01*
X155833630Y-67601501D01*
X154108338Y-67601501D01*
X154108704Y-67531489D01*
X154108969Y-67480895D01*
X154085939Y-67384968D01*
X154070804Y-67321930D01*
X154069388Y-67316032D01*
X154063053Y-67303757D01*
X153994405Y-67170755D01*
X153991625Y-67165369D01*
X153986768Y-67159801D01*
X153884156Y-67042174D01*
X153884154Y-67042173D01*
X153880169Y-67037604D01*
X153873175Y-67032688D01*
X153746416Y-66943601D01*
X153741453Y-66940113D01*
X153735803Y-66937910D01*
X153735801Y-66937909D01*
X153589143Y-66880729D01*
X153589141Y-66880729D01*
X153583487Y-66878524D01*
X153454174Y-66861500D01*
X152365484Y-66861500D01*
X152286582Y-66871048D01*
X152245702Y-66875995D01*
X152245700Y-66875996D01*
X152239680Y-66876724D01*
X152234010Y-66878867D01*
X152234008Y-66878867D01*
X152086745Y-66934513D01*
X152086743Y-66934514D01*
X152081077Y-66936655D01*
X151941349Y-67032688D01*
X151828560Y-67159279D01*
X151825722Y-67164639D01*
X151778709Y-67253431D01*
X151749224Y-67309119D01*
X151707919Y-67473559D01*
X151707887Y-67479616D01*
X151707887Y-67479618D01*
X151707600Y-67534518D01*
X151707031Y-67643105D01*
X150495500Y-67643105D01*
X150495500Y-62992000D01*
X152556318Y-62992000D01*
X152576956Y-63148762D01*
X152637464Y-63294841D01*
X152733718Y-63420282D01*
X152859159Y-63516536D01*
X153005238Y-63577044D01*
X153011774Y-63577904D01*
X153011776Y-63577905D01*
X153155460Y-63596821D01*
X153162000Y-63597682D01*
X153168540Y-63596821D01*
X153312224Y-63577905D01*
X153312226Y-63577904D01*
X153318762Y-63577044D01*
X153464841Y-63516536D01*
X153590282Y-63420282D01*
X153638948Y-63356859D01*
X153690187Y-63321643D01*
X153718759Y-63317500D01*
X155017504Y-63317500D01*
X155076635Y-63336713D01*
X155088639Y-63346965D01*
X155586149Y-63844475D01*
X155614375Y-63899873D01*
X155614753Y-63928738D01*
X155604318Y-64008000D01*
X155605179Y-64014540D01*
X155614753Y-64087259D01*
X155624956Y-64164762D01*
X155685464Y-64310841D01*
X155781718Y-64436282D01*
X155907159Y-64532536D01*
X156053238Y-64593044D01*
X156059774Y-64593904D01*
X156059776Y-64593905D01*
X156203460Y-64612821D01*
X156210000Y-64613682D01*
X156289261Y-64603247D01*
X156350392Y-64614577D01*
X156373525Y-64631851D01*
X156672683Y-64931009D01*
X156678612Y-64937480D01*
X156697888Y-64960453D01*
X156697890Y-64960455D01*
X156703545Y-64967194D01*
X156711165Y-64971593D01*
X156711167Y-64971595D01*
X156737143Y-64986592D01*
X156744545Y-64991308D01*
X156769105Y-65008505D01*
X156776316Y-65013554D01*
X156784817Y-65015832D01*
X156789970Y-65018235D01*
X156795331Y-65020186D01*
X156802955Y-65024588D01*
X156834045Y-65030070D01*
X156841147Y-65031322D01*
X156849716Y-65033222D01*
X156875568Y-65040149D01*
X156887193Y-65043264D01*
X156895960Y-65042497D01*
X156922800Y-65040149D01*
X156925840Y-65039883D01*
X156934607Y-65039500D01*
X161991241Y-65039500D01*
X162050372Y-65058713D01*
X162071052Y-65078859D01*
X162119718Y-65142282D01*
X162245159Y-65238536D01*
X162391238Y-65299044D01*
X162397774Y-65299904D01*
X162397776Y-65299905D01*
X162541460Y-65318821D01*
X162548000Y-65319682D01*
X162554540Y-65318821D01*
X162698224Y-65299905D01*
X162698226Y-65299904D01*
X162704762Y-65299044D01*
X162850841Y-65238536D01*
X162976282Y-65142282D01*
X163072536Y-65016841D01*
X163133044Y-64870762D01*
X163153682Y-64714000D01*
X163139101Y-64603247D01*
X163133905Y-64563776D01*
X163133904Y-64563774D01*
X163133044Y-64557238D01*
X163072536Y-64411159D01*
X162976282Y-64285718D01*
X162850841Y-64189464D01*
X162704762Y-64128956D01*
X162698226Y-64128096D01*
X162698224Y-64128095D01*
X162554540Y-64109179D01*
X162548000Y-64108318D01*
X162541460Y-64109179D01*
X162397776Y-64128095D01*
X162397774Y-64128096D01*
X162391238Y-64128956D01*
X162245159Y-64189464D01*
X162119718Y-64285718D01*
X162115701Y-64290953D01*
X162071052Y-64349141D01*
X162019813Y-64384357D01*
X161991241Y-64388500D01*
X157092496Y-64388500D01*
X157033365Y-64369287D01*
X157021361Y-64359035D01*
X156833851Y-64171525D01*
X156805625Y-64116127D01*
X156805247Y-64087262D01*
X156815682Y-64008000D01*
X156805288Y-63929050D01*
X156795905Y-63857776D01*
X156795904Y-63857774D01*
X156795044Y-63851238D01*
X156734536Y-63705159D01*
X156638282Y-63579718D01*
X156512841Y-63483464D01*
X156366762Y-63422956D01*
X156360226Y-63422096D01*
X156360224Y-63422095D01*
X156216540Y-63403179D01*
X156210000Y-63402318D01*
X156130739Y-63412753D01*
X156069608Y-63401423D01*
X156046475Y-63384149D01*
X155639588Y-62977262D01*
X157948520Y-62977262D01*
X157965759Y-63182553D01*
X157996209Y-63288745D01*
X158009964Y-63336713D01*
X158022544Y-63380586D01*
X158116712Y-63563818D01*
X158119765Y-63567670D01*
X158119767Y-63567673D01*
X158148715Y-63604196D01*
X158244677Y-63725270D01*
X158401564Y-63858791D01*
X158581398Y-63959297D01*
X158586079Y-63960818D01*
X158772649Y-64021439D01*
X158772655Y-64021440D01*
X158777329Y-64022959D01*
X158782211Y-64023541D01*
X158782215Y-64023542D01*
X158957937Y-64044494D01*
X158981894Y-64047351D01*
X158986795Y-64046974D01*
X158986798Y-64046974D01*
X159097112Y-64038486D01*
X159187300Y-64031546D01*
X159192036Y-64030224D01*
X159192040Y-64030223D01*
X159380983Y-63977469D01*
X159385725Y-63976145D01*
X159569610Y-63883258D01*
X159731951Y-63756424D01*
X159866564Y-63600472D01*
X159968323Y-63421344D01*
X160033351Y-63225863D01*
X160033967Y-63220988D01*
X160033968Y-63220983D01*
X160058819Y-63024257D01*
X160059171Y-63021474D01*
X160059583Y-62992000D01*
X160058138Y-62977262D01*
X160488520Y-62977262D01*
X160505759Y-63182553D01*
X160536209Y-63288745D01*
X160549964Y-63336713D01*
X160562544Y-63380586D01*
X160656712Y-63563818D01*
X160659765Y-63567670D01*
X160659767Y-63567673D01*
X160688715Y-63604196D01*
X160784677Y-63725270D01*
X160941564Y-63858791D01*
X161121398Y-63959297D01*
X161126079Y-63960818D01*
X161312649Y-64021439D01*
X161312655Y-64021440D01*
X161317329Y-64022959D01*
X161322211Y-64023541D01*
X161322215Y-64023542D01*
X161497937Y-64044494D01*
X161521894Y-64047351D01*
X161526795Y-64046974D01*
X161526798Y-64046974D01*
X161637112Y-64038486D01*
X161727300Y-64031546D01*
X161732036Y-64030224D01*
X161732040Y-64030223D01*
X161920983Y-63977469D01*
X161925725Y-63976145D01*
X162109610Y-63883258D01*
X162271951Y-63756424D01*
X162406564Y-63600472D01*
X162508323Y-63421344D01*
X162573351Y-63225863D01*
X162573967Y-63220988D01*
X162573968Y-63220983D01*
X162598819Y-63024257D01*
X162599171Y-63021474D01*
X162599583Y-62992000D01*
X162579480Y-62786970D01*
X162578058Y-62782260D01*
X162578057Y-62782255D01*
X162521357Y-62594460D01*
X162519935Y-62589749D01*
X162423218Y-62407849D01*
X162293011Y-62248200D01*
X162237942Y-62202643D01*
X162138063Y-62120015D01*
X162138058Y-62120012D01*
X162134275Y-62116882D01*
X162114978Y-62106448D01*
X161957378Y-62021234D01*
X161957374Y-62021232D01*
X161953055Y-62018897D01*
X161756254Y-61957977D01*
X161551369Y-61936443D01*
X161546468Y-61936889D01*
X161546465Y-61936889D01*
X161351101Y-61954668D01*
X161351098Y-61954668D01*
X161346203Y-61955114D01*
X161341489Y-61956501D01*
X161341486Y-61956502D01*
X161183484Y-62003005D01*
X161148572Y-62013280D01*
X161144212Y-62015559D01*
X161144208Y-62015561D01*
X161042149Y-62068917D01*
X160966002Y-62108726D01*
X160805447Y-62237815D01*
X160673024Y-62395630D01*
X160670657Y-62399936D01*
X160670654Y-62399940D01*
X160607933Y-62514030D01*
X160573776Y-62576162D01*
X160511484Y-62772532D01*
X160510935Y-62777423D01*
X160510935Y-62777425D01*
X160509865Y-62786970D01*
X160488520Y-62977262D01*
X160058138Y-62977262D01*
X160039480Y-62786970D01*
X160038058Y-62782260D01*
X160038057Y-62782255D01*
X159981357Y-62594460D01*
X159979935Y-62589749D01*
X159883218Y-62407849D01*
X159753011Y-62248200D01*
X159697942Y-62202643D01*
X159598063Y-62120015D01*
X159598058Y-62120012D01*
X159594275Y-62116882D01*
X159574978Y-62106448D01*
X159417378Y-62021234D01*
X159417374Y-62021232D01*
X159413055Y-62018897D01*
X159216254Y-61957977D01*
X159011369Y-61936443D01*
X159006468Y-61936889D01*
X159006465Y-61936889D01*
X158811101Y-61954668D01*
X158811098Y-61954668D01*
X158806203Y-61955114D01*
X158801489Y-61956501D01*
X158801486Y-61956502D01*
X158643484Y-62003005D01*
X158608572Y-62013280D01*
X158604212Y-62015559D01*
X158604208Y-62015561D01*
X158502149Y-62068917D01*
X158426002Y-62108726D01*
X158265447Y-62237815D01*
X158133024Y-62395630D01*
X158130657Y-62399936D01*
X158130654Y-62399940D01*
X158067933Y-62514030D01*
X158033776Y-62576162D01*
X157971484Y-62772532D01*
X157970935Y-62777423D01*
X157970935Y-62777425D01*
X157969865Y-62786970D01*
X157948520Y-62977262D01*
X155639588Y-62977262D01*
X155437317Y-62774991D01*
X155431388Y-62768520D01*
X155412112Y-62745547D01*
X155412110Y-62745545D01*
X155406455Y-62738806D01*
X155398835Y-62734407D01*
X155398833Y-62734405D01*
X155372857Y-62719408D01*
X155365455Y-62714692D01*
X155340895Y-62697495D01*
X155340894Y-62697494D01*
X155333684Y-62692446D01*
X155325183Y-62690168D01*
X155320030Y-62687765D01*
X155314669Y-62685814D01*
X155307045Y-62681412D01*
X155275955Y-62675930D01*
X155268853Y-62674678D01*
X155260284Y-62672778D01*
X155231308Y-62665014D01*
X155222807Y-62662736D01*
X155214040Y-62663503D01*
X155184164Y-62666117D01*
X155175396Y-62666500D01*
X153718759Y-62666500D01*
X153659628Y-62647287D01*
X153638948Y-62627141D01*
X153594299Y-62568953D01*
X153590282Y-62563718D01*
X153464841Y-62467464D01*
X153318762Y-62406956D01*
X153312226Y-62406096D01*
X153312224Y-62406095D01*
X153168540Y-62387179D01*
X153162000Y-62386318D01*
X153155460Y-62387179D01*
X153011776Y-62406095D01*
X153011774Y-62406096D01*
X153005238Y-62406956D01*
X152859159Y-62467464D01*
X152733718Y-62563718D01*
X152637464Y-62689159D01*
X152576956Y-62835238D01*
X152556318Y-62992000D01*
X150495500Y-62992000D01*
X150495500Y-62514030D01*
X150496570Y-62505902D01*
X150496570Y-62496794D01*
X150499998Y-62484000D01*
X150496756Y-62471901D01*
X150496953Y-62467390D01*
X150512090Y-62294375D01*
X150515135Y-62277106D01*
X150557227Y-62120015D01*
X150562123Y-62101742D01*
X150568120Y-62085267D01*
X150644847Y-61920727D01*
X150653614Y-61905541D01*
X150757747Y-61756823D01*
X150769019Y-61743390D01*
X150897390Y-61615019D01*
X150910823Y-61603747D01*
X151059541Y-61499614D01*
X151074727Y-61490847D01*
X151239267Y-61414120D01*
X151255742Y-61408123D01*
X151375994Y-61375902D01*
X151431106Y-61361135D01*
X151448375Y-61358090D01*
X151621390Y-61342953D01*
X151625901Y-61342756D01*
X151638000Y-61345998D01*
X151650794Y-61342570D01*
X151659902Y-61342570D01*
X151668030Y-61341500D01*
X189627400Y-61341500D01*
X189686531Y-61360713D01*
G37*
%TD.AperFunction*%
%TD*%
M02*
